<svg width="349" height="57" viewBox="0 0 349 57" fill="none" xmlns="http://www.w3.org/2000/svg">
<path d="M2.84748 2.49998L18.3475 39.59L33.8475 2.49998C34.0375 2.03998 34.4875 1.73998 34.9875 1.73998H35.4675C36.3475 1.73998 36.9475 2.63998 36.6075 3.45998L20.0875 42.69C19.9175 43.09 19.5375 43.34 19.1075 43.34H17.7675C17.2675 43.34 16.8175 43.04 16.6275 42.58L0.0974832 3.44998C-0.242517 2.62998 0.347483 1.72998 1.23748 1.72998H1.70748C2.20748 1.72998 2.65748 2.02998 2.84748 2.48998V2.49998Z" fill="white"/>
<path d="M42.8475 3.4V2.99C42.8475 2.31 43.3975 1.75 44.0875 1.75H44.5475C45.2275 1.75 45.7875 2.3 45.7875 2.99V3.4C45.7875 4.08 45.2375 4.64 44.5475 4.64H44.0875C43.4075 4.64 42.8475 4.09 42.8475 3.4ZM42.9875 42.14L42.8475 8.8C42.8475 8.11 43.3975 7.56 44.0875 7.56H44.5475C45.2275 7.56 45.7775 8.11 45.7875 8.79L45.9275 42.13C45.9275 42.82 45.3775 43.37 44.6875 43.37H44.2275C43.5475 43.37 42.9975 42.82 42.9875 42.14Z" fill="white"/>
<path d="M124.688 0H125.198C125.878 0 126.438 0.55 126.438 1.24V36.96C126.438 38.37 126.728 39.35 127.318 39.88C127.908 40.41 128.667 40.68 129.607 40.68C130.227 40.68 130.878 40.62 131.538 40.5C131.748 40.46 131.958 40.42 132.158 40.37C132.808 40.22 133.447 40.64 133.607 41.29C133.767 41.95 133.368 42.61 132.698 42.79C132.308 42.89 131.877 42.99 131.417 43.08C130.437 43.27 129.598 43.37 128.898 43.37C127.258 43.37 125.938 42.87 124.938 41.87C123.938 40.87 123.448 39.52 123.448 37.83V1.24C123.448 0.56 123.998 0 124.688 0Z" fill="white"/>
<path d="M139.727 56.3601C139.667 56.3401 139.607 56.3301 139.557 56.3101Z" fill="white"/>
<path d="M162.577 14.6402L146.597 52.9602C146.357 53.5802 146.037 54.1402 145.627 54.6202C145.217 55.1102 144.717 55.5002 144.127 55.7902C143.547 56.0902 142.837 56.2502 142.017 56.2902C141.667 56.3302 141.297 56.3602 140.907 56.3802C140.617 56.4002 140.287 56.3902 139.917 56.3702C139.847 56.3702 139.787 56.3602 139.727 56.3602C139.667 56.3402 139.607 56.3302 139.557 56.3102C138.977 56.1602 138.557 55.6402 138.557 55.0202C138.557 54.4002 138.977 53.8702 139.557 53.7202C139.647 53.6802 139.737 53.6702 139.837 53.6702C139.917 53.6802 139.997 53.6802 140.077 53.6802C140.497 53.6902 140.877 53.6902 141.227 53.6802C141.717 53.6602 142.077 53.5802 142.317 53.4202C142.667 53.3002 143.027 53.0002 143.397 52.5102C143.767 52.0302 144.267 51.0702 144.887 49.6502C145.517 48.2202 146.397 46.1302 147.527 43.3602L134.717 14.6702C134.347 13.8502 134.947 12.9302 135.847 12.9302H136.237C136.727 12.9302 137.167 13.2202 137.367 13.6702L149.107 40.2602L159.987 13.7002C160.177 13.2302 160.627 12.9302 161.137 12.9302H161.437C162.317 12.9302 162.917 13.8302 162.577 14.6402Z" fill="white"/>
<path d="M202.257 12.0202C200.737 8.88023 198.447 6.38023 195.397 4.52023C192.357 2.67023 188.567 1.74023 184.037 1.74023H170.347C169.557 1.74023 168.917 2.38023 168.917 3.17023V8.83023H184.037C186.647 8.83023 188.877 9.41023 190.717 10.5602C191.627 11.1402 192.447 11.8202 193.147 12.6202C193.847 13.4202 194.447 14.3402 194.938 15.3602C195.908 17.4102 196.397 19.7902 196.397 22.4802C196.397 25.1702 195.917 27.4502 194.967 29.5402C194.007 31.6302 192.607 33.2702 190.777 34.4602C188.937 35.6602 186.687 36.2502 184.037 36.2502H178.427C177.637 36.2502 177.007 35.6102 177.007 34.8202V12.9302H168.917V41.9202C168.917 42.7002 169.557 43.3402 170.347 43.3402H184.037C188.217 43.3402 191.838 42.4802 194.908 40.7602C197.968 39.0502 200.347 36.6202 202.027 33.5002C203.707 30.3702 204.547 26.7002 204.547 22.4802C204.547 18.6502 203.777 15.1702 202.257 12.0202Z" fill="white"/>
<path d="M216.408 0.569824H211.418C210.628 0.569824 209.988 1.21006 209.988 1.99982V6.92982C209.988 7.71959 210.628 8.35982 211.418 8.35982H216.408C217.197 8.35982 217.838 7.71959 217.838 6.92982V1.99982C217.838 1.21006 217.197 0.569824 216.408 0.569824Z" fill="#E81E25"/>
<path d="M216.408 12.6401H211.418C210.628 12.6401 209.988 13.2804 209.988 14.0701V41.9101C209.988 42.6999 210.628 43.3401 211.418 43.3401H216.408C217.197 43.3401 217.838 42.6999 217.838 41.9101V14.0701C217.838 13.2804 217.197 12.6401 216.408 12.6401Z" fill="white"/>
<path d="M236.947 43.93C234.917 43.93 233.047 43.53 231.347 42.73C229.647 41.93 228.187 40.8 226.957 39.35C225.727 37.9 224.777 36.24 224.117 34.36C223.447 32.48 223.117 30.48 223.117 28.37C223.117 26.14 223.467 24.07 224.167 22.15C224.867 20.23 225.857 18.54 227.127 17.07C228.397 15.6 229.897 14.47 231.637 13.66C233.377 12.86 235.297 12.46 237.407 12.46C239.787 12.46 241.877 12.99 243.677 14.04C245.477 15.09 246.957 16.52 248.127 18.32V14.6C248.127 13.68 248.877 12.93 249.797 12.93H253.557C254.347 12.93 254.987 13.57 254.987 14.36V41.98C254.987 45.01 254.257 47.6 252.787 49.75C251.327 51.9 249.297 53.55 246.727 54.7C244.147 55.84 241.217 56.42 237.937 56.42C234.657 56.42 231.807 55.86 229.497 54.75C227.617 53.84 225.957 52.63 224.517 51.11C223.977 50.54 223.987 49.64 224.547 49.09L226.557 47.13C227.357 46.35 228.237 46.36 228.787 46.9C229.777 47.87 230.937 48.66 232.277 49.27C234.057 50.09 235.937 50.5 237.937 50.5C239.617 50.5 241.147 50.21 242.537 49.65C243.927 49.08 245.037 48.2 245.877 47C246.717 45.8 247.137 44.24 247.137 42.3V38.43C246.117 40.19 244.687 41.55 242.827 42.5C240.967 43.46 239.007 43.94 236.937 43.94L236.947 43.93ZM239.577 37.66C240.437 37.66 241.257 37.52 242.037 37.25C242.817 36.98 243.537 36.6 244.207 36.13C244.867 35.66 245.457 35.1 245.967 34.45C246.397 33.9 246.747 33.34 247.017 32.77C247.107 32.58 247.147 32.37 247.147 32.16V25.42C247.147 25.23 247.107 25.03 247.037 24.85C246.577 23.75 245.957 22.78 245.187 21.95C244.347 21.05 243.407 20.35 242.377 19.86C241.337 19.37 240.257 19.12 239.127 19.12C237.917 19.12 236.817 19.38 235.847 19.88C234.867 20.39 234.027 21.1 233.327 22.03C232.627 22.96 232.087 23.97 231.717 25.09C231.347 26.21 231.157 27.37 231.157 28.59C231.157 29.81 231.367 31.02 231.797 32.12C232.227 33.22 232.827 34.18 233.587 35C234.347 35.82 235.247 36.47 236.287 36.94C237.317 37.41 238.427 37.65 239.597 37.65L239.577 37.66Z" fill="white"/>
<path d="M262.078 6.93006V1.99006C262.078 1.20006 262.718 0.560059 263.508 0.560059H268.508C269.298 0.560059 269.938 1.20006 269.938 1.99006V6.93006C269.938 7.72006 269.298 8.36006 268.508 8.36006H263.508C262.718 8.36006 262.078 7.72006 262.078 6.93006ZM262.078 41.9201V14.0701C262.078 13.2801 262.718 12.6401 263.508 12.6401H268.508C269.298 12.6401 269.938 13.2801 269.938 14.0701V41.9201C269.938 42.7101 269.298 43.3501 268.508 43.3501H263.508C262.718 43.3501 262.078 42.7101 262.078 41.9201Z" fill="white"/>
<path d="M295.058 40.4002C295.268 41.2202 294.838 42.0702 294.048 42.3702C293.728 42.4902 293.388 42.6202 293.018 42.7602C292.078 43.1102 291.078 43.3902 289.998 43.6102C288.918 43.8202 287.838 43.9302 286.748 43.9302C285.298 43.9302 283.978 43.6802 282.758 43.1802C281.548 42.6802 280.578 41.8702 279.858 40.7702C279.138 39.6702 278.778 38.2302 278.778 36.4502V18.9802H276.408C275.488 18.9802 274.738 18.2302 274.738 17.3102V14.6202C274.738 13.7002 275.488 12.9502 276.408 12.9502H278.778V4.66023C278.778 3.74023 279.528 2.99023 280.448 2.99023H284.958C285.878 2.99023 286.628 3.74023 286.628 4.66023V12.9502H291.398C292.318 12.9502 293.068 13.7002 293.068 14.6202V17.3102C293.068 18.2302 292.318 18.9802 291.398 18.9802H286.628V33.7902C286.668 34.8302 286.958 35.5802 287.508 36.0402C288.058 36.5002 288.738 36.7302 289.558 36.7302C290.378 36.7302 291.178 36.5902 291.958 36.3202C292.018 36.3002 292.068 36.2802 292.118 36.2602C293.048 35.9302 294.048 36.4702 294.288 37.4202L295.048 40.4002H295.058Z" fill="white"/>
<path d="M297.417 34.3802C297.417 32.4102 297.977 30.6802 299.087 29.2002C300.197 27.7102 301.757 26.5702 303.747 25.7502C305.737 24.9402 308.027 24.5302 310.607 24.5302C311.897 24.5302 313.207 24.6302 314.537 24.8202C315.867 25.0202 317.017 25.3302 317.997 25.7602V24.1302C317.997 22.2102 317.417 20.7402 316.267 19.7002C315.117 18.6602 313.407 18.1502 311.137 18.1502C309.457 18.1502 307.857 18.4402 306.327 19.0302C305.277 19.4302 304.187 19.9702 303.067 20.6302C302.227 21.1302 301.137 20.8102 300.707 19.9302L299.677 17.8102C299.287 17.0202 299.587 16.0602 300.357 15.6102C301.957 14.6902 303.587 13.9702 305.247 13.4502C307.377 12.7902 309.617 12.4502 311.957 12.4502C316.327 12.4502 319.737 13.5302 322.177 15.6902C324.617 17.8502 325.837 20.9302 325.837 24.9302V34.5802C325.837 35.3902 325.987 35.9702 326.277 36.3102C326.397 36.4502 326.537 36.5702 326.717 36.6602C327.297 36.9702 327.707 37.5302 327.707 38.1902V41.9002C327.707 42.7302 327.097 43.4302 326.267 43.5602C326.107 43.5802 325.947 43.6102 325.797 43.6302C325.227 43.7102 324.747 43.7502 324.357 43.7502C322.797 43.7502 321.607 43.4002 320.817 42.7002C320.017 42.0002 319.517 41.1402 319.327 40.1202L319.147 38.5402C317.817 40.2602 316.157 41.5902 314.167 42.5202C312.177 43.4502 310.147 43.9302 308.077 43.9302C306.007 43.9302 304.217 43.5102 302.597 42.6902C300.977 41.8602 299.707 40.7202 298.787 39.2702C297.867 37.8202 297.407 36.1902 297.407 34.3802H297.417ZM316.517 35.9002C316.947 35.4402 317.297 34.9902 317.567 34.5302C317.837 34.0702 317.977 33.6502 317.977 33.2702V30.2402C317.037 29.8602 316.027 29.5602 314.927 29.3502C313.837 29.1402 312.797 29.0402 311.817 29.0402C309.787 29.0402 308.117 29.4702 306.807 30.3302C305.497 31.1902 304.847 32.3202 304.847 33.7302C304.847 34.4902 305.057 35.2202 305.487 35.9002C305.917 36.5902 306.537 37.1402 307.367 37.5602C308.187 37.9802 309.167 38.1902 310.297 38.1902C311.427 38.1902 312.617 37.9702 313.757 37.5302C314.887 37.0902 315.807 36.5502 316.507 35.9002H316.517Z" fill="white"/>
<path d="M334.768 0.569824H339.278C340.198 0.569824 340.948 1.31982 340.948 2.23982V33.5998C340.948 35.0098 341.178 35.9598 341.648 36.4498C342.118 36.9398 342.758 37.1798 343.578 37.1798C344.198 37.1798 344.848 37.0998 345.508 36.9498C345.508 36.9498 345.518 36.9498 345.528 36.9498C346.478 36.7198 347.428 37.3098 347.598 38.2698L348.078 41.0098C348.218 41.8098 347.768 42.6098 346.998 42.8798C346.268 43.1298 345.478 43.3398 344.618 43.5098C343.208 43.7798 341.938 43.9198 340.808 43.9198C338.348 43.9198 336.438 43.2598 335.098 41.9498C333.748 40.6398 333.078 38.7698 333.078 36.3398V2.23982C333.078 1.31982 333.828 0.569824 334.748 0.569824H334.768Z" fill="white"/>
<path d="M90.8175 29.1597V29.1997H119.018V29.1597H90.8175Z" fill="#0D1727"/>
<path d="M119.017 29.1598C119.057 28.7298 119.077 28.2998 119.077 27.8598C119.077 27.4198 119.057 26.9498 119.017 26.5098C118.327 18.5798 111.657 12.3398 103.557 12.3398C95.4575 12.3398 88.7975 18.5798 88.1075 26.5098C88.0675 26.9498 88.0475 27.3998 88.0475 27.8598C88.0475 28.3198 88.0675 28.7298 88.1075 29.1598V29.1998C88.1875 30.1098 88.3375 30.9898 88.5675 31.8498C90.3375 38.4798 96.3875 43.3698 103.557 43.3698C108.627 43.3698 113.127 40.9398 115.957 37.1698C116.567 36.3598 115.977 35.1898 114.957 35.1898H114.667C114.277 35.1898 113.917 35.3798 113.677 35.6898C111.337 38.7198 107.657 40.6698 103.547 40.6698C97.8775 40.6698 93.0575 36.9698 91.3775 31.8498C91.0975 30.9998 90.9075 30.1098 90.8075 29.1998V29.1598H119.007H119.017ZM103.557 15.0398C110.167 15.0398 115.627 20.0698 116.307 26.5098H90.8275C91.4975 20.0698 96.9575 15.0398 103.557 15.0398Z" fill="white"/>
<path d="M69.0475 12.3399C63.5875 12.2199 58.7375 14.9499 55.8875 19.1399V2.92994C55.8875 2.24994 55.3375 1.68994 54.6475 1.68994H54.4275C53.7475 1.68994 53.1875 2.23994 53.1875 2.92994V42.1399C53.1875 42.8199 53.7375 43.3799 54.4275 43.3799H54.6475C55.3275 43.3799 55.8875 42.8299 55.8875 42.1399V36.5799C58.6875 40.6799 63.3875 43.3799 68.7175 43.3799C77.5275 43.3799 84.6475 35.9999 84.2175 27.0999C83.8375 19.0599 77.1075 12.5099 69.0575 12.3399H69.0475ZM68.7075 40.6699C61.6375 40.6699 55.8875 34.9199 55.8875 27.8499C55.8875 20.7799 61.6375 15.0299 68.7075 15.0299C75.7775 15.0299 81.5275 20.7799 81.5275 27.8499C81.5275 34.9199 75.7775 40.6699 68.7075 40.6699Z" fill="white"/>
<path d="M140.078 53.6799C139.998 53.6799 139.918 53.6799 139.838 53.6699Z" fill="white"/>
</svg>
