<svg width="451" height="98" viewBox="0 0 451 98" fill="none" xmlns="http://www.w3.org/2000/svg">
<g clip-path="url(#clip0_77_226)">
<path d="M63.0909 48.7C63.0909 65.37 49.5709 78.89 32.9009 78.89C16.2309 78.89 2.71094 65.37 2.71094 48.7C2.71094 40.47 6.00094 33.01 11.3309 27.57L19.0309 37.65C19.7309 38.57 20.8009 39.06 21.8809 39.06C22.6409 39.06 23.4109 38.82 24.0509 38.32C25.6309 37.12 25.9309 34.87 24.7209 33.3L16.9209 23.07C21.5609 20.17 27.0309 18.5 32.9009 18.5C49.5809 18.5 63.0909 32.02 63.0909 48.7Z" fill="white"/>
<path d="M24.8509 33.3499C26.0509 34.9299 25.7509 37.1799 24.1809 38.3699C23.5409 38.8599 22.7709 39.1099 22.0109 39.1099C20.9409 39.1099 19.8709 38.6199 19.1609 37.6999L11.4609 27.6199C12.9009 26.1499 14.5109 24.7999 16.2909 23.6199C16.5409 23.4499 16.8009 23.2899 17.0609 23.1299L24.8609 33.3499H24.8509Z" fill="#FAB915"/>
<path d="M53.66 4.61974C36.27 -3.90026 13.8 -0.310262 0 12.7297L11.16 27.3397C12.82 25.5997 14.7 24.0897 16.74 22.8297C25.4 17.4897 36.91 16.6397 46.17 21.2697L54.88 5.20974C54.48 5.00974 54.08 4.80974 53.67 4.61974H53.66Z" fill="#FAB915"/>
<path d="M32.8791 54.8099C36.2425 54.8099 38.9691 52.0833 38.9691 48.7199C38.9691 45.3565 36.2425 42.6299 32.8791 42.6299C29.5156 42.6299 26.7891 45.3565 26.7891 48.7199C26.7891 52.0833 29.5156 54.8099 32.8791 54.8099Z" fill="#FAB915"/>
<path d="M81.5609 48.6594C82.1609 76.4894 56.2709 100.139 28.7109 97.2294V78.8694C38.2409 80.2094 48.2809 76.7094 54.8809 69.6894C58.2709 66.1294 60.7909 61.7694 62.1409 57.0094C62.6909 55.0594 63.0509 53.0394 63.2109 50.9994C63.4509 47.9294 63.2109 44.7794 62.5209 41.7794C61.0309 35.2794 57.3209 29.3194 52.1609 25.0994L60.9609 8.85938C73.7409 17.7794 81.6809 33.0694 81.5609 48.6594Z" fill="#FAB915"/>
<path d="M105.609 23.0298L121.109 60.1198L136.609 23.0298C136.799 22.5698 137.249 22.2698 137.749 22.2698H138.229C139.109 22.2698 139.709 23.1698 139.369 23.9898L122.849 63.2198C122.679 63.6198 122.299 63.8698 121.869 63.8698H120.529C120.029 63.8698 119.579 63.5698 119.389 63.1098L102.859 23.9798C102.519 23.1598 103.109 22.2598 103.999 22.2598H104.469C104.969 22.2598 105.419 22.5598 105.609 23.0198V23.0298Z" fill="white"/>
<path d="M145.609 23.9293V23.5193C145.609 22.8393 146.159 22.2793 146.849 22.2793H147.309C147.989 22.2793 148.549 22.8293 148.549 23.5193V23.9293C148.549 24.6093 147.999 25.1693 147.309 25.1693H146.849C146.169 25.1693 145.609 24.6193 145.609 23.9293ZM145.749 62.6693L145.609 29.3293C145.609 28.6393 146.159 28.0893 146.849 28.0893H147.309C147.989 28.0893 148.539 28.6393 148.549 29.3193L148.689 62.6593C148.689 63.3493 148.139 63.8993 147.449 63.8993H146.989C146.309 63.8993 145.759 63.3493 145.749 62.6693Z" fill="white"/>
<path d="M227.449 20.5293H227.959C228.639 20.5293 229.199 21.0793 229.199 21.7693V57.4893C229.199 58.8993 229.489 59.8793 230.079 60.4093C230.669 60.9393 231.429 61.2093 232.369 61.2093C232.989 61.2093 233.639 61.1493 234.299 61.0293C234.509 60.9893 234.719 60.9493 234.919 60.8993C235.569 60.7493 236.209 61.1693 236.369 61.8193C236.529 62.4793 236.129 63.1393 235.459 63.3193C235.069 63.4193 234.639 63.5193 234.179 63.6093C233.199 63.7993 232.359 63.8993 231.659 63.8993C230.019 63.8993 228.699 63.3993 227.699 62.3993C226.699 61.3993 226.209 60.0493 226.209 58.3593V21.7693C226.209 21.0893 226.759 20.5293 227.449 20.5293Z" fill="white"/>
<path d="M242.488 76.8889C242.428 76.8689 242.368 76.8589 242.318 76.8389Z" fill="white"/>
<path d="M265.338 35.169L249.358 73.489C249.118 74.109 248.798 74.669 248.388 75.149C247.978 75.639 247.478 76.029 246.888 76.319C246.308 76.619 245.598 76.779 244.778 76.819C244.428 76.859 244.058 76.889 243.668 76.909C243.378 76.929 243.048 76.919 242.678 76.899C242.608 76.899 242.548 76.889 242.488 76.889C242.428 76.869 242.368 76.859 242.318 76.839C241.738 76.689 241.318 76.169 241.318 75.549C241.318 74.929 241.738 74.399 242.318 74.249C242.408 74.209 242.498 74.199 242.598 74.199C242.678 74.209 242.758 74.209 242.838 74.209C243.258 74.219 243.638 74.219 243.988 74.209C244.478 74.189 244.838 74.109 245.078 73.949C245.428 73.829 245.788 73.529 246.158 73.039C246.528 72.559 247.028 71.599 247.648 70.179C248.278 68.749 249.158 66.659 250.288 63.889L237.478 35.199C237.108 34.379 237.708 33.459 238.608 33.459H238.998C239.488 33.459 239.928 33.749 240.128 34.199L251.868 60.789L262.748 34.229C262.938 33.759 263.388 33.459 263.898 33.459H264.198C265.078 33.459 265.678 34.359 265.338 35.169Z" fill="white"/>
<path d="M305.02 32.5495C303.5 29.4095 301.21 26.9095 298.16 25.0495C295.12 23.1995 291.33 22.2695 286.8 22.2695H273.11C272.32 22.2695 271.68 22.9095 271.68 23.6995V29.3595H286.8C289.41 29.3595 291.64 29.9395 293.48 31.0895C294.39 31.6695 295.21 32.3495 295.91 33.1495C296.61 33.9495 297.21 34.8695 297.7 35.8895C298.67 37.9395 299.16 40.3195 299.16 43.0095C299.16 45.6995 298.68 47.9795 297.73 50.0695C296.77 52.1595 295.37 53.7995 293.54 54.9895C291.7 56.1895 289.45 56.7795 286.8 56.7795H281.19C280.4 56.7795 279.77 56.1395 279.77 55.3495V33.4595H271.68V62.4495C271.68 63.2295 272.32 63.8695 273.11 63.8695H286.8C290.98 63.8695 294.6 63.0095 297.67 61.2895C300.73 59.5795 303.11 57.1495 304.79 54.0295C306.47 50.8995 307.31 47.2295 307.31 43.0095C307.31 39.1795 306.54 35.6995 305.02 32.5495Z" fill="white"/>
<path d="M319.17 21.0996H314.18C313.39 21.0996 312.75 21.7398 312.75 22.5296V27.4596C312.75 28.2494 313.39 28.8896 314.18 28.8896H319.17C319.96 28.8896 320.6 28.2494 320.6 27.4596V22.5296C320.6 21.7398 319.96 21.0996 319.17 21.0996Z" fill="#E81E25"/>
<path d="M319.17 33.1689H314.18C313.39 33.1689 312.75 33.8092 312.75 34.5989V62.4389C312.75 63.2287 313.39 63.8689 314.18 63.8689H319.17C319.96 63.8689 320.6 63.2287 320.6 62.4389V34.5989C320.6 33.8092 319.96 33.1689 319.17 33.1689Z" fill="white"/>
<path d="M339.709 64.4593C337.679 64.4593 335.809 64.0593 334.109 63.2593C332.409 62.4593 330.949 61.3293 329.719 59.8793C328.489 58.4293 327.539 56.7693 326.879 54.8893C326.209 53.0093 325.879 51.0093 325.879 48.8993C325.879 46.6693 326.229 44.5993 326.929 42.6793C327.629 40.7593 328.619 39.0693 329.889 37.5993C331.159 36.1293 332.659 34.9993 334.399 34.1893C336.139 33.3893 338.059 32.9893 340.169 32.9893C342.549 32.9893 344.639 33.5193 346.439 34.5693C348.239 35.6193 349.719 37.0493 350.889 38.8493V35.1293C350.889 34.2093 351.639 33.4593 352.559 33.4593H356.319C357.109 33.4593 357.749 34.0993 357.749 34.8893V62.5093C357.749 65.5393 357.019 68.1293 355.549 70.2793C354.089 72.4293 352.059 74.0793 349.489 75.2293C346.909 76.3693 343.979 76.9493 340.699 76.9493C337.419 76.9493 334.569 76.3893 332.259 75.2793C330.379 74.3693 328.719 73.1593 327.279 71.6393C326.739 71.0693 326.749 70.1693 327.309 69.6193L329.319 67.6593C330.119 66.8793 330.999 66.8893 331.549 67.4293C332.539 68.3993 333.699 69.1893 335.039 69.7993C336.819 70.6193 338.699 71.0293 340.699 71.0293C342.379 71.0293 343.909 70.7393 345.299 70.1793C346.689 69.6093 347.799 68.7293 348.639 67.5293C349.479 66.3293 349.899 64.7693 349.899 62.8293V58.9593C348.879 60.7193 347.449 62.0793 345.589 63.0293C343.729 63.9893 341.769 64.4693 339.699 64.4693L339.709 64.4593ZM342.339 58.1893C343.199 58.1893 344.019 58.0493 344.799 57.7793C345.579 57.5093 346.299 57.1293 346.969 56.6593C347.629 56.1893 348.219 55.6293 348.729 54.9793C349.159 54.4293 349.509 53.8693 349.779 53.2993C349.869 53.1093 349.909 52.8993 349.909 52.6893V45.9493C349.909 45.7593 349.869 45.5593 349.799 45.3793C349.339 44.2793 348.719 43.3093 347.949 42.4793C347.109 41.5793 346.169 40.8793 345.139 40.3893C344.099 39.8993 343.019 39.6493 341.889 39.6493C340.679 39.6493 339.579 39.9093 338.609 40.4093C337.629 40.9193 336.789 41.6293 336.089 42.5593C335.389 43.4893 334.849 44.4993 334.479 45.6193C334.109 46.7393 333.919 47.8993 333.919 49.1193C333.919 50.3393 334.129 51.5493 334.559 52.6493C334.989 53.7493 335.589 54.7093 336.349 55.5293C337.109 56.3493 338.009 56.9993 339.049 57.4693C340.079 57.9393 341.189 58.1793 342.359 58.1793L342.339 58.1893Z" fill="white"/>
<path d="M364.84 27.4589V22.5189C364.84 21.7289 365.48 21.0889 366.27 21.0889H371.27C372.06 21.0889 372.7 21.7289 372.7 22.5189V27.4589C372.7 28.2489 372.06 28.8889 371.27 28.8889H366.27C365.48 28.8889 364.84 28.2489 364.84 27.4589ZM364.84 62.4489V34.5989C364.84 33.8089 365.48 33.1689 366.27 33.1689H371.27C372.06 33.1689 372.7 33.8089 372.7 34.5989V62.4489C372.7 63.2389 372.06 63.8789 371.27 63.8789H366.27C365.48 63.8789 364.84 63.2389 364.84 62.4489Z" fill="white"/>
<path d="M397.82 60.9295C398.03 61.7495 397.6 62.5995 396.81 62.8995C396.49 63.0195 396.15 63.1495 395.78 63.2895C394.84 63.6395 393.84 63.9195 392.76 64.1395C391.68 64.3495 390.6 64.4595 389.51 64.4595C388.06 64.4595 386.74 64.2095 385.52 63.7095C384.31 63.2095 383.34 62.3995 382.62 61.2995C381.9 60.1995 381.54 58.7595 381.54 56.9795V39.5095H379.17C378.25 39.5095 377.5 38.7595 377.5 37.8395V35.1495C377.5 34.2295 378.25 33.4795 379.17 33.4795H381.54V25.1895C381.54 24.2695 382.29 23.5195 383.21 23.5195H387.72C388.64 23.5195 389.39 24.2695 389.39 25.1895V33.4795H394.16C395.08 33.4795 395.83 34.2295 395.83 35.1495V37.8395C395.83 38.7595 395.08 39.5095 394.16 39.5095H389.39V54.3195C389.43 55.3595 389.72 56.1095 390.27 56.5695C390.82 57.0295 391.5 57.2595 392.32 57.2595C393.14 57.2595 393.94 57.1195 394.72 56.8495C394.78 56.8295 394.83 56.8095 394.88 56.7895C395.81 56.4595 396.81 56.9995 397.05 57.9495L397.81 60.9295H397.82Z" fill="white"/>
<path d="M400.18 54.9095C400.18 52.9395 400.74 51.2095 401.85 49.7295C402.96 48.2395 404.52 47.0995 406.51 46.2795C408.5 45.4695 410.79 45.0595 413.37 45.0595C414.66 45.0595 415.97 45.1595 417.3 45.3495C418.63 45.5495 419.78 45.8595 420.76 46.2895V44.6595C420.76 42.7395 420.18 41.2695 419.03 40.2295C417.88 39.1895 416.17 38.6795 413.9 38.6795C412.22 38.6795 410.62 38.9695 409.09 39.5595C408.04 39.9595 406.95 40.4995 405.83 41.1595C404.99 41.6595 403.9 41.3395 403.47 40.4595L402.44 38.3395C402.05 37.5495 402.35 36.5895 403.12 36.1395C404.72 35.2195 406.35 34.4995 408.01 33.9795C410.14 33.3195 412.38 32.9795 414.72 32.9795C419.09 32.9795 422.5 34.0595 424.94 36.2195C427.38 38.3795 428.6 41.4595 428.6 45.4595V55.1095C428.6 55.9195 428.75 56.4995 429.04 56.8395C429.16 56.9795 429.3 57.0995 429.48 57.1895C430.06 57.4995 430.47 58.0595 430.47 58.7195V62.4295C430.47 63.2595 429.86 63.9595 429.03 64.0895C428.87 64.1095 428.71 64.1395 428.56 64.1595C427.99 64.2395 427.51 64.2795 427.12 64.2795C425.56 64.2795 424.37 63.9295 423.58 63.2295C422.78 62.5295 422.28 61.6695 422.09 60.6495L421.91 59.0695C420.58 60.7895 418.92 62.1195 416.93 63.0495C414.94 63.9795 412.91 64.4595 410.84 64.4595C408.77 64.4595 406.98 64.0395 405.36 63.2195C403.74 62.3895 402.47 61.2495 401.55 59.7995C400.63 58.3495 400.17 56.7195 400.17 54.9095H400.18ZM419.28 56.4295C419.71 55.9695 420.06 55.5195 420.33 55.0595C420.6 54.5995 420.74 54.1795 420.74 53.7995V50.7695C419.8 50.3895 418.79 50.0895 417.69 49.8795C416.6 49.6695 415.56 49.5695 414.58 49.5695C412.55 49.5695 410.88 49.9995 409.57 50.8595C408.26 51.7195 407.61 52.8495 407.61 54.2595C407.61 55.0195 407.82 55.7495 408.25 56.4295C408.68 57.1195 409.3 57.6695 410.13 58.0895C410.95 58.5095 411.93 58.7195 413.06 58.7195C414.19 58.7195 415.38 58.4995 416.52 58.0595C417.65 57.6195 418.57 57.0795 419.27 56.4295H419.28Z" fill="white"/>
<path d="M437.53 21.0996H442.04C442.96 21.0996 443.71 21.8496 443.71 22.7696V54.1296C443.71 55.5396 443.94 56.4896 444.41 56.9796C444.88 57.4696 445.52 57.7096 446.34 57.7096C446.96 57.7096 447.61 57.6296 448.27 57.4796C448.27 57.4796 448.28 57.4796 448.29 57.4796C449.24 57.2496 450.19 57.8396 450.36 58.7996L450.84 61.5396C450.98 62.3396 450.53 63.1396 449.76 63.4096C449.03 63.6596 448.24 63.8696 447.38 64.0396C445.97 64.3096 444.7 64.4496 443.57 64.4496C441.11 64.4496 439.2 63.7896 437.86 62.4796C436.51 61.1696 435.84 59.2996 435.84 56.8696V22.7696C435.84 21.8496 436.59 21.0996 437.51 21.0996H437.53Z" fill="white"/>
<path d="M193.578 49.6895V49.7295H221.778V49.6895H193.578Z" fill="#0D1727"/>
<path d="M221.779 49.6891C221.819 49.2591 221.839 48.8291 221.839 48.3891C221.839 47.9491 221.819 47.4791 221.779 47.0391C221.089 39.1091 214.419 32.8691 206.319 32.8691C198.219 32.8691 191.559 39.1091 190.869 47.0391C190.829 47.4791 190.809 47.9291 190.809 48.3891C190.809 48.8491 190.829 49.2591 190.869 49.6891V49.7291C190.949 50.6391 191.099 51.5191 191.329 52.3791C193.099 59.0091 199.149 63.8991 206.319 63.8991C211.389 63.8991 215.889 61.4691 218.719 57.6991C219.329 56.8891 218.739 55.7191 217.719 55.7191H217.429C217.039 55.7191 216.679 55.9091 216.439 56.2191C214.099 59.2491 210.419 61.1991 206.309 61.1991C200.639 61.1991 195.819 57.4991 194.139 52.3791C193.859 51.5291 193.669 50.6391 193.569 49.7291V49.6891H221.769H221.779ZM206.319 35.5691C212.929 35.5691 218.389 40.5991 219.069 47.0391H193.589C194.259 40.5991 199.719 35.5691 206.319 35.5691Z" fill="white"/>
<path d="M171.809 32.8697C166.349 32.7497 161.499 35.4797 158.649 39.6697V23.4597C158.649 22.7797 158.099 22.2197 157.409 22.2197H157.189C156.509 22.2197 155.949 22.7697 155.949 23.4597V62.6697C155.949 63.3497 156.499 63.9097 157.189 63.9097H157.409C158.089 63.9097 158.649 63.3597 158.649 62.6697V57.1097C161.449 61.2097 166.149 63.9097 171.479 63.9097C180.289 63.9097 187.409 56.5297 186.979 47.6297C186.599 39.5897 179.869 33.0397 171.819 32.8697H171.809ZM171.469 61.1997C164.399 61.1997 158.649 55.4497 158.649 48.3797C158.649 41.3097 164.399 35.5597 171.469 35.5597C178.539 35.5597 184.289 41.3097 184.289 48.3797C184.289 55.4497 178.539 61.1997 171.469 61.1997Z" fill="white"/>
<path d="M242.84 74.2092C242.76 74.2092 242.68 74.2092 242.6 74.1992Z" fill="white"/>
</g>
<defs>
<clipPath id="clip0_77_226">
<rect width="450.89" height="97.47" fill="white"/>
</clipPath>
</defs>
</svg>
