<svg width="451" height="98" viewBox="0 0 451 98" fill="none" xmlns="http://www.w3.org/2000/svg">
<g clip-path="url(#clip0_77_254)">
<path d="M63.0909 48.7C63.0909 65.37 49.5709 78.89 32.9009 78.89C16.2309 78.89 2.71094 65.37 2.71094 48.7C2.71094 40.47 6.00094 33.01 11.3309 27.57L19.0309 37.65C19.7309 38.57 20.8009 39.06 21.8809 39.06C22.6409 39.06 23.4109 38.82 24.0509 38.32C25.6309 37.12 25.9309 34.87 24.7209 33.3L16.9209 23.07C21.5609 20.17 27.0309 18.5 32.9009 18.5C49.5809 18.5 63.0909 32.02 63.0909 48.7Z" fill="#0D1727"/>
<path d="M24.8509 33.3504C26.0509 34.9304 25.7509 37.1804 24.1809 38.3704C23.5409 38.8604 22.7709 39.1104 22.0109 39.1104C20.9409 39.1104 19.8709 38.6204 19.1609 37.7004L11.4609 27.6204C12.9009 26.1504 14.5109 24.8004 16.2909 23.6204C16.5409 23.4504 16.8009 23.2904 17.0609 23.1304L24.8609 33.3504H24.8509Z" fill="#FAB915"/>
<path d="M53.66 4.62023C36.27 -3.89977 13.8 -0.309773 0 12.7302L11.16 27.3402C12.82 25.6002 14.7 24.0902 16.74 22.8302C25.4 17.4902 36.91 16.6402 46.17 21.2702L54.88 5.21023C54.48 5.01023 54.08 4.81023 53.67 4.62023H53.66Z" fill="#FAB915"/>
<path d="M32.8791 54.8104C36.2425 54.8104 38.9691 52.0838 38.9691 48.7204C38.9691 45.357 36.2425 42.6304 32.8791 42.6304C29.5156 42.6304 26.7891 45.357 26.7891 48.7204C26.7891 52.0838 29.5156 54.8104 32.8791 54.8104Z" fill="#FAB915"/>
<path d="M81.5609 48.6604C82.1609 76.4904 56.2709 100.14 28.7109 97.2304V78.8704C38.2409 80.2104 48.2809 76.7104 54.8809 69.6904C58.2709 66.1304 60.7909 61.7703 62.1409 57.0103C62.6909 55.0603 63.0509 53.0404 63.2109 51.0004C63.4509 47.9304 63.2109 44.7803 62.5209 41.7803C61.0309 35.2803 57.3209 29.3204 52.1609 25.1004L60.9609 8.86035C73.7409 17.7804 81.6809 33.0704 81.5609 48.6604Z" fill="#FAB915"/>
<path d="M105.609 23.0303L121.109 60.1203L136.609 23.0303C136.799 22.5703 137.249 22.2703 137.749 22.2703H138.229C139.109 22.2703 139.709 23.1703 139.369 23.9903L122.849 63.2203C122.679 63.6203 122.299 63.8703 121.869 63.8703H120.529C120.029 63.8703 119.579 63.5703 119.389 63.1103L102.859 23.9803C102.519 23.1603 103.109 22.2603 103.999 22.2603H104.469C104.969 22.2603 105.419 22.5603 105.609 23.0203V23.0303Z" fill="#0D1727"/>
<path d="M145.609 23.9303V23.5203C145.609 22.8403 146.159 22.2803 146.849 22.2803H147.309C147.989 22.2803 148.549 22.8303 148.549 23.5203V23.9303C148.549 24.6103 147.999 25.1703 147.309 25.1703H146.849C146.169 25.1703 145.609 24.6203 145.609 23.9303ZM145.749 62.6703L145.609 29.3303C145.609 28.6403 146.159 28.0903 146.849 28.0903H147.309C147.989 28.0903 148.539 28.6403 148.549 29.3203L148.689 62.6603C148.689 63.3503 148.139 63.9003 147.449 63.9003H146.989C146.309 63.9003 145.759 63.3503 145.749 62.6703Z" fill="#0D1727"/>
<path d="M227.449 20.5303H227.959C228.639 20.5303 229.199 21.0803 229.199 21.7703V57.4903C229.199 58.9003 229.489 59.8803 230.079 60.4103C230.669 60.9403 231.429 61.2103 232.369 61.2103C232.989 61.2103 233.639 61.1503 234.299 61.0303C234.509 60.9903 234.719 60.9503 234.919 60.9003C235.569 60.7503 236.209 61.1703 236.369 61.8203C236.529 62.4803 236.129 63.1403 235.459 63.3203C235.069 63.4203 234.639 63.5203 234.179 63.6103C233.199 63.8003 232.359 63.9003 231.659 63.9003C230.019 63.9003 228.699 63.4003 227.699 62.4003C226.699 61.4003 226.209 60.0503 226.209 58.3603V21.7703C226.209 21.0903 226.759 20.5303 227.449 20.5303Z" fill="#0D1727"/>
<path d="M242.488 76.8898C242.428 76.8698 242.368 76.8598 242.318 76.8398Z" fill="#0D1727"/>
<path d="M265.338 35.1704L249.358 73.4904C249.118 74.1104 248.798 74.6705 248.388 75.1505C247.978 75.6405 247.478 76.0304 246.888 76.3204C246.308 76.6204 245.598 76.7804 244.778 76.8204C244.428 76.8604 244.058 76.8905 243.668 76.9105C243.378 76.9305 243.048 76.9205 242.678 76.9005C242.608 76.9005 242.548 76.8904 242.488 76.8904C242.428 76.8704 242.368 76.8604 242.318 76.8404C241.738 76.6904 241.318 76.1705 241.318 75.5505C241.318 74.9305 241.738 74.4005 242.318 74.2505C242.408 74.2105 242.498 74.2004 242.598 74.2004C242.678 74.2104 242.758 74.2104 242.838 74.2104C243.258 74.2204 243.638 74.2204 243.988 74.2104C244.478 74.1904 244.838 74.1104 245.078 73.9504C245.428 73.8304 245.788 73.5305 246.158 73.0405C246.528 72.5605 247.028 71.6005 247.648 70.1805C248.278 68.7505 249.158 66.6604 250.288 63.8904L237.478 35.2005C237.108 34.3805 237.708 33.4604 238.608 33.4604H238.998C239.488 33.4604 239.928 33.7505 240.128 34.2005L251.868 60.7905L262.748 34.2304C262.938 33.7604 263.388 33.4604 263.898 33.4604H264.198C265.078 33.4604 265.678 34.3604 265.338 35.1704Z" fill="#0D1727"/>
<path d="M305.02 32.5505C303.5 29.4105 301.21 26.9105 298.16 25.0505C295.12 23.2005 291.33 22.2705 286.8 22.2705H273.11C272.32 22.2705 271.68 22.9105 271.68 23.7005V29.3605H286.8C289.41 29.3605 291.64 29.9405 293.48 31.0905C294.39 31.6705 295.21 32.3505 295.91 33.1505C296.61 33.9505 297.21 34.8705 297.7 35.8905C298.67 37.9405 299.16 40.3205 299.16 43.0105C299.16 45.7005 298.68 47.9805 297.73 50.0705C296.77 52.1605 295.37 53.8005 293.54 54.9905C291.7 56.1905 289.45 56.7805 286.8 56.7805H281.19C280.4 56.7805 279.77 56.1405 279.77 55.3505V33.4605H271.68V62.4505C271.68 63.2305 272.32 63.8705 273.11 63.8705H286.8C290.98 63.8705 294.6 63.0105 297.67 61.2905C300.73 59.5805 303.11 57.1505 304.79 54.0305C306.47 50.9005 307.31 47.2305 307.31 43.0105C307.31 39.1805 306.54 35.7005 305.02 32.5505Z" fill="#0D1727"/>
<path d="M319.17 21.1001H314.18C313.39 21.1001 312.75 21.7403 312.75 22.5301V27.4601C312.75 28.2499 313.39 28.8901 314.18 28.8901H319.17C319.96 28.8901 320.6 28.2499 320.6 27.4601V22.5301C320.6 21.7403 319.96 21.1001 319.17 21.1001Z" fill="#E81E25"/>
<path d="M319.17 33.1704H314.18C313.39 33.1704 312.75 33.8106 312.75 34.6004V62.4404C312.75 63.2302 313.39 63.8704 314.18 63.8704H319.17C319.96 63.8704 320.6 63.2302 320.6 62.4404V34.6004C320.6 33.8106 319.96 33.1704 319.17 33.1704Z" fill="#0D1727"/>
<path d="M339.709 64.4602C337.679 64.4602 335.809 64.0602 334.109 63.2602C332.409 62.4602 330.949 61.3302 329.719 59.8802C328.489 58.4302 327.539 56.7702 326.879 54.8902C326.209 53.0102 325.879 51.0102 325.879 48.9002C325.879 46.6702 326.229 44.6002 326.929 42.6802C327.629 40.7602 328.619 39.0702 329.889 37.6002C331.159 36.1302 332.659 35.0002 334.399 34.1902C336.139 33.3902 338.059 32.9902 340.169 32.9902C342.549 32.9902 344.639 33.5202 346.439 34.5702C348.239 35.6202 349.719 37.0502 350.889 38.8502V35.1302C350.889 34.2102 351.639 33.4602 352.559 33.4602H356.319C357.109 33.4602 357.749 34.1002 357.749 34.8902V62.5102C357.749 65.5402 357.019 68.1302 355.549 70.2802C354.089 72.4302 352.059 74.0802 349.489 75.2302C346.909 76.3702 343.979 76.9502 340.699 76.9502C337.419 76.9502 334.569 76.3902 332.259 75.2802C330.379 74.3702 328.719 73.1602 327.279 71.6402C326.739 71.0702 326.749 70.1702 327.309 69.6202L329.319 67.6602C330.119 66.8802 330.999 66.8902 331.549 67.4302C332.539 68.4002 333.699 69.1902 335.039 69.8002C336.819 70.6202 338.699 71.0302 340.699 71.0302C342.379 71.0302 343.909 70.7402 345.299 70.1802C346.689 69.6102 347.799 68.7302 348.639 67.5302C349.479 66.3302 349.899 64.7702 349.899 62.8302V58.9602C348.879 60.7202 347.449 62.0802 345.589 63.0302C343.729 63.9902 341.769 64.4702 339.699 64.4702L339.709 64.4602ZM342.339 58.1902C343.199 58.1902 344.019 58.0502 344.799 57.7802C345.579 57.5102 346.299 57.1302 346.969 56.6602C347.629 56.1902 348.219 55.6302 348.729 54.9802C349.159 54.4302 349.509 53.8702 349.779 53.3002C349.869 53.1102 349.909 52.9002 349.909 52.6902V45.9502C349.909 45.7602 349.869 45.5602 349.799 45.3802C349.339 44.2802 348.719 43.3102 347.949 42.4802C347.109 41.5802 346.169 40.8802 345.139 40.3902C344.099 39.9002 343.019 39.6502 341.889 39.6502C340.679 39.6502 339.579 39.9102 338.609 40.4102C337.629 40.9202 336.789 41.6302 336.089 42.5602C335.389 43.4902 334.849 44.5002 334.479 45.6202C334.109 46.7402 333.919 47.9002 333.919 49.1202C333.919 50.3402 334.129 51.5502 334.559 52.6502C334.989 53.7502 335.589 54.7102 336.349 55.5302C337.109 56.3502 338.009 57.0002 339.049 57.4702C340.079 57.9402 341.189 58.1802 342.359 58.1802L342.339 58.1902Z" fill="#0D1727"/>
<path d="M364.84 27.4603V22.5203C364.84 21.7303 365.48 21.0903 366.27 21.0903H371.27C372.06 21.0903 372.7 21.7303 372.7 22.5203V27.4603C372.7 28.2503 372.06 28.8903 371.27 28.8903H366.27C365.48 28.8903 364.84 28.2503 364.84 27.4603ZM364.84 62.4503V34.6003C364.84 33.8103 365.48 33.1703 366.27 33.1703H371.27C372.06 33.1703 372.7 33.8103 372.7 34.6003V62.4503C372.7 63.2403 372.06 63.8803 371.27 63.8803H366.27C365.48 63.8803 364.84 63.2403 364.84 62.4503Z" fill="#0D1727"/>
<path d="M397.82 60.9305C398.03 61.7505 397.6 62.6005 396.81 62.9005C396.49 63.0205 396.15 63.1505 395.78 63.2905C394.84 63.6405 393.84 63.9205 392.76 64.1405C391.68 64.3505 390.6 64.4605 389.51 64.4605C388.06 64.4605 386.74 64.2105 385.52 63.7105C384.31 63.2105 383.34 62.4005 382.62 61.3005C381.9 60.2005 381.54 58.7605 381.54 56.9805V39.5105H379.17C378.25 39.5105 377.5 38.7605 377.5 37.8405V35.1505C377.5 34.2305 378.25 33.4805 379.17 33.4805H381.54V25.1905C381.54 24.2705 382.29 23.5205 383.21 23.5205H387.72C388.64 23.5205 389.39 24.2705 389.39 25.1905V33.4805H394.16C395.08 33.4805 395.83 34.2305 395.83 35.1505V37.8405C395.83 38.7605 395.08 39.5105 394.16 39.5105H389.39V54.3205C389.43 55.3605 389.72 56.1105 390.27 56.5705C390.82 57.0305 391.5 57.2605 392.32 57.2605C393.14 57.2605 393.94 57.1205 394.72 56.8505C394.78 56.8305 394.83 56.8105 394.88 56.7905C395.81 56.4605 396.81 57.0005 397.05 57.9505L397.81 60.9305H397.82Z" fill="#0D1727"/>
<path d="M400.18 54.9105C400.18 52.9405 400.74 51.2105 401.85 49.7305C402.96 48.2405 404.52 47.1005 406.51 46.2805C408.5 45.4705 410.79 45.0605 413.37 45.0605C414.66 45.0605 415.97 45.1605 417.3 45.3505C418.63 45.5505 419.78 45.8605 420.76 46.2905V44.6605C420.76 42.7405 420.18 41.2705 419.03 40.2305C417.88 39.1905 416.17 38.6805 413.9 38.6805C412.22 38.6805 410.62 38.9705 409.09 39.5605C408.04 39.9605 406.95 40.5005 405.83 41.1605C404.99 41.6605 403.9 41.3405 403.47 40.4605L402.44 38.3405C402.05 37.5505 402.35 36.5905 403.12 36.1405C404.72 35.2205 406.35 34.5005 408.01 33.9805C410.14 33.3205 412.38 32.9805 414.72 32.9805C419.09 32.9805 422.5 34.0605 424.94 36.2205C427.38 38.3805 428.6 41.4605 428.6 45.4605V55.1105C428.6 55.9205 428.75 56.5005 429.04 56.8405C429.16 56.9805 429.3 57.1005 429.48 57.1905C430.06 57.5005 430.47 58.0605 430.47 58.7205V62.4305C430.47 63.2605 429.86 63.9605 429.03 64.0905C428.87 64.1105 428.71 64.1405 428.56 64.1605C427.99 64.2405 427.51 64.2805 427.12 64.2805C425.56 64.2805 424.37 63.9305 423.58 63.2305C422.78 62.5305 422.28 61.6705 422.09 60.6505L421.91 59.0705C420.58 60.7905 418.92 62.1205 416.93 63.0505C414.94 63.9805 412.91 64.4605 410.84 64.4605C408.77 64.4605 406.98 64.0405 405.36 63.2205C403.74 62.3905 402.47 61.2505 401.55 59.8005C400.63 58.3505 400.17 56.7205 400.17 54.9105H400.18ZM419.28 56.4305C419.71 55.9705 420.06 55.5205 420.33 55.0605C420.6 54.6005 420.74 54.1805 420.74 53.8005V50.7705C419.8 50.3905 418.79 50.0905 417.69 49.8805C416.6 49.6705 415.56 49.5705 414.58 49.5705C412.55 49.5705 410.88 50.0005 409.57 50.8605C408.26 51.7205 407.61 52.8505 407.61 54.2605C407.61 55.0205 407.82 55.7505 408.25 56.4305C408.68 57.1205 409.3 57.6705 410.13 58.0905C410.95 58.5105 411.93 58.7205 413.06 58.7205C414.19 58.7205 415.38 58.5005 416.52 58.0605C417.65 57.6205 418.57 57.0805 419.27 56.4305H419.28Z" fill="#0D1727"/>
<path d="M437.53 21.1001H442.04C442.96 21.1001 443.71 21.8501 443.71 22.7701V54.1301C443.71 55.5401 443.94 56.4901 444.41 56.9801C444.88 57.4701 445.52 57.7101 446.34 57.7101C446.96 57.7101 447.61 57.6301 448.27 57.4801C448.27 57.4801 448.28 57.4801 448.29 57.4801C449.24 57.2501 450.19 57.8401 450.36 58.8001L450.84 61.5401C450.98 62.3401 450.53 63.1401 449.76 63.4101C449.03 63.6601 448.24 63.8701 447.38 64.0401C445.97 64.3101 444.7 64.4501 443.57 64.4501C441.11 64.4501 439.2 63.7901 437.86 62.4801C436.51 61.1701 435.84 59.3001 435.84 56.8701V22.7701C435.84 21.8501 436.59 21.1001 437.51 21.1001H437.53Z" fill="#0D1727"/>
<path d="M193.578 49.6899V49.7299H221.778V49.6899H193.578Z" fill="#0D1727"/>
<path d="M221.779 49.6901C221.819 49.2601 221.839 48.8301 221.839 48.3901C221.839 47.9501 221.819 47.4801 221.779 47.0401C221.089 39.1101 214.419 32.8701 206.319 32.8701C198.219 32.8701 191.559 39.1101 190.869 47.0401C190.829 47.4801 190.809 47.9301 190.809 48.3901C190.809 48.8501 190.829 49.2601 190.869 49.6901V49.7301C190.949 50.6401 191.099 51.5201 191.329 52.3801C193.099 59.0101 199.149 63.9001 206.319 63.9001C211.389 63.9001 215.889 61.4701 218.719 57.7001C219.329 56.8901 218.739 55.7201 217.719 55.7201H217.429C217.039 55.7201 216.679 55.9101 216.439 56.2201C214.099 59.2501 210.419 61.2001 206.309 61.2001C200.639 61.2001 195.819 57.5001 194.139 52.3801C193.859 51.5301 193.669 50.6401 193.569 49.7301V49.6901H221.769H221.779ZM206.319 35.5701C212.929 35.5701 218.389 40.6001 219.069 47.0401H193.589C194.259 40.6001 199.719 35.5701 206.319 35.5701Z" fill="#0D1727"/>
<path d="M171.809 32.8702C166.349 32.7502 161.499 35.4802 158.649 39.6702V23.4602C158.649 22.7802 158.099 22.2202 157.409 22.2202H157.189C156.509 22.2202 155.949 22.7702 155.949 23.4602V62.6702C155.949 63.3502 156.499 63.9102 157.189 63.9102H157.409C158.089 63.9102 158.649 63.3602 158.649 62.6702V57.1102C161.449 61.2102 166.149 63.9102 171.479 63.9102C180.289 63.9102 187.409 56.5302 186.979 47.6302C186.599 39.5902 179.869 33.0402 171.819 32.8702H171.809ZM171.469 61.2002C164.399 61.2002 158.649 55.4502 158.649 48.3802C158.649 41.3102 164.399 35.5602 171.469 35.5602C178.539 35.5602 184.289 41.3102 184.289 48.3802C184.289 55.4502 178.539 61.2002 171.469 61.2002Z" fill="#0D1727"/>
<path d="M242.84 74.2102C242.76 74.2102 242.68 74.2102 242.6 74.2002Z" fill="#0D1727"/>
</g>
<defs>
<clipPath id="clip0_77_254">
<rect width="450.89" height="97.47" fill="white"/>
</clipPath>
</defs>
</svg>
