<svg width="500" height="380" viewBox="0 0 500 380" fill="none" xmlns="http://www.w3.org/2000/svg">
<g clip-path="url(#clip0_1376_1552)">
<mask id="mask0_1376_1552" style="mask-type:alpha" maskUnits="userSpaceOnUse" x="-3" y="0" width="500" height="380">
<rect x="-3" width="500" height="380" fill="url(#paint0_radial_1376_1552)"/>
<rect x="-2.5" y="0.5" width="499" height="379" stroke="#FF9500" stroke-opacity="0.3"/>
</mask>
<g mask="url(#mask0_1376_1552)">
<path d="M25.7202 12.1523V35.1338L-1.65088 46.7432L-29.022 35.1338V12.1523L-1.65088 0.541992L25.7202 12.1523Z" stroke="#FF9500" stroke-opacity="0.3"/>
<path d="M80.9521 12.1523V35.1338L53.5811 46.7432L26.21 35.1338V12.1523L53.5811 0.541992L80.9521 12.1523Z" stroke="#FF9500" stroke-opacity="0.3"/>
<path d="M136.185 12.1523V35.1338L108.813 46.7432L81.4424 35.1338V12.1523L108.813 0.541992L136.185 12.1523Z" stroke="#FF9500" stroke-opacity="0.3"/>
<path d="M191.417 12.1523V35.1338L164.045 46.7432L136.674 35.1338V12.1523L164.045 0.541992L191.417 12.1523Z" stroke="#FF9500" stroke-opacity="0.3"/>
<path d="M246.648 12.1523V35.1338L219.277 46.7432L191.906 35.1338V12.1523L219.277 0.541992L246.648 12.1523Z" stroke="#FF9500" stroke-opacity="0.3"/>
<path d="M301.88 12.1523V35.1338L274.509 46.7432L247.138 35.1338V12.1523L274.509 0.541992L301.88 12.1523Z" stroke="#FF9500" stroke-opacity="0.3"/>
<path d="M357.112 12.1523V35.1338L329.741 46.7432L302.37 35.1338V12.1523L329.741 0.541992L357.112 12.1523Z" stroke="#FF9500" stroke-opacity="0.3"/>
<path d="M412.344 12.1523V35.1338L384.973 46.7432L357.602 35.1338V12.1523L384.973 0.541992L412.344 12.1523Z" stroke="#FF9500" stroke-opacity="0.3"/>
<path d="M467.577 12.1523V35.1338L440.206 46.7432L412.834 35.1338V12.1523L440.206 0.541992L467.577 12.1523Z" stroke="#FF9500" stroke-opacity="0.3"/>
<path d="M522.809 12.1523V35.1338L495.438 46.7432L468.066 35.1338V12.1523L495.438 0.541992L522.809 12.1523Z" stroke="#FF9500" stroke-opacity="0.3"/>
<path d="M53.0356 46.6689V69.6504L25.6646 81.2598L-1.70654 69.6504V46.6689L25.6646 35.0586L53.0356 46.6689Z" stroke="#FF9500" stroke-opacity="0.3"/>
<path d="M108.268 46.6689V69.6504L80.897 81.2598L53.5259 69.6504V46.6689L80.897 35.0586L108.268 46.6689Z" stroke="#FF9500" stroke-opacity="0.3"/>
<path d="M163.5 46.6689V69.6504L136.129 81.2598L108.758 69.6504V46.6689L136.129 35.0586L163.5 46.6689Z" stroke="#FF9500" stroke-opacity="0.3"/>
<path d="M218.732 46.6689V69.6504L191.361 81.2598L163.99 69.6504V46.6689L191.361 35.0586L218.732 46.6689Z" stroke="#FF9500" stroke-opacity="0.3"/>
<path d="M273.964 46.6689V69.6504L246.593 81.2598L219.222 69.6504V46.6689L246.593 35.0586L273.964 46.6689Z" stroke="#FF9500" stroke-opacity="0.3"/>
<path d="M329.196 46.6689V69.6504L301.825 81.2598L274.454 69.6504V46.6689L301.825 35.0586L329.196 46.6689Z" stroke="#FF9500" stroke-opacity="0.3"/>
<path d="M384.428 46.6689V69.6504L357.057 81.2598L329.686 69.6504V46.6689L357.057 35.0586L384.428 46.6689Z" stroke="#FF9500" stroke-opacity="0.3"/>
<path d="M439.66 46.6689V69.6504L412.289 81.2598L384.918 69.6504V46.6689L412.289 35.0586L439.66 46.6689Z" stroke="#FF9500" stroke-opacity="0.3"/>
<path d="M494.892 46.6689V69.6504L467.521 81.2598L440.149 69.6504V46.6689L467.521 35.0586L494.892 46.6689Z" stroke="#FF9500" stroke-opacity="0.3"/>
<path d="M25.1191 81.1855V104.167L-2.25195 115.776L-29.623 104.167V81.1855L-2.25195 69.5752L25.1191 81.1855Z" stroke="#FF9500" stroke-opacity="0.3"/>
<path d="M80.3516 81.1855V104.167L52.9805 115.776L25.6094 104.167V81.1855L52.9805 69.5752L80.3516 81.1855Z" stroke="#FF9500" stroke-opacity="0.3"/>
<path d="M135.583 81.1855V104.167L108.212 115.776L80.8408 104.167V81.1855L108.212 69.5752L135.583 81.1855Z" stroke="#FF9500" stroke-opacity="0.3"/>
<path d="M190.815 81.1855V104.167L163.444 115.776L136.073 104.167V81.1855L163.444 69.5752L190.815 81.1855Z" stroke="#FF9500" stroke-opacity="0.3"/>
<path d="M246.047 81.1855V104.167L218.676 115.776L191.305 104.167V81.1855L218.676 69.5752L246.047 81.1855Z" stroke="#FF9500" stroke-opacity="0.3"/>
<path d="M301.279 81.1855V104.167L273.908 115.776L246.537 104.167V81.1855L273.908 69.5752L301.279 81.1855Z" stroke="#FF9500" stroke-opacity="0.3"/>
<path d="M356.511 81.1855V104.167L329.14 115.776L301.769 104.167V81.1855L329.14 69.5752L356.511 81.1855Z" stroke="#FF9500" stroke-opacity="0.3"/>
<path d="M411.743 81.1855V104.167L384.372 115.776L357.001 104.167V81.1855L384.372 69.5752L411.743 81.1855Z" stroke="#FF9500" stroke-opacity="0.3"/>
<path d="M466.976 81.1855V104.167L439.604 115.776L412.233 104.167V81.1855L439.604 69.5752L466.976 81.1855Z" stroke="#FF9500" stroke-opacity="0.3"/>
<path d="M52.4346 115.702V138.684L25.0635 150.293L-2.30762 138.684V115.702L25.0635 104.092L52.4346 115.702Z" stroke="#FF9500" stroke-opacity="0.3"/>
<path d="M107.667 115.702V138.684L80.2954 150.293L52.9243 138.684V115.702L80.2954 104.092L107.667 115.702Z" stroke="#FF9500" stroke-opacity="0.3"/>
<path d="M162.898 115.702V138.684L135.527 150.293L108.156 138.684V115.702L135.527 104.092L162.898 115.702Z" stroke="#FF9500" stroke-opacity="0.3"/>
<path d="M218.13 115.702V138.684L190.759 150.293L163.388 138.684V115.702L190.759 104.092L218.13 115.702Z" stroke="#FF9500" stroke-opacity="0.3"/>
<path d="M273.362 115.702V138.684L245.991 150.293L218.62 138.684V115.702L245.991 104.092L273.362 115.702Z" stroke="#FF9500" stroke-opacity="0.3"/>
<path d="M328.594 115.702V138.684L301.223 150.293L273.852 138.684V115.702L301.223 104.092L328.594 115.702Z" stroke="#FF9500" stroke-opacity="0.3"/>
<path d="M383.827 115.702V138.684L356.456 150.293L329.084 138.684V115.702L356.456 104.092L383.827 115.702Z" stroke="#FF9500" stroke-opacity="0.3"/>
<path d="M439.059 115.702V138.684L411.688 150.293L384.316 138.684V115.702L411.688 104.092L439.059 115.702Z" stroke="#FF9500" stroke-opacity="0.3"/>
<path d="M494.054 115.702V138.684L466.683 150.293L439.312 138.684V115.702L466.683 104.092L494.054 115.702Z" stroke="#FF9500" stroke-opacity="0.3"/>
<path d="M24.5181 150.219V173.2L-2.85303 184.81L-30.2241 173.2V150.219L-2.85303 138.608L24.5181 150.219Z" stroke="#FF9500" stroke-opacity="0.3"/>
<path d="M79.75 150.219V173.2L52.3789 184.81L25.0078 173.2V150.219L52.3789 138.608L79.75 150.219Z" stroke="#FF9500" stroke-opacity="0.3"/>
<path d="M134.982 150.219V173.2L107.611 184.81L80.2397 173.2V150.219L107.611 138.608L134.982 150.219Z" stroke="#FF9500" stroke-opacity="0.3"/>
<path d="M190.214 150.219V173.2L162.843 184.81L135.472 173.2V150.219L162.843 138.608L190.214 150.219Z" stroke="#FF9500" stroke-opacity="0.3"/>
<path d="M245.446 150.219V173.2L218.075 184.81L190.704 173.2V150.219L218.075 138.608L245.446 150.219Z" stroke="#FF9500" stroke-opacity="0.3"/>
<path d="M300.678 150.219V173.2L273.307 184.81L245.936 173.2V150.219L273.307 138.608L300.678 150.219Z" stroke="#FF9500" stroke-opacity="0.3"/>
<path d="M355.91 150.219V173.2L328.539 184.81L301.168 173.2V150.219L328.539 138.608L355.91 150.219Z" stroke="#FF9500" stroke-opacity="0.3"/>
<path d="M411.142 150.219V173.2L383.771 184.81L356.399 173.2V150.219L383.771 138.608L411.142 150.219Z" stroke="#FF9500" stroke-opacity="0.3"/>
<path d="M51.833 184.735V207.717L24.4619 219.326L-2.90918 207.717V184.735L24.4619 173.125L51.833 184.735Z" stroke="#FF9500" stroke-opacity="0.3"/>
<path d="M107.065 184.735V207.717L79.6943 219.326L52.3232 207.717V184.735L79.6943 173.125L107.065 184.735Z" stroke="#FF9500" stroke-opacity="0.3"/>
<path d="M162.297 184.735V207.717L134.926 219.326L107.555 207.717V184.735L134.926 173.125L162.297 184.735Z" stroke="#FF9500" stroke-opacity="0.3"/>
<path d="M217.529 184.735V207.717L190.158 219.326L162.787 207.717V184.735L190.158 173.125L217.529 184.735Z" stroke="#FF9500" stroke-opacity="0.3"/>
<path d="M272.761 184.735V207.717L245.39 219.326L218.019 207.717V184.735L245.39 173.125L272.761 184.735Z" stroke="#FF9500" stroke-opacity="0.3"/>
<path d="M327.993 184.735V207.717L300.622 219.326L273.251 207.717V184.735L300.622 173.125L327.993 184.735Z" stroke="#FF9500" stroke-opacity="0.3"/>
<path d="M383.226 184.735V207.717L355.854 219.326L328.483 207.717V184.735L355.854 173.125L383.226 184.735Z" stroke="#FF9500" stroke-opacity="0.3"/>
<path d="M23.9165 219.252V242.234L-3.45459 253.843L-30.8257 242.234V219.252L-3.45459 207.642L23.9165 219.252Z" stroke="#FF9500" stroke-opacity="0.3"/>
<path d="M79.1484 219.252V242.234L51.7773 253.843L24.4062 242.234V219.252L51.7773 207.642L79.1484 219.252Z" stroke="#FF9500" stroke-opacity="0.3"/>
<path d="M134.38 219.252V242.234L107.009 253.843L79.6382 242.234V219.252L107.009 207.642L134.38 219.252Z" stroke="#FF9500" stroke-opacity="0.3"/>
<path d="M189.612 219.252V242.234L162.241 253.843L134.87 242.234V219.252L162.241 207.642L189.612 219.252Z" stroke="#FF9500" stroke-opacity="0.3"/>
<path d="M244.844 219.252V242.234L217.473 253.843L190.102 242.234V219.252L217.473 207.642L244.844 219.252Z" stroke="#FF9500" stroke-opacity="0.3"/>
<path d="M300.077 219.252V242.234L272.706 253.843L245.334 242.234V219.252L272.706 207.642L300.077 219.252Z" stroke="#FF9500" stroke-opacity="0.3"/>
<path d="M355.309 219.252V242.234L327.938 253.843L300.566 242.234V219.252L327.938 207.642L355.309 219.252Z" stroke="#FF9500" stroke-opacity="0.3"/>
<path d="M51.2319 253.769V276.75L23.8608 288.36L-3.51025 276.75V253.769L23.8608 242.159L51.2319 253.769Z" stroke="#FF9500" stroke-opacity="0.3"/>
<path d="M106.464 253.769V276.75L79.0928 288.36L51.7217 276.75V253.769L79.0928 242.159L106.464 253.769Z" stroke="#FF9500" stroke-opacity="0.3"/>
<path d="M161.696 253.769V276.75L134.325 288.36L106.954 276.75V253.769L134.325 242.159L161.696 253.769Z" stroke="#FF9500" stroke-opacity="0.3"/>
<path d="M216.928 253.769V276.75L189.557 288.36L162.186 276.75V253.769L189.557 242.159L216.928 253.769Z" stroke="#FF9500" stroke-opacity="0.3"/>
<path d="M272.16 253.769V276.75L244.789 288.36L217.418 276.75V253.769L244.789 242.159L272.16 253.769Z" stroke="#FF9500" stroke-opacity="0.3"/>
<path d="M327.392 253.769V276.75L300.021 288.36L272.65 276.75V253.769L300.021 242.159L327.392 253.769Z" stroke="#FF9500" stroke-opacity="0.3"/>
<path d="M23.3154 288.286V311.267L-4.05566 322.876L-31.4268 311.267V288.286L-4.05566 276.675L23.3154 288.286Z" stroke="#FF9500" stroke-opacity="0.3"/>
<path d="M78.5469 288.286V311.267L51.1758 322.876L23.8047 311.267V288.286L51.1758 276.675L78.5469 288.286Z" stroke="#FF9500" stroke-opacity="0.3"/>
<path d="M133.779 288.286V311.267L106.408 322.876L79.0371 311.267V288.286L106.408 276.675L133.779 288.286Z" stroke="#FF9500" stroke-opacity="0.3"/>
<path d="M189.011 288.286V311.267L161.64 322.876L134.269 311.267V288.286L161.64 276.675L189.011 288.286Z" stroke="#FF9500" stroke-opacity="0.3"/>
<path d="M244.243 288.286V311.267L216.872 322.876L189.501 311.267V288.286L216.872 276.675L244.243 288.286Z" stroke="#FF9500" stroke-opacity="0.3"/>
<path d="M299.475 288.286V311.267L272.104 322.876L244.733 311.267V288.286L272.104 276.675L299.475 288.286Z" stroke="#FF9500" stroke-opacity="0.3"/>
<path d="M354.887 288.286V311.267L327.516 322.876L300.145 311.267V288.286L327.516 276.675L354.887 288.286Z" stroke="#FF9500" stroke-opacity="0.3"/>
<path d="M410.119 288.286V311.267L382.748 322.876L355.377 311.267V288.286L382.748 276.675L410.119 288.286Z" stroke="#FF9500" stroke-opacity="0.3"/>
<path d="M465.351 288.286V311.267L437.979 322.876L410.608 311.267V288.286L437.979 276.675L465.351 288.286Z" stroke="#FF9500" stroke-opacity="0.3"/>
<path d="M520.583 288.286V311.267L493.212 322.876L465.841 311.267V288.286L493.212 276.675L520.583 288.286Z" stroke="#FF9500" stroke-opacity="0.3"/>
<path d="M50.6304 322.802V345.784L23.2593 357.393L-4.11182 345.784V322.802L23.2593 311.192L50.6304 322.802Z" stroke="#FF9500" stroke-opacity="0.3"/>
<path d="M105.862 322.802V345.784L78.4912 357.393L51.1201 345.784V322.802L78.4912 311.192L105.862 322.802Z" stroke="#FF9500" stroke-opacity="0.3"/>
<path d="M161.094 322.802V345.784L133.723 357.393L106.352 345.784V322.802L133.723 311.192L161.094 322.802Z" stroke="#FF9500" stroke-opacity="0.3"/>
<path d="M216.327 322.802V345.784L188.956 357.393L161.584 345.784V322.802L188.956 311.192L216.327 322.802Z" stroke="#FF9500" stroke-opacity="0.3"/>
<path d="M271.559 322.802V345.784L244.188 357.393L216.816 345.784V322.802L244.188 311.192L271.559 322.802Z" stroke="#FF9500" stroke-opacity="0.3"/>
<path d="M22.7139 357.319V380.301L-4.65723 391.91L-32.0283 380.301V357.319L-4.65723 345.709L22.7139 357.319Z" stroke="#FF9500" stroke-opacity="0.3"/>
<path d="M77.9458 357.319V380.301L50.5747 391.91L23.2036 380.301V357.319L50.5747 345.709L77.9458 357.319Z" stroke="#FF9500" stroke-opacity="0.3"/>
<path d="M133.178 357.319V380.301L105.807 391.91L78.4355 380.301V357.319L105.807 345.709L133.178 357.319Z" stroke="#FF9500" stroke-opacity="0.3"/>
<path d="M188.41 357.319V380.301L161.039 391.91L133.668 380.301V357.319L161.039 345.709L188.41 357.319Z" stroke="#FF9500" stroke-opacity="0.3"/>
<path d="M243.642 357.319V380.301L216.271 391.91L188.9 380.301V357.319L216.271 345.709L243.642 357.319Z" stroke="#FF9500" stroke-opacity="0.3"/>
<path d="M299.054 357.636V380.617L271.683 392.227L244.312 380.617V357.636L271.683 346.025L299.054 357.636Z" stroke="#FF9500" stroke-opacity="0.3"/>
<path d="M354.286 357.636V380.617L326.915 392.227L299.543 380.617V357.636L326.915 346.025L354.286 357.636Z" stroke="#FF9500" stroke-opacity="0.3"/>
<path d="M409.518 357.636V380.617L382.147 392.227L354.776 380.617V357.636L382.147 346.025L409.518 357.636Z" stroke="#FF9500" stroke-opacity="0.3"/>
<path d="M464.75 357.636V380.617L437.379 392.227L410.008 380.617V357.636L437.379 346.025L464.75 357.636Z" stroke="#FF9500" stroke-opacity="0.3"/>
<path d="M519.982 357.636V380.617L492.611 392.227L465.24 380.617V357.636L492.611 346.025L519.982 357.636Z" stroke="#FF9500" stroke-opacity="0.3"/>
<path d="M522.201 81.2407V103.691L494.916 115.042L467.632 103.691V81.2407L494.916 69.8911L522.201 81.2407Z" stroke="#FF9500" stroke-opacity="0.3"/>
<path d="M549.054 115.702V138.684L521.683 150.293L494.312 138.684V115.702L521.683 104.092L549.054 115.702Z" stroke="#FF9500" stroke-opacity="0.3"/>
<path d="M466.554 150.219V173.2L439.183 184.81L411.812 173.2V150.219L439.183 138.608L466.554 150.219Z" stroke="#FF9500" stroke-opacity="0.3"/>
<path d="M521.786 150.219V173.2L494.415 184.81L467.043 173.2V150.219L494.415 138.608L521.786 150.219Z" stroke="#FF9500" stroke-opacity="0.3"/>
<path d="M438.637 185.052V208.034L411.266 219.643L383.895 208.034V185.052L411.266 173.442L438.637 185.052Z" stroke="#FF9500" stroke-opacity="0.3"/>
<path d="M493.869 185.052V208.034L466.498 219.643L439.127 208.034V185.052L466.498 173.442L493.869 185.052Z" stroke="#FF9500" stroke-opacity="0.3"/>
<path d="M549.101 185.052V208.034L521.73 219.643L494.359 208.034V185.052L521.73 173.442L549.101 185.052Z" stroke="#FF9500" stroke-opacity="0.3"/>
<path d="M410.721 219.886V242.867L383.35 254.477L355.979 242.867V219.886L383.35 208.275L410.721 219.886Z" stroke="#FF9500" stroke-opacity="0.3"/>
<path d="M465.952 219.886V242.867L438.581 254.477L411.21 242.867V219.886L438.581 208.275L465.952 219.886Z" stroke="#FF9500" stroke-opacity="0.3"/>
<path d="M521.185 219.886V242.867L493.813 254.477L466.442 242.867V219.886L493.813 208.275L521.185 219.886Z" stroke="#FF9500" stroke-opacity="0.3"/>
<path d="M382.804 254.086V277.067L355.433 288.677L328.062 277.067V254.086L355.433 242.476L382.804 254.086Z" stroke="#FF9500" stroke-opacity="0.3"/>
<path d="M438.036 254.086V277.067L410.665 288.677L383.293 277.067V254.086L410.665 242.476L438.036 254.086Z" stroke="#FF9500" stroke-opacity="0.3"/>
<path d="M493.268 254.086V277.067L465.896 288.677L438.525 277.067V254.086L465.896 242.476L493.268 254.086Z" stroke="#FF9500" stroke-opacity="0.3"/>
<path d="M548.5 254.086V277.067L521.129 288.677L493.758 277.067V254.086L521.129 242.476L548.5 254.086Z" stroke="#FF9500" stroke-opacity="0.3"/>
<path d="M326.554 323.119V346.101L299.183 357.71L271.812 346.101V323.119L299.183 311.509L326.554 323.119Z" stroke="#FF9500" stroke-opacity="0.3"/>
<path d="M381.786 323.119V346.101L354.415 357.71L327.043 346.101V323.119L354.415 311.509L381.786 323.119Z" stroke="#FF9500" stroke-opacity="0.3"/>
<path d="M437.018 323.119V346.101L409.646 357.71L382.275 346.101V323.119L409.646 311.509L437.018 323.119Z" stroke="#FF9500" stroke-opacity="0.3"/>
<path d="M492.25 323.119V346.101L464.879 357.71L437.508 346.101V323.119L464.879 311.509L492.25 323.119Z" stroke="#FF9500" stroke-opacity="0.3"/>
<path d="M547.482 323.119V346.101L520.111 357.71L492.74 346.101V323.119L520.111 311.509L547.482 323.119Z" stroke="#FF9500" stroke-opacity="0.3"/>
</g>
</g>
<path d="M95.98 77.6055H404.02L377.316 123.209H122.423L95.98 77.6055Z" fill="#FFD495"/>
<path d="M122.423 123.209H377.316L351.079 168.956H149.333L122.423 123.209Z" fill="#FF9500"/>
<path d="M149.333 168.956H351.079L324.842 214.03H175.57L149.333 168.956Z" fill="#FFD495"/>
<path d="M175.57 214.03H324.842L299.765 258.212H200.647L175.57 214.03Z" fill="#FF9500"/>
<path d="M200.647 258.212H299.765L274.952 302.395H225.461L200.647 258.212Z" fill="#FFD495"/>
<defs>
<radialGradient id="paint0_radial_1376_1552" cx="0" cy="0" r="1" gradientUnits="userSpaceOnUse" gradientTransform="translate(247 190) rotate(90) scale(212.483 279.583)">
<stop stop-color="#FEF3D8"/>
<stop offset="1" stop-color="white" stop-opacity="0"/>
</radialGradient>
<clipPath id="clip0_1376_1552">
<rect width="494" height="380" fill="white" transform="translate(3)"/>
</clipPath>
</defs>
</svg>
