<svg width="1630" height="1080" viewBox="0 0 1630 1080" fill="none" xmlns="http://www.w3.org/2000/svg">
<g clip-path="url(#clip0_521_635)">
<rect width="1630" height="1080" rx="24" fill="white"/>
<mask id="mask0_521_635" style="mask-type:alpha" maskUnits="userSpaceOnUse" x="0" y="130" width="1630" height="950">
<rect y="1080" width="950" height="1630" transform="rotate(-90 0 1080)" fill="url(#paint0_linear_521_635)"/>
</mask>
<g mask="url(#mask0_521_635)">
<foreignObject x="-100" y="937.778" width="1830" height="242.222"><div xmlns="http://www.w3.org/1999/xhtml" style="backdrop-filter:blur(50px);clip-path:url(#bgblur_1_521_635_clip_path);height:100%;width:100%"></div></foreignObject><path data-figma-bg-blur-radius="100" d="M0 1080L0 1037.78H1630V1080H0Z" fill="url(#paint1_linear_521_635)" fill-opacity="0.1"/>
<foreignObject x="-100" y="644.202" width="1830" height="242.222"><div xmlns="http://www.w3.org/1999/xhtml" style="backdrop-filter:blur(50px);clip-path:url(#bgblur_2_521_635_clip_path);height:100%;width:100%"></div></foreignObject><rect data-figma-bg-blur-radius="100" y="786.424" width="42.2222" height="1630" transform="rotate(-90 0 786.424)" fill="url(#paint2_linear_521_635)" fill-opacity="0.1"/>
<foreignObject x="-100" y="895.556" width="1830" height="242.222"><div xmlns="http://www.w3.org/1999/xhtml" style="backdrop-filter:blur(50px);clip-path:url(#bgblur_3_521_635_clip_path);height:100%;width:100%"></div></foreignObject><rect data-figma-bg-blur-radius="100" y="1037.78" width="42.2222" height="1630" transform="rotate(-90 0 1037.78)" fill="url(#paint3_linear_521_635)" fill-opacity="0.1"/>
<foreignObject x="-100" y="601.979" width="1830" height="242.222"><div xmlns="http://www.w3.org/1999/xhtml" style="backdrop-filter:blur(50px);clip-path:url(#bgblur_4_521_635_clip_path);height:100%;width:100%"></div></foreignObject><rect data-figma-bg-blur-radius="100" y="744.201" width="42.2222" height="1630" transform="rotate(-90 0 744.201)" fill="url(#paint4_linear_521_635)" fill-opacity="0.1"/>
<foreignObject x="-100" y="853.333" width="1830" height="242.222"><div xmlns="http://www.w3.org/1999/xhtml" style="backdrop-filter:blur(50px);clip-path:url(#bgblur_5_521_635_clip_path);height:100%;width:100%"></div></foreignObject><rect data-figma-bg-blur-radius="100" y="995.556" width="42.2222" height="1630" transform="rotate(-90 0 995.556)" fill="url(#paint5_linear_521_635)" fill-opacity="0.1"/>
<foreignObject x="-99.999" y="559.757" width="1830" height="242.222"><div xmlns="http://www.w3.org/1999/xhtml" style="backdrop-filter:blur(50px);clip-path:url(#bgblur_6_521_635_clip_path);height:100%;width:100%"></div></foreignObject><rect data-figma-bg-blur-radius="100" x="0.000976562" y="701.979" width="42.2222" height="1630" transform="rotate(-90 0.000976562 701.979)" fill="url(#paint6_linear_521_635)" fill-opacity="0.1"/>
<foreignObject x="-100" y="811.111" width="1830" height="242.222"><div xmlns="http://www.w3.org/1999/xhtml" style="backdrop-filter:blur(50px);clip-path:url(#bgblur_7_521_635_clip_path);height:100%;width:100%"></div></foreignObject><rect data-figma-bg-blur-radius="100" y="953.333" width="42.2222" height="1630" transform="rotate(-90 0 953.333)" fill="url(#paint7_linear_521_635)" fill-opacity="0.1"/>
<foreignObject x="-99.999" y="517.535" width="1830" height="242.222"><div xmlns="http://www.w3.org/1999/xhtml" style="backdrop-filter:blur(50px);clip-path:url(#bgblur_8_521_635_clip_path);height:100%;width:100%"></div></foreignObject><path data-figma-bg-blur-radius="100" d="M0.000976562 659.757L0.000976563 617.535H1630V659.757H0.000976562Z" fill="url(#paint8_linear_521_635)" fill-opacity="0.1"/>
<foreignObject x="-99.999" y="768.889" width="1830" height="242.222"><div xmlns="http://www.w3.org/1999/xhtml" style="backdrop-filter:blur(50px);clip-path:url(#bgblur_9_521_635_clip_path);height:100%;width:100%"></div></foreignObject><rect data-figma-bg-blur-radius="100" x="0.000976562" y="911.111" width="42.2222" height="1630" transform="rotate(-90 0.000976562 911.111)" fill="url(#paint9_linear_521_635)" fill-opacity="0.1"/>
<foreignObject x="-99.999" y="475.313" width="1830" height="242.222"><div xmlns="http://www.w3.org/1999/xhtml" style="backdrop-filter:blur(50px);clip-path:url(#bgblur_10_521_635_clip_path);height:100%;width:100%"></div></foreignObject><rect data-figma-bg-blur-radius="100" x="0.000976562" y="617.535" width="42.2222" height="1630" transform="rotate(-90 0.000976562 617.535)" fill="url(#paint10_linear_521_635)" fill-opacity="0.1"/>
<foreignObject x="-99.999" y="726.667" width="1830" height="242.222"><div xmlns="http://www.w3.org/1999/xhtml" style="backdrop-filter:blur(50px);clip-path:url(#bgblur_11_521_635_clip_path);height:100%;width:100%"></div></foreignObject><rect data-figma-bg-blur-radius="100" x="0.000976562" y="868.889" width="42.2222" height="1630" transform="rotate(-90 0.000976562 868.889)" fill="url(#paint11_linear_521_635)" fill-opacity="0.1"/>
<foreignObject x="-100" y="433.09" width="1830" height="242.222"><div xmlns="http://www.w3.org/1999/xhtml" style="backdrop-filter:blur(50px);clip-path:url(#bgblur_12_521_635_clip_path);height:100%;width:100%"></div></foreignObject><rect data-figma-bg-blur-radius="100" y="575.312" width="42.2222" height="1630" transform="rotate(-90 0 575.312)" fill="url(#paint12_linear_521_635)" fill-opacity="0.1"/>
<foreignObject x="-99.999" y="684.444" width="1830" height="242.222"><div xmlns="http://www.w3.org/1999/xhtml" style="backdrop-filter:blur(50px);clip-path:url(#bgblur_13_521_635_clip_path);height:100%;width:100%"></div></foreignObject><path data-figma-bg-blur-radius="100" d="M0.000976562 826.667L0.000976563 784.444H1630V826.667H0.000976562Z" fill="url(#paint13_linear_521_635)" fill-opacity="0.1"/>
</g>
<g filter="url(#filter13_f_521_635)">
<path d="M1980.45 1274.25C1980.45 1192.88 1950.3 1112.32 1891.73 1037.15C1833.17 961.975 1747.32 893.674 1639.1 836.141C1530.88 778.608 1402.4 732.971 1261 701.834C1119.6 670.697 968.049 654.672 815 654.672C661.95 654.672 510.4 670.697 369.001 701.834C227.602 732.971 99.1241 778.608 -9.09791 836.141C-117.32 893.674 -203.166 961.975 -261.736 1037.15C-320.305 1112.32 -350.45 1192.88 -350.45 1274.25L1980.45 1274.25Z" fill="#FFB000" fill-opacity="0.5"/>
</g>
</g>
<rect x="0.5" y="0.5" width="1629" height="1079" rx="23.5" stroke="#FFB000"/>
<defs>
<clipPath id="bgblur_1_521_635_clip_path" transform="translate(100 -937.778)"><path d="M0 1080L0 1037.78H1630V1080H0Z"/>
</clipPath><clipPath id="bgblur_2_521_635_clip_path" transform="translate(100 -644.202)"><rect y="786.424" width="42.2222" height="1630" transform="rotate(-90 0 786.424)"/>
</clipPath><clipPath id="bgblur_3_521_635_clip_path" transform="translate(100 -895.556)"><rect y="1037.78" width="42.2222" height="1630" transform="rotate(-90 0 1037.78)"/>
</clipPath><clipPath id="bgblur_4_521_635_clip_path" transform="translate(100 -601.979)"><rect y="744.201" width="42.2222" height="1630" transform="rotate(-90 0 744.201)"/>
</clipPath><clipPath id="bgblur_5_521_635_clip_path" transform="translate(100 -853.333)"><rect y="995.556" width="42.2222" height="1630" transform="rotate(-90 0 995.556)"/>
</clipPath><clipPath id="bgblur_6_521_635_clip_path" transform="translate(99.999 -559.757)"><rect x="0.000976562" y="701.979" width="42.2222" height="1630" transform="rotate(-90 0.000976562 701.979)"/>
</clipPath><clipPath id="bgblur_7_521_635_clip_path" transform="translate(100 -811.111)"><rect y="953.333" width="42.2222" height="1630" transform="rotate(-90 0 953.333)"/>
</clipPath><clipPath id="bgblur_8_521_635_clip_path" transform="translate(99.999 -517.535)"><path d="M0.000976562 659.757L0.000976563 617.535H1630V659.757H0.000976562Z"/>
</clipPath><clipPath id="bgblur_9_521_635_clip_path" transform="translate(99.999 -768.889)"><rect x="0.000976562" y="911.111" width="42.2222" height="1630" transform="rotate(-90 0.000976562 911.111)"/>
</clipPath><clipPath id="bgblur_10_521_635_clip_path" transform="translate(99.999 -475.313)"><rect x="0.000976562" y="617.535" width="42.2222" height="1630" transform="rotate(-90 0.000976562 617.535)"/>
</clipPath><clipPath id="bgblur_11_521_635_clip_path" transform="translate(99.999 -726.667)"><rect x="0.000976562" y="868.889" width="42.2222" height="1630" transform="rotate(-90 0.000976562 868.889)"/>
</clipPath><clipPath id="bgblur_12_521_635_clip_path" transform="translate(100 -433.09)"><rect y="575.312" width="42.2222" height="1630" transform="rotate(-90 0 575.312)"/>
</clipPath><clipPath id="bgblur_13_521_635_clip_path" transform="translate(99.999 -684.444)"><path d="M0.000976562 826.667L0.000976563 784.444H1630V826.667H0.000976562Z"/>
</clipPath><filter id="filter13_f_521_635" x="-470.45" y="534.672" width="2570.9" height="859.575" filterUnits="userSpaceOnUse" color-interpolation-filters="sRGB">
<feFlood flood-opacity="0" result="BackgroundImageFix"/>
<feBlend mode="normal" in="SourceGraphic" in2="BackgroundImageFix" result="shape"/>
<feGaussianBlur stdDeviation="60" result="effect1_foregroundBlur_521_635"/>
</filter>
<linearGradient id="paint0_linear_521_635" x1="475" y1="2710" x2="475" y2="1103.7" gradientUnits="userSpaceOnUse">
<stop stop-color="white" stop-opacity="0"/>
<stop offset="0.536458" stop-color="white"/>
<stop offset="1" stop-color="white" stop-opacity="0"/>
</linearGradient>
<linearGradient id="paint1_linear_521_635" x1="1095.78" y1="1037.78" x2="1095.78" y2="1081.65" gradientUnits="userSpaceOnUse">
<stop stop-color="white"/>
<stop offset="1" stop-color="white" stop-opacity="0"/>
</linearGradient>
<linearGradient id="paint2_linear_521_635" x1="42.2222" y1="1882.21" x2="-1.6493" y2="1882.21" gradientUnits="userSpaceOnUse">
<stop stop-color="white"/>
<stop offset="1" stop-color="white" stop-opacity="0"/>
</linearGradient>
<linearGradient id="paint3_linear_521_635" x1="42.2222" y1="2133.56" x2="-1.6493" y2="2133.56" gradientUnits="userSpaceOnUse">
<stop stop-color="white"/>
<stop offset="1" stop-color="white" stop-opacity="0"/>
</linearGradient>
<linearGradient id="paint4_linear_521_635" x1="42.2222" y1="1839.98" x2="-1.6493" y2="1839.98" gradientUnits="userSpaceOnUse">
<stop stop-color="white"/>
<stop offset="1" stop-color="white" stop-opacity="0"/>
</linearGradient>
<linearGradient id="paint5_linear_521_635" x1="42.2222" y1="2091.34" x2="-1.6493" y2="2091.34" gradientUnits="userSpaceOnUse">
<stop stop-color="white"/>
<stop offset="1" stop-color="white" stop-opacity="0"/>
</linearGradient>
<linearGradient id="paint6_linear_521_635" x1="42.2232" y1="1797.76" x2="-1.64833" y2="1797.76" gradientUnits="userSpaceOnUse">
<stop stop-color="white"/>
<stop offset="1" stop-color="white" stop-opacity="0"/>
</linearGradient>
<linearGradient id="paint7_linear_521_635" x1="42.2222" y1="2049.12" x2="-1.6493" y2="2049.12" gradientUnits="userSpaceOnUse">
<stop stop-color="white"/>
<stop offset="1" stop-color="white" stop-opacity="0"/>
</linearGradient>
<linearGradient id="paint8_linear_521_635" x1="1095.78" y1="617.535" x2="1095.78" y2="661.406" gradientUnits="userSpaceOnUse">
<stop stop-color="white"/>
<stop offset="1" stop-color="white" stop-opacity="0"/>
</linearGradient>
<linearGradient id="paint9_linear_521_635" x1="42.2232" y1="2006.89" x2="-1.64833" y2="2006.89" gradientUnits="userSpaceOnUse">
<stop stop-color="white"/>
<stop offset="1" stop-color="white" stop-opacity="0"/>
</linearGradient>
<linearGradient id="paint10_linear_521_635" x1="42.2232" y1="1713.32" x2="-1.64833" y2="1713.32" gradientUnits="userSpaceOnUse">
<stop stop-color="white"/>
<stop offset="1" stop-color="white" stop-opacity="0"/>
</linearGradient>
<linearGradient id="paint11_linear_521_635" x1="42.2232" y1="1964.67" x2="-1.64833" y2="1964.67" gradientUnits="userSpaceOnUse">
<stop stop-color="white"/>
<stop offset="1" stop-color="white" stop-opacity="0"/>
</linearGradient>
<linearGradient id="paint12_linear_521_635" x1="42.2222" y1="1671.1" x2="-1.6493" y2="1671.1" gradientUnits="userSpaceOnUse">
<stop stop-color="white"/>
<stop offset="1" stop-color="white" stop-opacity="0"/>
</linearGradient>
<linearGradient id="paint13_linear_521_635" x1="1095.78" y1="784.444" x2="1095.78" y2="828.316" gradientUnits="userSpaceOnUse">
<stop stop-color="white"/>
<stop offset="1" stop-color="white" stop-opacity="0"/>
</linearGradient>
<clipPath id="clip0_521_635">
<rect width="1630" height="1080" rx="24" fill="white"/>
</clipPath>
</defs>
</svg>
