<svg width="500" height="500" viewBox="0 0 500 500" fill="none" xmlns="http://www.w3.org/2000/svg">
<g clip-path="url(#clip0_1403_252)">
<rect width="500" height="500" fill="#FEF3D8"/>
<g clip-path="url(#clip1_1403_252)">
<mask id="mask0_1403_252" style="mask-type:alpha" maskUnits="userSpaceOnUse" x="-6" y="0" width="500" height="380">
<rect x="-6" width="500" height="380" fill="url(#paint0_radial_1403_252)"/>
<rect x="-5.5" y="0.5" width="499" height="379" stroke="#FF9500" stroke-opacity="0.3"/>
</mask>
<g mask="url(#mask0_1403_252)">
<path d="M22.7202 12.1523V35.1338L-4.65088 46.7432L-32.022 35.1338V12.1523L-4.65088 0.541992L22.7202 12.1523Z" stroke="#FF9500" stroke-opacity="0.3"/>
<path d="M77.9521 12.1523V35.1338L50.5811 46.7432L23.21 35.1338V12.1523L50.5811 0.541992L77.9521 12.1523Z" stroke="#FF9500" stroke-opacity="0.3"/>
<path d="M133.185 12.1523V35.1338L105.813 46.7432L78.4424 35.1338V12.1523L105.813 0.541992L133.185 12.1523Z" stroke="#FF9500" stroke-opacity="0.3"/>
<path d="M188.417 12.1523V35.1338L161.045 46.7432L133.674 35.1338V12.1523L161.045 0.541992L188.417 12.1523Z" stroke="#FF9500" stroke-opacity="0.3"/>
<path d="M243.648 12.1523V35.1338L216.277 46.7432L188.906 35.1338V12.1523L216.277 0.541992L243.648 12.1523Z" stroke="#FF9500" stroke-opacity="0.3"/>
<path d="M298.88 12.1523V35.1338L271.509 46.7432L244.138 35.1338V12.1523L271.509 0.541992L298.88 12.1523Z" stroke="#FF9500" stroke-opacity="0.3"/>
<path d="M354.112 12.1523V35.1338L326.741 46.7432L299.37 35.1338V12.1523L326.741 0.541992L354.112 12.1523Z" stroke="#FF9500" stroke-opacity="0.3"/>
<path d="M409.344 12.1523V35.1338L381.973 46.7432L354.602 35.1338V12.1523L381.973 0.541992L409.344 12.1523Z" stroke="#FF9500" stroke-opacity="0.3"/>
<path d="M464.577 12.1523V35.1338L437.206 46.7432L409.834 35.1338V12.1523L437.206 0.541992L464.577 12.1523Z" stroke="#FF9500" stroke-opacity="0.3"/>
<path d="M519.809 12.1523V35.1338L492.438 46.7432L465.066 35.1338V12.1523L492.438 0.541992L519.809 12.1523Z" stroke="#FF9500" stroke-opacity="0.3"/>
<path d="M50.0356 46.6692V69.6506L22.6646 81.26L-4.70654 69.6506V46.6692L22.6646 35.0588L50.0356 46.6692Z" stroke="#FF9500" stroke-opacity="0.3"/>
<path d="M105.268 46.6692V69.6506L77.897 81.26L50.5259 69.6506V46.6692L77.897 35.0588L105.268 46.6692Z" stroke="#FF9500" stroke-opacity="0.3"/>
<path d="M160.5 46.6692V69.6506L133.129 81.26L105.758 69.6506V46.6692L133.129 35.0588L160.5 46.6692Z" stroke="#FF9500" stroke-opacity="0.3"/>
<path d="M215.732 46.6692V69.6506L188.361 81.26L160.99 69.6506V46.6692L188.361 35.0588L215.732 46.6692Z" stroke="#FF9500" stroke-opacity="0.3"/>
<path d="M270.964 46.6692V69.6506L243.593 81.26L216.222 69.6506V46.6692L243.593 35.0588L270.964 46.6692Z" stroke="#FF9500" stroke-opacity="0.3"/>
<path d="M326.196 46.6692V69.6506L298.825 81.26L271.454 69.6506V46.6692L298.825 35.0588L326.196 46.6692Z" stroke="#FF9500" stroke-opacity="0.3"/>
<path d="M381.428 46.6692V69.6506L354.057 81.26L326.686 69.6506V46.6692L354.057 35.0588L381.428 46.6692Z" stroke="#FF9500" stroke-opacity="0.3"/>
<path d="M436.66 46.6692V69.6506L409.289 81.26L381.918 69.6506V46.6692L409.289 35.0588L436.66 46.6692Z" stroke="#FF9500" stroke-opacity="0.3"/>
<path d="M491.892 46.6692V69.6506L464.521 81.26L437.149 69.6506V46.6692L464.521 35.0588L491.892 46.6692Z" stroke="#FF9500" stroke-opacity="0.3"/>
<path d="M22.1191 81.1855V104.167L-5.25195 115.776L-32.623 104.167V81.1855L-5.25195 69.5752L22.1191 81.1855Z" stroke="#FF9500" stroke-opacity="0.3"/>
<path d="M77.3516 81.1855V104.167L49.9805 115.776L22.6094 104.167V81.1855L49.9805 69.5752L77.3516 81.1855Z" stroke="#FF9500" stroke-opacity="0.3"/>
<path d="M132.583 81.1855V104.167L105.212 115.776L77.8408 104.167V81.1855L105.212 69.5752L132.583 81.1855Z" stroke="#FF9500" stroke-opacity="0.3"/>
<path d="M187.815 81.1855V104.167L160.444 115.776L133.073 104.167V81.1855L160.444 69.5752L187.815 81.1855Z" stroke="#FF9500" stroke-opacity="0.3"/>
<path d="M243.047 81.1855V104.167L215.676 115.776L188.305 104.167V81.1855L215.676 69.5752L243.047 81.1855Z" stroke="#FF9500" stroke-opacity="0.3"/>
<path d="M298.279 81.1855V104.167L270.908 115.776L243.537 104.167V81.1855L270.908 69.5752L298.279 81.1855Z" stroke="#FF9500" stroke-opacity="0.3"/>
<path d="M353.511 81.1855V104.167L326.14 115.776L298.769 104.167V81.1855L326.14 69.5752L353.511 81.1855Z" stroke="#FF9500" stroke-opacity="0.3"/>
<path d="M408.743 81.1855V104.167L381.372 115.776L354.001 104.167V81.1855L381.372 69.5752L408.743 81.1855Z" stroke="#FF9500" stroke-opacity="0.3"/>
<path d="M463.976 81.1855V104.167L436.604 115.776L409.233 104.167V81.1855L436.604 69.5752L463.976 81.1855Z" stroke="#FF9500" stroke-opacity="0.3"/>
<path d="M49.4346 115.702V138.684L22.0635 150.293L-5.30762 138.684V115.702L22.0635 104.092L49.4346 115.702Z" stroke="#FF9500" stroke-opacity="0.3"/>
<path d="M104.667 115.702V138.684L77.2954 150.293L49.9243 138.684V115.702L77.2954 104.092L104.667 115.702Z" stroke="#FF9500" stroke-opacity="0.3"/>
<path d="M159.898 115.702V138.684L132.527 150.293L105.156 138.684V115.702L132.527 104.092L159.898 115.702Z" stroke="#FF9500" stroke-opacity="0.3"/>
<path d="M215.13 115.702V138.684L187.759 150.293L160.388 138.684V115.702L187.759 104.092L215.13 115.702Z" stroke="#FF9500" stroke-opacity="0.3"/>
<path d="M270.362 115.702V138.684L242.991 150.293L215.62 138.684V115.702L242.991 104.092L270.362 115.702Z" stroke="#FF9500" stroke-opacity="0.3"/>
<path d="M325.594 115.702V138.684L298.223 150.293L270.852 138.684V115.702L298.223 104.092L325.594 115.702Z" stroke="#FF9500" stroke-opacity="0.3"/>
<path d="M380.827 115.702V138.684L353.456 150.293L326.084 138.684V115.702L353.456 104.092L380.827 115.702Z" stroke="#FF9500" stroke-opacity="0.3"/>
<path d="M436.059 115.702V138.684L408.688 150.293L381.316 138.684V115.702L408.688 104.092L436.059 115.702Z" stroke="#FF9500" stroke-opacity="0.3"/>
<path d="M491.054 115.702V138.684L463.683 150.293L436.312 138.684V115.702L463.683 104.092L491.054 115.702Z" stroke="#FF9500" stroke-opacity="0.3"/>
<path d="M21.5181 150.219V173.2L-5.85303 184.81L-33.2241 173.2V150.219L-5.85303 138.609L21.5181 150.219Z" stroke="#FF9500" stroke-opacity="0.3"/>
<path d="M76.75 150.219V173.2L49.3789 184.81L22.0078 173.2V150.219L49.3789 138.609L76.75 150.219Z" stroke="#FF9500" stroke-opacity="0.3"/>
<path d="M131.982 150.219V173.2L104.611 184.81L77.2397 173.2V150.219L104.611 138.609L131.982 150.219Z" stroke="#FF9500" stroke-opacity="0.3"/>
<path d="M187.214 150.219V173.2L159.843 184.81L132.472 173.2V150.219L159.843 138.609L187.214 150.219Z" stroke="#FF9500" stroke-opacity="0.3"/>
<path d="M242.446 150.219V173.2L215.075 184.81L187.704 173.2V150.219L215.075 138.609L242.446 150.219Z" stroke="#FF9500" stroke-opacity="0.3"/>
<path d="M297.678 150.219V173.2L270.307 184.81L242.936 173.2V150.219L270.307 138.609L297.678 150.219Z" stroke="#FF9500" stroke-opacity="0.3"/>
<path d="M352.91 150.219V173.2L325.539 184.81L298.168 173.2V150.219L325.539 138.609L352.91 150.219Z" stroke="#FF9500" stroke-opacity="0.3"/>
<path d="M408.142 150.219V173.2L380.771 184.81L353.399 173.2V150.219L380.771 138.609L408.142 150.219Z" stroke="#FF9500" stroke-opacity="0.3"/>
<path d="M48.833 184.736V207.717L21.4619 219.326L-5.90918 207.717V184.736L21.4619 173.125L48.833 184.736Z" stroke="#FF9500" stroke-opacity="0.3"/>
<path d="M104.065 184.736V207.717L76.6943 219.326L49.3232 207.717V184.736L76.6943 173.125L104.065 184.736Z" stroke="#FF9500" stroke-opacity="0.3"/>
<path d="M159.297 184.736V207.717L131.926 219.326L104.555 207.717V184.736L131.926 173.125L159.297 184.736Z" stroke="#FF9500" stroke-opacity="0.3"/>
<path d="M214.529 184.736V207.717L187.158 219.326L159.787 207.717V184.736L187.158 173.125L214.529 184.736Z" stroke="#FF9500" stroke-opacity="0.3"/>
<path d="M269.761 184.736V207.717L242.39 219.326L215.019 207.717V184.736L242.39 173.125L269.761 184.736Z" stroke="#FF9500" stroke-opacity="0.3"/>
<path d="M324.993 184.736V207.717L297.622 219.326L270.251 207.717V184.736L297.622 173.125L324.993 184.736Z" stroke="#FF9500" stroke-opacity="0.3"/>
<path d="M380.226 184.736V207.717L352.854 219.326L325.483 207.717V184.736L352.854 173.125L380.226 184.736Z" stroke="#FF9500" stroke-opacity="0.3"/>
<path d="M20.9165 219.252V242.234L-6.45459 253.843L-33.8257 242.234V219.252L-6.45459 207.642L20.9165 219.252Z" stroke="#FF9500" stroke-opacity="0.3"/>
<path d="M76.1484 219.252V242.234L48.7773 253.843L21.4062 242.234V219.252L48.7773 207.642L76.1484 219.252Z" stroke="#FF9500" stroke-opacity="0.3"/>
<path d="M131.38 219.252V242.234L104.009 253.843L76.6382 242.234V219.252L104.009 207.642L131.38 219.252Z" stroke="#FF9500" stroke-opacity="0.3"/>
<path d="M186.612 219.252V242.234L159.241 253.843L131.87 242.234V219.252L159.241 207.642L186.612 219.252Z" stroke="#FF9500" stroke-opacity="0.3"/>
<path d="M241.844 219.252V242.234L214.473 253.843L187.102 242.234V219.252L214.473 207.642L241.844 219.252Z" stroke="#FF9500" stroke-opacity="0.3"/>
<path d="M297.077 219.252V242.234L269.706 253.843L242.334 242.234V219.252L269.706 207.642L297.077 219.252Z" stroke="#FF9500" stroke-opacity="0.3"/>
<path d="M352.309 219.252V242.234L324.938 253.843L297.566 242.234V219.252L324.938 207.642L352.309 219.252Z" stroke="#FF9500" stroke-opacity="0.3"/>
<path d="M48.2319 253.769V276.75L20.8608 288.36L-6.51025 276.75V253.769L20.8608 242.159L48.2319 253.769Z" stroke="#FF9500" stroke-opacity="0.3"/>
<path d="M103.464 253.769V276.75L76.0928 288.36L48.7217 276.75V253.769L76.0928 242.159L103.464 253.769Z" stroke="#FF9500" stroke-opacity="0.3"/>
<path d="M158.696 253.769V276.75L131.325 288.36L103.954 276.75V253.769L131.325 242.159L158.696 253.769Z" stroke="#FF9500" stroke-opacity="0.3"/>
<path d="M213.928 253.769V276.75L186.557 288.36L159.186 276.75V253.769L186.557 242.159L213.928 253.769Z" stroke="#FF9500" stroke-opacity="0.3"/>
<path d="M269.16 253.769V276.75L241.789 288.36L214.418 276.75V253.769L241.789 242.159L269.16 253.769Z" stroke="#FF9500" stroke-opacity="0.3"/>
<path d="M324.392 253.769V276.75L297.021 288.36L269.65 276.75V253.769L297.021 242.159L324.392 253.769Z" stroke="#FF9500" stroke-opacity="0.3"/>
<path d="M20.3154 288.286V311.267L-7.05566 322.876L-34.4268 311.267V288.286L-7.05566 276.675L20.3154 288.286Z" stroke="#FF9500" stroke-opacity="0.3"/>
<path d="M75.5469 288.286V311.267L48.1758 322.876L20.8047 311.267V288.286L48.1758 276.675L75.5469 288.286Z" stroke="#FF9500" stroke-opacity="0.3"/>
<path d="M130.779 288.286V311.267L103.408 322.876L76.0371 311.267V288.286L103.408 276.675L130.779 288.286Z" stroke="#FF9500" stroke-opacity="0.3"/>
<path d="M186.011 288.286V311.267L158.64 322.876L131.269 311.267V288.286L158.64 276.675L186.011 288.286Z" stroke="#FF9500" stroke-opacity="0.3"/>
<path d="M241.243 288.286V311.267L213.872 322.876L186.501 311.267V288.286L213.872 276.675L241.243 288.286Z" stroke="#FF9500" stroke-opacity="0.3"/>
<path d="M296.475 288.286V311.267L269.104 322.876L241.733 311.267V288.286L269.104 276.675L296.475 288.286Z" stroke="#FF9500" stroke-opacity="0.3"/>
<path d="M351.887 288.286V311.267L324.516 322.876L297.145 311.267V288.286L324.516 276.675L351.887 288.286Z" stroke="#FF9500" stroke-opacity="0.3"/>
<path d="M407.119 288.286V311.267L379.748 322.876L352.377 311.267V288.286L379.748 276.675L407.119 288.286Z" stroke="#FF9500" stroke-opacity="0.3"/>
<path d="M462.351 288.286V311.267L434.979 322.876L407.608 311.267V288.286L434.979 276.675L462.351 288.286Z" stroke="#FF9500" stroke-opacity="0.3"/>
<path d="M517.583 288.286V311.267L490.212 322.876L462.841 311.267V288.286L490.212 276.675L517.583 288.286Z" stroke="#FF9500" stroke-opacity="0.3"/>
<path d="M47.6304 322.802V345.784L20.2593 357.393L-7.11182 345.784V322.802L20.2593 311.192L47.6304 322.802Z" stroke="#FF9500" stroke-opacity="0.3"/>
<path d="M102.862 322.802V345.784L75.4912 357.393L48.1201 345.784V322.802L75.4912 311.192L102.862 322.802Z" stroke="#FF9500" stroke-opacity="0.3"/>
<path d="M158.094 322.802V345.784L130.723 357.393L103.352 345.784V322.802L130.723 311.192L158.094 322.802Z" stroke="#FF9500" stroke-opacity="0.3"/>
<path d="M213.327 322.802V345.784L185.956 357.393L158.584 345.784V322.802L185.956 311.192L213.327 322.802Z" stroke="#FF9500" stroke-opacity="0.3"/>
<path d="M268.559 322.802V345.784L241.188 357.393L213.816 345.784V322.802L241.188 311.192L268.559 322.802Z" stroke="#FF9500" stroke-opacity="0.3"/>
<path d="M19.7139 357.319V380.301L-7.65723 391.91L-35.0283 380.301V357.319L-7.65723 345.709L19.7139 357.319Z" stroke="#FF9500" stroke-opacity="0.3"/>
<path d="M74.9458 357.319V380.301L47.5747 391.91L20.2036 380.301V357.319L47.5747 345.709L74.9458 357.319Z" stroke="#FF9500" stroke-opacity="0.3"/>
<path d="M130.178 357.319V380.301L102.807 391.91L75.4355 380.301V357.319L102.807 345.709L130.178 357.319Z" stroke="#FF9500" stroke-opacity="0.3"/>
<path d="M185.41 357.319V380.301L158.039 391.91L130.668 380.301V357.319L158.039 345.709L185.41 357.319Z" stroke="#FF9500" stroke-opacity="0.3"/>
<path d="M240.642 357.319V380.301L213.271 391.91L185.9 380.301V357.319L213.271 345.709L240.642 357.319Z" stroke="#FF9500" stroke-opacity="0.3"/>
<path d="M296.054 357.636V380.617L268.683 392.227L241.312 380.617V357.636L268.683 346.025L296.054 357.636Z" stroke="#FF9500" stroke-opacity="0.3"/>
<path d="M351.286 357.636V380.617L323.915 392.227L296.543 380.617V357.636L323.915 346.025L351.286 357.636Z" stroke="#FF9500" stroke-opacity="0.3"/>
<path d="M406.518 357.636V380.617L379.147 392.227L351.776 380.617V357.636L379.147 346.025L406.518 357.636Z" stroke="#FF9500" stroke-opacity="0.3"/>
<path d="M461.75 357.636V380.617L434.379 392.227L407.008 380.617V357.636L434.379 346.025L461.75 357.636Z" stroke="#FF9500" stroke-opacity="0.3"/>
<path d="M516.982 357.636V380.617L489.611 392.227L462.24 380.617V357.636L489.611 346.025L516.982 357.636Z" stroke="#FF9500" stroke-opacity="0.3"/>
<path d="M519.201 81.2407V103.691L491.916 115.042L464.632 103.691V81.2407L491.916 69.8911L519.201 81.2407Z" stroke="#FF9500" stroke-opacity="0.3"/>
<path d="M546.054 115.702V138.684L518.683 150.293L491.312 138.684V115.702L518.683 104.092L546.054 115.702Z" stroke="#FF9500" stroke-opacity="0.3"/>
<path d="M463.554 150.219V173.2L436.183 184.81L408.812 173.2V150.219L436.183 138.609L463.554 150.219Z" stroke="#FF9500" stroke-opacity="0.3"/>
<path d="M518.786 150.219V173.2L491.415 184.81L464.043 173.2V150.219L491.415 138.609L518.786 150.219Z" stroke="#FF9500" stroke-opacity="0.3"/>
<path d="M435.637 185.052V208.034L408.266 219.643L380.895 208.034V185.052L408.266 173.442L435.637 185.052Z" stroke="#FF9500" stroke-opacity="0.3"/>
<path d="M490.869 185.052V208.034L463.498 219.643L436.127 208.034V185.052L463.498 173.442L490.869 185.052Z" stroke="#FF9500" stroke-opacity="0.3"/>
<path d="M546.101 185.052V208.034L518.73 219.643L491.359 208.034V185.052L518.73 173.442L546.101 185.052Z" stroke="#FF9500" stroke-opacity="0.3"/>
<path d="M407.721 219.886V242.867L380.35 254.477L352.979 242.867V219.886L380.35 208.275L407.721 219.886Z" stroke="#FF9500" stroke-opacity="0.3"/>
<path d="M462.952 219.886V242.867L435.581 254.477L408.21 242.867V219.886L435.581 208.275L462.952 219.886Z" stroke="#FF9500" stroke-opacity="0.3"/>
<path d="M518.185 219.886V242.867L490.813 254.477L463.442 242.867V219.886L490.813 208.275L518.185 219.886Z" stroke="#FF9500" stroke-opacity="0.3"/>
<path d="M379.804 254.086V277.067L352.433 288.677L325.062 277.067V254.086L352.433 242.475L379.804 254.086Z" stroke="#FF9500" stroke-opacity="0.3"/>
<path d="M435.036 254.086V277.067L407.665 288.677L380.293 277.067V254.086L407.665 242.475L435.036 254.086Z" stroke="#FF9500" stroke-opacity="0.3"/>
<path d="M490.268 254.086V277.067L462.896 288.677L435.525 277.067V254.086L462.896 242.475L490.268 254.086Z" stroke="#FF9500" stroke-opacity="0.3"/>
<path d="M545.5 254.086V277.067L518.129 288.677L490.758 277.067V254.086L518.129 242.475L545.5 254.086Z" stroke="#FF9500" stroke-opacity="0.3"/>
<path d="M323.554 323.119V346.101L296.183 357.71L268.812 346.101V323.119L296.183 311.509L323.554 323.119Z" stroke="#FF9500" stroke-opacity="0.3"/>
<path d="M378.786 323.119V346.101L351.415 357.71L324.043 346.101V323.119L351.415 311.509L378.786 323.119Z" stroke="#FF9500" stroke-opacity="0.3"/>
<path d="M434.018 323.119V346.101L406.646 357.71L379.275 346.101V323.119L406.646 311.509L434.018 323.119Z" stroke="#FF9500" stroke-opacity="0.3"/>
<path d="M489.25 323.119V346.101L461.879 357.71L434.508 346.101V323.119L461.879 311.509L489.25 323.119Z" stroke="#FF9500" stroke-opacity="0.3"/>
<path d="M544.482 323.119V346.101L517.111 357.71L489.74 346.101V323.119L517.111 311.509L544.482 323.119Z" stroke="#FF9500" stroke-opacity="0.3"/>
</g>
</g>
<g clip-path="url(#clip2_1403_252)">
<path d="M353.022 279.546H249.075C245.888 279.546 243.56 276.505 244.369 273.394L262.741 202.634C263.301 200.474 265.236 198.969 267.447 198.969H371.394C374.581 198.969 376.909 202.01 376.1 205.121L357.728 275.882C357.168 278.041 355.233 279.546 353.022 279.546Z" fill="black"/>
<path d="M349.893 278.963H245.945C242.758 278.963 240.431 275.967 241.239 272.9L259.611 203.163C260.172 201.035 262.106 199.552 264.317 199.552H368.265C371.452 199.552 373.779 202.548 372.971 205.615L354.599 275.351C354.038 277.48 352.104 278.963 349.893 278.963Z" fill="#FFE09A"/>
<path d="M349.893 279.505H245.945C244.256 279.505 242.694 278.741 241.66 277.409C240.63 276.079 240.283 274.385 240.712 272.761L259.084 203.025C259.707 200.659 261.858 199.009 264.317 199.009H368.265C369.956 199.009 371.516 199.773 372.55 201.104C373.58 202.434 373.927 204.129 373.498 205.753L355.126 275.489C354.503 277.854 352.352 279.505 349.893 279.505ZM264.317 200.093C262.353 200.093 260.635 201.412 260.137 203.301L241.765 273.037C241.424 274.334 241.7 275.687 242.523 276.749C243.348 277.812 244.594 278.422 245.945 278.422H349.893C351.857 278.422 353.575 277.103 354.073 275.214L372.445 205.478C372.786 204.181 372.51 202.828 371.687 201.767C370.862 200.703 369.616 200.093 368.265 200.093H264.317Z" fill="black"/>
<path d="M295.201 311.725H191.877C190.882 311.725 190.282 310.952 190.253 310.155C190.231 309.576 190.174 306.759 190.174 306.759L238.322 285.575C239.515 284.988 240.83 284.68 242.162 284.68L348.898 283.023C348.898 283.023 348.898 285.459 348.921 286.262C348.938 286.836 348.658 287.42 348.017 287.736L302.859 309.942C300.479 311.115 297.857 311.725 295.201 311.725Z" fill="black"/>
<path d="M294.705 308.519H192.557C190.621 308.519 190.01 305.922 191.744 305.066L237.824 282.367C239.017 281.78 240.332 281.472 241.664 281.472H346.717C348.432 281.472 348.974 283.774 347.437 284.531L302.36 306.735C299.98 307.907 297.358 308.518 294.702 308.518L294.705 308.519Z" fill="white"/>
<path d="M294.705 309.061H192.558C191.43 309.061 190.501 308.328 190.245 307.235C189.988 306.144 190.495 305.078 191.504 304.58L237.584 281.883C238.846 281.261 240.258 280.933 241.665 280.933H346.719C347.746 280.933 348.595 281.602 348.83 282.596C349.063 283.591 348.603 284.564 347.681 285.017L302.603 307.22C300.161 308.423 297.429 309.059 294.703 309.059L294.705 309.061ZM241.667 282.017C240.426 282.017 239.182 282.307 238.069 282.855L191.989 305.552C191.315 305.884 191.2 306.533 191.307 306.988C191.414 307.445 191.806 307.976 192.559 307.976H294.707C297.266 307.976 299.83 307.379 302.123 306.25L347.201 284.047C347.764 283.769 347.865 283.244 347.771 282.843C347.677 282.444 347.352 282.015 346.722 282.015H241.669L241.667 282.017Z" fill="black"/>
<path d="M224.786 292.775L239.722 285.583C240.618 285.151 241.601 284.927 242.596 284.927H335.329C336.138 284.927 336.39 286.015 335.661 286.365L320.738 293.549C320.021 293.894 319.237 294.072 318.442 294.074L225.12 294.213C224.311 294.213 224.058 293.125 224.786 292.775Z" fill="#CADDFF"/>
<path d="M265.124 304.6H236.783C236.246 304.6 236.077 303.879 236.558 303.641L249.343 297.344C249.675 297.18 250.038 297.095 250.408 297.095H279.556C280.031 297.095 280.183 297.733 279.757 297.944L267.25 304.104C266.589 304.43 265.862 304.598 265.124 304.598V304.6Z" fill="#CADDFF"/>
<path d="M236.247 270.65H349.429L366.655 206.342C369.757 194.762 373.401 183.333 377.578 172.094L381.324 162.012C381.324 162.012 390.005 138.173 372.249 138.696L351.798 139.273C356.086 126.076 360.87 115.351 360.687 109.526C360.309 97.5148 354.076 95.4048 349.451 95.2003L325.949 95.516C328.972 85.8439 331.863 75.668 327.428 61.7251C324.644 52.9756 318.059 49.2886 309.732 48.6867L308.029 48.6131C252.573 47.3552 227.579 47.0771 207.295 46.1497C186.965 45.2206 172.41 56.8195 172.41 56.8195L108.655 56.4973C107.442 56.4907 106.813 57.9318 107.643 58.8102L114.701 66.2757C123.33 75.4031 135.359 80.5932 147.958 80.6243L212.716 80.7879C226.536 80.9645 233.945 77.7667 237.673 76.0573C237.673 76.0573 239.407 86.7436 234.653 94.5509C228.261 105.051 226.495 123.135 238.01 125.497C240.452 125.998 244.688 125.401 254.225 125.406C254.225 125.406 253.811 128.343 253.52 129.713C249.289 149.628 237.862 170.285 236.17 179.26C234.477 188.236 236.522 199.386 244.07 199.737C245.508 199.804 246.897 199.732 255.913 199.846L236.251 270.65H236.247Z" fill="white"/>
<path d="M349.847 271.192H235.532L255.198 200.378C250.737 200.324 248.243 200.317 246.725 200.312C245.341 200.309 244.709 200.307 244.042 200.276C241.767 200.17 239.85 199.159 238.348 197.268C234.926 192.963 234.518 185.071 235.634 179.157C236.348 175.376 238.78 169.51 241.596 162.718C245.572 153.128 250.522 141.194 252.987 129.596C253.191 128.64 253.459 126.878 253.595 125.944C249.79 125.952 246.899 126.055 244.553 126.137C241.307 126.251 239.348 126.32 237.899 126.024C234.487 125.324 231.916 123.204 230.466 119.893C227.235 112.523 229.972 101.189 234.188 94.2663C238.09 87.8592 237.503 79.3452 237.227 76.8523C233.665 78.4586 226.155 81.4962 212.709 81.3244L147.958 81.1609C135.265 81.1281 123 75.8366 114.306 66.6405L107.248 59.175C106.712 58.609 106.573 57.8141 106.885 57.1009C107.197 56.3877 107.883 55.9543 108.66 55.9493L172.229 56.27C173.867 55.0333 188.144 44.7266 207.323 45.6017C221.13 46.2331 237.055 46.5619 263.436 47.1082C276.053 47.3683 290.354 47.6644 308.044 48.0668L309.758 48.1404C319.219 48.8241 325.334 53.3371 327.949 61.5566C332.456 75.7237 329.371 86.3707 326.693 94.9599L349.446 94.654C356.979 94.986 360.935 99.9832 361.234 109.505C361.366 113.687 359.065 120.148 356.152 128.325C355.029 131.476 353.767 135.022 352.557 138.706L372.236 138.15C376.598 138.02 379.808 139.323 381.769 142.018C386.655 148.736 382.037 161.645 381.838 162.192L378.091 172.278C373.939 183.456 370.268 194.962 367.185 206.477L349.85 271.189L349.847 271.192ZM236.962 270.107H349.01L366.129 206.201C369.223 194.654 372.903 183.114 377.067 171.905L380.813 161.822C380.859 161.698 385.432 148.908 380.882 142.656C379.146 140.27 376.248 139.12 372.264 139.237L351.042 139.836L351.278 139.107C352.565 135.148 353.923 131.334 355.121 127.967C357.996 119.897 360.266 113.521 360.141 109.542C359.859 100.562 356.354 96.0476 349.424 95.7418L325.204 96.0673L325.428 95.3541C328.832 84.4585 331.103 75.0759 326.907 61.887C324.44 54.1321 318.647 49.8726 309.691 49.2249L308.004 49.1513C290.326 48.7505 276.027 48.4544 263.41 48.1944C237.018 47.648 221.089 47.3192 207.269 46.6878C187.375 45.7767 172.893 57.1238 172.749 57.2399L172.599 57.3593H172.407L108.652 57.0371H108.647C108.303 57.0371 108.017 57.2236 107.881 57.536C107.745 57.8501 107.802 58.1854 108.039 58.4357L115.097 65.9011C123.587 74.8797 135.565 80.0486 147.958 80.0796L212.716 80.2432C226.839 80.4215 234.27 77.0176 237.444 75.5634L238.095 75.2657L238.21 75.9707C238.282 76.4156 239.921 86.9448 235.12 94.8306C231.047 101.521 228.382 112.428 231.466 119.463C232.787 122.479 235.028 124.331 238.121 124.966C239.443 125.237 241.353 125.17 244.517 125.057C246.974 124.971 250.028 124.863 254.106 124.863H254.851L254.764 125.479C254.748 125.6 254.345 128.45 254.052 129.824C251.567 141.519 246.596 153.504 242.604 163.135C239.811 169.871 237.398 175.688 236.706 179.36C235.636 185.031 235.994 192.561 239.205 196.598C240.503 198.23 242.148 199.105 244.095 199.195C244.737 199.225 245.362 199.226 246.729 199.231C248.329 199.236 251.006 199.243 255.92 199.305L256.626 199.313L236.966 270.109L236.962 270.107Z" fill="black"/>
<path d="M226.038 77.7668C225.992 77.7668 225.946 77.7602 225.899 77.7488C216.518 75.2805 210.556 64.236 208.429 59.602C207.969 58.6009 206.96 57.9401 205.857 57.9172C199.252 57.788 182.743 57.4755 172.114 57.3594C171.814 57.3561 171.572 57.1108 171.575 56.8114C171.579 56.5121 171.823 56.2733 172.126 56.2749C182.757 56.391 199.272 56.7035 205.878 56.8327C207.397 56.8621 208.786 57.7716 209.419 59.1505C211.482 63.6439 217.244 74.3497 226.176 76.7003C226.467 76.7771 226.64 77.0732 226.564 77.3627C226.5 77.6048 226.28 77.7668 226.038 77.7668Z" fill="black"/>
<path d="M328.718 125.515C327.551 125.515 326.381 125.296 325.306 124.761C322.76 123.494 320.043 120.021 321.558 110.671C322.512 104.791 324.048 99.8998 325.533 95.1693L325.912 93.9605C326.001 93.6742 326.307 93.5139 326.595 93.6039C326.882 93.6922 327.042 93.9965 326.953 94.2827L326.573 95.4932C325.099 100.188 323.575 105.041 322.633 110.846C321.515 117.733 322.609 122.21 325.792 123.795C329.149 125.465 333.751 123.516 335.175 122.048C337.93 119.205 339.361 113.844 340.747 108.661C342.313 102.797 343.794 97.2581 347.13 95.3132C347.825 94.9076 348.597 94.6835 349.424 94.6491C349.728 94.6344 349.978 94.8683 349.991 95.1676C350.004 95.467 349.771 95.7189 349.47 95.732C348.823 95.7598 348.221 95.9332 347.68 96.2489C344.731 97.968 343.306 103.297 341.799 108.939C340.379 114.257 338.909 119.754 335.957 122.798C334.759 124.035 331.754 125.517 328.717 125.517L328.718 125.515Z" fill="black"/>
<path d="M237.712 76.5874C237.507 76.5874 237.309 76.4712 237.217 76.2717C237.091 76.0002 237.211 75.6779 237.484 75.5536C239.624 74.5738 241.741 73.4599 243.777 72.2445L244.19 71.9992C260.121 62.471 289.828 46.7059 309.77 48.1437C310.069 48.1649 310.296 48.425 310.273 48.7227C310.251 49.0221 309.988 49.2445 309.691 49.2233C290.047 47.8051 260.57 63.4656 244.75 72.9266L244.338 73.1736C242.267 74.4086 240.115 75.5405 237.941 76.5367C237.867 76.571 237.789 76.5874 237.714 76.5874H237.712Z" fill="black"/>
<path d="M254.222 125.947C253.927 125.947 253.686 125.715 253.677 125.42C253.669 125.121 253.906 124.872 254.207 124.864C276.854 124.257 327.689 124.428 328.201 124.429C328.501 124.429 328.745 124.673 328.743 124.972C328.743 125.272 328.498 125.512 328.199 125.512H328.197C327.686 125.51 276.867 125.34 254.238 125.947C254.233 125.947 254.228 125.947 254.223 125.947H254.222Z" fill="black"/>
<path d="M345.655 200.643C344.595 200.643 343.532 200.435 342.527 200C340.277 199.023 333.357 194.483 338.75 177.108C340.943 170.043 343.62 162.056 346.209 154.332C347.917 149.24 349.681 143.975 351.278 139.058C351.371 138.773 351.678 138.616 351.964 138.709C352.25 138.801 352.408 139.107 352.314 139.391C350.715 144.312 348.949 149.58 347.241 154.674C344.654 162.393 341.98 170.374 339.791 177.427C335.716 190.552 338.758 197.18 342.963 199.007C346.221 200.422 350.215 199.045 352.056 195.871C353.471 193.432 354.406 186.505 355.49 178.484C357.888 160.715 360.873 138.6 371.483 138.079C371.743 138.066 371.996 138.06 372.243 138.058H372.246C372.545 138.058 372.788 138.299 372.79 138.596C372.792 138.896 372.55 139.139 372.249 139.143C372.017 139.143 371.781 139.151 371.536 139.162C361.831 139.638 358.789 162.174 356.568 178.629C355.424 187.099 354.522 193.789 352.998 196.414C351.448 199.086 348.563 200.644 345.654 200.644L345.655 200.643Z" fill="black"/>
<path d="M307.559 200.919C305.981 200.919 304.383 200.919 302.762 200.916C302.462 200.916 302.218 200.672 302.218 200.373C302.218 200.073 302.463 199.831 302.762 199.831C326.075 199.864 345.527 199.638 345.721 199.637C346.028 199.642 346.268 199.872 346.272 200.172C346.275 200.471 346.035 200.716 345.734 200.72C345.553 200.721 328.689 200.917 307.557 200.917L307.559 200.919Z" fill="black"/>
<path d="M276.68 200.757H276.673C269.056 200.669 262.065 200.545 255.895 200.387C255.594 200.379 255.357 200.131 255.364 199.831C255.372 199.532 255.617 199.287 255.923 199.303C262.087 199.46 269.073 199.584 276.685 199.673C276.985 199.676 277.227 199.921 277.224 200.221C277.22 200.518 276.977 200.756 276.68 200.756V200.757Z" fill="black"/>
<path d="M330.628 239.985L325.316 234.704C324.473 233.866 323.107 233.866 322.263 234.704L316.527 240.407L314.217 248.939C313.744 250.69 315.069 252.409 316.892 252.409H345.879C347.131 252.409 348.228 251.573 348.553 250.371L349.125 248.26L338.768 237.962C337.925 237.124 336.559 237.124 335.716 237.962L333.681 239.985C332.837 240.823 331.472 240.823 330.628 239.985Z" fill="#FFE09A"/>
<path d="M345.88 252.95H316.893C315.853 252.95 314.895 252.479 314.262 251.658C313.631 250.838 313.423 249.795 313.693 248.797L319.032 229.081C319.42 227.645 320.736 226.643 322.232 226.643H351.219C352.26 226.643 353.218 227.114 353.851 227.935C354.482 228.754 354.689 229.798 354.42 230.796L349.081 250.511C348.691 251.947 347.376 252.95 345.88 252.95ZM322.232 227.727C321.228 227.727 320.345 228.399 320.084 229.364L314.745 249.08C314.564 249.749 314.702 250.449 315.126 250.999C315.55 251.55 316.195 251.866 316.893 251.866H345.88C346.885 251.866 347.767 251.192 348.029 250.228L353.368 230.513C353.548 229.844 353.41 229.144 352.986 228.594C352.562 228.043 351.918 227.727 351.219 227.727H322.232Z" fill="black"/>
<path d="M344.73 236.773C346.233 236.773 347.452 235.561 347.452 234.066C347.452 232.57 346.233 231.358 344.73 231.358C343.227 231.358 342.008 232.57 342.008 234.066C342.008 235.561 343.227 236.773 344.73 236.773Z" fill="#CADDFF"/>
<path d="M264.135 153.31L259.301 148.504C258.533 147.742 257.29 147.742 256.523 148.504L252.836 152.22L249.202 161.457C248.771 163.049 249.977 164.614 251.634 164.614H278.013C279.152 164.614 280.15 163.854 280.447 162.759L280.967 160.839L271.541 151.468C270.774 150.706 269.531 150.706 268.764 151.468L266.911 153.31C266.143 154.072 264.901 154.072 264.133 153.31H264.135Z" fill="#FF9500"/>
<path d="M278.315 165.157H251.639C250.709 165.157 249.833 164.706 249.299 163.948C248.756 163.181 248.628 162.234 248.947 161.351L255.574 143.005C255.982 141.878 257.064 141.122 258.267 141.122H284.943C285.873 141.122 286.749 141.573 287.283 142.331C287.826 143.098 287.954 144.045 287.635 144.928L281.008 163.275C280.6 164.402 279.518 165.157 278.315 165.157ZM258.267 142.203C257.522 142.203 256.852 142.671 256.6 143.369L249.973 161.716C249.775 162.262 249.854 162.848 250.19 163.324C250.526 163.8 251.054 164.073 251.639 164.073H278.315C279.06 164.073 279.731 163.605 279.982 162.906L286.609 144.56C286.807 144.014 286.728 143.428 286.393 142.952C286.056 142.476 285.528 142.203 284.943 142.203H258.267Z" fill="black"/>
<path d="M276.967 150.397C278.335 150.394 279.442 149.289 279.439 147.929C279.437 146.568 278.326 145.468 276.958 145.47C275.59 145.473 274.483 146.578 274.485 147.938C274.488 149.299 275.599 150.4 276.967 150.397Z" fill="#FFE09A"/>
<path d="M242.395 114.765C264.291 114.754 292.99 114.35 308.657 114.033C309.914 114.006 311.048 113.31 311.31 112.086C311.982 108.937 313.307 98.4686 314.701 94.2713C315.235 92.665 314.009 91.0162 312.307 91.0391C301.921 91.1798 257.69 90.5026 249.366 90.3717C248.362 90.3553 247.372 90.6678 246.591 91.2959C246.544 91.3335 246.499 91.3711 246.458 91.4071C243.263 94.2647 238.838 106.646 239.778 112.297C240.01 113.694 240.972 114.762 242.395 114.762V114.765Z" fill="#FFE09A"/>
<path d="M327.14 148.1C326.843 148.1 326.6 147.861 326.596 147.565C326.593 147.266 326.833 147.02 327.134 147.017C334.914 146.924 337.941 146.737 341.788 146.354C342.087 146.327 342.353 146.543 342.384 146.84C342.414 147.138 342.195 147.403 341.896 147.434C338.019 147.82 334.969 148.008 327.149 148.101H327.142L327.14 148.1Z" fill="black"/>
<path d="M319.51 159.015C319.211 159.015 318.968 158.775 318.966 158.477C318.965 158.178 319.206 157.934 319.507 157.932C323.005 157.913 327.025 157.713 330.573 157.538C332.535 157.442 334.388 157.348 335.905 157.301C336.202 157.28 336.457 157.527 336.467 157.824C336.477 158.124 336.24 158.374 335.941 158.384C334.434 158.431 332.584 158.523 330.627 158.621C327.068 158.798 323.036 158.997 319.514 159.017H319.51V159.015Z" fill="black"/>
<path d="M318.378 169.78C318.08 169.78 317.837 169.541 317.834 169.243C317.83 168.944 318.072 168.699 318.373 168.697C326.757 168.617 331.329 168.556 335.528 168.139C335.827 168.11 336.094 168.327 336.125 168.625C336.155 168.923 335.936 169.188 335.637 169.219C331.391 169.641 326.8 169.703 318.384 169.781H318.379L318.378 169.78Z" fill="black"/>
<path d="M256.748 179.602C256.748 179.602 256.741 179.602 256.738 179.602C249.095 179.458 243.993 179.336 243.943 179.334C243.643 179.328 243.406 179.079 243.412 178.78C243.419 178.485 243.662 178.251 243.957 178.251C243.961 178.251 243.965 178.251 243.97 178.251C244.021 178.251 249.119 178.376 256.76 178.519C257.06 178.524 257.299 178.773 257.294 179.071C257.289 179.367 257.046 179.602 256.75 179.602H256.748Z" fill="black"/>
<path d="M311.136 180.859C310.836 180.859 310.593 180.618 310.591 180.321C310.59 180.021 310.831 179.778 311.132 179.776C321.262 179.715 327.821 179.485 332.399 179.03C332.7 179.002 332.964 179.218 332.995 179.516C333.025 179.814 332.806 180.078 332.507 180.11C327.895 180.568 321.305 180.8 311.139 180.86H311.136V180.859Z" fill="black"/>
<path d="M311.175 191.687C310.877 191.687 310.634 191.448 310.631 191.152C310.628 190.853 310.868 190.607 311.168 190.604C319.67 190.499 325.76 190.27 329.267 189.922C329.565 189.896 329.833 190.11 329.864 190.408C329.894 190.706 329.675 190.971 329.376 191.002C325.837 191.353 319.716 191.586 311.182 191.689H311.175V191.687Z" fill="black"/>
<path d="M345.548 209.167C341.421 209.167 336.25 209.147 330.045 209.109C329.744 209.108 329.502 208.864 329.504 208.565C329.506 208.267 329.749 208.026 330.048 208.026H330.051C346.809 208.13 355.998 208.095 357.359 207.927C357.656 207.889 357.929 208.1 357.967 208.398C358.005 208.695 357.792 208.965 357.493 209.003C356.604 209.114 352.6 209.168 345.548 209.168V209.167Z" fill="black"/>
<path d="M347.151 219.638C346.852 219.638 346.607 219.396 346.607 219.099C346.607 218.799 346.849 218.556 347.149 218.556C351.8 218.539 354.502 218.487 355.179 218.403C355.478 218.367 355.749 218.577 355.787 218.875C355.825 219.172 355.613 219.442 355.314 219.48C354.582 219.571 351.915 219.624 347.154 219.64H347.153L347.151 219.638Z" fill="black"/>
<path d="M340.619 219.642C329.91 219.622 316.4 219.506 299.411 219.337C299.11 219.334 298.868 219.089 298.872 218.789C298.875 218.49 299.118 218.243 299.422 218.253C316.41 218.421 329.917 218.538 340.621 218.557C340.921 218.557 341.165 218.801 341.165 219.1C341.165 219.4 340.92 219.642 340.621 219.642H340.619Z" fill="black"/>
<path d="M313.246 229.989H313.241C309.166 229.957 306.564 229.921 303.811 229.881C301.615 229.85 299.319 229.818 296.097 229.785C295.796 229.782 295.555 229.536 295.558 229.237C295.561 228.939 295.804 228.7 296.102 228.7H296.107C299.33 228.733 301.628 228.766 303.826 228.797C306.577 228.836 309.178 228.872 313.249 228.905C313.55 228.907 313.792 229.152 313.79 229.451C313.787 229.749 313.545 229.989 313.246 229.989Z" fill="black"/>
<path d="M310.951 240.326H310.946C306.185 240.288 301.832 240.249 297.499 240.211L293.244 240.173C292.943 240.17 292.701 239.926 292.704 239.627C292.708 239.329 292.951 239.091 293.248 239.091H293.253L297.509 239.128C301.842 239.167 306.194 239.205 310.955 239.243C311.255 239.246 311.497 239.49 311.495 239.789C311.494 240.087 311.25 240.327 310.951 240.327V240.326Z" fill="black"/>
<path d="M308.438 250.94H308.433C301.633 250.886 296.779 250.794 292.085 250.706C288.396 250.637 284.584 250.565 279.888 250.513C279.587 250.51 279.346 250.264 279.349 249.965C279.352 249.666 279.607 249.428 279.9 249.428C284.601 249.481 288.416 249.553 292.104 249.621C296.796 249.71 301.648 249.801 308.441 249.855C308.742 249.857 308.984 250.102 308.982 250.402C308.981 250.699 308.737 250.94 308.438 250.94Z" fill="black"/>
<path d="M334.662 261.553C322.564 261.553 303.402 261.391 286.578 261.22C286.277 261.217 286.036 260.972 286.039 260.673C286.042 260.375 286.286 260.136 286.583 260.136H286.588C323.659 260.511 344.36 260.573 346.457 260.313C346.755 260.275 347.028 260.486 347.066 260.784C347.103 261.081 346.891 261.351 346.592 261.389C345.644 261.507 341.176 261.554 334.66 261.554L334.662 261.553Z" fill="black"/>
<path d="M266.748 261.006H266.745L255.402 260.934C255.101 260.933 254.859 260.689 254.861 260.389C254.863 260.092 255.106 259.851 255.405 259.851H255.408L266.752 259.923C267.053 259.925 267.294 260.169 267.293 260.468C267.291 260.766 267.048 261.006 266.748 261.006Z" fill="black"/>
<path d="M316.141 83.1253C316.131 83.1253 316.121 83.1253 316.111 83.1253C293.477 81.9296 247.18 82.7556 246.715 82.7638C246.414 82.7769 246.166 82.5316 246.161 82.2322C246.156 81.9329 246.394 81.6859 246.695 81.681C247.16 81.6728 293.497 80.8451 316.169 82.0441C316.469 82.0605 316.7 82.3156 316.683 82.6133C316.668 82.9029 316.427 83.127 316.139 83.127L316.141 83.1253Z" fill="black"/>
<path d="M316.473 72.6682C316.456 72.6682 316.441 72.6682 316.425 72.6666C292.953 70.6252 256.283 72.2184 255.915 72.2347C255.607 72.2445 255.359 72.0155 255.346 71.7178C255.333 71.4185 255.564 71.165 255.865 71.1519C256.233 71.1355 292.976 69.5374 316.519 71.587C316.818 71.6132 317.04 71.8765 317.013 72.1742C316.989 72.4556 316.75 72.6682 316.471 72.6682H316.473Z" fill="black"/>
<path d="M316.555 62.5675C316.54 62.5675 316.524 62.5675 316.509 62.5659C309.896 62.0065 301.459 62.0392 293.298 62.0703C287.89 62.0915 282.298 62.1128 277.306 61.9607C277.005 61.9509 276.769 61.7022 276.778 61.4029C276.788 61.1036 277.041 60.8713 277.339 60.8778C282.313 61.0299 287.895 61.0087 293.294 60.9874C301.477 60.9547 309.939 60.922 316.601 61.4863C316.9 61.5125 317.124 61.7742 317.097 62.0719C317.073 62.3549 316.836 62.5675 316.555 62.5675Z" fill="black"/>
<path d="M256.197 55.7563C243.69 55.7563 230.282 55.1953 218.176 54.6882L216.73 54.6277C216.429 54.6146 216.196 54.3627 216.209 54.0634C216.222 53.764 216.474 53.5334 216.776 53.5448L218.222 53.6054C233.213 54.2335 250.204 54.945 264.981 54.5672C265.277 54.5557 265.532 54.7962 265.54 55.0955C265.549 55.3949 265.31 55.6435 265.009 55.6517C262.144 55.7253 259.197 55.7563 256.197 55.7563Z" fill="black"/>
<path d="M99.4158 126.557L111.601 123.898C113.103 123.57 114.658 124.148 115.585 125.376L120.293 131.623L122.673 123.567C123.079 122.19 124.203 121.145 125.604 120.839L136.809 118.392C138.933 117.929 140.275 115.829 139.81 113.702L134.591 89.881C134.126 87.7545 132.027 86.4067 129.904 86.8696L92.5122 95.0335C90.3885 95.4964 89.0456 97.5967 89.5108 99.7232L94.7296 123.544C95.1948 125.671 97.2938 127.019 99.4175 126.556L99.4158 126.557Z" fill="#A8B7FF"/>
<path d="M109.623 109.33C110.787 109.073 111.936 109.41 112.789 110.12L119.198 105.878C119.17 105.788 119.131 105.703 119.109 105.61C119.071 105.435 119.062 105.263 119.048 105.09L111.137 103.351C110.639 104.249 109.788 104.946 108.708 105.183C106.711 105.623 104.727 104.354 104.285 102.353C103.842 100.353 105.108 98.3687 107.105 97.9287C109.102 97.4887 111.086 98.758 111.528 100.759C111.566 100.934 111.576 101.105 111.589 101.279L119.5 103.017C119.998 102.119 120.85 101.423 121.93 101.185C123.927 100.745 125.911 102.015 126.353 104.015C126.795 106.016 125.53 108 123.532 108.44C122.369 108.697 121.22 108.36 120.367 107.65L113.958 111.891C113.986 111.981 114.025 112.066 114.047 112.16C114.489 114.158 113.223 116.144 111.226 116.584C109.229 117.024 107.245 115.755 106.803 113.754C106.361 111.756 107.626 109.77 109.623 109.33Z" fill="white"/>
<path d="M159.638 118.675L167.895 122.483C168.912 122.952 169.563 123.971 169.563 125.093L169.558 130.792L174.48 127.156C175.321 126.535 176.432 126.42 177.382 126.858L184.975 130.36C186.413 131.025 188.116 130.395 188.778 128.954L196.201 112.816C196.864 111.375 196.234 109.67 194.796 109.006L169.461 97.3204C168.023 96.6563 166.32 97.286 165.658 98.7271L158.235 114.865C157.572 116.306 158.202 118.011 159.64 118.675H159.638Z" fill="#E81E25"/>
<path d="M174.562 108.774C175.407 108.412 176.339 108.424 177.185 108.805C177.818 109.089 178.308 109.551 178.642 110.175C178.809 110.491 178.934 110.84 179.011 111.217C179.345 111.024 179.689 110.885 180.035 110.802C180.723 110.637 181.393 110.697 182.026 110.982C182.872 111.363 183.5 112.053 183.791 112.925C184.079 113.787 184.015 114.759 183.609 115.662C183.191 116.591 182.465 117.286 181.319 117.849C180.295 118.353 178.975 118.737 177.447 119.183C176.926 119.336 176.334 119.509 175.714 119.697C175.551 119.748 175.374 119.736 175.218 119.666C175.062 119.596 174.937 119.471 174.866 119.316C174.596 118.727 174.332 118.169 174.1 117.677C173.418 116.238 172.829 114.993 172.525 113.892C172.185 112.662 172.221 111.656 172.639 110.727C173.043 109.824 173.727 109.13 174.562 108.774Z" fill="white"/>
<path d="M370.528 85.8668L361.312 81.9967C360.176 81.5191 358.864 81.7448 357.954 82.5725L353.326 86.7779L352.631 80.1173C352.513 78.9788 351.78 77.9957 350.721 77.5508L342.245 73.9914C340.639 73.3175 339.887 71.4757 340.566 69.8776L348.175 51.9762C348.854 50.378 350.706 49.6289 352.312 50.3044L380.597 62.1815C382.203 62.8554 382.955 64.6972 382.276 66.2953L374.667 84.1968C373.988 85.7949 372.136 86.544 370.53 85.8685L370.528 85.8668Z" fill="#FF9500"/>
<path d="M355.024 71.2009L358.963 61.9557C359.163 61.4846 359.793 61.3865 360.13 61.7742L367.482 70.2554C367.855 70.6873 367.574 71.3579 367.002 71.3955L355.711 72.1594C355.194 72.1938 354.822 71.6752 355.024 71.2009Z" fill="white"/>
<path d="M211.948 179.781C210.139 179.781 208.666 178.317 208.666 176.516C208.666 174.715 210.139 173.251 211.948 173.251C213.758 173.251 215.231 174.715 215.231 176.516C215.231 178.317 213.758 179.781 211.948 179.781ZM211.948 174.335C210.738 174.335 209.754 175.313 209.754 176.516C209.754 177.718 210.738 178.696 211.948 178.696C213.158 178.696 214.141 177.718 214.141 176.516C214.141 175.313 213.156 174.335 211.948 174.335Z" fill="black"/>
<path d="M362.352 315.224C360.473 315.224 358.945 313.704 358.945 311.836C358.945 309.968 360.473 308.449 362.352 308.449C364.231 308.449 365.76 309.968 365.76 311.836C365.76 313.704 364.231 315.224 362.352 315.224ZM362.352 309.532C361.073 309.532 360.034 310.565 360.034 311.836C360.034 313.107 361.075 314.141 362.352 314.141C363.629 314.141 364.67 313.107 364.67 311.836C364.67 310.565 363.631 309.532 362.352 309.532Z" fill="black"/>
<path d="M346.592 328.284C343.68 328.284 341.311 325.928 341.311 323.033C341.311 320.138 343.68 317.781 346.592 317.781C349.505 317.781 351.873 320.136 351.873 323.033C351.873 325.93 349.505 328.284 346.592 328.284ZM346.592 318.865C344.281 318.865 342.401 320.735 342.401 323.033C342.401 325.331 344.281 327.201 346.592 327.201C348.903 327.201 350.784 325.331 350.784 323.033C350.784 320.735 348.903 318.865 346.592 318.865Z" fill="black"/>
<path d="M203.074 144.972C202.934 144.972 202.794 144.918 202.688 144.812L200.531 142.656C200.319 142.443 200.319 142.102 200.533 141.889C200.746 141.678 201.09 141.68 201.304 141.891L203.46 144.046C203.672 144.259 203.672 144.601 203.458 144.814C203.352 144.918 203.214 144.971 203.074 144.971V144.972Z" fill="black"/>
<path d="M210.622 152.521C210.482 152.521 210.342 152.467 210.236 152.361L208.079 150.205C207.867 149.992 207.867 149.65 208.081 149.438C208.294 149.227 208.638 149.228 208.852 149.439L211.008 151.595C211.22 151.808 211.22 152.15 211.006 152.362C210.9 152.467 210.762 152.519 210.622 152.519V152.521Z" fill="black"/>
<path d="M200.917 152.521C200.778 152.521 200.639 152.469 200.533 152.364C200.319 152.153 200.319 151.809 200.531 151.597L202.688 149.441C202.9 149.228 203.245 149.228 203.458 149.439C203.672 149.65 203.672 149.994 203.46 150.206L201.304 152.362C201.197 152.469 201.057 152.523 200.917 152.523V152.521Z" fill="black"/>
<path d="M208.465 144.972C208.326 144.972 208.187 144.92 208.081 144.815C207.867 144.604 207.867 144.261 208.079 144.048L210.236 141.892C210.448 141.679 210.793 141.679 211.006 141.89C211.22 142.101 211.22 142.445 211.008 142.658L208.852 144.814C208.745 144.92 208.605 144.974 208.465 144.974V144.972Z" fill="black"/>
<path d="M207.608 202.043L131.805 176.304L129.722 182.38L205.524 208.119L207.608 202.043Z" fill="#FFCD5D"/>
<path d="M137.911 179.296L133.737 177.878L132.313 182.032L136.487 183.449L137.911 179.296Z" fill="#FFF4DA"/>
<path d="M144.044 181.377L139.87 179.96L138.446 184.114L142.62 185.531L144.044 181.377Z" fill="#FFF4DA"/>
<path d="M150.177 183.461L146.003 182.043L144.579 186.197L148.753 187.614L150.177 183.461Z" fill="#FFF4DA"/>
<path d="M156.308 185.541L152.135 184.124L150.71 188.277L154.884 189.694L156.308 185.541Z" fill="#FFF4DA"/>
<path d="M162.44 187.622L158.266 186.205L156.842 190.358L161.015 191.775L162.44 187.622Z" fill="#FFF4DA"/>
<path d="M168.572 189.705L164.399 188.288L162.974 192.442L167.148 193.859L168.572 189.705Z" fill="#FFF4DA"/>
<path d="M174.705 191.787L170.531 190.37L169.107 194.523L173.281 195.94L174.705 191.787Z" fill="#FFF4DA"/>
<path d="M180.838 193.87L176.664 192.453L175.24 196.606L179.414 198.024L180.838 193.87Z" fill="#FFF4DA"/>
<path d="M186.969 195.951L182.795 194.534L181.371 198.688L185.545 200.105L186.969 195.951Z" fill="#FFF4DA"/>
<path d="M193.102 198.035L188.928 196.617L187.504 200.771L191.678 202.188L193.102 198.035Z" fill="#FFF4DA"/>
<path d="M199.235 200.116L195.061 198.699L193.637 202.853L197.81 204.27L199.235 200.116Z" fill="#FFF4DA"/>
<path d="M205.367 202.2L201.194 200.782L199.769 204.936L203.943 206.353L205.367 202.2Z" fill="#FFF4DA"/>
<path d="M190.616 251.598L114.813 225.859L112.73 231.935L188.532 257.674L190.616 251.598Z" fill="#FFCD5D"/>
<path d="M120.919 228.851L116.745 227.434L115.321 231.588L119.495 233.005L120.919 228.851Z" fill="#FFF4DA"/>
<path d="M127.052 230.933L122.878 229.516L121.454 233.669L125.628 235.086L127.052 230.933Z" fill="#FFF4DA"/>
<path d="M133.185 233.016L129.011 231.599L127.587 235.753L131.761 237.17L133.185 233.016Z" fill="#FFF4DA"/>
<path d="M139.316 235.097L135.142 233.68L133.718 237.834L137.892 239.251L139.316 235.097Z" fill="#FFF4DA"/>
<path d="M145.449 237.181L141.275 235.763L139.851 239.917L144.024 241.334L145.449 237.181Z" fill="#FFF4DA"/>
<path d="M151.581 239.262L147.408 237.845L145.983 241.999L150.157 243.416L151.581 239.262Z" fill="#FFF4DA"/>
<path d="M157.714 241.344L153.54 239.927L152.116 244.081L156.29 245.498L157.714 241.344Z" fill="#FFF4DA"/>
<path d="M163.845 243.427L159.672 242.01L158.247 246.163L162.421 247.581L163.845 243.427Z" fill="#FFF4DA"/>
<path d="M169.978 245.509L165.804 244.091L164.38 248.245L168.554 249.662L169.978 245.509Z" fill="#FFF4DA"/>
<path d="M176.109 247.592L171.935 246.175L170.511 250.328L174.685 251.746L176.109 247.592Z" fill="#FFF4DA"/>
<path d="M182.243 249.672L178.069 248.255L176.645 252.408L180.818 253.826L182.243 249.672Z" fill="#FFF4DA"/>
<path d="M188.374 251.755L184.2 250.338L182.776 254.491L186.95 255.908L188.374 251.755Z" fill="#FFF4DA"/>
<path d="M203.565 207.453L131.936 183.132L117.028 226.612L188.657 250.933L203.565 207.453Z" fill="#FFD2D4"/>
<path d="M171.436 224.264C175.637 217.604 173.618 208.816 166.926 204.636C160.234 200.455 151.403 202.464 147.202 209.124C143.001 215.784 145.02 224.571 151.712 228.752C158.404 232.933 167.235 230.923 171.436 224.264Z" fill="#FFF4DA"/>
<path d="M158.162 209.572L164.933 218.526C165.443 219.2 165.046 220.172 164.21 220.301L153.818 221.912C152.985 222.041 152.311 221.243 152.584 220.448L156.206 209.883C156.497 209.034 157.623 208.856 158.166 209.572H158.162Z" fill="#E81E25"/>
</g>
</g>
<defs>
<radialGradient id="paint0_radial_1403_252" cx="0" cy="0" r="1" gradientUnits="userSpaceOnUse" gradientTransform="translate(244 190) rotate(90) scale(212.483 279.583)">
<stop stop-color="#FEF3D8"/>
<stop offset="1" stop-color="white" stop-opacity="0"/>
</radialGradient>
<clipPath id="clip0_1403_252">
<rect width="500" height="500" fill="white"/>
</clipPath>
<clipPath id="clip1_1403_252">
<rect width="500" height="500" fill="white"/>
</clipPath>
<clipPath id="clip2_1403_252">
<rect width="301" height="299" fill="white" transform="translate(83 40.5)"/>
</clipPath>
</defs>
</svg>
