<svg xmlns="http://www.w3.org/2000/svg" version="1.1" xmlns:xlink="http://www.w3.org/1999/xlink" width="512" height="512" x="0" y="0" viewBox="0 0 682.667 682.667" style="enable-background:new 0 0 512 512" xml:space="preserve"><g><defs><clipPath id="a" clipPathUnits="userSpaceOnUse"><path d="M0 512h512V0H0Z" fill="#000000" opacity="1" data-original="#000000"></path></clipPath></defs><path d="m0 0 28.08 65.175h54.055L110.215 0Z" style="fill-opacity:1;fill-rule:nonzero;stroke:none" transform="matrix(1.33333 0 0 -1.33333 267.857 592.085)" fill="#E8EDF1" data-original="#e8edf1"></path><path d="m0 0-9.694 22.5h-54.055L-73.442 0Z" style="fill-opacity:1;fill-rule:nonzero;stroke:none" transform="matrix(1.33333 0 0 -1.33333 390.295 535.184)" fill="#C5D3DD" data-original="#c5d3dd"></path><path d="m0 0 28.08-65.175" style="stroke-linecap: round; stroke-linejoin: round; stroke-miterlimit: 10; stroke-dasharray: none; stroke-opacity: 1;" transform="matrix(1.33333 0 0 -1.33333 377.37 505.184)" fill="none" stroke="#000000" stroke-width="15px" stroke-linecap="round" stroke-linejoin="round" stroke-miterlimit="10" stroke-dasharray="none" stroke-opacity="" data-original="#000000"></path><g clip-path="url(#a)" transform="matrix(1.33333 0 0 -1.33333 0 682.667)"><path d="M0 0h-442.76c-14.978 0-27.12-12.142-27.12-27.12v-294.701c0-14.978 12.142-27.12 27.12-27.12H0c14.978 0 27.12 12.142 27.12 27.12V-27.12C27.12-12.142 14.978 0 0 0" style="fill-opacity:1;fill-rule:nonzero;stroke:none" transform="translate(477.38 482.054)" fill="#01C1FA" data-original="#01c1fa"></path><path d="M0 0h-24.17C-9.192 0 2.95-12.142 2.95-27.12v-294.701c0-14.978-12.142-27.12-27.12-27.12H0c14.978 0 27.12 12.142 27.12 27.12V-27.12C27.12-12.142 14.978 0 0 0" style="fill-opacity:1;fill-rule:nonzero;stroke:none" transform="translate(477.38 482.054)" fill="#0290CF" data-original="#0290cf"></path><path d="M0 0h-442.76c-14.978 0-27.12-12.142-27.12-27.12v-242.93c0-14.979 12.142-27.12 27.12-27.12H0c14.978 0 27.12 12.141 27.12 27.12v242.93C27.12-12.142 14.978 0 0 0" style="fill-opacity:1;fill-rule:nonzero;stroke:none" transform="translate(477.38 482.054)" fill="#E8EDF1" data-original="#e8edf1"></path><path d="M0 0a27.012 27.012 0 0 1-4.168 8.162c-4.946 6.613-12.84 10.894-21.733 10.894h-24.163c14.975-.004 27.113-12.145 27.113-27.12v-269.888c13.59 1.47 24.17 12.976 24.17 26.957V-8.064C1.219-5.256.792-2.547 0 0" style="fill-opacity:1;fill-rule:nonzero;stroke:none" transform="translate(503.28 462.998)" fill="#C5D3DD" data-original="#c5d3dd"></path><path d="M0 0c0-14.979 12.142-27.12 27.12-27.12h442.76C484.858-27.12 497-14.979 497 0" style="stroke-linecap: round; stroke-linejoin: round; stroke-miterlimit: 10; stroke-dasharray: none; stroke-opacity: 1;" transform="translate(7.5 212.003)" fill="none" stroke="#000000" stroke-width="15px" stroke-linecap="round" stroke-linejoin="round" stroke-miterlimit="10" stroke-dasharray="none" stroke-opacity="" data-original="#000000"></path><path d="M0 0h353.38c14.978 0 27.12 12.142 27.12 27.12v294.701c0 14.978-12.142 27.12-27.12 27.12H-89.379c-14.978 0-27.121-12.142-27.121-27.12V27.12C-116.5 12.142-104.357 0-89.379 0H-30" style="stroke-linecap: round; stroke-linejoin: round; stroke-miterlimit: 10; stroke-dasharray: none; stroke-opacity: 1;" transform="translate(124 133.112)" fill="none" stroke="#000000" stroke-width="15px" stroke-linecap="round" stroke-linejoin="round" stroke-miterlimit="10" stroke-dasharray="none" stroke-opacity="" data-original="#000000"></path><path d="m0 0 28.08 65.175" style="stroke-linecap: round; stroke-linejoin: round; stroke-miterlimit: 10; stroke-dasharray: none; stroke-opacity: 1;" transform="translate(200.893 67.936)" fill="none" stroke="#000000" stroke-width="15px" stroke-linecap="round" stroke-linejoin="round" stroke-miterlimit="10" stroke-dasharray="none" stroke-opacity="" data-original="#000000"></path><path d="M0 0h-147.235c-13.733 0-24.866-11.133-24.866-24.866v-4.865a8.26 8.26 0 0 1 8.259-8.259H16.606a8.259 8.259 0 0 1 8.259 8.259v4.865C24.865-11.133 13.732 0 0 0" style="fill-opacity:1;fill-rule:nonzero;stroke:none" transform="translate(329.618 67.936)" fill="#01C1FA" data-original="#01c1fa"></path><path d="M0 0h-23.166C-9.433 0 1.699-11.132 1.699-24.865v-4.866A8.259 8.259 0 0 0-6.56-37.99h23.166a8.259 8.259 0 0 1 8.259 8.259v4.866C24.865-11.132 13.733 0 0 0" style="fill-opacity:1;fill-rule:nonzero;stroke:none" transform="translate(329.618 67.936)" fill="#0290CF" data-original="#0290cf"></path><path d="M0 0h-147.235c-13.733 0-24.866-11.133-24.866-24.866v-4.865a8.26 8.26 0 0 1 8.259-8.259H16.606a8.259 8.259 0 0 1 8.259 8.259v4.865C24.865-11.133 13.732 0 0 0Z" style="stroke-linecap: round; stroke-linejoin: round; stroke-miterlimit: 10; stroke-dasharray: none; stroke-opacity: 1;" transform="translate(329.618 67.936)" fill="none" stroke="#000000" stroke-width="15px" stroke-linecap="round" stroke-linejoin="round" stroke-miterlimit="10" stroke-dasharray="none" stroke-opacity="" data-original="#000000"></path><path d="M0 0v-39.25" style="stroke-linecap: round; stroke-linejoin: round; stroke-miterlimit: 10; stroke-dasharray: none; stroke-opacity: 1;" transform="translate(256 434.46)" fill="none" stroke="#000000" stroke-width="15px" stroke-linecap="round" stroke-linejoin="round" stroke-miterlimit="10" stroke-dasharray="none" stroke-opacity="" data-original="#000000"></path><path d="m0 0 22.1 12.567L44.2 0" style="stroke-linecap: round; stroke-linejoin: round; stroke-miterlimit: 10; stroke-dasharray: none; stroke-opacity: 1;" transform="translate(233.9 421.893)" fill="none" stroke="#000000" stroke-width="15px" stroke-linecap="round" stroke-linejoin="round" stroke-miterlimit="10" stroke-dasharray="none" stroke-opacity="" data-original="#000000"></path><path d="m0 0 34.074 19.625" style="stroke-linecap: round; stroke-linejoin: round; stroke-miterlimit: 10; stroke-dasharray: none; stroke-opacity: 1;" transform="translate(146.724 245.333)" fill="none" stroke="#000000" stroke-width="15px" stroke-linecap="round" stroke-linejoin="round" stroke-miterlimit="10" stroke-dasharray="none" stroke-opacity="" data-original="#000000"></path><path d="m0 0-22.017 12.856v25.422" style="stroke-linecap: round; stroke-linejoin: round; stroke-miterlimit: 10; stroke-dasharray: none; stroke-opacity: 1;" transform="translate(168.74 232.477)" fill="none" stroke="#000000" stroke-width="15px" stroke-linecap="round" stroke-linejoin="round" stroke-miterlimit="10" stroke-dasharray="none" stroke-opacity="" data-original="#000000"></path><path d="m0 0-34.074 19.625" style="stroke-linecap: round; stroke-linejoin: round; stroke-miterlimit: 10; stroke-dasharray: none; stroke-opacity: 1;" transform="translate(365.276 245.333)" fill="none" stroke="#000000" stroke-width="15px" stroke-linecap="round" stroke-linejoin="round" stroke-miterlimit="10" stroke-dasharray="none" stroke-opacity="" data-original="#000000"></path><path d="M0 0v-25.422l-22.017-12.856" style="stroke-linecap: round; stroke-linejoin: round; stroke-miterlimit: 10; stroke-dasharray: none; stroke-opacity: 1;" transform="translate(365.276 270.755)" fill="none" stroke="#000000" stroke-width="15px" stroke-linecap="round" stroke-linejoin="round" stroke-miterlimit="10" stroke-dasharray="none" stroke-opacity="" data-original="#000000"></path><path d="m0 0 54.585-31.517L109.17 0 54.585 31.518Z" style="stroke-linecap: round; stroke-linejoin: round; stroke-miterlimit: 10; stroke-dasharray: none; stroke-opacity: 1;" transform="translate(201.415 339.892)" fill="none" stroke="#000000" stroke-width="15px" stroke-linecap="round" stroke-linejoin="round" stroke-miterlimit="10" stroke-dasharray="none" stroke-opacity="" data-original="#000000"></path><path d="M0 0v-63.03l54.587-31.513v63.03z" style="stroke-linecap: round; stroke-linejoin: round; stroke-miterlimit: 10; stroke-dasharray: none; stroke-opacity: 1;" transform="translate(201.452 339.892)" fill="none" stroke="#000000" stroke-width="15px" stroke-linecap="round" stroke-linejoin="round" stroke-miterlimit="10" stroke-dasharray="none" stroke-opacity="" data-original="#000000"></path><path d="M0 0v-63.031l54.587 31.513v63.031z" style="stroke-linecap: round; stroke-linejoin: round; stroke-miterlimit: 10; stroke-dasharray: none; stroke-opacity: 1;" transform="translate(255.96 308.38)" fill="none" stroke="#000000" stroke-width="15px" stroke-linecap="round" stroke-linejoin="round" stroke-miterlimit="10" stroke-dasharray="none" stroke-opacity="" data-original="#000000"></path><path d="M0 0h-35a7 7 0 0 0-7 7v177.573a7 7 0 0 0 7 7H0a7 7 0 0 0 7-7V7a7 7 0 0 0-7-7" style="fill-opacity:1;fill-rule:nonzero;stroke:none" transform="translate(83 247.249)" fill="#0ED2B3" data-original="#0ed2b3"></path><path d="M0 0h-35a7 7 0 0 0-7 7v177.573a7 7 0 0 0 7 7H0a7 7 0 0 0 7-7V7a7 7 0 0 0-7-7Z" style="stroke-linecap: round; stroke-linejoin: round; stroke-miterlimit: 10; stroke-dasharray: none; stroke-opacity: 1;" transform="translate(83 247.249)" fill="none" stroke="#000000" stroke-width="15px" stroke-linecap="round" stroke-linejoin="round" stroke-miterlimit="10" stroke-dasharray="none" stroke-opacity="" data-original="#000000"></path><path d="M0 0h5.667" style="stroke-linecap: round; stroke-linejoin: round; stroke-miterlimit: 10; stroke-dasharray: none; stroke-opacity: 1;" transform="translate(62.666 401.76)" fill="none" stroke="#000000" stroke-width="15px" stroke-linecap="round" stroke-linejoin="round" stroke-miterlimit="10" stroke-dasharray="none" stroke-opacity="" data-original="#000000"></path><path d="M0 0h5.667" style="stroke-linecap: round; stroke-linejoin: round; stroke-miterlimit: 10; stroke-dasharray: none; stroke-opacity: 1;" transform="translate(62.666 362.61)" fill="none" stroke="#000000" stroke-width="15px" stroke-linecap="round" stroke-linejoin="round" stroke-miterlimit="10" stroke-dasharray="none" stroke-opacity="" data-original="#000000"></path><path d="M0 0h5.667" style="stroke-linecap: round; stroke-linejoin: round; stroke-miterlimit: 10; stroke-dasharray: none; stroke-opacity: 1;" transform="translate(62.666 323.46)" fill="none" stroke="#000000" stroke-width="15px" stroke-linecap="round" stroke-linejoin="round" stroke-miterlimit="10" stroke-dasharray="none" stroke-opacity="" data-original="#000000"></path><path d="M0 0h5.667" style="stroke-linecap: round; stroke-linejoin: round; stroke-miterlimit: 10; stroke-dasharray: none; stroke-opacity: 1;" transform="translate(62.666 284.31)" fill="none" stroke="#000000" stroke-width="15px" stroke-linecap="round" stroke-linejoin="round" stroke-miterlimit="10" stroke-dasharray="none" stroke-opacity="" data-original="#000000"></path><path d="M0 0h-96.19a5 5 0 0 1-5-5v-81.55a5 5 0 0 1 5-5H0a5 5 0 0 1 5 5V-5a5 5 0 0 1-5 5" style="fill-opacity:1;fill-rule:nonzero;stroke:none" transform="translate(466.55 448.434)" fill="#FE9738" data-original="#fe9738"></path><path d="M0 0h-96.19a5 5 0 0 1-5-5v-81.55a5 5 0 0 1 5-5H0a5 5 0 0 1 5 5V-5a5 5 0 0 1-5 5Z" style="stroke-linecap: round; stroke-linejoin: round; stroke-miterlimit: 10; stroke-dasharray: none; stroke-opacity: 1;" transform="translate(466.55 448.434)" fill="none" stroke="#000000" stroke-width="15px" stroke-linecap="round" stroke-linejoin="round" stroke-miterlimit="10" stroke-dasharray="none" stroke-opacity="" data-original="#000000"></path><path d="M0 0h23" style="stroke-linecap: round; stroke-linejoin: round; stroke-miterlimit: 10; stroke-dasharray: none; stroke-opacity: 1;" transform="translate(394.455 415.659)" fill="none" stroke="#000000" stroke-width="15px" stroke-linecap="round" stroke-linejoin="round" stroke-miterlimit="10" stroke-dasharray="none" stroke-opacity="" data-original="#000000"></path><path d="M0 0h48" style="stroke-linecap: round; stroke-linejoin: round; stroke-miterlimit: 10; stroke-dasharray: none; stroke-opacity: 1;" transform="translate(394.455 389.659)" fill="none" stroke="#000000" stroke-width="15px" stroke-linecap="round" stroke-linejoin="round" stroke-miterlimit="10" stroke-dasharray="none" stroke-opacity="" data-original="#000000"></path></g></g></svg>