<svg xmlns="http://www.w3.org/2000/svg" version="1.1" xmlns:xlink="http://www.w3.org/1999/xlink" width="512" height="512" x="0" y="0" viewBox="0 0 512 512" style="enable-background:new 0 0 512 512" xml:space="preserve" class=""><g><path d="M126.906 465.616H39.884V358.599c0-11.046 8.954-20 20-20h67.022v127.017z" style="" fill="#C3ECFF" data-original="#c3ecff"></path><path d="M39.884 430.256h87.022v35.36H39.884z" style="" fill="#A4E4FF" data-original="#a4e4ff"></path><path d="M387.971 465.616h-87.022V232.415c0-11.046 8.954-20 20-20h67.022v253.201z" style="" fill="#FFE177" data-original="#ffe177"></path><path d="M300.949 465.616h-87.022v-191.14c0-11.046 8.954-20 20-20h67.022v211.14z" style="" fill="#C3ECFF" data-original="#c3ecff"></path><path d="M213.927 465.616h-87.022V316.537c0-11.046 8.954-20 20-20h67.022v169.079z" style="" fill="#FFE177" data-original="#ffe177"></path><path d="M300.949 430.256h87.022v35.36h-87.022zM126.906 430.256h87.022v35.36h-87.022z" style="" fill="#FFD15B" data-original="#ffd15b"></path><path d="M213.927 430.256h87.022v35.36h-87.022z" style="" fill="#A4E4FF" data-original="#a4e4ff"></path><path d="M474.993 465.616h-87.022V169.323c0-11.046 8.954-20 20-20h47.022c11.046 0 20 8.954 20 20v296.293z" style="" fill="#C3ECFF" data-original="#c3ecff"></path><path d="M454.993 149.323h-21.474v245.172c0 19.943-16.167 36.111-36.111 36.111h-9.437v35.011h87.022V169.323c0-11.046-8.955-20-20-20z" style="" fill="#A4E4FF" data-original="#a4e4ff"></path><path d="M465.359 71.49V25.525c0-8.284-6.716-15-15-15h-37.754c-8.284 0-15 6.716-15 15V71.49a3.795 3.795 0 0 1-3.795 3.795c-3.381 0-5.074 4.088-2.683 6.478l30.153 30.153c5.635 5.635 14.77 5.635 20.405 0l30.153-30.153c2.391-2.391.697-6.478-2.683-6.478a3.795 3.795 0 0 1-3.796-3.795z" style="" fill="#FE93BB" data-original="#fe93bb"></path><path d="M494.5 501.475h-477c-5.523 0-10-4.477-10-10v-15.739c0-5.523 4.477-10 10-10h477c5.523 0 10 4.477 10 10v15.739c0 5.523-4.477 10-10 10z" style="" fill="#8AA2AD" data-original="#8aa2ad"></path><path d="M126.906 465.616H39.884V358.599c0-11.046 8.954-20 20-20h67.022v127.017zM114.791 501.475H17.5c-5.523 0-10-4.477-10-10v-15.739c0-5.523 4.477-10 10-10h477c5.523 0 10 4.477 10 10v15.739c0 5.523-4.477 10-10 10H148.791M474.993 286.345v179.271h-87.022V169.323c0-11.046 8.954-20 20-20h47.022c11.046 0 20 8.954 20 20v82.022M387.971 465.616h-87.022V232.415c0-11.046 8.954-20 20-20h67.022v253.201zM300.949 465.616h-87.022v-191.14c0-11.046 8.954-20 20-20h67.022v211.14z" style="stroke-linecap: round; stroke-linejoin: round; stroke-miterlimit: 10;" fill="none" stroke="#000000" stroke-width="15px" stroke-linecap="round" stroke-linejoin="round" stroke-miterlimit="10" data-original="#000000" class=""></path><path d="M213.927 465.616h-87.022V316.537c0-11.046 8.954-20 20-20h67.022v169.079zM465.359 71.49V25.525c0-8.284-6.716-15-15-15h-37.754c-8.284 0-15 6.716-15 15V71.49a3.795 3.795 0 0 1-3.795 3.795h0c-3.381 0-5.074 4.088-2.683 6.478l30.153 30.153c5.635 5.635 14.77 5.635 20.405 0l30.153-30.153c2.391-2.391.697-6.478-2.683-6.478h0a3.795 3.795 0 0 1-3.796-3.795zM332.018 17.08c0 179.828-127.108 229.223-294.518 229.223" style="stroke-linecap: round; stroke-linejoin: round; stroke-miterlimit: 10;" fill="none" stroke="#000000" stroke-width="15px" stroke-linecap="round" stroke-linejoin="round" stroke-miterlimit="10" data-original="#000000" class=""></path><path d="m313.864 28.679 18.154-18.154 18.154 18.154" style="stroke-linecap: round; stroke-linejoin: round; stroke-miterlimit: 10;" fill="none" stroke="#000000" stroke-width="15px" stroke-linecap="round" stroke-linejoin="round" stroke-miterlimit="10" data-original="#000000" class=""></path></g></svg>