<svg xmlns="http://www.w3.org/2000/svg" version="1.1" xmlns:xlink="http://www.w3.org/1999/xlink" width="512" height="512" x="0" y="0" viewBox="0 0 512 512" style="enable-background:new 0 0 512 512" xml:space="preserve"><g><path fill="#FCCB30" fill-rule="evenodd" d="M213.9 453.7c-.1.1-8.4 12.6-8.5 12.7-7.8 11.9-4.6 28 7.2 35.9 11.9 7.9 28.1 4.7 36-7.2l7.3-10.8c20.8-29-21-59.5-42-30.6z" clip-rule="evenodd" opacity="1" data-original="#fccb30"></path><path fill="#2A2927" fill-rule="evenodd" d="M217.8 456.7c-5 7.7-14.3 18.3-11.3 28.2 2.9 17.8 28.5 23.1 38.2 7.5l8.4-12.6c14.8-23.8-19.4-46.2-35.3-23.1zm-16.4 6.8c6.8-10.8 14.5-23.8 28.1-25.7 15.7-3.8 33.7 8.3 36.2 24.3 1.5 7.7.1 16.1-4.6 23.1l-8.4 12.6c-23.5 33.2-73 .1-51.3-34.3z" clip-rule="evenodd" opacity="1" data-original="#2a2927"></path><path fill="#FCCB30" fill-rule="evenodd" d="M205.5 466.2c5.2-7.8 18-26.9 23.3-34.9 7.9-11.9 4.7-28.1-7.2-36s-28.1-4.7-36 7.2L157.9 444c-18.2 29 23.4 56.8 43.2 28.9.1-.3 4.3-6.5 4.4-6.7z" clip-rule="evenodd" opacity="1" data-original="#fccb30"></path><path fill="#2A2927" fill-rule="evenodd" d="m201.4 463.5 23.3-34.9c10.5-15.1-3.8-36.4-21.7-32.3-5.3 1.1-10.2 4.1-13.4 8.9-9.5 13.4-18.6 27.8-27.7 41.5-3.2 4.8-4.1 10.5-3.1 15.8 3.1 18 28.2 23.1 38.2 7.6.1 0 4.4-6.6 4.4-6.6zm16.5-7.1-12.8 19.1c-14.5 22.8-51.4 15.2-55.9-11.2-1.6-7.8 0-16.4 4.8-23.5l27.3-40.8c9.2-14.2 28.4-18.3 42.6-9.1 14.4 9.3 18.4 28.8 8.9 43-4.1 6.5-10.4 17.2-14.9 22.5z" clip-rule="evenodd" opacity="1" data-original="#2a2927"></path><path fill="#FCCB30" fill-rule="evenodd" d="m157.9 443.9 27.7-41.5 10.3-15.3c7.9-11.9 4.7-28.1-7.2-36s-28.1-4.7-36 7.2c-9 13.4-28.8 43.1-38 56.8-18.2 28.9 23.4 56.8 43.2 28.8z" clip-rule="evenodd" opacity="1" data-original="#fccb30"></path><path fill="#2A2927" fill-rule="evenodd" d="M153.9 441.2c12.7-18.9 25.3-37.9 38-56.8 14.7-23.5-19-46.1-35.1-23.4-13 18.4-25.5 38-38 56.8-3.2 4.8-4.1 10.5-3.1 15.8 3.1 18 28.3 23.1 38.2 7.6zm35.8-36L162 446.7c-4.7 7.1-11.9 11.6-19.6 13.1-26.2 5.9-47.3-25.6-31.4-47.7l37.5-56.1c.1-.2.3-.5.5-.7 24.2-32.8 72.8.7 50.8 35-.1-.1-10.1 14.9-10.1 14.9z" clip-rule="evenodd" opacity="1" data-original="#2a2927"></path><path fill="#FCCB30" fill-rule="evenodd" d="m114.8 415.1 22.4-33.6c7.9-11.9 4.7-28.1-7.2-36s-28.1-4.7-36 7.2l-6.1 9.2-7.6 11.3-8.8 13.1c-18.1 28.8 23.4 56.7 43.3 28.8z" clip-rule="evenodd" opacity="1" data-original="#fccb30"></path><path fill="#2A2927" fill-rule="evenodd" d="m110.7 412.4 22.4-33.6c6.4-9.6 3.8-22.8-5.8-29.2s-22.8-3.8-29.2 5.8c-7.7 10.9-15 22.5-22.4 33.6-3.2 4.8-4.2 10.5-3.1 15.8 3 17.9 28.2 23.1 38.1 7.6zm30.6-28.2-22.4 33.6c-2.7 4.1-6.3 7.3-10.3 9.6-27.8 16.1-59-17.2-41-43.9l22.2-33.2c4.6-7.2 12-11.9 19.9-13.4 25.9-5.9 47.1 25.2 31.6 47.3z" clip-rule="evenodd" opacity="1" data-original="#2a2927"></path><path fill="#F9F8F4" fill-rule="evenodd" d="M188.7 351.1c11.9 7.9 15.1 24.1 7.2 36l-10.3 15.3c19.8-27.9 61.4-.1 43.2 28.9L214 453.5c21.1-28.6 62.7 1.8 41.9 30.7l18.4 13.4c27.4 18.8 55.9-20.5 29.7-40.7l10.6 7.7c23.7 21.9 57.5-9.8 38.8-35.4 13.8 8.1 31.9 8.7 41.5-4.7 9-12.3 6.2-29.8-6.1-38.7l4.4 3.2c12.4 11.4 32.4 10.8 42.6-3.3 9.1-12.4 6-30-6.1-38.7L271.6 231.8l-38.4 46c-9.8 11.7-27.4 13.3-39.1 3.5s-13.3-27.3-3.5-39.1l35.5-42.5h-55.4c-2.2 0-4.1-.6-5.9-1.9L136.2 177c-8.1 14-64.6 111.9-74 128.3l11.7 43.6c.8 5.1 10.6 10 14.1 13l6.1-9.2c19.8-27.9 61.4-.1 43.2 28.9l15.5-23.2c7.9-12 24.1-15.2 35.9-7.3z" clip-rule="evenodd" opacity="1" data-original="#f9f8f4"></path><path fill="#2A2927" fill-rule="evenodd" d="M191.5 347.1c13 8.7 17.3 25.7 10.4 39.5 28.7-5 47.3 28.8 28.6 51.1 24.6-4.8 44.8 23.6 32 45.3l14.7 10.7c21.3 14.8 44.5-14.8 25-31.9-2.8-1.6-4.2-5.1-2.1-7.8 1.7-2.1 4.7-2.5 6.9-.9 4.9 3.8 11.7 9 16.9 12.3 13.6 6.1 30.5-5.5 29.8-20.3 0-4.6-1.5-9.2-4.3-12.9-1.6-2.2-1.2-5.2 1-6.8 2.6-2.2 5.8-.2 8.2 1.1 27 15 50.7-16.7 27.3-36.7l5.7-7.9c7.2 5.8 15.8 12.1 25.3 10 17.1-2.1 25.4-24.9 13.5-37.5-1.1-1.3-2.4-2.4-3.7-3.5L272.3 238.5 236.9 281c-5.7 6.9-13.8 10.8-22.1 11.5-28 3.3-46.7-31.8-27.9-53.3l28.8-34.5c-1.8-.2-49.9.7-49.5-.7-2.7-.2-25.7-18.1-28.4-19.8L67.4 305.9l11.2 41.6c.4 2.7 6.3 5.7 8.1 7.3 13.4-26.7 51.6-24.1 59 5.2 8.6-16.7 29.7-23.9 45.8-12.9zm3.4 21.5c-2.9-17.8-28.5-23.1-38.2-7.6l-15.5 23.2-8.1-5.4c14.8-23.6-19-46-35.1-23.4l-6.2 9.3c-1.6 2.2-4.6 2.7-6.8 1.1l-10.3-7.5c-2.9-2.1-4.7-4.8-5.6-8.2l-11.7-43.6c-.3-1.2-.2-2.5.5-3.7 24.7-42.8 49.3-85.5 74-128.3 1.4-2.5 4.8-3.2 7.1-1.5l28.6 20.8c1 .7 1.8 1 3 1H226c4-.1 6.5 5 3.7 8L194 245.5c-12.9 15.1.2 39.4 19.7 37.2 5.8-.5 11.4-3.3 15.5-8.1l38.4-46c1.6-1.9 4.5-2.3 6.6-.8L432.3 343c2 1.4 3.8 3.1 5.4 4.9 21.3 24-3 62-33.8 52.7 6.2 24.5-17.5 45.7-41.3 37.8 6.3 24.1-21.5 46.8-43.8 35.3 3.6 25.2-27.1 43.3-47.5 27.8l-18-13.1c-2.4-1.4-3.2-4.6-1.6-6.9 17.3-23.1-16.2-48.5-33.6-25.6-1.4 2.4-4.6 3.2-6.9 1.6-2.2-1.5-2.8-4.5-1.3-6.8l14.6-21.8c.1-.2.3-.4.4-.6 6.3-9.7 3.4-22.9-6.3-29.1-9.6-6.2-22.6-3.5-28.9 6-3.6 5.3-11.7-.1-8.1-5.4 5.1-8.3 16.6-20.7 13.3-31.2z" clip-rule="evenodd" opacity="1" data-original="#2a2927"></path><path fill="#FCCB30" fill-rule="evenodd" d="M279.1 237.4c18.5 13.1 127 92.7 155.6 113.4l29.3-21-83.9-145.3H266.7c-11.9 0-25.3 4.1-40.1 14.6l.9.6h-1.4l-35.5 42.5c-9.8 11.7-8.2 29.3 3.5 39.1s29.3 8.2 39.1-3.5l38.4-46z" clip-rule="evenodd" opacity="1" data-original="#fccb30"></path><path fill="#2A2927" fill-rule="evenodd" d="M281.8 233.4C330 268.1 385 309.7 434.7 344.8l22.8-16.3-80.3-139H266.7c-11.9 0-23.8 4.6-34.6 11.9-.5 1.6-2 2.9-3.6 3.2l-34.2 40.9c-13.1 15.1-.1 39.7 19.6 37.4 5.8-.5 11.4-3.3 15.5-8.1l38.4-46c4.5-5.1 9.8 2.1 14 4.6zm12 20.6c-14.3-10.5-14.6-10.5-21.5-15.5L236.8 281c-11.5 13.8-32.5 15.6-46.2 3.9-13.4-11.5-15.3-31.8-4.1-45.5l35.6-42.6c12.8-11 29.1-17 44.6-17.2h113.4c1.7 0 3.3.9 4.2 2.4l83.8 145.1c1.4 2.2.9 5.1-1.3 6.7l-29.3 21c-1.7 1.2-4 1.2-5.7 0-42.4-32-97.2-71.1-138-100.8z" clip-rule="evenodd" opacity="1" data-original="#2a2927"></path><path fill="#00BEAE" fill-rule="evenodd" d="m479.6 336.7 20.5-11.8c4.8-2.8 6.4-8.9 3.7-13.7L411 150.4c-2.8-4.8-8.9-6.4-13.7-3.7l-20.5 11.8c-4.8 2.8-6.4 8.9-3.7 13.7L465.9 333c2.8 4.8 8.9 6.5 13.7 3.7z" clip-rule="evenodd" opacity="1" data-original="#00beae"></path><path fill="#2A2927" fill-rule="evenodd" d="m477.6 332.3 20.1-11.6c2.4-1.4 3.3-4.6 1.9-7l-93-161c-1.6-2.5-4.9-3.1-7.3-1.4l-20.1 11.6c-1.2.7-2 1.9-2.4 3.1-.3 1.3-.2 2.7.5 3.9l92.9 161c1.6 2.4 5 3 7.4 1.4zm24.9-3.2L482 341c-7.1 4.1-16.2 1.7-20.4-5.5l-92.8-160.8c-4.1-7.1-1.7-16.3 5.5-20.4l20.5-11.8c7.1-4.1 16.2-1.7 20.3 5.4L508 308.7c4.1 7.2 1.7 16.3-5.5 20.4z" clip-rule="evenodd" opacity="1" data-original="#2a2927"></path><path fill="#00BEAE" fill-rule="evenodd" d="m135.2 158.6-20.5-11.8c-4.8-2.8-10.9-1.1-13.7 3.7L8.2 311.2c-2.8 4.8-1.1 10.9 3.7 13.7l20.5 11.8c4.8 2.8 10.9 1.1 13.7-3.7C77 279.5 108 225.9 138.9 172.3c2.8-4.8 1.1-10.9-3.7-13.7z" clip-rule="evenodd" opacity="1" data-original="#00beae"></path><path fill="#2A2927" fill-rule="evenodd" d="M132.5 162.7 112.3 151c-2.4-1.4-5.6-.5-7 1.9-29.5 53.1-61.5 109-92.9 160.9-1.3 2.4-.4 5.5 2 6.9l20.5 11.9c2.4 1.4 5.6.5 7-1.9l92.8-160.8c1.5-2.6.5-5.9-2.2-7.2zm-14.9-19.9 20.1 11.6c7.1 4.1 9.6 13.2 5.5 20.4L50.6 335.1c-2 3.7-5.5 6.4-9.3 7.4s-8.2.5-11.7-1.7L9.5 329.1c-7-4.1-9.5-13-5.6-20.1l92.8-160.8c4-7.4 13.7-10 20.9-5.4zM308.3 333.3c-5.1-3.8.5-11.6 5.7-7.9l79.7 58.1c5.1 3.8-.5 11.6-5.7 7.9zM280.6 382.4c-5.1-3.8.6-11.6 5.7-7.9l69.8 50.8c5.1 3.8-.6 11.6-5.7 7.9zM256.2 428.1c-5.1-3.8.6-11.6 5.7-7.9l44.9 32.7c5.1 3.8-.6 11.6-5.7 7.9z" clip-rule="evenodd" opacity="1" data-original="#2a2927"></path><path fill="#FF8048" fill-rule="evenodd" d="M256 29.7c8.9-16.3 17.9-24.5 35.8-24.5 19.7 0 35.8 14.6 35.8 32.6 0 32.6-35.8 65.2-71.5 97.8-35.8-32.6-71.5-65.2-71.5-97.8 0-18 16-32.6 35.8-32.6 17.7.1 26.7 8.2 35.6 24.5z" clip-rule="evenodd" opacity="1" data-original="#ff8048"></path><path fill="#2A2927" fill-rule="evenodd" d="M256 20.2c18.6-33.7 76-21.9 76.4 17.7 0 34.8-36.6 68.1-73.1 101.4-1.9 1.7-4.7 1.7-6.6 0-36.6-33.3-73.1-66.7-73.1-101.4.3-39.6 58.2-51.5 76.4-17.7zm17.4-4.9c-5.9 3.4-9.4 12.2-15 18.7-2.4 1.3-5.3.4-6.6-1.9-8-14.6-15.9-21.9-31.5-21.9-16.1-.1-30.7 11.5-30.9 27.7 0 29.5 32.8 60.3 66.6 91.2 33.8-30.9 66.6-61.7 66.6-91.2.6-23.7-32-35.3-49.2-22.6z" clip-rule="evenodd" opacity="1" data-original="#2a2927"></path></g></svg>