<svg xmlns="http://www.w3.org/2000/svg" version="1.1" xmlns:xlink="http://www.w3.org/1999/xlink" width="512" height="512" x="0" y="0" viewBox="0 0 512 512" style="enable-background:new 0 0 512 512" xml:space="preserve" class=""><g><g fill-rule="evenodd" clip-rule="evenodd"><path fill="#F6DCCD" d="M177.94 107.46c0-46.2 37.57-83.77 83.77-83.77s83.77 37.58 83.77 83.77-37.57 83.77-83.77 83.77c-46.19 0-83.77-37.58-83.77-83.77z" opacity="1" data-original="#f6dccd"></path><path fill="#60B7FF" d="M135.06 253.15c5.96-31.88 34.33-55.67 66.84-55.67h119.63c32.51 0 60.87 23.8 66.83 55.67l1.2 6.42-6.26-1.85a48.496 48.496 0 0 0-13.75-1.99H153.87c-4.65 0-9.28.68-13.75 1.99l-6.26 1.85z" opacity="1" data-original="#60b7ff"></path><path fill="#FE616C" d="M369.55 259.73c24.6 0 44.61 20.01 44.61 44.61v140.74c0 24.6-20.01 44.61-44.61 44.61H153.87c-24.6 0-44.61-20.01-44.61-44.61V304.34c0-24.6 20.01-44.61 44.61-44.61z" opacity="1" data-original="#fe616c"></path><path fill="#87D4ED" d="m304.32 374.71-63.91 36.9v-73.8z" opacity="1" data-original="#87d4ed"></path><path fill="#F1F1F2" d="M239.41 332.61c-.62-.36-1.38-.36-2 0s-1 1.02-1 1.73v80.72c0 .72.38 1.38 1 1.73.3.17.65.27 1 .27s.7-.1 1-.27l69.91-40.36c.62-.36 1-1.02 1-1.73s-.38-1.38-1-1.73z" opacity="1" data-original="#f1f1f2"></path><path d="M244.41 404.68v-59.94l51.91 29.97zm66.91-35.17-69.91-40.36a6.009 6.009 0 0 0-6 0c-1.86 1.07-3 3.05-3 5.2v80.72a6 6 0 0 0 3 5.2 6.02 6.02 0 0 0 6 0l69.91-40.36c1.85-1.07 3-3.05 3-5.2s-1.15-4.13-3-5.2zm98.84 75.57V304.34c0-22.39-18.22-40.61-40.61-40.61H153.87c-22.39 0-40.61 18.22-40.61 40.61v140.74c0 22.39 18.22 40.61 40.61 40.61h215.68c22.39-.01 40.61-18.23 40.61-40.61zM201.9 201.48h119.63c30.93 0 57.36 22.76 62.9 52.4a52.587 52.587 0 0 0-14.88-2.16H153.87c-5.16 0-10.16.76-14.88 2.16 5.54-29.63 31.97-52.4 62.91-52.4zm-19.96-94.02c0-43.99 35.78-79.77 79.77-79.77s79.77 35.78 79.77 79.77c0 43.98-35.78 79.77-79.77 79.77s-79.77-35.79-79.77-79.77zm215.33 152.2c-1.4-18.43-9.45-35.6-22.89-48.65-14.29-13.88-33.06-21.52-52.85-21.52h-18.7c30.01-15.1 50.65-46.2 50.65-82.03 0-50.6-41.17-91.77-91.77-91.77s-91.77 41.17-91.77 91.77c0 35.83 20.64 66.92 50.65 82.03H201.9c-19.8 0-38.57 7.64-52.86 21.52-13.44 13.05-21.49 30.22-22.89 48.65-14.93 9.29-24.89 25.84-24.89 44.68v140.74c0 29.01 23.6 52.61 52.61 52.61h215.68c29.01 0 52.61-23.6 52.61-52.61V304.34c.01-18.84-9.96-35.39-24.89-44.68z" fill="#000000" opacity="1" data-original="#000000" class=""></path></g></g></svg>