<svg xmlns="http://www.w3.org/2000/svg" version="1.1" xmlns:xlink="http://www.w3.org/1999/xlink" width="512" height="512" x="0" y="0" viewBox="0 0 100 100" style="enable-background:new 0 0 512 512" xml:space="preserve"><g><circle cx="17.686" cy="42.481" r="14.153" fill="#FFA4DA" opacity="1" data-original="#ffa4da"></circle><path d="M17.686 57.667C9.312 57.667 2.5 50.855 2.5 42.48c0-8.373 6.812-15.186 15.186-15.186 8.373 0 15.186 6.813 15.186 15.186 0 8.374-6.813 15.186-15.186 15.186zm0-28.307c-7.235 0-13.12 5.887-13.12 13.121s5.885 13.12 13.12 13.12 13.12-5.885 13.12-13.12-5.886-13.12-13.12-13.12z" fill="#000000" opacity="1" data-original="#000000"></path><path d="M13.838 52.642a3.997 3.997 0 0 1-3.993-3.993c0-2.202 1.79-3.993 3.993-3.993s3.992 1.79 3.992 3.993a3.997 3.997 0 0 1-3.992 3.993zm0-5.92c-1.063 0-1.928.864-1.928 1.927s.865 1.927 1.928 1.927 1.927-.864 1.927-1.927-.865-1.928-1.927-1.928z" fill="#000000" opacity="1" data-original="#000000"></path><path d="M16.798 49.681c-.57 0-1.033-.462-1.033-1.032V33.946a1.623 1.623 0 0 1 1.871-1.606l6.513 1.002a1.616 1.616 0 0 1 1.378 1.606v2.946a1.623 1.623 0 0 1-1.871 1.605l-5.826-.896V48.65c0 .57-.462 1.032-1.032 1.032zm1.032-13.167 5.632.866v-2.055l-5.632-.866z" fill="#000000" opacity="1" data-original="#000000"></path><circle cx="80.96" cy="24.822" r="15.507" fill="#A1EBFF" opacity="1" data-original="#a1ebff"></circle><path d="M80.96 41.362c-9.12 0-16.54-7.42-16.54-16.54s7.42-16.54 16.54-16.54 16.54 7.42 16.54 16.54-7.42 16.54-16.54 16.54zm0-31.015c-7.981 0-14.475 6.494-14.475 14.476S72.98 39.297 80.96 39.297s14.475-6.493 14.475-14.474-6.493-14.476-14.475-14.476z" fill="#000000" opacity="1" data-original="#000000"></path><path d="M88.101 33.371H73.82a3.12 3.12 0 0 1-3.118-3.115v-8.314a3.12 3.12 0 0 1 3.118-3.116h2.194l.518-.941a3.123 3.123 0 0 1 2.733-1.612h3.392c1.136 0 2.182.617 2.732 1.61l.519.943H88.1a3.12 3.12 0 0 1 3.118 3.116v8.314a3.12 3.12 0 0 1-3.118 3.115zM73.82 20.891c-.58 0-1.053.471-1.053 1.05v8.315c0 .58.472 1.05 1.053 1.05H88.1c.58 0 1.053-.47 1.053-1.05v-8.314c0-.58-.473-1.05-1.053-1.05h-2.628c-.486 0-.933-.265-1.167-.691l-.727-1.32a1.055 1.055 0 0 0-.923-.542h-3.392c-.385 0-.74.208-.925.543l-.724 1.319c-.238.427-.684.69-1.168.69h-2.628zm7.141 10.106a4.907 4.907 0 0 1-4.902-4.901c0-2.702 2.2-4.9 4.902-4.9a4.906 4.906 0 0 1 4.901 4.9 4.907 4.907 0 0 1-4.9 4.901zm0-7.736a2.839 2.839 0 0 0-2.837 2.835 2.84 2.84 0 0 0 2.837 2.836 2.84 2.84 0 0 0 2.836-2.836 2.838 2.838 0 0 0-2.836-2.835z" fill="#000000" opacity="1" data-original="#000000"></path><path fill="#A1EBFF" d="M62.542 86.446c20.348-8.113 15.166-29.63-9.147-35.93H41.982c-24.314 6.3-29.496 27.817-9.148 35.93z" opacity="1" data-original="#a1ebff"></path><path d="M62.543 87.479h-29.71c-.13 0-.26-.025-.382-.074-8.865-3.535-13.685-9.77-13.223-17.105.583-9.236 9.412-17.394 22.494-20.784.085-.022.172-.033.26-.033h11.413c.087 0 .174.011.259.033 13.082 3.39 21.911 11.548 22.493 20.784.463 7.335-4.356 13.57-13.222 17.105a1.027 1.027 0 0 1-.382.074zm-29.51-2.065h29.31c7.865-3.194 12.143-8.647 11.743-14.984-.523-8.3-8.692-15.702-20.823-18.882h-11.15c-12.131 3.18-20.3 10.582-20.823 18.882-.4 6.337 3.877 11.79 11.744 14.984z" fill="#000000" opacity="1" data-original="#000000"></path><path fill="#FFEEBD" d="M49.538 55.96h-3.7a3.543 3.543 0 0 1-3.543-3.543v-5.984h10.786v5.984a3.543 3.543 0 0 1-3.543 3.543z" opacity="1" data-original="#ffeebd"></path><path d="M49.538 56.992h-3.7a4.58 4.58 0 0 1-4.575-4.575v-5.984c0-.57.462-1.033 1.032-1.033h10.786c.57 0 1.033.463 1.033 1.033v5.984a4.58 4.58 0 0 1-4.576 4.575zm-6.21-9.527v4.952a2.513 2.513 0 0 0 2.51 2.51h3.7a2.513 2.513 0 0 0 2.51-2.51v-4.952z" fill="#000000" opacity="1" data-original="#000000"></path><path fill="#FFEEBD" d="M61.318 32.559v1.98c0 1.025-.834 1.86-1.86 1.86h-.024v2.134c0 5.7-4.615 10.315-10.303 10.315h-2.886c-5.688 0-10.303-4.614-10.303-10.315V36.4h-.024a1.863 1.863 0 0 1-1.86-1.86v-1.98c0-1.026.835-1.86 1.86-1.86h.024v-9.85h23.492v9.85h.024c1.026 0 1.86.834 1.86 1.86z" opacity="1" data-original="#ffeebd"></path><path d="M49.131 49.881h-2.886c-6.25 0-11.336-5.09-11.336-11.348v-1.287a2.892 2.892 0 0 1-1.884-2.707v-1.98c0-1.24.785-2.301 1.884-2.712v-8.999c0-.57.463-1.032 1.033-1.032h23.492c.57 0 1.033.462 1.033 1.032v9.004a2.892 2.892 0 0 1 1.884 2.707v1.98c0 1.24-.785 2.3-1.884 2.71v1.284c0 6.258-5.085 11.348-11.336 11.348zm-12.157-28V30.7c0 .57-.462 1.032-1.032 1.032a.834.834 0 0 0-.852.828v1.98c0 .456.372.827.828.827.57 0 1.056.462 1.056 1.033v2.134c0 5.119 4.16 9.283 9.271 9.283h2.886c5.112 0 9.27-4.164 9.27-9.283V36.4c0-.57.463-1.033 1.033-1.033.48 0 .852-.371.852-.827v-1.98a.83.83 0 0 0-.828-.828c-.57 0-1.056-.462-1.056-1.032V21.88z" fill="#000000" opacity="1" data-original="#000000"></path><path d="M47.688 44.673c-3.09 0-5.603-2.203-5.603-4.911a1.033 1.033 0 0 1 2.065 0c0 1.57 1.587 2.846 3.538 2.846 1.951 0 3.538-1.277 3.538-2.846a1.033 1.033 0 0 1 2.065 0c0 2.708-2.514 4.911-5.603 4.911z" fill="#000000" opacity="1" data-original="#000000"></path><path fill="#424242" d="M45.517 21.825c2.912 4.444 12.21 1.328 14.85 8.872 6.88-12.33-9.333-23.025-21.935-12.261-4.837-1.227-7.142 5.942-2.657 11.512 4.377-1.737 6.319-7.598 11.108-6.776z" opacity="1" data-original="#424242"></path><path d="M60.367 31.73a1.032 1.032 0 0 1-.975-.692c-1.327-3.793-4.531-4.494-7.923-5.236-1.74-.38-3.521-.77-4.952-1.64-2.088-.269-3.467.998-5.51 3.062-1.408 1.423-2.865 2.895-4.85 3.684-.42.166-.902.04-1.186-.312-3.167-3.934-3.177-8.558-1.55-11.093 1.076-1.677 2.817-2.464 4.729-2.177 7.605-6.216 15.994-5.02 20.64-1.211 4.543 3.722 5.515 9.643 2.478 15.085-.183.329-.529.53-.9.53zM37.364 19.328c-1.116 0-1.805.666-2.205 1.29-1.146 1.785-1.14 5.035.94 8.038 1.274-.696 2.373-1.805 3.44-2.884 1.486-1.502 3.01-3.04 5.027-3.544a1.032 1.032 0 0 1 1.814-.97 3.662 3.662 0 0 0 1.109 1.078c1.12.726 2.685 1.069 4.421 1.448 2.891.633 6.375 1.395 8.429 4.517 1.691-4.64-.237-8.442-2.858-10.59-4.084-3.345-11.576-4.3-18.378 1.51-.255.218-.6.297-.925.215a3.33 3.33 0 0 0-.814-.108z" fill="#000000" opacity="1" data-original="#000000"></path><path d="M52.622 34.225c-.57 0-1.033-.462-1.033-1.033v-1.244a1.033 1.033 0 0 1 2.065 0v1.244c0 .57-.462 1.033-1.032 1.033zM42.755 34.225c-.57 0-1.033-.462-1.033-1.033v-1.244a1.033 1.033 0 0 1 2.065 0v1.244c0 .57-.462 1.033-1.032 1.033z" fill="#000000" opacity="1" data-original="#000000"></path><circle cx="73.033" cy="59.218" r="13.207" fill="#9AFFD5" opacity="1" data-original="#9affd5"></circle><path d="M73.033 73.458c-7.852 0-14.24-6.388-14.24-14.24s6.388-14.24 14.24-14.24c7.851 0 14.24 6.388 14.24 14.24s-6.389 14.24-14.24 14.24zm0-26.414c-6.713 0-12.174 5.461-12.174 12.174s5.461 12.174 12.174 12.174c6.713 0 12.174-5.46 12.174-12.174s-5.461-12.174-12.174-12.174z" fill="#000000" opacity="1" data-original="#000000"></path><path d="M70.63 65.94c-.488 0-.976-.129-1.42-.385a2.814 2.814 0 0 1-1.422-2.462v-7.75c0-1.027.531-1.947 1.421-2.461a2.815 2.815 0 0 1 2.842 0l6.712 3.875a2.813 2.813 0 0 1 1.42 2.461c0 1.027-.53 1.948-1.42 2.461l-6.712 3.875a2.837 2.837 0 0 1-1.421.385zm.004-11.376a.795.795 0 0 0-.392.107.763.763 0 0 0-.388.673v7.75c0 .404.271.604.388.672s.427.2.776 0l6.712-3.876a.762.762 0 0 0 .388-.672.763.763 0 0 0-.388-.672l-6.712-3.875a.757.757 0 0 0-.384-.107z" fill="#000000" opacity="1" data-original="#000000"></path><path fill="#CECECE" d="M63.126 90.685H32.25a3.46 3.46 0 0 1-3.46-3.46V65.058a3.46 3.46 0 0 1 3.46-3.46h30.876a3.46 3.46 0 0 1 3.46 3.46v22.165a3.46 3.46 0 0 1-3.46 3.461z" opacity="1" data-original="#cecece"></path><path d="M63.126 91.718H32.25a4.499 4.499 0 0 1-4.494-4.494V65.06a4.499 4.499 0 0 1 4.494-4.493h30.875a4.499 4.499 0 0 1 4.493 4.493v22.165a4.499 4.499 0 0 1-4.493 4.494zM32.25 62.63a2.43 2.43 0 0 0-2.429 2.428v22.165a2.43 2.43 0 0 0 2.429 2.429h30.875a2.43 2.43 0 0 0 2.428-2.429V65.06a2.43 2.43 0 0 0-2.428-2.428z" fill="#000000" opacity="1" data-original="#000000"></path><path d="M66.587 85.47H28.79a1.033 1.033 0 0 1 0-2.065h37.797a1.033 1.033 0 0 1 0 2.065zM41.544 68.736h-6.727a1.033 1.033 0 0 1 0-2.065h6.727a1.033 1.033 0 0 1 0 2.065z" fill="#000000" opacity="1" data-original="#000000"></path></g></svg>