<svg xmlns="http://www.w3.org/2000/svg" version="1.1" xmlns:xlink="http://www.w3.org/1999/xlink" width="512" height="512" x="0" y="0" viewBox="0 0 512 512" style="enable-background:new 0 0 512 512" xml:space="preserve"><g><g fill-rule="evenodd" clip-rule="evenodd"><path fill="#FFD18D" d="M8.84 146.62h494.32v298.94c0 32.14-26.3 58.44-58.44 58.44H67.31c-32.16 0-58.47-26.3-58.47-58.44z" opacity="1" data-original="#ffd18d"></path><path fill="#E29A6C" d="M503.16 109.89V66.47C503.16 34.3 476.86 8 444.72 8H67.31C35.14 8 8.84 34.3 8.84 66.47v43.42z" opacity="1" data-original="#e29a6c"></path><path fill="#FF5F7A" d="M239.63 310.85 67.99 409.93V211.74z" opacity="1" data-original="#ff5f7a"></path><path fill="#ECEAEC" d="M332.6 341.25c0 21.13-17.14 38.27-38.3 38.27-21.13 0-38.27-17.14-38.27-38.27zM399.6 341.25c0 21.13 17.14 38.27 38.3 38.27 21.13 0 38.27-17.14 38.27-38.27zM369.17 385.25c10.92 0 19.78 8.86 19.78 19.78 0 3.93-1.13 7.62-3.14 10.7-9.88 6.99-20.69 8.53-33.29 0a19.772 19.772 0 0 1-3.14-10.7c0-10.92 8.86-19.78 19.79-19.78z" opacity="1" data-original="#eceaec"></path><path fill="#FF5F7A" d="M293.23 415.73h151.88c11.17 0 20.33 9.13 20.33 20.31 0 11.2-9.16 20.33-20.33 20.33H293.23c-11.17 0-20.31-9.13-20.31-20.33 0-11.17 9.14-20.31 20.31-20.31z" opacity="1" data-original="#ff5f7a"></path><path fill="#F4A14E" d="M369.17 240.25c13.21 0 23.88 10.68 23.88 23.88 0 13.18-10.68 23.85-23.88 23.85-13.18 0-23.88-10.68-23.88-23.85-.01-13.21 10.7-23.88 23.88-23.88z" opacity="1" data-original="#f4a14e"></path></g><path fill="#FF5F7A" d="M361.41 264.1c0-4.29 3.47-7.76 7.76-7.76s7.76 3.47 7.76 7.76v.03c0 4.29-3.47 7.76-7.76 7.76s-7.76-3.47-7.76-7.76z" opacity="1" data-original="#ff5f7a"></path><path d="M502.68 138.85H9.32c-4.41 0-7.99 3.57-7.99 7.99v298.34c0 36.57 29.75 66.33 66.32 66.33h376.69c36.57 0 66.33-29.75 66.33-66.33V146.83c0-4.41-3.58-7.98-7.99-7.98zm-7.98 306.32c0 27.77-22.59 50.36-50.36 50.36H67.65c-27.76 0-50.35-22.59-50.35-50.36V154.82h477.4zM444.34.5H67.65C31.08.5 1.33 30.25 1.33 66.83v43.33c0 4.41 3.58 7.99 7.99 7.99h493.36c4.41 0 7.99-3.57 7.99-7.99V66.83C510.67 30.25 480.91.5 444.34.5zm50.36 101.67H17.3V66.83c0-27.77 22.59-50.36 50.35-50.36h376.69c27.77 0 50.36 22.59 50.36 50.36zM64.37 416.54c1.24.71 2.61 1.07 3.99 1.07s2.76-.36 3.99-1.07l171.31-98.9c2.47-1.43 3.99-4.06 3.99-6.92s-1.52-5.49-3.99-6.92L72.35 204.9a7.987 7.987 0 0 0-11.98 6.92v197.8c0 2.86 1.53 5.5 4 6.92zm11.98-190.88 147.35 85.07L76.35 395.8zm284.61 38.46c0-4.41 3.58-8 7.99-8s7.99 3.57 7.99 7.98v.02c0 4.41-3.58 7.99-7.99 7.99s-7.99-3.58-7.99-7.99zM256 335.63c-4.41 0-7.99 3.58-7.99 7.99 0 25.48 20.72 46.21 46.2 46.21 25.47 0 46.19-20.73 46.19-46.21 0-4.41-3.57-7.99-7.98-7.99h-7.76l-19.63-63.54h33.1c2.92 11.24 11.84 20.08 23.12 22.88v83.12c-11.57 3.34-20.05 14.01-20.05 26.64 0 .9.06 1.8.15 2.7h-48.2c-15.59 0-28.27 12.68-28.27 28.27s12.68 28.27 28.27 28.27h151.57c15.59 0 28.27-12.68 28.27-28.27s-12.68-28.27-28.27-28.27h-48.2c.09-.89.15-1.79.15-2.7 0-12.4-8.19-22.93-19.44-26.46v-83.46c10.99-2.97 19.65-11.69 22.51-22.72h26.96l-19.63 63.54h-7.75c-4.41 0-7.99 3.58-7.99 7.99 0 25.48 20.72 46.21 46.19 46.21s46.2-20.73 46.2-46.21c0-4.41-3.58-7.99-7.99-7.99h-7.75l-19.63-63.54h25.71c4.41 0 7.99-3.58 7.99-7.99s-3.58-7.99-7.99-7.99h-74.32c-3.55-13.69-16.02-23.84-30.81-23.84-14.78 0-27.25 10.14-30.8 23.84h-80.45c-4.41 0-7.99 3.58-7.99 7.99s3.58 7.99 7.99 7.99h25.7l-19.63 63.54zm181.53 38.22c-13.9 0-25.64-9.44-29.15-22.25h58.31c-3.51 12.81-15.26 22.25-29.16 22.25zm-13.74-38.22 13.74-44.48 13.74 44.48zm33.23 100.07c0 6.78-5.52 12.3-12.3 12.3H293.16c-6.78 0-12.3-5.52-12.3-12.3s5.52-12.3 12.3-12.3h151.57c6.78 0 12.29 5.52 12.29 12.3zm-76.31-30.96c0 .92-.11 1.82-.31 2.7h-22.91c-.2-.88-.31-1.78-.31-2.7 0-6.48 5.27-11.76 11.76-11.76s11.77 5.27 11.77 11.76zm-11.77-156.49c8.74 0 15.85 7.11 15.85 15.85 0 8.73-7.11 15.84-15.85 15.84-8.73 0-15.84-7.1-15.84-15.83v-.02c0-8.73 7.11-15.84 15.84-15.84zm-74.73 125.6c-13.9 0-25.65-9.44-29.16-22.25h58.31c-3.5 12.81-15.24 22.25-29.15 22.25zm0-82.69 13.74 44.48h-27.48z" fill="#000000" opacity="1" data-original="#000000"></path></g></svg>