<svg xmlns="http://www.w3.org/2000/svg" version="1.1" xmlns:xlink="http://www.w3.org/1999/xlink" width="512" height="512" x="0" y="0" viewBox="0 0 510 510" style="enable-background:new 0 0 512 512" xml:space="preserve" fill-rule="evenodd"><g><circle cx="255" cy="255" r="237.977" fill="#FD4755" opacity="1" data-original="#fd4755"></circle><path fill="#EB3241" d="M255 17.023c131.343 0 237.977 106.634 237.977 237.977S386.343 492.977 255 492.977 17.023 386.343 17.023 255 123.657 17.023 255 17.023zm0 32.626C141.664 49.649 49.649 141.664 49.649 255S141.664 460.351 255 460.351 460.351 368.336 460.351 255 368.336 49.649 255 49.649z" opacity="1" data-original="#eb3241"></path><path fill="#FFE177" d="M423.242 86.758C380.166 43.682 320.671 17.023 255 17.023V255z" opacity="1" data-original="#ffe177"></path><path fill="#FFD064" d="M400.177 109.823C363.006 72.652 311.668 49.649 255 49.649V17.023c65.671 0 125.166 26.659 168.242 69.735z" opacity="1" data-original="#ffd064"></path><path fill="#FE646F" d="M492.93 255c0-60.919-23.218-121.838-69.655-168.275L255 255z" opacity="1" data-original="#fe646f"></path><path fill="#FD4755" d="M460.351 255c0-56.668-23.003-108.006-60.174-145.177l23.098-23.098C469.712 133.162 492.93 194.081 492.93 255z" opacity="1" data-original="#fd4755"></path><path fill="#8AC9FE" d="M17.023 255c0 131.343 106.634 237.977 237.977 237.977 65.671 0 125.166-26.659 168.242-69.735L255 255z" opacity="1" data-original="#8ac9fe"></path><path fill="#60B7FF" d="M49.649 255c0 113.336 92.015 205.351 205.351 205.351 56.668 0 108.006-23.003 145.177-60.174l23.065 23.065C380.166 466.318 320.671 492.977 255 492.977 123.657 492.977 17.023 386.343 17.023 255z" opacity="1" data-original="#60b7ff"></path><path fill="#6CF5C2" d="M255 17.023C123.657 17.023 17.023 123.657 17.023 255H255z" opacity="1" data-original="#6cf5c2"></path><path fill="#00E499" d="M255 49.649C141.664 49.649 49.649 141.664 49.649 255H17.023C17.023 123.657 123.657 17.023 255 17.023z" opacity="1" data-original="#00e499"></path><circle cx="255" cy="255" r="175.668" fill="#ECEFF1" opacity="1" data-original="#eceff1"></circle><path fill="#D1D1D6" d="M266.087 430.324c-3.667.228-7.363.344-11.087.344-96.954 0-175.668-78.714-175.668-175.668S158.046 79.332 255 79.332c3.724 0 7.42.116 11.087.344C174.289 85.405 101.505 161.77 101.505 255s72.784 169.595 164.582 175.324z" opacity="1" data-original="#d1d1d6"></path><circle cx="56.023" cy="119.36" r="30.358" fill="#A79BA7" opacity="1" data-original="#a79ba7"></circle><path fill="#837683" d="M48.523 89.938a30.354 30.354 0 0 1 7.5-.935c16.755 0 30.358 13.603 30.358 30.357 0 16.755-13.603 30.358-30.358 30.358-2.588 0-5.101-.325-7.5-.935 13.133-3.343 22.858-15.256 22.858-29.423 0-14.166-9.725-26.08-22.858-29.422z" opacity="1" data-original="#837683"></path><circle cx="123.816" cy="53.326" r="22.132" fill="#A79BA7" opacity="1" data-original="#a79ba7"></circle><path fill="#837683" d="M116.316 32.499a22.063 22.063 0 0 1 7.5-1.305c12.216 0 22.133 9.917 22.133 22.132 0 12.216-9.917 22.133-22.133 22.133-2.632 0-5.157-.461-7.5-1.305 8.529-3.076 14.633-11.244 14.633-20.828 0-9.583-6.104-17.751-14.633-20.827z" opacity="1" data-original="#837683"></path><circle cx="425.946" cy="428.767" r="30.358" fill="#A79BA7" opacity="1" data-original="#a79ba7"></circle><path fill="#837683" d="M418.446 399.344a30.401 30.401 0 0 1 7.5-.935c16.755 0 30.358 13.603 30.358 30.358s-13.603 30.357-30.358 30.357c-2.588 0-5.101-.324-7.5-.935 13.133-3.342 22.858-15.255 22.858-29.422s-9.725-26.08-22.858-29.423z" opacity="1" data-original="#837683"></path><path fill="#6CF5C2" d="M210.23 248.688a5 5 0 0 1 5-5h21.342a5 5 0 0 1 5 5v103.03a5 5 0 0 1-5 5H215.23a5 5 0 0 1-5-5z" opacity="1" data-original="#6cf5c2"></path><path fill="#00E499" d="M226.572 243.688h10a5 5 0 0 1 5 5v103.03a5 5 0 0 1-5 5h-10a5 5 0 0 0 5-5v-103.03a5 5 0 0 0-5-5z" opacity="1" data-original="#00e499"></path><path fill="#FFE177" d="M268.428 270.058c0-1.326.527-2.598 1.464-3.536a5.004 5.004 0 0 1 3.536-1.464h21.342a5.002 5.002 0 0 1 5 5v81.66a4.999 4.999 0 0 1-5 5h-21.342a5.001 5.001 0 0 1-5-5z" opacity="1" data-original="#ffe177"></path><path fill="#FFD064" d="M284.77 265.058h10a5.002 5.002 0 0 1 5 5v81.66a4.999 4.999 0 0 1-5 5h-10a4.999 4.999 0 0 0 5-5v-81.66a5.001 5.001 0 0 0-5-5z" opacity="1" data-original="#ffd064"></path><path fill="#8AC9FE" d="M326.646 207.558a5 5 0 0 1 5-5h21.341a5 5 0 0 1 5 5v144.16a5 5 0 0 1-5 5h-21.341a5 5 0 0 1-5-5z" opacity="1" data-original="#8ac9fe"></path><path fill="#60B7FF" d="M342.987 202.558h10a5 5 0 0 1 5 5v144.16a5 5 0 0 1-5 5h-10a5 5 0 0 0 5-5v-144.16a5 5 0 0 0-5-5z" opacity="1" data-original="#60b7ff"></path><path fill="#FE646F" d="M152.013 301.583a5 5 0 0 1 5-5h21.362a5 5 0 0 1 5 5v50.135a5 5 0 0 1-5 5h-21.362a5 5 0 0 1-5-5z" opacity="1" data-original="#fe646f"></path><path fill="#FD4755" d="M168.375 296.583h10a5 5 0 0 1 5 5v50.135a5 5 0 0 1-5 5h-10a5 5 0 0 0 5-5v-50.135a5 5 0 0 0-5-5z" opacity="1" data-original="#fd4755"></path><path fill="#FE646F" d="M167.694 245.679c8.262 0 15-6.719 15-14.982 0-8.262-6.738-15-15-15-8.263 0-15 6.738-15 15 0 8.263 6.737 14.982 15 14.982z" opacity="1" data-original="#fe646f"></path><path fill="#FD4755" d="M162.694 244.822c5.816-2.062 10-7.614 10-14.125 0-6.51-4.184-12.074-10-14.141a14.907 14.907 0 0 1 5-.859c8.262 0 15 6.738 15 15 0 8.263-6.738 14.982-15 14.982-1.752 0-3.435-.303-5-.857z" opacity="1" data-original="#fd4755"></path><path fill="#6CF5C2" d="M225.892 194.995c8.267 0 15.009-6.742 15.009-14.991 0-8.267-6.742-15.009-15.009-15.009-8.249 0-14.991 6.742-14.991 15.009 0 8.249 6.742 14.991 14.991 14.991z" opacity="1" data-original="#6cf5c2"></path><path fill="#00E499" d="M220.897 194.135c5.819-2.068 10.004-7.632 10.004-14.131 0-6.514-4.185-12.081-10.004-14.149a14.858 14.858 0 0 1 4.995-.86c8.267 0 15.009 6.742 15.009 15.009 0 8.249-6.742 14.991-15.009 14.991-1.75 0-3.431-.304-4.995-.86z" opacity="1" data-original="#00e499"></path><path fill="#FFE177" d="M284.108 223.706c8.268 0 14.991-6.742 14.991-14.991 0-8.267-6.723-15.009-14.991-15.009-8.267 0-15.009 6.742-15.009 15.009 0 8.249 6.742 14.991 15.009 14.991z" opacity="1" data-original="#ffe177"></path><path fill="#FFD064" d="M279.107 222.847c5.816-2.066 9.992-7.631 9.992-14.132 0-6.515-4.176-12.083-9.992-14.15a14.913 14.913 0 0 1 5.001-.859c8.268 0 14.991 6.742 14.991 15.009 0 8.249-6.723 14.991-14.991 14.991-1.752 0-3.436-.303-5.001-.859z" opacity="1" data-original="#ffd064"></path><path fill="#8AC9FE" d="M342.307 162.979c8.267 0 15.009-6.742 15.009-15.009 0-8.268-6.742-15.01-15.009-15.01s-14.991 6.742-14.991 15.01c0 8.267 6.724 15.009 14.991 15.009z" opacity="1" data-original="#8ac9fe"></path><path fill="#60B7FF" d="M337.308 162.12c5.821-2.067 10.008-7.635 10.008-14.15 0-6.516-4.187-12.084-10.008-14.151a14.897 14.897 0 0 1 4.999-.859c8.267 0 15.009 6.742 15.009 15.01 0 8.267-6.742 15.009-15.009 15.009-1.752 0-3.435-.303-4.999-.859z" opacity="1" data-original="#60b7ff"></path><path d="M399.49 456.53C358.792 485.772 308.892 503 255 503 118.125 503 7 391.875 7 255c0-38.131 8.626-74.264 24.028-106.553-8.179-7.037-13.362-17.461-13.362-29.087 0-21.17 17.187-38.357 38.357-38.357 6.508 0 12.64 1.624 18.012 4.489A249.695 249.695 0 0 1 95.94 64.779a30.016 30.016 0 0 1-2.256-11.453c0-16.63 13.502-30.132 30.132-30.132 8.527 0 16.231 3.549 21.714 9.249C178.554 16.155 215.716 7 255 7c136.875 0 248 111.125 248 248 0 55.347-18.17 106.483-48.864 147.766 6.31 6.837 10.168 15.972 10.168 26.001 0 21.17-17.188 38.357-38.358 38.357-10.253 0-19.571-4.031-26.456-10.594zM45.09 156.135C31.995 183.861 24.236 214.592 23.136 247h49.036C76.251 152.357 152.357 76.251 247 72.172V23.136c-33.566 1.139-65.333 9.422-93.826 23.378.507 2.19.775 4.47.775 6.812 0 16.631-13.502 30.133-30.133 30.133a29.99 29.99 0 0 1-18.068-6.023 233.595 233.595 0 0 0-19.454 18.376 38.178 38.178 0 0 1 8.087 23.548c0 21.17-17.188 38.358-38.358 38.358a38.32 38.32 0 0 1-10.933-1.583zM23.136 263C27.358 387.346 129.633 487 255 487c50.541 0 97.329-16.196 135.451-43.677a38.21 38.21 0 0 1-2.862-14.556 38.17 38.17 0 0 1 7.325-22.539l-16.318-16.319C346.025 419.768 302.625 438 255 438c-98.32 0-178.634-77.705-182.828-175zm417.941 130.514c27.355-36.672 44.129-81.69 45.787-130.514h-49.036c-1.917 44.476-19.74 84.858-47.919 115.596l16.918 16.917a38.159 38.159 0 0 1 19.119-5.104 38.193 38.193 0 0 1 15.131 3.105zM486.864 247c-1.969-57.994-25.266-110.616-62.287-150.263l-34.668 34.667c28.179 30.738 46.002 71.12 47.919 115.596zM413.263 85.423C373.616 48.402 320.994 25.105 263 23.136v49.036c44.476 1.917 84.858 19.74 115.596 47.919zM255 88c-92.17 0-167 74.83-167 167s74.83 167 167 167 167-74.83 167-167S347.17 88 255 88zm-44.77 147.688h31.342a8 8 0 0 1 8 8v113.03a8 8 0 0 1-8 8H210.23a8 8 0 0 1-8-8v-113.03a8 8 0 0 1 8-8zm8 16v97.03h15.342v-97.03zm-29.023-29.12c.96 2.53 1.487 5.27 1.487 8.129 0 12.672-10.329 22.982-23 22.982-12.672 0-23-10.31-23-22.982 0-12.668 10.331-23 23-23 3.979 0 7.728 1.02 10.999 2.811l25.696-22.383a22.81 22.81 0 0 1-1.488-8.121c0-12.677 10.343-23.009 22.991-23.009 12.674 0 23.009 10.335 23.009 23.009 0 .799-.041 1.59-.122 2.369l19.535 9.634c4.126-3.903 9.689-6.301 15.794-6.301 3.248 0 6.341.678 9.146 1.901l28.365-29.608a22.88 22.88 0 0 1-2.303-10.029c0-12.677 10.314-23.01 22.991-23.01 12.674 0 23.009 10.336 23.009 23.01s-10.335 23.009-23.009 23.009c-3.248 0-6.341-.678-9.145-1.9l-28.366 29.608a22.876 22.876 0 0 1 2.303 10.028c0 12.651-10.311 22.991-22.991 22.991-12.677 0-23.009-10.343-23.009-22.991 0-.799.041-1.589.121-2.367l-19.548-9.641c-4.125 3.893-9.681 6.288-15.78 6.288-3.973 0-7.718-1.02-10.987-2.811zm-21.513 15.111c3.853 0 7-3.129 7-6.982 0-3.855-3.145-7-7-7-3.856 0-7 3.145-7 7 0 3.853 3.147 6.982 7 6.982zm58.198-50.684c3.858 0 7.009-3.142 7.009-6.991 0-3.861-3.148-7.009-7.009-7.009-3.849 0-6.991 3.151-6.991 7.009 0 3.847 3.144 6.991 6.991 6.991zm58.216 28.711c3.855 0 6.991-3.144 6.991-6.991 0-3.858-3.133-7.009-6.991-7.009-3.861 0-7.009 3.148-7.009 7.009 0 3.85 3.151 6.991 7.009 6.991zm58.199-60.727c3.861 0 7.009-3.148 7.009-7.009s-3.148-7.01-7.009-7.01c-3.858 0-6.991 3.152-6.991 7.01s3.133 7.009 6.991 7.009zm-15.661 39.579h31.341a8 8 0 0 1 8 8v154.16a8 8 0 0 1-8 8h-31.341a8 8 0 0 1-8-8v-154.16a8 8 0 0 1 8-8zm8 16v138.16h15.341v-138.16zm-66.218 46.5h31.342a8 8 0 0 1 8 8v91.66a8 8 0 0 1-8 8h-31.342a8 8 0 0 1-8-8v-91.66a8 8 0 0 1 8-8zm8 16v75.66h15.342v-75.66zm-124.415 15.525h31.362a8 8 0 0 1 8 8v60.135a8 8 0 0 1-8 8h-31.362a8 8 0 0 1-8-8v-60.135a8 8 0 0 1 8-8zm8 16v44.135h15.362v-44.135zm265.933 101.826c-12.339 0-22.357 10.018-22.357 22.358 0 12.339 10.018 22.357 22.357 22.357 12.34 0 22.358-10.018 22.358-22.357 0-12.34-10.018-22.358-22.358-22.358zM56.023 97.003c-12.339 0-22.357 10.018-22.357 22.357 0 12.34 10.018 22.358 22.357 22.358 12.34 0 22.358-10.018 22.358-22.358 0-12.339-10.018-22.357-22.358-22.357zm67.793-57.809c-7.799 0-14.132 6.332-14.132 14.132s6.333 14.133 14.132 14.133c7.8 0 14.133-6.333 14.133-14.133s-6.333-14.132-14.133-14.132z" fill="#000000" opacity="1" data-original="#000000"></path></g></svg>