<svg xmlns="http://www.w3.org/2000/svg" version="1.1" xmlns:xlink="http://www.w3.org/1999/xlink" width="512" height="512" x="0" y="0" viewBox="0 0 64 64" style="enable-background:new 0 0 512 512" xml:space="preserve" class=""><g><g data-name="07-Target marketing"><path fill="#FCB64D" d="M60 32A28 28 0 1 1 48.6 9.45l-.6 6.69 6.53-.76A27.92 27.92 0 0 1 60 32z" opacity="1" data-original="#fcb64d"></path><circle cx="32.5" cy="32.5" r="20.5" fill="#F37046" opacity="1" data-original="#f37046"></circle><circle cx="32" cy="32" r="13" fill="#FAA629" opacity="1" data-original="#faa629"></circle><circle cx="32" cy="32" r="5" fill="#F05223" opacity="1" data-original="#f05223"></circle><path fill="#434343" d="m61.93 7.91-7.26 7.45-.14.02-6.53.76.6-6.69L55.87 2l.32 5.73z" opacity="1" data-original="#434343"></path><path d="M62.86 7.54a1 1 0 0 0-.9-.63l-4.82-.15-.27-4.82a1 1 0 0 0-.65-.88 1 1 0 0 0-1.07.24l-6.68 6.85a29.16 29.16 0 1 0 7.39 7.42l6.79-7a1 1 0 0 0 .21-1.03zm-7.69-.12-5.91 5.91.3-3.44L55 4.33zM36 32a4.05 4.05 0 1 1-2-3.43l-2.73 2.72a1 1 0 0 0 0 1.42 1 1 0 0 0 1.42 0L35.43 30a4 4 0 0 1 .57 2zm-.53-4.89a6 6 0 1 0 1.42 1.42l4.26-4.27a12 12 0 1 1-1.41-1.41zm5.68-5.68a14 14 0 1 0 1.42 1.42l3.91-3.92A19.5 19.5 0 1 1 45 17.57zM32 59a27 27 0 1 1 15.55-49l-.5 5.59-.62.61a21.61 21.61 0 1 0 1.46 1.37l.41-.41 5.7-.72A27 27 0 0 1 32 59zm22.2-44.59-3.62.42 6.09-6.08 3 .09z" fill="#000000" opacity="1" data-original="#000000"></path></g></g></svg>