<svg width="68" height="69" viewBox="0 0 68 69" fill="none" xmlns="http://www.w3.org/2000/svg">
<g clip-path="url(#clip0_258_2004)">
<path fill-rule="evenodd" clip-rule="evenodd" d="M28.6206 41.8844L19.3237 44.3813L22.3253 43.5844L21.0105 39.0422C20.2003 39.1352 19.3237 39.4672 18.5667 39.9055C18.5667 39.9055 7.50342 47.7415 9.56202 55.4446C11.6206 63.1344 21.794 61.3016 24.3042 60.6243L30.6526 58.9243C33.2026 58.2204 32.2862 54.4883 30.0948 54.6743L30.8519 54.475C33.5347 53.7047 32.4589 49.7071 29.7495 50.3711C32.8175 49.9329 32.1269 45.5235 29.0987 46.1477C32.3394 45.7493 31.8081 41.3266 28.6206 41.8844Z" fill="#FFCEBF"/>
<path fill-rule="evenodd" clip-rule="evenodd" d="M8.39346 48.1133L11.9528 61.4079C12.0325 61.7 11.8599 61.9922 11.5677 62.0719L7.30439 63.2274C7.0122 63.3071 6.72002 63.1344 6.64033 62.8422L3.08096 49.5344C3.00127 49.2422 3.17392 48.95 3.46611 48.8704L7.72939 47.7282C8.02158 47.6485 8.32705 47.8211 8.39346 48.1133Z" fill="#00BEAE"/>
<path fill-rule="evenodd" clip-rule="evenodd" d="M18.0184 33.7921L24.0998 32.1617L26.8309 42.3485L20.7497 43.979L18.0184 33.7921Z" fill="#FF8048"/>
<path fill-rule="evenodd" clip-rule="evenodd" d="M22.1 38.3649C12.8828 40.5297 9.33672 27.2617 18.3945 24.5391L21.7945 23.6227L25.5 37.4617L22.1 38.3649Z" fill="#FFE45E"/>
<path fill-rule="evenodd" clip-rule="evenodd" d="M44.8379 38.8296C44.891 38.8296 44.9973 38.8031 45.0371 38.7898L38.0512 12.6921C37.998 12.7054 37.9051 12.7453 37.852 12.7718C35.727 13.7812 30.3215 22.1484 21.7949 23.6359L25.5004 37.4617C33.6285 34.4867 42.5004 39.0289 44.8379 38.8296Z" fill="#FF8048"/>
<path fill-rule="evenodd" clip-rule="evenodd" d="M39.7769 8.70797C41.6363 8.21656 43.5621 9.31891 44.0667 11.1783L50.9996 37.1033C51.5043 38.9627 50.3886 40.8884 48.5293 41.3931C46.5902 42.0306 44.4519 40.3173 44.2394 38.9095C44.08 38.272 37.2933 12.9978 37.2668 12.8783C36.855 11.0588 37.9574 9.19938 39.7769 8.70797ZM45.9394 46.9713H61.2261C63.2714 46.9713 64.9449 48.6447 64.9449 50.69V60.1197C64.9449 62.165 63.2714 63.8384 61.2261 63.8384C61.0136 63.8916 55.8339 63.7056 55.8738 63.9845L50.5214 67.7298C50.0168 68.115 49.2199 67.7033 49.2464 67.0658V64.6486C49.2464 64.197 48.8746 63.8384 48.4363 63.8384H45.9527C43.9074 63.8384 42.2339 62.165 42.2339 60.1197V50.69C42.2339 48.6314 43.9074 46.9713 45.9394 46.9713Z" fill="#FFE45E"/>
<path fill-rule="evenodd" clip-rule="evenodd" d="M19.5234 1.13757H6.28203C4.50234 1.13757 3.05469 2.58523 3.05469 4.35164V14.3391C3.05469 16.1055 4.50234 17.5532 6.26875 17.5532C6.45469 17.593 10.9437 17.4337 10.9039 17.686L15.5391 20.9266C15.9773 21.2587 16.668 20.9001 16.6547 20.3555V18.2704C16.6547 17.8852 16.9734 17.5665 17.3586 17.5665H19.5234C21.2898 17.5665 22.7375 16.1188 22.7375 14.3524V4.35164C22.7375 2.58523 21.2898 1.13757 19.5234 1.13757Z" fill="#F9F9F9"/>
<path fill-rule="evenodd" clip-rule="evenodd" d="M12.8958 6.0781C13.7458 4.88279 15.7911 4.82966 16.8004 5.85232C19.1379 8.64138 15.7778 11.4039 13.2809 13.8476C13.1735 13.9499 13.0308 14.007 12.8825 14.007C12.7341 14.007 12.5915 13.9499 12.484 13.8476C10.3458 11.8289 8.1942 9.81013 8.1942 7.632C8.10123 5.26794 11.6075 4.21872 12.8958 6.0781Z" fill="#FF8048"/>
<path d="M18.9388 61.9125C15.3263 61.9125 12.4973 60.8898 10.7442 58.964C10.5184 58.7117 10.545 58.3265 10.7841 58.1008C11.0364 57.875 11.4216 57.8883 11.6473 58.1406C13.613 60.3055 16.8536 60.7172 19.2177 60.6906C20.2138 60.7836 19.895 62.1117 18.9388 61.9125ZM23.3348 61.4476C22.6309 61.4609 22.5114 60.3719 23.2153 60.239C23.5872 60.1594 23.8927 60.093 24.1317 60.0265L30.4669 58.3265C32.2864 57.8086 31.5958 55.2984 30.2145 55.2586C29.4442 55.4711 29.1388 54.289 29.8958 54.0898L30.6528 53.8906C31.9278 53.5851 32.1802 51.739 31.0114 51.1148C30.6528 50.9156 30.2544 50.8625 29.8692 50.9554C29.0989 51.1547 28.7934 49.9859 29.5505 49.7867C31.0911 49.6406 31.7419 47.7547 30.3606 46.8914C29.7763 46.3867 28.7536 47.1703 28.4614 46.307C28.302 45.6164 29.0591 45.5101 29.5372 45.3906C31.4497 44.8328 30.6794 41.9906 28.7536 42.4687L22.4716 44.1555C22.445 44.1555 19.47 44.9523 19.4567 44.9656C19.138 45.0586 18.8059 44.8594 18.713 44.5406C18.62 44.2086 18.8325 43.8633 19.1778 43.7836L28.4481 41.3C31.1044 40.5297 33.07 44.0359 31.0513 45.8953C32.4856 46.732 32.7645 48.857 31.6091 50.0523C33.3622 50.9687 33.4153 53.6781 31.7684 54.6875C33.4419 56.0156 32.9239 58.9906 30.7591 59.4953C29.9888 59.6945 23.9989 61.3812 23.3348 61.4476ZM9.42938 52.5625C9.0575 52.5625 8.76532 52.2172 8.83172 51.8453C10.0138 45.2578 17.863 39.6265 18.195 39.4008C18.7927 39.1086 19.6559 38.3914 20.0677 39.2015C20.3466 39.9851 19.3106 40.0914 18.8458 40.4234C18.8192 40.45 11.1028 45.975 10.0138 52.0711C9.97391 52.3633 9.72157 52.5625 9.42938 52.5625Z" fill="#2A2927"/>
<path d="M7.17187 63.8517C6.66718 63.8517 6.20234 63.5063 6.05624 63.0017L2.49687 49.6938C2.33749 49.0829 2.69609 48.4454 3.30703 48.286L7.58359 47.1438C8.16796 46.9712 8.84531 47.3563 8.9914 47.954L12.5508 61.2485C12.6305 61.5407 12.5906 61.8595 12.4312 62.1251C12.2719 62.3907 12.0328 62.5899 11.7273 62.6696L7.46406 63.8118C7.37109 63.8384 7.26484 63.8517 7.17187 63.8517ZM7.82265 48.3126L3.62578 49.4548L7.23828 62.6696L11.4352 61.4876L7.82265 48.3126ZM20.732 44.5938C20.4664 44.5938 20.2141 44.4212 20.1476 44.1423L18.6867 38.697C18.4875 37.9267 19.6562 37.6212 19.8555 38.3782L21.157 43.2392L26.0711 41.9243L23.5078 32.322C23.3086 31.5517 24.4773 31.2329 24.6766 32.0032L27.4125 42.1899C27.5055 42.5087 27.3062 42.854 26.9875 42.9337L20.9047 44.5673C20.8383 44.5938 20.7852 44.5938 20.732 44.5938Z" fill="#2A2927"/>
<path d="M20.2539 39.2149C11.2758 39.082 9.50938 26.4649 18.2352 23.9414L21.6484 23.025C21.9805 22.932 22.2992 23.1313 22.3922 23.45L26.0977 37.2758C26.1906 37.5945 25.9914 37.9399 25.6727 38.0195C24.3313 38.3383 21.5953 39.3078 20.2539 39.2149ZM21.3695 24.3664L18.5539 25.1234C10.2664 27.6336 13.507 39.7594 21.9406 37.7805L24.7563 37.0234L21.3695 24.3664Z" fill="#2A2927"/>
<path d="M44.2133 39.4141C38.7016 38.3251 32.7648 35.5493 25.7125 38.0329C25.2742 38.1922 24.9023 37.8204 24.8492 37.3954L21.1969 23.7821C21.1039 23.4501 21.343 23.0782 21.675 23.0251C24.4508 22.5469 27.1469 21.2719 29.9094 19.1336C30.175 18.9344 30.5602 18.9743 30.7594 19.2399C30.9586 19.5055 30.9187 19.8907 30.6531 20.0899C27.9437 22.1751 25.2742 23.4899 22.5383 24.0876L25.9117 36.6649C31.7023 34.8055 37.825 36.5055 41.5437 37.5282C42.6594 37.8336 43.6289 38.0993 44.2797 38.1922C44.6117 38.2321 44.8508 38.5375 44.7976 38.8696C44.7711 39.1883 44.5187 39.4141 44.2133 39.4141ZM33.5352 17.4071C33.0172 17.4204 32.7117 16.7165 33.1102 16.3579C33.7211 15.7735 34.2789 15.2024 34.7836 14.6844C35.6734 13.7813 36.3641 13.0774 36.9617 12.6125C37.2273 12.4133 37.6125 12.4532 37.8117 12.7188C38.0109 12.9844 37.9711 13.3696 37.7055 13.5688C37.1875 13.9805 36.4703 14.6977 35.6469 15.5211C35.0094 16.0391 34.4117 17.1149 33.5352 17.4071Z" fill="#2A2927"/>
<path d="M47.627 42.1103C45.8207 42.1103 44.1473 40.9017 43.6559 39.0689L36.7098 13.1572C36.0988 11.0455 37.4801 8.65484 39.6184 8.12359C41.7301 7.51265 44.1207 8.8939 44.652 11.0322L51.5981 36.9439C52.3285 39.4408 50.2301 42.19 47.627 42.1103ZM40.6809 9.19937C40.4285 9.19937 40.1762 9.22593 39.9371 9.29234C38.277 9.59781 37.4535 11.8689 37.8918 12.8384C38.0645 13.4627 44.8246 38.7369 44.8645 38.8564C46.3387 42.6947 51.3723 40.4767 50.416 37.2494C50.2434 36.6119 43.4832 11.3377 43.4434 11.2314C43.0848 10.0494 41.9027 9.18609 40.6809 9.19937ZM51.4254 14.9767C50.9074 14.99 50.602 14.2994 51.0004 13.9408L55.6754 9.26578C56.2199 8.70797 57.0965 9.57125 56.5387 10.1291L51.8637 14.8041C51.7441 14.9103 51.5848 14.9767 51.4254 14.9767ZM61.9441 32.1228C61.891 32.1228 61.8379 32.1228 61.7848 32.0962L55.3965 30.383C54.6262 30.1705 54.9449 29.015 55.7152 29.2142L62.1035 30.9275C62.7809 31.0869 62.6348 32.1494 61.9441 32.1228ZM53.4973 22.6931C52.8199 22.7197 52.6606 21.6572 53.3379 21.4978L58.8629 20.0103C59.6332 19.8111 59.952 20.9798 59.1817 21.1791L53.6566 22.6666C53.6035 22.6798 53.5504 22.6931 53.4973 22.6931ZM50.0707 68.4736C49.3137 68.4869 48.6231 67.8228 48.6496 67.0525V64.6353C48.6496 64.5158 48.5567 64.4228 48.4371 64.4228H45.9535C43.5762 64.4228 41.6371 62.4838 41.6371 60.1064V50.6767C41.6371 48.2994 43.5762 46.3603 45.9535 46.3603H61.227C63.6043 46.3603 65.5434 48.2994 65.5434 50.6767V60.1064C65.5434 62.4838 63.6043 64.4228 61.227 64.4228H56.3395C56.2863 64.4228 56.2598 64.4361 56.2199 64.4627L50.8676 68.208C50.6285 68.3806 50.3496 68.4736 50.0707 68.4736ZM45.9402 47.5689C44.227 47.5689 42.8324 48.9634 42.8324 50.6767V60.1064C42.8324 61.8197 44.227 63.2142 45.9402 63.2142H48.4238C49.2074 63.2142 49.8449 63.8517 49.8449 64.6353V67.0525C49.8316 67.2119 50.0442 67.3181 50.1637 67.2252L55.516 63.4799C55.7551 63.3072 56.034 63.2275 56.3262 63.2275H61.227C62.9402 63.2275 64.3348 61.833 64.3348 60.1197V50.69C64.3348 48.9767 62.9402 47.5822 61.227 47.5822H45.9402V47.5689Z" fill="#2A2927"/>
<path d="M59.1016 53.6118H48.0648C47.268 53.6118 47.268 52.4032 48.0648 52.4032H59.1016C59.8984 52.4032 59.8984 53.6118 59.1016 53.6118ZM59.1016 58.393H48.0648C47.268 58.393 47.268 57.1844 48.0648 57.1844H59.1016C59.8984 57.1844 59.8984 58.393 59.1016 58.393ZM15.9508 21.6704C15.6852 21.6704 15.4328 21.5907 15.1938 21.4313L10.5586 18.1907L6.28203 18.1641C4.17031 18.1641 2.45703 16.4508 2.45703 14.3391V4.35161C2.45703 2.23989 4.17031 0.526611 6.28203 0.526611H19.5234C21.6352 0.526611 23.3484 2.23989 23.3484 4.35161V14.3391C23.3484 16.4508 21.6352 18.1641 19.5234 18.1641H17.3719C17.3188 18.1641 17.2789 18.204 17.2789 18.2571V20.3422C17.2789 21.0594 16.6547 21.6704 15.9508 21.6704ZM6.28203 1.74849C4.84766 1.74849 3.66563 2.91724 3.66563 4.35161V14.3391C3.66563 15.7735 4.83437 16.9422 6.28203 16.9422H10.5055C10.7844 16.9422 11.0367 17.0219 11.2625 17.1813L15.8977 20.4219L16.057 20.3422V18.2571C16.057 17.5399 16.6414 16.9422 17.3719 16.9422H19.5234C20.9578 16.9422 22.1398 15.7735 22.1398 14.3391V4.35161C22.1398 2.91724 20.9711 1.74849 19.5234 1.74849H6.28203Z" fill="#2A2927"/>
<path d="M12.8961 14.6047C12.6039 14.6047 12.3117 14.4984 12.0859 14.2859C9.86797 12.2141 7.5836 10.0758 7.5836 7.63204C7.49063 5.01563 11.0633 3.55469 12.9094 5.20157C14.8086 3.55469 18.3016 5.02891 18.2086 7.63204C18.2086 10.0758 15.9242 12.2141 13.7063 14.2859C13.4805 14.4984 13.1883 14.6047 12.8961 14.6047ZM10.8375 5.73282C9.78828 5.69297 8.77891 6.60938 8.80547 7.63204C8.80547 9.54454 10.8906 11.5102 12.9227 13.3961C14.9148 11.4969 17 9.54454 17 7.63204C17.0531 5.83907 14.3969 5.02891 13.3742 6.46329L12.8961 7.04766C12.3648 6.33047 11.8602 5.66641 10.8375 5.73282Z" fill="#2A2927"/>
</g>
<defs>
<clipPath id="clip0_258_2004">
<rect width="68" height="68" fill="white" transform="translate(0 0.5)"/>
</clipPath>
</defs>
</svg>
