<svg xmlns="http://www.w3.org/2000/svg" version="1.1" xmlns:xlink="http://www.w3.org/1999/xlink" width="512" height="512" x="0" y="0" viewBox="0 0 66 66" style="enable-background:new 0 0 512 512" xml:space="preserve"><g><g fill="#1E1D26"><path d="m21.61 57.47-7.67-9.58a2.902 2.902 0 0 0-4.1-.43l-1.95 1.6a2.904 2.904 0 0 0-.42 4.05l7.67 9.58a2.902 2.902 0 0 0 4.1.43l1.95-1.6a2.905 2.905 0 0 0 .42-4.05z" fill="#1E1D26" opacity="1" data-original="#1e1d26"></path><path d="M17.4 64.5c-.13 0-.25-.01-.38-.02-.97-.1-1.84-.58-2.45-1.34L6.9 53.56a3.639 3.639 0 0 1 .53-5.06l1.95-1.6c.75-.62 1.7-.9 2.67-.8s1.84.58 2.45 1.34l7.67 9.58c1.23 1.54.99 3.81-.53 5.06l-1.95 1.6c-.65.53-1.45.82-2.29.82zm-5.73-16.99c-.5 0-.99.17-1.38.5l-1.95 1.6c-.91.75-1.06 2.12-.32 3.04l7.67 9.58c.37.46.89.74 1.48.81.58.06 1.16-.11 1.61-.48l1.95-1.6c.91-.75 1.06-2.12.32-3.04l-7.67-9.58c-.37-.46-.89-.74-1.47-.81-.08-.01-.16-.02-.24-.02z" fill="#1E1D26" opacity="1" data-original="#1e1d26"></path></g><path fill="#FFC94D" d="M46.05 14.48c1.81-.57 3.92-.1 5.31 1.19s2.03 3.35 1.59 5.21c-.43 1.85-1.91 3.42-3.74 3.96" opacity="1" data-original="#ffc94d"></path><path fill="#1E1D26" d="M49.22 25.56c-.31 0-.6-.2-.69-.52-.11-.38.1-.78.49-.9 1.57-.46 2.87-1.84 3.24-3.43s-.18-3.4-1.38-4.51-3.05-1.53-4.61-1.03c-.38.12-.78-.09-.9-.47s.09-.78.47-.9c2.07-.65 4.43-.12 6.02 1.35s2.3 3.79 1.8 5.9c-.49 2.11-2.16 3.87-4.23 4.49-.07.01-.14.02-.21.02zM49.83 11.06a.728.728 0 0 1-.62-1.09L50.37 8c.2-.34.64-.46.99-.26.34.2.46.64.26.99l-1.16 1.97c-.14.23-.38.36-.63.36zM55.46 15.36c-.25 0-.49-.13-.63-.36-.2-.35-.08-.79.27-.98l1.05-.6c.35-.2.79-.08.98.27.2.35.08.79-.27.98l-1.05.6c-.1.06-.23.09-.35.09zM56.96 22.16a.72.72 0 0 1-.02-1.44l2.2-.06c.4-.01.73.3.74.7s-.3.73-.7.74l-2.2.06h-.02zM55.86 28.27a.67.67 0 0 1-.38-.11l-1.33-.82c-.34-.21-.44-.65-.23-.99s.65-.44.99-.23l1.33.82c.34.21.44.65.23.99-.13.22-.37.34-.61.34z" opacity="1" data-original="#1e1d26"></path><path fill="#FFFFFF" d="m25.5 35.53 4.46 15.07c.29.97-.25 1.98-1.22 2.28l-1.73.54c-.98.31-2.03-.25-2.32-1.24l-4.45-15.01" opacity="1" data-original="#ffffff"></path><path fill="#3D68F8" d="M53.26 34.55 43.87 3.98a2.508 2.508 0 0 0-3.14-1.65c-1.31.41-2.04 1.8-1.64 3.11l9.39 30.57a2.508 2.508 0 0 0 3.14 1.65c1.31-.4 2.04-1.8 1.64-3.11z" opacity="1" data-original="#3d68f8"></path><path fill="#95CBFC" d="M48.35 36.71c-6.62-2.71-13.49-2.95-20.22-1.7l-.32.06c-2.74.52-5.47 1.29-8.14 2.24-2.25.8-4.71-.46-5.43-2.73l-2.11-6.7c-.16-.51-.22-1.01-.19-1.52.1-1.75 1.28-3.34 3.08-3.83 2.84-.78 5.62-1.76 8.27-2.97 5.64-2.58 10.69-6.23 14.47-11.38.39-.52.75-1.05 1.11-1.6z" opacity="1" data-original="#95cbfc"></path><path fill="#FFFFFF" d="m28.13 35.01-.32.06c-2.74.52-5.47 1.29-8.14 2.24-2.25.8-4.71-.46-5.43-2.73l-2.11-6.7c-.16-.51-.22-1.01-.19-1.52.1-1.75 1.28-3.34 3.08-3.83 2.84-.78 5.62-1.76 8.27-2.97z" opacity="1" data-original="#ffffff"></path><path fill="#1E1D26" d="M48.36 36.71c-9.43-3.86-19.38-2.71-28.68.59-2.25.8-4.71-.46-5.43-2.73l-2.11-6.7a4.21 4.21 0 0 1-.19-1.52c2.83 2.59 6.67 4.07 10.51 4 3.15-.06 6.19-1.09 9.17-2.11 2.01-.69 4.19-1.53 5.19-3.4.5-.92.63-1.98.76-3.02.1-.8.2-1.6.31-2.4.22-1.73.43-3.46.48-5.2.05-2.03-.16-4.07-.6-6.05.38-.52.75-1.05 1.1-1.6z" opacity="1" data-original="#1e1d2610" fill-opacity="0.063"></path><path fill="#1E1D26" d="M18.28 38.27c-.75 0-1.49-.17-2.19-.52a4.95 4.95 0 0 1-2.53-2.96l-2.11-6.7c-.41-1.3-.28-2.68.38-3.88a4.883 4.883 0 0 1 3-2.39c10.77-2.97 18.66-8.23 23.43-15.64.22-.33.66-.43 1-.22.33.22.43.66.22 1-4.97 7.71-13.14 13.18-24.26 16.25-.91.25-1.66.85-2.12 1.69a3.52 3.52 0 0 0-.27 2.75l2.11 6.7a3.5 3.5 0 0 0 1.8 2.1c.85.42 1.81.48 2.7.17 10.87-3.86 20.7-4.06 29.19-.58.37.15.54.57.39.94s-.57.54-.94.39c-8.16-3.34-17.63-3.13-28.16.61-.53.19-1.09.29-1.64.29z" opacity="1" data-original="#1e1d26"></path><path fill="#1E1D26" d="M50.87 38.5c-.51 0-1.02-.12-1.49-.37a3.24 3.24 0 0 1-1.58-1.9L38.41 5.66c-.52-1.68.43-3.48 2.11-4.01.82-.26 1.7-.18 2.46.22s1.32 1.08 1.58 1.9l9.39 30.57c.52 1.68-.43 3.48-2.11 4.01-.32.1-.64.15-.97.15zM41.48 2.94c-.18 0-.36.03-.54.08-.93.29-1.45 1.29-1.16 2.22l9.39 30.57c.14.46.45.83.87 1.05s.91.27 1.36.12c.93-.29 1.45-1.29 1.16-2.22L43.18 4.2a1.75 1.75 0 0 0-.87-1.05c-.26-.14-.54-.21-.83-.21zM27.9 35.64c-.31 0-.59-.2-.69-.51-.81-2.66-1.56-5.14-2.3-7.63-.75-2.48-1.49-4.97-2.3-7.63a.721.721 0 1 1 1.38-.42c.81 2.66 1.56 5.14 2.3 7.63.75 2.48 1.49 4.97 2.3 7.63a.721.721 0 0 1-.69.93zM26.46 54.24A2.578 2.578 0 0 1 24 52.4l-4.45-15.01c-.11-.38.1-.78.49-.9.38-.11.78.11.9.49l4.45 15.01c.09.29.28.53.55.67s.58.17.87.08l1.73-.54c.58-.18.91-.81.74-1.39l-4.46-15.07c-.11-.38.1-.78.49-.9.38-.11.78.1.9.49l4.46 15.07c.39 1.33-.36 2.76-1.69 3.18l-1.73.54c-.27.08-.53.12-.79.12z" opacity="1" data-original="#1e1d26"></path><path fill="#FFFFFF" d="M28.19 22.42c-.3 0-.56-.22-.59-.52-.04-.33.19-.63.52-.67a11 11 0 0 0 7.06-3.95c.21-.26.59-.3.84-.09.26.21.3.59.09.84a12.214 12.214 0 0 1-7.84 4.39h-.08zM38 15.58l-.53-.28-.49-.35.06-.09a.61.61 0 0 1 .83-.19c.28.18.36.55.19.83z" opacity="1" data-original="#ffffff"></path><path fill="#FFC94D" d="M35.29 49.74c.07 1.18-.26 2.46-1.16 3.36-1.34 1.35-3.51 1.49-5.42 1.85-2.87.54-5.61 1.8-7.87 3.61-.48.38-.93.79-1.36 1.21l-8.2-8.61c.54-.55 1.03-1.08 1.48-1.62 1.43-1.71 2.43-3.43 2.99-5.38.43-1.48.61-3.09.56-4.93-.02-.74-.09-1.49.11-2.2.19-.71.69-1.4 1.41-1.56 1.13-.25 2.09.84 2.6 1.89.73 1.51 1.1 3.19 1.09 4.86.99-.67 2-1.3 3.1-1.76 1.47-.61 3.14-.9 4.64-.48 1 .27 1.86.85 2.56 1.57.3.3.57.64.81.99.8 1.16 1.29 2.48 1.77 3.78.4 1.11.82 2.23.89 3.42z" opacity="1" data-original="#ffc94d"></path><path fill="#1E1D26" d="M35.29 49.74c.07 1.18-.26 2.46-1.16 3.36-1.34 1.35-3.51 1.49-5.42 1.85-2.87.54-5.61 1.8-7.87 3.61-1.5-.88-2.88-2.04-4.11-3.27-1.3-1.29-2.5-2.7-3.35-4.32-.24-.46-.45-.93-.62-1.42 1.43-1.71 2.43-3.43 2.99-5.38.15.14.29.29.42.45 1.07 1.31 1.69 2.94 2.77 4.24s2.93 2.24 4.45 1.51c.77-.37 1.31-1.11 2.01-1.59 1.03-.7 2.34-.84 3.44-1.41 2.04-1.06 3.02-3.47 2.96-5.8.3.3.57.64.81.99.8 1.16 1.29 2.48 1.77 3.78.42 1.09.84 2.21.91 3.4z" opacity="1" data-original="#1e1d2610" fill-opacity="0.063"></path><path fill="#1E1D26" d="M11.29 51.88a.724.724 0 0 1-.52-1.23c3.6-3.65 4.95-6.84 4.81-11.4l-.01-.3c-.03-.68-.05-1.39.14-2.11.28-1.07 1.03-1.87 1.95-2.07 1.53-.34 2.76.95 3.4 2.28.77 1.6 1.17 3.39 1.16 5.18 0 .4-.32.72-.72.72-.4 0-.72-.33-.72-.72.01-1.57-.34-3.14-1.02-4.55-.41-.85-1.13-1.64-1.79-1.5-.44.1-.75.59-.87 1.03-.14.51-.12 1.08-.09 1.68l.01.31c.15 5-1.32 8.5-5.23 12.46-.13.15-.32.22-.5.22z" opacity="1" data-original="#1e1d26"></path><path fill="#1E1D26" d="M19.48 60.49c-.18 0-.37-.07-.51-.21a.724.724 0 0 1 0-1.02c2.56-2.55 5.97-4.34 9.6-5.02.32-.06.65-.11.97-.17 1.53-.25 3.11-.52 4.07-1.48.66-.66 1.01-1.69.95-2.81-.06-1.08-.46-2.16-.85-3.21-.46-1.24-.94-2.53-1.69-3.63-.56-.81-1.53-1.87-2.97-2.27-1.19-.33-2.67-.17-4.17.45-1.1.46-2.12 1.11-2.97 1.69a.72.72 0 0 1-.81-1.19c.91-.62 2.01-1.32 3.23-1.83 1.8-.74 3.61-.93 5.11-.51 1.86.51 3.07 1.83 3.77 2.84.86 1.25 1.39 2.68 1.86 3.94.43 1.15.87 2.33.94 3.63.08 1.53-.41 2.95-1.37 3.91-1.29 1.29-3.1 1.59-4.86 1.89-.32.05-.63.11-.94.16-3.35.63-6.49 2.27-8.85 4.63a.71.71 0 0 1-.51.21z" opacity="1" data-original="#1e1d26"></path><path fill="#64C682" d="m22.2 56.88-7.67-9.58a2.902 2.902 0 0 0-4.1-.43l-1.95 1.6a2.904 2.904 0 0 0-.42 4.05l7.67 9.58a2.902 2.902 0 0 0 4.1.43l1.95-1.6a2.904 2.904 0 0 0 .42-4.05z" opacity="1" data-original="#64c682"></path><path fill="#1E1D26" d="M17.99 63.91c-.13 0-.25-.01-.38-.02-.97-.1-1.84-.58-2.45-1.34l-7.67-9.58a3.639 3.639 0 0 1 .53-5.06l1.95-1.6c.75-.62 1.71-.91 2.67-.8.97.1 1.84.58 2.45 1.34l7.67 9.58c1.23 1.54.99 3.81-.53 5.06l-1.95 1.6c-.65.54-1.45.82-2.29.82zm-5.73-16.98c-.5 0-.99.17-1.38.5l-1.95 1.6a2.18 2.18 0 0 0-.32 3.04l7.67 9.58c.37.46.89.74 1.47.81.59.06 1.16-.11 1.61-.48l1.95-1.6a2.18 2.18 0 0 0 .32-3.04l-7.67-9.58c-.37-.46-.89-.74-1.48-.81-.07-.02-.14-.02-.22-.02z" opacity="1" data-original="#1e1d26"></path><path fill="#1E1D26" d="M19.27 58.98c.8-1.42-1.38-2.49-2.23-1.23-.88 1.33 1.43 2.65 2.23 1.23z" opacity="1" data-original="#1e1d26"></path></g></svg>