<svg xmlns="http://www.w3.org/2000/svg" version="1.1" xmlns:xlink="http://www.w3.org/1999/xlink" width="512" height="512" x="0" y="0" viewBox="0 0 512 512" style="enable-background:new 0 0 512 512" xml:space="preserve"><g><path fill="#FF8048" fill-rule="evenodd" d="M11 71.8V48c0-14.2 11.7-25.9 25.9-25.9h444.4c14.2 0 25.9 11.7 25.9 25.9v23.8z" clip-rule="evenodd" opacity="1" data-original="#ff8048"></path><path fill="#F9F9F9" fill-rule="evenodd" d="M11 71.8h496.2v330.3c0 14.2-10.1 25.9-22.5 25.9H33.4C21.1 428 11 416.4 11 402.1z" clip-rule="evenodd" opacity="1" data-original="#f9f9f9"></path><path fill="#00BEAE" fill-rule="evenodd" d="M273.9 428h170.5c11.5 0 21-9.4 21-21v-39.4c0-19.8-16.2-36-36-36H289c-19.8 0-36 16.2-36 36V407c-.1 11.6 9.4 21 20.9 21z" clip-rule="evenodd" opacity="1" data-original="#00beae"></path><path fill="#FFE45E" fill-rule="evenodd" d="M426.8 331.6H291.6c5 3.7 10.4 7 16.2 9.8v15.5c0 6.8 6.2 12.4 13.8 12.4h75.2c7.6 0 13.8-5.6 13.8-12.4v-15.5c5.8-2.8 11.2-6 16.2-9.8z" clip-rule="evenodd" opacity="1" data-original="#ffe45e"></path><path fill="#FAAD83" fill-rule="evenodd" d="M433.7 205.2c23.1.6 23.1 56.2 0 56.8-23.1-.6-23-56.2 0-56.8zM284.6 205.2c23.1.6 23.1 56.2 0 56.8-23.1-.6-23.1-56.2 0-56.8zM359.2 279.7c17.1 0 31.1 14 31.1 31.1v27.4c-1.1 41-61.1 41-62.2 0v-27.4c0-17.1 14-31.1 31.1-31.1z" clip-rule="evenodd" opacity="1" data-original="#faad83"></path><path fill="#FFCEBF" fill-rule="evenodd" d="M359.2 129.3c-41 0-74.6 33.5-74.6 74.6v39.6c3.9 98.7 145.2 98.7 149.1 0v-39.6c0-41.1-33.5-74.6-74.5-74.6z" clip-rule="evenodd" opacity="1" data-original="#ffcebf"></path><path fill="#3F3E3C" fill-rule="evenodd" d="M363.5 118.9c-61.3-2-47.4 23.9-61.9 34.9-31.7 5.5-22 33.1-16.7 56.4 9.7-1.4 34.6-22.8 34.6-22.8 30 22.6 59.5 18.7 59.5 18.7-15.7-11.7-13.6-23.4-13.6-23.4 20.4 1.9 68.6 27.5 68.6 27.5 16.5-33.1-6.2-89.2-70.5-91.3z" clip-rule="evenodd" opacity="1" data-original="#3f3e3c"></path><path fill="#FFE45E" fill-rule="evenodd" d="M78.9 122.1h72.2c9.8 0 17.8 8 17.8 17.8v19.2c0 9.8-8 17.8-17.8 17.8H78.9c-9.8 0-17.8-8-17.8-17.8v-19.2c0-9.8 8-17.8 17.8-17.8zM64.1 470.1c32.7 0 59.3-26.6 59.3-59.3-2.8-78.5-115.8-78.5-118.6 0 0 32.6 26.7 59.3 59.3 59.3z" clip-rule="evenodd" opacity="1" data-original="#ffe45e"></path><path fill="#F9F9F9" fill-rule="evenodd" d="M228.8 489.9h-92.4c-13.3 0-24.1-10.9-24.1-24.1v-61.3c0-13.3 10.9-24.1 24.1-24.1H176c1.1 0 2.1-.3 3-1l34.8-24.3c3.3-2.5 8.5.2 8.3 4.3v15.7c0 2.9 2.4 5.3 5.3 5.3 13.8-.7 25.6 10.3 25.6 24.1v61.3c-.1 13.2-10.9 24.1-24.2 24.1z" clip-rule="evenodd" opacity="1" data-original="#f9f9f9"></path><path fill="#FFE45E" fill-rule="evenodd" d="m182.6 403 10.5 20.1 22.4 3.8-15.9 16.2 3.3 22.4-20.3-10.1-20.3 10.1 3.3-22.4-15.8-16.2 22.3-3.8z" clip-rule="evenodd" opacity="1" data-original="#ffe45e"></path><path fill="#2A2927" d="M507.2 76.4H11c-2.5 0-4.6-2.1-4.6-4.6V48c0-16.8 13.7-30.5 30.5-30.5h365.4c5.8 0 6.2 9.2 0 9.2H36.9c-11.7 0-21.3 9.6-21.3 21.3v19.2h487V48c0-11.7-9.6-21.3-21.3-21.3h-37.7c-6 0-6-9.2 0-9.2h37.7c16.8 0 30.5 13.7 30.5 30.5v23.8c0 2.6-2.1 4.6-4.6 4.6z" opacity="1" data-original="#2a2927"></path><path fill="#2A2927" d="M484.7 432.6H252.9c-2.5 0-4.6-2.1-4.6-4.6s2.1-4.6 4.6-4.6h231.8c9.9 0 17.9-9.6 17.9-21.3V76.4h-487v198.5c0 2.5-2.1 4.6-4.6 4.6s-4.6-2.1-4.6-4.6V71.8c0-2.5 2.1-4.6 4.6-4.6h496.2c2.5 0 4.6 2.1 4.6 4.6v330.3c0 16.8-12.2 30.5-27.1 30.5zM11 389c-2.5 0-4.6-2.1-4.6-4.6v-78.6c0-2.5 2.1-4.6 4.6-4.6s4.6 2.1 4.6 4.6v78.6c-.1 2.6-2.1 4.6-4.6 4.6z" opacity="1" data-original="#2a2927"></path><path fill="#2A2927" d="M444.4 432.6H287.6c-2.5 0-4.6-2.1-4.6-4.6s2.1-4.6 4.6-4.6h156.8c9 0 16.4-7.3 16.4-16.4v-39.4c0-17.3-14.1-31.4-31.4-31.4h-39.1c-2.5 0-4.6-2.1-4.6-4.6s2.1-4.6 4.6-4.6h39.1c22.4 0 40.6 18.2 40.6 40.6V407c0 14.1-11.5 25.6-25.6 25.6zm-191.5-30.9c-2.5 0-4.6-2.1-4.6-4.6v-29.4c0-22.4 18.2-40.6 40.6-40.6H328c2.5 0 4.6 2.1 4.6 4.6s-2.1 4.6-4.6 4.6h-39c-17.3 0-31.5 14.1-31.5 31.4v29.4c0 2.6-2 4.6-4.6 4.6z" opacity="1" data-original="#2a2927"></path><path fill="#2A2927" d="M396.8 373.9h-75.2c-10.1 0-18.4-7.6-18.4-17v-12.6c-5-2.6-9.8-5.6-14.4-8.9-1.6-1.2-2.3-3.2-1.6-5.1.6-1.9 2.4-3.2 4.4-3.2h36.5c2.5 0 4.6 2.1 4.6 4.6s-2.1 4.6-4.6 4.6h-20.4c2.3 1 4.8 2.3 4.7 5.2V357c0 4.2 4.2 7.8 9.2 7.8h75.2c5.1 0 9.2-3.5 9.2-7.8v-15.5c-.1-2.8 2.4-4.2 4.7-5.2h-20.4c-6 0-6-9.2 0-9.2h36.5c2 0 3.7 1.3 4.4 3.2.6 1.9 0 4-1.6 5.1-4.5 3.4-9.3 6.4-14.4 8.9v12.6c0 9.4-8.3 17-18.4 17zM433.7 266.6c-8 1.1-9.7-9.7-1.3-9.3 6.3 1.4 14.3-8.6 14.3-23.7 0-13.2-5.9-22.4-11.6-23.7-2.5-.5-4.1-3-3.5-5.5.5-2.5 3-4 5.5-3.5 26.1 5.7 24.4 65.3-3.4 65.7zM284.6 266.6c-28.7-.5-29.4-63.7-1.2-66 2.4-.2 4.7 1.7 4.9 4.2s-1.7 4.7-4.2 4.9c-6 .4-12.5 10.1-12.5 23.8 0 15.1 8 25.1 14.3 23.7 8.4-.3 6.7 10.5-1.3 9.4z" opacity="1" data-original="#2a2927"></path><path fill="#2A2927" d="M359.2 373.9c-19.7 0-35.7-16-35.7-35.7v-27.1c0-2.5 2.1-4.6 4.6-4.6s4.6 2.1 4.6 4.6v27.1c0 14.6 11.9 26.5 26.5 26.5s26.5-11.9 26.5-26.5v-27.1c0-2.5 2.1-4.6 4.6-4.6s4.6 2.1 4.6 4.6v27.1c0 19.7-16 35.7-35.7 35.7z" opacity="1" data-original="#2a2927"></path><path fill="#2A2927" d="M359.2 322.6c-43.6 0-79.2-35.5-79.2-79.1v-34.6c0-2.5 2.1-4.6 4.6-4.6s4.6 2.1 4.6 4.6v34.6c0 38.6 31.4 70 70 70s70-31.4 70-70v-33.3c0-2.5 2.1-4.6 4.6-4.6s4.6 2.1 4.6 4.6v33.3c-.1 43.6-35.6 79.1-79.2 79.1z" opacity="1" data-original="#2a2927"></path><path fill="#2A2927" d="M284.9 214.9c-3.5.1-5.3-3.8-4.8-6.9-7.5-24.2-12.2-52 19.4-58.4 2.7-2.4 4.1-5.7 5.7-9.6 6.2-14.9 14.9-27 58.4-25.7 42.3 1.4 62.1 24.2 70.2 37.7 11.5 19.3 13.2 42.4 4.3 60.3-1.1 2.3-4.1 3.3-6.3 2-.4-.2-39.8-21-61.3-26 1.1 3.6 3.9 8.8 11.2 14.2 1.5 1.1 2.2 3 1.7 4.8s-2 3.2-3.9 3.4c-1.2.1-29.8 3.6-59.9-17.5-7.7 6.4-25.2 20.7-34.7 21.7zm72-91.5c-34.8 0-39 10.2-43.2 20.2-2.1 4.9-4.2 10-9.3 13.9-27.1 5.9-21.8 22-16.1 46.7 7.4-3.7 20.1-13.3 28.2-20.3 1.6-1.4 4-1.5 5.8-.2 17.4 13 34.5 16.8 45.2 17.8-9-12.2-8.8-23.4-1.6-23.3 17.6 1.7 53.3 19.3 65.9 25.7 11.6-41.3-17.9-81-74.9-80.5zM322.5 246.3c-2.5 0-4.6-2.1-4.6-4.6v-13.9c0-2.5 2.1-4.6 4.6-4.6s4.6 2.1 4.6 4.6v13.9c0 2.5-2.1 4.6-4.6 4.6zM395.9 246.3c-2.5 0-4.6-2.1-4.6-4.6v-13.9c0-2.5 2.1-4.6 4.6-4.6s4.6 2.1 4.6 4.6v13.9c0 2.5-2.1 4.6-4.6 4.6zM216.3 227.4H61.1c-6 0-6-9.2 0-9.2h155.2c5.9 0 6 9.2 0 9.2zM216.3 277.7H61.1c-6 0-6-9.2 0-9.2h155.2c5.9.1 6 9.2 0 9.2zM216.3 328.1H61.1c-6 0-6-9.2 0-9.2h155.2c5.9 0 6 9.1 0 9.2zM151.1 181.5H78.9c-12.3 0-22.4-10-22.4-22.4v-19.2c0-12.3 10-22.4 22.4-22.4h72.2c12.3 0 22.4 10 22.4 22.4v19.2c0 12.3-10 22.4-22.4 22.4zm-72.2-54.8c-7.3 0-13.2 5.9-13.2 13.2v19.2c0 7.3 5.9 13.2 13.2 13.2h72.2c7.3 0 13.2-5.9 13.2-13.2v-19.2c0-7.3-5.9-13.2-13.2-13.2zM64.1 474.7C28.9 474.7.2 446 .2 410.8c.4-69.3 96.1-88.4 123-24.6 2.3 5.5-6.2 9.1-8.5 3.5-23-54.7-105-38.3-105.3 21-.4 52.5 69 74.8 99.2 31.9 1.5-2.1 4.4-2.5 6.4-1 2.1 1.5 2.5 4.4 1 6.4-11.9 16.7-31.4 26.7-51.9 26.7z" opacity="1" data-original="#2a2927"></path><path fill="#2A2927" d="M64.1 444.7c-4.2-.1-4.9-4.1-4.6-7.5h-6.3c-6 0-6-9.2 0-9.2 5.5-.5 17 2.5 17.2-6.3 0-3.5-2.8-6.3-6.3-6.3-17.6 0-21.2-25.2-4.6-30.3v-3.6c0-6 9.2-6 9.2 0v2.9H75c6 0 6 9.2 0 9.2-5.5.5-17.1-2.5-17.2 6.3 0 3.5 2.8 6.3 6.3 6.3 17.7 0 21.2 25.2 4.6 30.3.3 3.5 0 8.1-4.6 8.2zM228.8 494.4h-92.4c-15.8 0-28.7-12.9-28.7-28.7v-61.3c0-15.8 12.9-28.7 28.7-28.7H176l35.1-24.4c6.2-4.7 15.8.3 15.6 8.1v15.7c0 1 1.6.6 2.2.7 15.8 0 28.7 12.9 28.7 28.7v61.3c-.1 15.8-13 28.6-28.8 28.6zM136.4 385c-10.8 0-19.5 8.8-19.5 19.5v61.3c0 10.8 8.8 19.5 19.5 19.5h92.4c10.8 0 19.5-8.8 19.5-19.5v-61.3c0-10.8-8.8-19.5-19.5-19.5-5.9.6-11.4-3.8-11.3-9.9v-15.7l-3.7-4.3 2.6 3.8-34.7 24.3c-1.7 1.2-3.6 1.8-5.7 1.8z" opacity="1" data-original="#2a2927"></path><path fill="#2A2927" d="M202.9 470.1c-.2.9-19.5-9.3-20.3-9.5l-18.2 9c-1.5.8-3.4.6-4.7-.4s-2.1-2.7-1.8-4.4l2.9-20.1-14.2-14.6c-1.2-1.2-1.6-3-1.1-4.6s1.9-2.8 3.6-3.1l20.1-3.4 9.5-18c1.6-3 6.6-3 8.1 0l9.5 18 20.1 3.4c1.7.3 3.1 1.5 3.6 3.1s.1 3.4-1.1 4.6l-14.2 14.6 2.9 20.1c.3 2.7-2 5.3-4.7 5.3zm-20.3-19.2c1.2-.4 13.2 6.2 14.5 6.6-.3-5-3.6-15.6-.7-17.6l9.7-9.9c-4.9-1.3-16-1.4-17-4.7l-6.5-12.3c-2.7 4.2-6.3 14.8-9.7 14.7l-13.7 2.3c3.2 3.9 12.1 10.5 11 13.8l-2 13.7c1.3-.5 13.1-7.1 14.4-6.6z" opacity="1" data-original="#2a2927"></path></g></svg>