<svg xmlns="http://www.w3.org/2000/svg" version="1.1" xmlns:xlink="http://www.w3.org/1999/xlink" width="512" height="512" x="0" y="0" viewBox="0 0 500 500" style="enable-background:new 0 0 512 512" xml:space="preserve"><g><g fill-rule="evenodd" clip-rule="evenodd"><path fill="#60B7FE" d="M215.462 409.033C140.476 349.567 67.461 331.475 67.461 233.97V104.99c0-3.37 2.256-5.786 5.097-6.516 47.492-12.205 93.588-43.022 142.904-70.014 49.316 26.992 95.412 57.809 142.904 70.014 2.841.73 5.097 3.146 5.097 6.516v128.98c0 97.504-73.015 115.597-148.001 175.063z" opacity="1" data-original="#60b7fe"></path><path fill="#E6E6E6" d="M133.618 116.138h163.69c9.068 0 16.487 7.419 16.487 16.487v127.777c0 9.068-7.419 16.487-16.487 16.487h-163.69c-9.068 0-16.487-7.419-16.487-16.487V132.625c0-9.068 7.419-16.487 16.487-16.487z" opacity="1" data-original="#e6e6e6"></path><g fill="#E33F65"><path d="m180.716 151.621 77.755 44.892-77.755 44.892zM388.519 369.738l-42.271 24.405 43.944 76.113c.481.833 1.73.669 1.979-.261l7.56-28.213a2.703 2.703 0 0 1 3.304-1.908l28.213 7.56c.929.249 1.696-.75 1.215-1.583zM303.976 369.738l42.271 24.405-43.944 76.113c-.481.833-1.73.669-1.979-.261l-7.56-28.213a2.703 2.703 0 0 0-3.304-1.908l-28.213 7.56c-.929.249-1.696-.75-1.215-1.583z" fill="#E33F65" opacity="1" data-original="#e33f65"></path></g><circle cx="346.247" cy="325.899" r="84.359" fill="#D1991F" transform="rotate(-45 346.213 325.987)" opacity="1" data-original="#d1991f"></circle><path fill="#FFE177" d="M399.082 306.705H360.57c-.495 0-.915-.305-1.068-.776l-11.901-36.627c-.336-1.034-1.801-1.034-2.137 0l-11.901 36.627a1.107 1.107 0 0 1-1.068.776h-38.512c-1.086 0-1.539 1.394-.66 2.032l31.157 22.637c.4.291.561.785.408 1.256l-11.901 36.627c-.334 1.029.854 1.892 1.729 1.256l31.157-22.637c.4-.291.92-.291 1.32 0l31.157 22.637c.875.636 2.063-.227 1.729-1.256l-11.901-36.627a1.109 1.109 0 0 1 .408-1.256l31.157-22.637c.878-.637.425-2.032-.661-2.032z" opacity="1" data-original="#ffe177"></path><path fill="#1E2F3F" d="M187.593 229.803v-65.844l57.012 32.927zm74.326-38.907-77.765-44.887c-4.568-2.627-10.377.591-10.377 5.98v89.785c0 5.404 5.775 8.601 10.377 5.992l77.765-44.899c4.55-2.651 4.594-9.27 0-11.971zm99.626 144.239 6.413 19.683-16.731-12.164c-2.856-2.045-6.646-2.054-9.444 0l-16.73 12.164 6.354-19.675c1.107-3.318-.058-6.929-2.915-8.992l-16.731-12.165h20.695c3.497 0 6.587-2.232 7.637-5.549l6.413-19.684 6.412 19.684c1.049 3.318 4.139 5.549 7.637 5.549h20.695l-16.789 12.174c-2.799 2.045-3.965 5.657-2.916 8.975zm14.457-.266 27.748-20.164c6.293-4.539 3.026-14.542-4.722-14.542h-34.277l-10.61-32.622c-2.432-7.392-12.91-7.379-15.273 0l-10.61 32.622h-34.277c-7.82 0-11.015 9.983-4.78 14.532l27.807 20.174-10.61 32.622c-2.413 7.322 6.078 13.526 12.359 8.986l27.748-20.164 27.748 20.164c6.229 4.543 14.77-1.667 12.359-8.986zm28.798 98.704c-5.13-1.373-10.435 1.669-11.776 6.793l-3.906 14.615-22.91-39.654a91.064 91.064 0 0 0 32.179-14.218l20.986 36.373zm-58.586-29.858c42.73 0 77.474-34.742 77.474-77.445s-34.744-77.446-77.474-77.446-77.474 34.742-77.474 77.446c0 42.703 34.743 77.445 77.474 77.445zm-42.905 51.266-3.906-14.615c-1.334-5.075-6.612-8.174-11.776-6.793l-14.632 3.908 21.044-36.373a91.056 91.056 0 0 0 32.179 14.218zm3.556-321.984c0-5.281-4.314-9.576-9.619-9.576H133.612c-5.305 0-9.619 4.294-9.619 9.576v127.78c0 5.271 4.314 9.573 9.619 9.573h140.491c8.686-11.149 19.879-20.246 32.762-26.419zm-42.614 233.341c-12.779-26.006-12.418-56.523.991-82.164h-131.63c-12.941 0-23.435-10.498-23.435-23.398v-127.78c0-12.903 10.493-23.4 23.435-23.4h163.634c12.941 0 23.435 10.498 23.435 23.4V238.64c11.562-3.378 23.681-4.418 35.851-3.058V105.517C308.337 93.084 261.73 62.177 215.4 36.715c-46.017 25.438-93.384 56.523-141.074 68.801v128.821c0 70.562 38.883 96.421 92.631 132.204 15.681 10.459 31.887 21.232 48.443 34.077 16.614-12.837 32.82-23.619 48.502-34.069zm174.185 76.424-29.206-50.537c17.43-16.625 28.273-40.05 28.273-65.955 0-41.995-28.506-77.446-67.214-88.043.059-1.291.059-2.58.059-3.889V105.36c0-6.322-4.139-11.63-10.318-13.206-35.793-9.215-70.945-29.361-108.137-50.685-10.785-6.184-21.919-12.57-33.17-18.698a6.802 6.802 0 0 0-6.587 0c-11.251 6.127-22.385 12.513-33.17 18.698-37.192 21.323-72.344 41.469-108.137 50.676-6.18 1.585-10.319 6.893-10.319 13.215v128.977c0 35.821 9.385 63.762 29.439 87.934 17.897 21.544 42.905 38.179 69.313 55.781 16.847 11.197 34.219 22.769 51.882 36.769 2.506 2.011 6.052 1.974 8.569 0 17.547-13.906 34.802-25.426 51.533-36.548a91.427 91.427 0 0 0 11.95 13.952l-29.206 50.546c-3.518 6.174 2.15 13.553 9.036 11.714l24.134-6.469 6.471 24.133c1.822 6.903 11.085 8.05 14.632 1.936l32.703-56.701h10.493l32.703 56.692c3.562 6.152 12.812 4.982 14.632-1.915l6.471-24.145 24.134 6.46c6.901 1.851 12.498-5.516 9.037-11.714z" opacity="1" data-original="#1e2f3f"></path></g></g></svg>