<svg xmlns="http://www.w3.org/2000/svg" version="1.1" xmlns:xlink="http://www.w3.org/1999/xlink" width="512" height="512" x="0" y="0" viewBox="0 0 512 512" style="enable-background:new 0 0 512 512" xml:space="preserve"><g><g fill-rule="evenodd" clip-rule="evenodd"><path fill="#FFD54F" d="M235.805 85.116h40.39c5.754 0 10.462 4.708 10.462 10.462v19.054c0 11.525 6.576 21.365 17.223 25.776 10.648 4.41 22.255 2.101 30.405-6.048l13.473-13.473c4.069-4.069 10.727-4.069 14.796 0l28.56 28.56c4.069 4.069 4.069 10.727 0 14.796l-13.473 13.473c-8.149 8.149-10.458 19.757-6.048 30.405s14.251 17.223 25.776 17.223h19.054c5.754 0 10.462 4.708 10.462 10.462v40.39c0 5.754-4.708 10.462-10.462 10.462h-19.054c-11.525 0-21.365 6.576-25.776 17.223-4.41 10.648-2.101 22.255 6.048 30.405l13.473 13.473c4.069 4.069 4.069 10.727 0 14.796l-28.56 28.56c-4.069 4.069-10.727 4.069-14.796 0l-13.473-13.473c-8.149-8.149-19.757-10.458-30.405-6.048-10.647 4.41-17.223 14.251-17.223 25.776v19.054c0 5.754-4.708 10.462-10.462 10.462h-40.39c-5.754 0-10.462-4.708-10.462-10.462V397.37c0-11.525-6.575-21.365-17.223-25.776-10.647-4.41-22.255-2.101-30.405 6.048l-13.473 13.473c-4.069 4.069-10.727 4.069-14.796 0l-28.56-28.56c-4.069-4.069-4.069-10.727 0-14.796l13.473-13.473c8.149-8.149 10.458-19.757 6.048-30.405-4.41-10.647-14.251-17.223-25.776-17.223H95.578c-5.754 0-10.462-4.708-10.462-10.462v-40.39c0-5.754 4.708-10.462 10.462-10.462h19.054c11.525 0 21.365-6.575 25.776-17.223 4.41-10.647 2.101-22.255-6.048-30.405l-13.473-13.473c-4.069-4.069-4.069-10.727 0-14.796l28.56-28.56c4.069-4.069 10.727-4.069 14.796 0l13.473 13.473c8.149 8.149 19.757 10.458 30.405 6.048 10.648-4.411 17.223-14.251 17.223-25.776V95.578c-.001-5.754 4.707-10.462 10.461-10.462z" opacity="1" data-original="#ffd54f"></path><circle cx="255.999" cy="256" r="80.586" fill="#F0F0F0" transform="rotate(-45 255.971 256.066)" opacity="1" data-original="#f0f0f0"></circle><path fill="#43A2FF" d="M211.919 261.908c-4.38-4.867-3.986-12.364.881-16.744s12.364-3.986 16.744.881l16.428 18.295 36.297-42.345c4.252-4.969 11.728-5.551 16.698-1.299 4.969 4.252 5.551 11.728 1.299 16.697l-44.71 52.161c-4.5 5.812-13.236 6.197-18.198.684z" opacity="1" data-original="#43a2ff"></path><path d="M216.383 253.749a4.347 4.347 0 0 0 1.107 3.143l.009.005 25.442 28.331c1.169 1.305 2.611 1.456 3.379 1.423.768-.028 2.219-.283 3.308-1.687.071-.099.151-.193.231-.287l44.711-52.161a4.348 4.348 0 0 0-.481-6.121 4.285 4.285 0 0 0-3.162-1.027 4.318 4.318 0 0 0-2.959 1.503l-36.299 42.354a7.494 7.494 0 0 1-5.608 2.615 7.478 7.478 0 0 1-5.674-2.488l-16.427-18.293a4.34 4.34 0 0 0-3.002-1.432c-.08 0-.16-.005-.226-.005a4.288 4.288 0 0 0-2.912 1.122 4.27 4.27 0 0 0-1.437 3.005zm-10.042 13.176c-3.449-3.841-5.212-8.803-4.939-13.963a19.233 19.233 0 0 1 6.381-13.374 19.225 19.225 0 0 1 13.967-4.938c5.16.269 9.91 2.535 13.369 6.38l10.721 11.941 30.743-35.856c6.918-8.101 19.156-9.053 27.256-2.116 8.11 6.932 9.062 19.165 2.121 27.27l-44.602 52.043a19.337 19.337 0 0 1-15.206 7.341 19.267 19.267 0 0 1-14.368-6.399zm-23.429-10.923c0-40.3 32.788-73.089 73.089-73.089 40.3 0 73.084 32.789 73.084 73.089S296.3 329.085 256 329.085s-73.088-32.784-73.088-73.083zm-15 0c0-48.57 39.518-88.083 88.088-88.083s88.078 39.513 88.078 88.083S304.57 344.085 256 344.085s-88.088-39.513-88.088-88.083zm-13.162 129.81-28.561-28.562a2.964 2.964 0 0 1-.858-2.092c0-.466.118-1.352.858-2.097l13.472-13.473c10.32-10.315 13.261-25.098 7.676-38.575-5.589-13.482-18.119-21.856-32.708-21.856H95.582c-1.612 0-2.959-1.357-2.959-2.959v-40.389c0-1.607 1.348-2.964 2.959-2.964h19.047c14.589 0 27.12-8.374 32.708-21.851 5.584-13.482 2.644-28.265-7.676-38.58l-13.472-13.472a2.976 2.976 0 0 1-.858-2.097c0-.462.118-1.348.858-2.092l28.561-28.562c.74-.744 1.63-.853 2.088-.853.471 0 1.352.108 2.102.853l13.473 13.473c10.32 10.32 25.098 13.256 38.58 7.676 13.477-5.584 21.851-18.114 21.851-32.708V95.579c0-1.607 1.357-2.959 2.969-2.959h40.38c1.612 0 2.969 1.352 2.969 2.959v19.052c0 14.594 8.369 27.124 21.851 32.708 13.477 5.579 28.26 2.639 38.58-7.672l13.468-13.477c.74-.744 1.63-.853 2.102-.853.462 0 1.348.108 2.088.853l28.561 28.562c.74.745.848 1.63.848 2.092 0 .466-.109 1.352-.848 2.097l-13.468 13.472c-10.325 10.315-13.26 25.098-7.681 38.58 5.589 13.477 18.119 21.851 32.708 21.851h19.052c1.607 0 2.959 1.357 2.959 2.964v40.389c0 1.602-1.352 2.959-2.959 2.959H397.37c-14.589 0-27.119 8.374-32.708 21.856-5.579 13.477-2.644 28.26 7.681 38.575l13.468 13.473c1.131 1.136 1.131 3.054 0 4.189l-28.561 28.562c-.74.744-1.626.853-2.088.853-.471 0-1.362-.108-2.102-.853l-13.468-13.472c-10.32-10.316-25.103-13.261-38.58-7.677-13.482 5.584-21.851 18.119-21.851 32.704v19.057c0 1.607-1.357 2.964-2.969 2.964h-40.38c-1.611 0-2.969-1.357-2.969-2.964v-19.057c0-14.585-8.374-27.12-21.851-32.704-4.524-1.871-9.18-2.785-13.77-2.785-9.114 0-17.949 3.6-24.81 10.462l-13.473 13.472a2.955 2.955 0 0 1-2.102.853c-.456.001-1.347-.107-2.087-.852zm2.088 15.853a17.865 17.865 0 0 1-12.7-5.245l-28.557-28.562c-3.383-3.383-5.249-7.898-5.249-12.7 0-4.806 1.866-9.316 5.249-12.704l13.477-13.473c6.032-6.031 7.681-14.344 4.42-22.228-3.266-7.889-10.31-12.596-18.849-12.596H95.582c-9.91 0-17.964-8.058-17.964-17.959v-40.389c0-9.905 8.054-17.963 17.964-17.963h19.047c8.539 0 15.584-4.708 18.849-12.596 3.261-7.884 1.612-16.196-4.42-22.228l-13.477-13.473c-3.383-3.384-5.249-7.898-5.249-12.705s1.866-9.316 5.249-12.7l28.557-28.561a17.87 17.87 0 0 1 12.7-5.25c4.811 0 9.326 1.866 12.714 5.25l13.468 13.473c6.032 6.036 14.34 7.69 22.228 4.425 7.884-3.266 12.592-10.311 12.592-18.85V95.579c0-9.905 8.063-17.964 17.973-17.964h40.38c9.905 0 17.968 8.058 17.968 17.964v19.052c0 8.539 4.698 15.584 12.591 18.85 7.888 3.266 16.196 1.611 22.228-4.425l13.473-13.473c3.388-3.384 7.898-5.25 12.709-5.25a17.87 17.87 0 0 1 12.7 5.25l28.557 28.561c7.003 7.002 7.003 18.402 0 25.404l-13.477 13.473c-6.032 6.032-7.69 14.344-4.42 22.228 3.27 7.888 10.311 12.596 18.849 12.596h19.052c9.91 0 17.959 8.058 17.959 17.963v40.389c0 9.901-8.049 17.959-17.959 17.959H397.37c-8.539 0-15.579 4.708-18.849 12.596-3.27 7.884-1.611 16.196 4.42 22.228l13.477 13.477c7.003 7.003 7.003 18.397 0 25.399l-28.557 28.562a17.863 17.863 0 0 1-12.7 5.245c-4.811 0-9.321-1.861-12.709-5.245l-13.473-13.473c-6.032-6.036-14.34-7.69-22.228-4.425-7.893 3.266-12.591 10.311-12.591 18.845v19.057c0 9.905-8.063 17.963-17.968 17.963h-40.38c-9.91 0-17.973-8.058-17.973-17.963v-19.057c0-8.534-4.708-15.579-12.592-18.845-7.888-3.266-16.196-1.611-22.228 4.425l-13.468 13.473c-3.387 3.385-7.902 5.247-12.713 5.247zm291.034-14.439a7.507 7.507 0 0 0-10.49 1.612c-42.251 57.594-110.061 91.98-181.382 91.98-26.837 0-52.91-4.651-77.697-13.807l17.186-7.055a7.5 7.5 0 0 0 4.09-9.787c-1.579-3.831-5.961-5.664-9.788-4.09l-34.023 13.967a7.505 7.505 0 0 0-4.09 9.783l13.963 34.018c1.188 2.903 3.991 4.656 6.951 4.656.938 0 1.908-.179 2.842-.561 3.826-1.574 5.655-5.956 4.086-9.788l-7.106-17.332c26.658 9.943 54.706 14.995 83.588 14.995 38.302 0 76.392-9.25 110.17-26.752 32.68-16.932 61.482-41.61 83.309-71.354a7.505 7.505 0 0 0-1.609-10.485zm-383.73-262.44a7.446 7.446 0 0 0 4.429 1.452c2.3 0 4.58-1.06 6.051-3.063 42.26-57.599 110.062-91.99 181.378-91.99 26.841 0 52.91 4.651 77.711 13.802l-17.2 7.059c-3.831 1.569-5.66 5.956-4.09 9.783a7.498 7.498 0 0 0 6.941 4.656 7.41 7.41 0 0 0 2.846-.565l34.023-13.963a7.506 7.506 0 0 0 4.071-4.043 7.524 7.524 0 0 0 .019-5.74L346.359 8.151c-1.579-3.831-5.956-5.664-9.788-4.09-3.831 1.574-5.659 5.957-4.09 9.788l7.111 17.327c-26.672-9.943-54.71-14.99-83.592-14.99-38.297 0-76.392 9.25-110.17 26.756-32.671 16.932-61.477 41.605-83.3 71.359a7.5 7.5 0 0 0 1.612 10.485zm59.027 312.593c-57.599-42.255-91.98-110.061-91.98-181.378 0-26.832 4.651-52.896 13.802-77.692l7.05 17.181a7.51 7.51 0 0 0 9.793 4.09 7.51 7.51 0 0 0 4.09-9.787L51.96 155.775c-1.579-3.831-5.961-5.664-9.792-4.09L8.15 165.647c-3.831 1.569-5.659 5.952-4.09 9.783a7.506 7.506 0 0 0 9.792 4.095l17.327-7.116c-9.938 26.672-14.985 54.72-14.985 83.592 0 38.297 9.246 76.392 26.747 110.165 16.941 32.68 41.61 61.482 71.359 83.309a7.47 7.47 0 0 0 4.43 1.451c2.314 0 4.59-1.06 6.051-3.063a7.5 7.5 0 0 0-1.612-10.484zm380.681-91.023a7.5 7.5 0 0 0 4.09-9.783c-1.569-3.836-5.961-5.664-9.788-4.095l-17.332 7.116c9.938-26.667 15-54.71 15-83.592 0-38.297-9.26-76.392-26.761-110.17-16.927-32.676-41.596-61.487-71.35-83.31a7.5 7.5 0 0 0-8.868 12.097c57.59 42.251 91.98 110.062 91.98 181.383 0 26.841-4.651 52.905-13.812 77.702l-7.05-17.191a7.502 7.502 0 0 0-9.788-4.086 7.495 7.495 0 0 0-4.09 9.783l13.958 34.018a7.503 7.503 0 0 0 6.941 4.656 7.53 7.53 0 0 0 2.851-.565z" fill="#000000" opacity="1" data-original="#000000"></path></g></g></svg>