<svg xmlns="http://www.w3.org/2000/svg" version="1.1" xmlns:xlink="http://www.w3.org/1999/xlink" width="512" height="512" x="0" y="0" viewBox="0 0 512.003 512.003" style="enable-background:new 0 0 512 512" xml:space="preserve"><g><path d="M477.024 39.827h22.628a4.849 4.849 0 0 0 4.849-4.849V12.35a4.849 4.849 0 0 0-4.849-4.849h-22.628a4.849 4.849 0 0 0-4.849 4.849v22.628a4.849 4.849 0 0 0 4.849 4.849zM244.686 39.827h22.628a4.849 4.849 0 0 0 4.849-4.849V12.35a4.849 4.849 0 0 0-4.849-4.849h-22.628a4.849 4.849 0 0 0-4.849 4.849v22.628a4.849 4.849 0 0 0 4.849 4.849zM477.024 187.31h22.628a4.849 4.849 0 0 0 4.849-4.849v-22.628a4.849 4.849 0 0 0-4.849-4.849h-22.628a4.849 4.849 0 0 0-4.849 4.849v22.628a4.849 4.849 0 0 0 4.849 4.849zM477.024 302.469h22.628a4.849 4.849 0 0 1 4.849 4.849v22.628a4.849 4.849 0 0 1-4.849 4.849h-22.628a4.849 4.849 0 0 1-4.849-4.849v-22.628a4.849 4.849 0 0 1 4.849-4.849z" style="" fill="#FFE177" data-original="#ffe177"></path><path d="M477.024 302.469h22.628a4.849 4.849 0 0 1 4.849 4.849v22.628a4.849 4.849 0 0 1-4.849 4.849h-22.628a4.849 4.849 0 0 1-4.849-4.849v-22.628a4.849 4.849 0 0 1 4.849-4.849z" style="" fill="#FFE177" data-original="#ffe177"></path><path d="M34.976 39.827H12.349A4.849 4.849 0 0 1 7.5 34.978V12.35a4.849 4.849 0 0 1 4.849-4.849h22.628a4.849 4.849 0 0 1 4.849 4.849v22.628a4.85 4.85 0 0 1-4.85 4.849zM34.976 187.31H12.349a4.849 4.849 0 0 1-4.849-4.849v-22.628a4.849 4.849 0 0 1 4.849-4.849h22.628a4.849 4.849 0 0 1 4.849 4.849v22.628a4.85 4.85 0 0 1-4.85 4.849z" style="" fill="#FFD15B" data-original="#ffd15b"></path><path d="M431.768 270.144H80.232c-5.579 0-10.102-4.523-10.102-10.102V82.253c0-5.579 4.523-10.102 10.102-10.102h351.536c5.579 0 10.102 4.523 10.102 10.102v177.789c0 5.579-4.523 10.102-10.102 10.102z" style="" fill="#8AC9FE" data-original="#8ac9fe"></path><path d="M431.768 72.152h-26.264c5.579 0 10.102 4.523 10.102 10.102v177.789c0 5.579-4.523 10.102-10.102 10.102h26.264c5.579 0 10.102-4.523 10.102-10.102V82.253c0-5.579-4.523-10.101-10.102-10.101z" style="" fill="#60B7FF" data-original="#60b7ff"></path><circle cx="256" cy="153.946" r="51.196" style="" fill="#FFE177" data-original="#ffe177"></circle><path d="M441.621 262.247c-3.675-59.916-48.84-107.262-104.025-107.262-57.589 0-104.274 51.558-104.274 115.159h198.446c4.821 0 8.846-3.38 9.853-7.897z" style="" fill="#97D729" data-original="#97d729"></path><path d="M337.596 154.985c-4.451 0-8.837.31-13.142.908 49.068 6.806 87.524 51.264 90.903 106.354-1.007 4.517-5.032 7.897-9.853 7.897h26.264c4.821 0 8.846-3.379 9.853-7.897-3.675-59.916-48.84-107.262-104.025-107.262z" style="" fill="#8BC727" data-original="#8bc727"></path><path d="M174.385 123.641c-55.583 0-101.003 61.105-104.099 138.11.813 4.763 4.951 8.393 9.946 8.393h198.427c0-80.912-46.685-146.503-104.274-146.503z" style="" fill="#BBEC6C" data-original="#bbec6c"></path><path d="M174.385 123.641c-4.446 0-8.826.395-13.126 1.154 51.386 9.077 91.135 70.69 91.135 145.349h26.264c.001-80.912-46.684-146.503-104.273-146.503z" style="" fill="#A2E62E" data-original="#a2e62e"></path><path d="M280.244 504.501H21.642c-7.811 0-14.142-6.332-14.142-14.142V231.757c0-7.811 6.332-14.142 14.142-14.142h258.602c7.811 0 14.142 6.332 14.142 14.142v258.602c0 7.811-6.331 14.142-14.142 14.142z" style="" fill="#D8ECFE" data-original="#d8ecfe"></path><path d="M280.244 217.615h-28.285c7.811 0 14.142 6.332 14.142 14.142v258.602c0 7.811-6.332 14.142-14.142 14.142h28.285c7.811 0 14.142-6.332 14.142-14.142V231.757c0-7.81-6.331-14.142-14.142-14.142z" style="" fill="#C4E2FF" data-original="#c4e2ff"></path><path d="M39.825 464.095v-22.224a8.081 8.081 0 0 1 8.081-8.081H253.98a8.081 8.081 0 0 1 8.081 8.081v22.224a8.081 8.081 0 0 1-8.081 8.081H47.907a8.081 8.081 0 0 1-8.082-8.081z" style="" fill="#B3DAFE" data-original="#b3dafe"></path><path d="m496.378 394.814-123.445-43.155c-9.584-3.35-18.794 5.86-15.443 15.443l43.155 123.445c3.607 10.319 17.955 10.967 22.478 1.016l21.642-47.612a10.107 10.107 0 0 1 5.016-5.016l47.612-21.642c9.952-4.524 9.304-18.871-1.015-22.479z" style="" fill="#918291" data-original="#918291"></path><path d="m434.906 464.429-13.694 30.128a12.415 12.415 0 0 0 1.912-2.994l13.527-29.76a10.077 10.077 0 0 0-1.745 2.626z" style="" fill="#D8ECFE" data-original="#d8ecfe"></path><path d="m496.378 394.814-123.445-43.155c-9.584-3.35-18.794 5.859-15.443 15.443l1.517 4.34c1.324-.001 2.69.214 4.066.695l123.445 43.155c2.532.885 4.477 2.419 5.831 4.293l5.045-2.293c9.951-4.523 9.303-18.87-1.016-22.478z" style="" fill="#7A6D79" data-original="#7a6d79"></path><path d="M477.024 39.827h22.628a4.849 4.849 0 0 0 4.849-4.849V12.35a4.849 4.849 0 0 0-4.849-4.849h-22.628a4.849 4.849 0 0 0-4.849 4.849v22.628a4.849 4.849 0 0 0 4.849 4.849zM244.686 39.827h22.628a4.849 4.849 0 0 0 4.849-4.849V12.35a4.849 4.849 0 0 0-4.849-4.849h-22.628a4.849 4.849 0 0 0-4.849 4.849v22.628a4.849 4.849 0 0 0 4.849 4.849zM477.024 187.31h22.628a4.849 4.849 0 0 0 4.849-4.849v-22.628a4.849 4.849 0 0 0-4.849-4.849h-22.628a4.849 4.849 0 0 0-4.849 4.849v22.628a4.849 4.849 0 0 0 4.849 4.849z" style="stroke-linecap: round; stroke-linejoin: round; stroke-miterlimit: 10;" fill="none" stroke="#000000" stroke-width="15px" stroke-linecap="round" stroke-linejoin="round" stroke-miterlimit="10" data-original="#000000"></path><path d="M472.175 23.664H272.163M39.825 23.664h200.012M472.175 318.631H294.386" style="stroke-linecap: round; stroke-linejoin: round;" fill="none" stroke="#000000" stroke-width="15px" stroke-linecap="round" stroke-linejoin="round" data-original="#000000"></path><path d="M477.024 302.469h22.628a4.849 4.849 0 0 1 4.849 4.849v22.628a4.849 4.849 0 0 1-4.849 4.849h-22.628a4.849 4.849 0 0 1-4.849-4.849v-22.628a4.849 4.849 0 0 1 4.849-4.849z" style="stroke-linecap: round; stroke-linejoin: round; stroke-miterlimit: 10;" fill="none" stroke="#000000" stroke-width="15px" stroke-linecap="round" stroke-linejoin="round" stroke-miterlimit="10" data-original="#000000"></path><path d="M488.337 39.827v115.158" style="stroke-linecap: round; stroke-linejoin: round;" fill="none" stroke="#000000" stroke-width="15px" stroke-linecap="round" stroke-linejoin="round" data-original="#000000"></path><path d="M477.024 302.469h22.628a4.849 4.849 0 0 1 4.849 4.849v22.628a4.849 4.849 0 0 1-4.849 4.849h-22.628a4.849 4.849 0 0 1-4.849-4.849v-22.628a4.849 4.849 0 0 1 4.849-4.849z" style="stroke-linecap: round; stroke-linejoin: round; stroke-miterlimit: 10;" fill="none" stroke="#000000" stroke-width="15px" stroke-linecap="round" stroke-linejoin="round" stroke-miterlimit="10" data-original="#000000"></path><path d="M488.337 302.469V187.31" style="stroke-linecap: round; stroke-linejoin: round;" fill="none" stroke="#000000" stroke-width="15px" stroke-linecap="round" stroke-linejoin="round" data-original="#000000"></path><path d="M34.976 39.827H12.349A4.849 4.849 0 0 1 7.5 34.978V12.35a4.849 4.849 0 0 1 4.849-4.849h22.628a4.849 4.849 0 0 1 4.849 4.849v22.628a4.85 4.85 0 0 1-4.85 4.849zM34.976 187.31H12.349a4.849 4.849 0 0 1-4.849-4.849v-22.628a4.849 4.849 0 0 1 4.849-4.849h22.628a4.849 4.849 0 0 1 4.849 4.849v22.628a4.85 4.85 0 0 1-4.85 4.849z" style="stroke-linecap: round; stroke-linejoin: round; stroke-miterlimit: 10;" fill="none" stroke="#000000" stroke-width="15px" stroke-linecap="round" stroke-linejoin="round" stroke-miterlimit="10" data-original="#000000"></path><path d="M23.663 39.827v115.158M23.663 217.615V187.31" style="stroke-linecap: round; stroke-linejoin: round;" fill="none" stroke="#000000" stroke-width="15px" stroke-linecap="round" stroke-linejoin="round" data-original="#000000"></path><path d="M209.634 132.216c8.172-17.415 25.86-29.466 46.366-29.466 28.274 0 51.195 22.921 51.195 51.195 0 2.081-.121 4.132-.374 6.142" style="stroke-linecap: round; stroke-linejoin: round; stroke-miterlimit: 10;" fill="none" stroke="#000000" stroke-width="15px" stroke-linecap="round" stroke-linejoin="round" stroke-miterlimit="10" data-original="#000000"></path><path d="M262.051 190.775c18.991-22.052 45.821-35.79 75.55-35.79 55.175 0 100.35 47.346 104.016 107.259" style="stroke-linecap: round; stroke-linejoin: round; stroke-miterlimit: 10;" fill="none" stroke="#000000" stroke-width="15px" stroke-linecap="round" stroke-linejoin="round" stroke-miterlimit="10" data-original="#000000"></path><path d="M77.019 217.615c15.031-54.963 52.953-93.975 97.37-93.975s82.338 39.012 97.359 93.975" style="stroke-linecap: round; stroke-linejoin: round; stroke-miterlimit: 10;" fill="none" stroke="#000000" stroke-width="15px" stroke-linecap="round" stroke-linejoin="round" stroke-miterlimit="10" data-original="#000000"></path><path d="M70.13 217.611V82.251c0-5.57 4.53-10.1 10.1-10.1h274.44M389.67 72.151h42.1c5.57 0 10.1 4.53 10.1 10.1v177.79c0 5.58-4.53 10.1-10.1 10.1H294.39M39.825 464.095v-22.224a8.081 8.081 0 0 1 8.081-8.081H253.98a8.081 8.081 0 0 1 8.081 8.081v22.224a8.081 8.081 0 0 1-8.081 8.081H47.907a8.081 8.081 0 0 1-8.082-8.081zM191.35 401.465H39.825V249.94" style="stroke-linecap: round; stroke-linejoin: round; stroke-miterlimit: 10;" fill="none" stroke="#000000" stroke-width="15px" stroke-linecap="round" stroke-linejoin="round" stroke-miterlimit="10" data-original="#000000"></path><path d="M163.45 217.611h116.79c7.81 0 14.15 6.34 14.15 14.15v258.6c0 7.81-6.34 14.14-14.15 14.14H21.64c-7.81 0-14.14-6.33-14.14-14.14v-258.6c0-7.81 6.33-14.15 14.14-14.15h106.81M181.248 260.042 39.825 401.465M262.061 249.94h-32.325M262.061 282.266h-32.325M262.061 314.591h-32.325M386.58 450.311l14.07 40.24c3.6 10.31 17.95 10.96 22.47 1.01l21.65-47.61a10.12 10.12 0 0 1 5.01-5.02l47.61-21.64c9.96-4.52 9.31-18.87-1.01-22.48l-123.45-43.15c-9.58-3.35-18.79 5.86-15.44 15.44l17.54 50.17" style="stroke-linecap: round; stroke-linejoin: round; stroke-miterlimit: 10;" fill="none" stroke="#000000" stroke-width="15px" stroke-linecap="round" stroke-linejoin="round" stroke-miterlimit="10" data-original="#000000"></path></g></svg>