<svg xmlns="http://www.w3.org/2000/svg" version="1.1" xmlns:xlink="http://www.w3.org/1999/xlink" width="512" height="512" x="0" y="0" viewBox="0 0 512 512" style="enable-background:new 0 0 512 512" xml:space="preserve"><g><path d="M420.277 219.631c-1.937-1.951-5.539-2.552-8.004-1.333l-6.638 2.763c-2.598.902-4.723 3.891-4.723 6.641v14.933c0 2.75-2.25 5-5 5h-27.123c-2.75 0-5-2.25-5-5v-14.933c0-2.75-2.125-5.738-4.723-6.641l-6.637-2.762c-2.466-1.218-6.068-.617-8.005 1.334l-10.455 10.537a4.97 4.97 0 0 1-7.044 0l-19.205-19.355c-1.937-1.953-1.937-5.146 0-7.099l10.455-10.537c1.937-1.952 2.537-5.571 1.333-8.044l-2.76-6.736c-.891-2.602-3.869-4.73-6.619-4.73h-14.742c-2.75 0-5-2.25-5-5V141.26c0-2.75 2.25-5 5-5h14.742c2.75 0 5.729-2.129 6.619-4.73l2.761-6.738c1.204-2.473.604-6.093-1.333-8.045l-10.455-10.536c-1.937-1.952-1.937-5.146 0-7.098l15.901-16.023c-18.977-7.851-39.752-12.189-61.536-12.189-89.554 0-162.152 73.154-162.152 163.395 0 68.983 42.424 127.979 102.414 151.946v39.251h119.476V386.24c59.992-23.968 102.415-82.963 102.415-151.946 0-3.715-.135-7.397-.377-11.051l-3.585-3.612z" style="" fill="#FFC502" data-original="#ffc502"></path><path d="M469.315 173.668c2.75 0 5-2.25 5-5V141.26c0-2.75-2.25-5-5-5h-14.741c-2.75 0-5.729-2.129-6.62-4.73l-2.761-6.739c-1.204-2.473-.603-6.093 1.334-8.045l10.456-10.535c1.937-1.952 1.937-5.146 0-7.098L437.778 79.76a4.969 4.969 0 0 0-7.044 0l-10.457 10.535c-1.937 1.952-5.539 2.552-8.004 1.334l-6.638-2.762c-2.598-.902-4.723-3.891-4.723-6.641V67.294c0-2.75-2.25-5-5-5h-27.123c-2.75 0-5 2.25-5 5v14.933c0 2.75-2.125 5.738-4.723 6.641l-6.637 2.762c-2.466 1.218-6.068.617-8.005-1.334L333.969 79.76a4.97 4.97 0 0 0-7.044 0L307.72 99.112c-1.937 1.952-1.937 5.146 0 7.098l10.455 10.536c1.937 1.952 2.537 5.572 1.333 8.045l-2.761 6.738c-.891 2.602-3.869 4.73-6.619 4.73h-14.742c-2.75 0-5 2.25-5 5v27.408c0 2.75 2.25 5 5 5h14.742c2.75 0 5.729 2.129 6.619 4.73l2.76 6.736c1.204 2.473.604 6.092-1.333 8.044l-10.455 10.537c-1.937 1.952-1.937 5.145 0 7.099l19.205 19.355a4.97 4.97 0 0 0 7.044 0l10.455-10.537c1.937-1.951 5.539-2.552 8.005-1.334l6.637 2.762c2.598.902 4.723 3.891 4.723 6.641v14.933c0 2.75 2.25 5 5 5h27.123c2.75 0 5-2.25 5-5V227.7c0-2.75 2.125-5.738 4.723-6.641l6.638-2.763c2.465-1.219 6.067-.618 8.004 1.333l10.457 10.539a4.97 4.97 0 0 0 7.044 0l19.206-19.356c1.937-1.952 1.937-5.146 0-7.098l-10.456-10.534c-1.937-1.952-2.537-5.572-1.334-8.045l2.761-6.738c.891-2.602 3.87-4.73 6.62-4.73h14.741v.001z" style="" fill="#C5CCD3" data-original="#c5ccd3"></path><path d="M202.348 425.491h23.761v-49.303a3 3 0 0 0-1.887-2.786c-29.313-11.711-54.329-31.769-72.343-58.004-18.439-26.854-28.184-58.375-28.184-91.156 0-66.978 40.952-124.488 98.943-148.463C152.15 93.534 99.934 157.766 99.934 234.294c0 68.983 42.424 127.979 102.414 151.946v39.251z" style="opacity:0.1;enable-background:new ;" fill="#000000" opacity="1" data-original="#000000"></path><path d="M469.315 173.668c2.75 0 5-2.25 5-5V141.26c0-2.75-2.25-5-5-5h-14.741c-2.75 0-5.729-2.129-6.62-4.73l-2.761-6.739c-1.204-2.473-.603-6.093 1.334-8.045l10.456-10.535c1.937-1.952 1.937-5.146 0-7.098L437.778 79.76a4.969 4.969 0 0 0-7.044 0l-10.457 10.535c-1.937 1.952-5.539 2.552-8.004 1.334l-6.638-2.762c-2.598-.902-4.723-3.891-4.723-6.641V67.294c0-2.75-2.25-5-5-5h-27.123c-2.75 0-5 2.25-5 5v14.933c0 2.75-2.125 5.738-4.723 6.641l-6.637 2.762c-2.466 1.218-6.068.617-8.005-1.334L333.969 79.76a4.97 4.97 0 0 0-7.044 0L307.72 99.112c-1.937 1.952-1.937 5.146 0 7.098l10.455 10.536c1.937 1.952 2.537 5.572 1.333 8.045l-2.761 6.738c-.891 2.602-3.869 4.73-6.619 4.73h-14.742c-2.75 0-5 2.25-5 5v27.408c0 2.75 2.25 5 5 5h14.742c2.75 0 5.729 2.129 6.619 4.73l2.76 6.736c1.204 2.473.604 6.092-1.333 8.044l-10.455 10.537c-1.937 1.952-1.937 5.145 0 7.099l19.205 19.355a4.97 4.97 0 0 0 7.044 0l10.455-10.537c1.937-1.951 5.539-2.552 8.005-1.334l6.637 2.762c2.598.902 4.723 3.891 4.723 6.641v14.933c0 2.75 2.25 5 5 5h27.123c2.75 0 5-2.25 5-5V227.7c0-2.75 2.125-5.738 4.723-6.641l6.638-2.763c2.465-1.219 6.067-.618 8.004 1.333l10.457 10.539a4.97 4.97 0 0 0 7.044 0l19.206-19.356c1.937-1.952 1.937-5.146 0-7.098l-10.456-10.534c-1.937-1.952-2.537-5.572-1.334-8.045l2.761-6.738c.891-2.602 3.87-4.73 6.62-4.73h14.741v.001z" style="" fill="#C5CCD3" data-original="#c5ccd3"></path><ellipse cx="382.349" cy="154.96" rx="44.26" ry="44.6" style="" fill="#9EA7AF" data-original="#9ea7af"></ellipse><g style="opacity:0.1;"><path d="M358.999 154.964c0-21.002 14.409-38.603 33.807-43.338a44.051 44.051 0 0 0-10.454-1.263c-24.446 0-44.262 19.968-44.262 44.601s19.816 44.6 44.262 44.6c3.603 0 7.102-.444 10.454-1.263-19.397-4.736-33.807-22.335-33.807-43.337z" style="" fill="#00003F" data-original="#00003f"></path></g><ellipse cx="382.349" cy="154.96" rx="18.71" ry="18.854" style="" fill="#FFFFFF" data-original="#ffffff"></ellipse><path d="M250.858 234.016c0 2.75 2.25 5 5 5h19.075c2.75 0 5-2.25 5-5v-19.544c0-2.75-2.25-5-5-5h-19.075c-2.75 0-5 2.25-5 5v19.544zM213.171 351.838c0 2.75 2.25 5 5 5h19.075c2.75 0 5-2.25 5-5v-19.544c0-2.75-2.25-5-5-5h-19.075c-2.75 0-5 2.25-5 5v19.544z" style="" fill="#33C7CA" data-original="#33c7ca"></path><path d="M203.966 274.979c-1.937 1.952-1.937 5.146 0 7.098l13.516 13.62a4.969 4.969 0 0 0 7.044 0l13.688-13.793c1.937-1.952 1.937-5.146 0-7.098l-13.516-13.62a4.969 4.969 0 0 0-7.044 0l-13.688 13.793z" style="" fill="#FFFFFF" data-original="#ffffff"></path><path d="M219.308 461.763v33.84c0 4.894 3.989 8.897 8.864 8.897h67.829c4.875 0 8.864-4.004 8.864-8.897v-33.84h-85.557z" style="" fill="#08375E" data-original="#08375e"></path><path d="M333.303 451.763c0 5.5-4.5 10-10 10H200.87c-5.5 0-10-4.5-10-10v-16.271c0-5.5 4.5-10 10-10h122.433c5.5 0 10 4.5 10 10v16.271zM219.308 482.256v13.347c0 4.894 3.989 8.897 8.864 8.897h67.829c4.875 0 8.864-4.004 8.864-8.897v-13.347h-85.557z" style="" fill="#046699" data-original="#046699"></path><path d="M250.443 495.603v-33.84h-31.135v33.84c0 4.894 3.989 8.897 8.864 8.897h31.135c-4.876 0-8.864-4.004-8.864-8.897z" style="opacity:0.1;enable-background:new ;" fill="#000000" opacity="1" data-original="#000000"></path><g style="opacity:0.1;"><path d="M221.999 451.763v-16.271c0-5.5 4.5-10 10-10H200.87c-5.5 0-10 4.5-10 10v16.271c0 5.5 4.5 10 10 10h31.129c-5.5 0-10-4.5-10-10z" style="" fill="#00003F" data-original="#00003f"></path></g><path d="M306.932 321.552c0 2.75 2.25 5 5 5h19.075c2.75 0 5-2.25 5-5v-19.544c0-2.75-2.25-5-5-5h-19.075c-2.75 0-5 2.25-5 5v19.544zM181.96 217.096c0 2.75 2.25 5 5 5h19.075c2.75 0 5-2.25 5-5v-19.544c0-2.75-2.25-5-5-5H186.96c-2.75 0-5 2.25-5 5v19.544z" style="" fill="#FFFFFF" data-original="#ffffff"></path><path d="M216.174 159.615c0 2.75 2.25 5 5 5h19.075c2.75 0 5-2.25 5-5v-19.544c0-2.75-2.25-5-5-5h-19.075c-2.75 0-5 2.25-5 5v19.544z" style="" fill="#33C7CA" data-original="#33c7ca"></path><path d="M469.315 128.76h-14.391a2.213 2.213 0 0 1-.029-.073l-2.761-6.739a7.298 7.298 0 0 0-.055-.131l.003-.021 10.225-10.303c4.832-4.869 4.832-12.793 0-17.663l-19.206-19.352c-2.355-2.374-5.497-3.682-8.846-3.682s-6.49 1.308-8.845 3.681l-10.183 10.259-.074-.031-6.638-2.762-.098-.04-.006-.009v-14.6c0-6.892-5.607-12.5-12.5-12.5h-27.122c-6.893 0-12.5 5.608-12.5 12.5v14.6l-.006.009-.098.04-6.637 2.762a2.326 2.326 0 0 1-.074.031l-10.181-10.26a12.377 12.377 0 0 0-8.845-3.68 12.368 12.368 0 0 0-8.683 3.532c-18.574-7.055-38.684-10.929-59.678-10.929-93.546 0-169.652 76.663-169.652 170.895 0 34.913 10.383 68.489 30.028 97.1 18.22 26.535 43.171 47.143 72.386 59.844v27.844c-6.687 2.463-11.478 8.879-11.478 16.41v16.271c0 9.649 7.851 17.5 17.5 17.5h10.938v26.34c0 9.042 7.341 16.397 16.364 16.397h67.829c9.023 0 16.364-7.355 16.364-16.397v-26.34h10.938c9.649 0 17.5-7.851 17.5-17.5v-16.271c0-7.531-4.792-13.948-11.479-16.41v-27.843c37.992-16.51 68.5-46.19 86.252-84.055a7.502 7.502 0 0 0-3.607-9.975 7.499 7.499 0 0 0-9.974 3.607c-15.251 32.529-40.814 58.433-72.671 73.912v-40.677h1.684c6.893 0 12.5-5.607 12.5-12.5v-19.544c0-6.893-5.607-12.5-12.5-12.5h-19.075c-6.893 0-12.5 5.607-12.5 12.5v19.544c0 6.893 5.607 12.5 12.5 12.5h2.392v83.939h-10.922v-57.538c0-4.765-2.344-10.452-5.698-13.832l-56.574-57.008 2.408-2.427c4.832-4.869 4.832-12.793 0-17.663l-13.516-13.619c-2.355-2.374-5.497-3.682-8.846-3.682s-6.49 1.308-8.845 3.681l-13.689 13.794c-4.832 4.869-4.832 12.793 0 17.663l13.516 13.619c2.355 2.374 5.497 3.682 8.846 3.682s6.49-1.308 8.845-3.681l.714-.72 56.493 56.926c.553.576 1.333 2.471 1.347 3.267v57.538h-15.506V355c0-4.143-3.358-7.5-7.5-7.5s-7.5 3.357-7.5 7.5v62.991H235.21v-53.653h2.038c6.893 0 12.5-5.607 12.5-12.5v-19.544c0-6.893-5.607-12.5-12.5-12.5h-19.075c-6.893 0-12.5 5.607-12.5 12.5v19.544c0 6.893 5.607 12.5 12.5 12.5h2.037v53.653h-10.36V386.24a7.502 7.502 0 0 0-4.717-6.965c-28.484-11.38-52.794-30.874-70.303-56.373-17.921-26.1-27.394-56.74-27.394-88.608 0-85.961 69.376-155.895 154.652-155.895 16.745 0 32.871 2.711 47.984 7.697l-7.674 7.733c-4.832 4.869-4.832 12.793 0 17.662l10.223 10.304.003.021-.055.13-2.761 6.738-.03.074h-14.391c-6.893 0-12.5 5.607-12.5 12.5v27.408c0 6.893 5.607 12.5 12.5 12.5h14.391l.03.074 2.76 6.736.055.131c0 .007-.002.013-.003.02l-10.223 10.305c-4.831 4.868-4.832 12.792 0 17.663l19.206 19.357c2.355 2.372 5.497 3.679 8.845 3.679s6.489-1.307 8.846-3.681l10.18-10.26.074.031 6.637 2.762.098.04.006.009v14.6c0 6.893 5.607 12.5 12.5 12.5h27.123c6.893 0 12.5-5.607 12.5-12.5v-14.6l.006-.009.099-.041 6.638-2.763.074-.031 1.311 1.321c.128 2.578.2 5.172.2 7.782 0 6.935-.456 13.908-1.354 20.727a7.5 7.5 0 0 0 6.456 8.415c4.108.546 7.874-2.349 8.415-6.456a174.013 174.013 0 0 0 1.408-18.12c.843.177 1.709.273 2.592.273 3.348 0 6.489-1.307 8.846-3.681l19.207-19.356c4.831-4.869 4.831-12.793-.001-17.663l-10.224-10.301-.003-.022.054-.129 2.761-6.738.03-.074h14.391c6.893 0 12.5-5.607 12.5-12.5V141.26c-.003-6.893-5.61-12.5-12.503-12.5zM314.432 304.508h14.075v14.544h-14.075v-14.544zm-103.421-25.98 10.166-10.243 9.993 10.07-10.166 10.243-9.993-10.07zm9.66 56.266h14.075v14.544h-14.075v-14.544zm76.694 160.809c0 .758-.625 1.397-1.364 1.397h-67.829c-.739 0-1.364-.64-1.364-1.397v-5.847h70.557v5.847zm0-20.847h-70.557v-5.493h70.557v5.493zm-98.995-39.265c0-1.355 1.145-2.5 2.5-2.5h122.433c1.355 0 2.5 1.145 2.5 2.5v16.271c0 1.355-1.145 2.5-2.5 2.5H200.87c-1.355 0-2.5-1.145-2.5-2.5v-16.271zm268.445-269.323h-12.241c-5.914 0-11.6 4.001-13.626 9.549l-2.622 6.4c-2.455 5.342-1.267 12.17 2.879 16.348l8.734 8.8-15.684 15.807-8.656-8.725c-2.638-2.656-6.44-4.18-10.434-4.18-2.099 0-4.149.441-5.949 1.279l-6.299 2.621c-5.524 2.049-9.506 7.736-9.506 13.634v12.433h-22.122v-12.433c0-5.898-3.982-11.585-9.506-13.634l-6.301-2.621c-1.799-.837-3.848-1.278-5.946-1.278-3.994 0-7.797 1.524-10.436 4.183l-8.652 8.721-15.684-15.807 8.735-8.804c4.146-4.177 5.333-11.005 2.877-16.347l-2.622-6.398c-2.027-5.549-7.712-9.549-13.626-9.549h-12.242V143.76h12.242c5.914 0 11.6-4 13.626-9.55l2.622-6.4c2.455-5.341 1.267-12.17-2.878-16.347l-8.734-8.803 15.683-15.803 8.654 8.721c2.638 2.656 6.441 4.181 10.435 4.181 2.098 0 4.147-.441 5.946-1.278l6.301-2.621c5.524-2.049 9.506-7.736 9.506-13.634V69.794h22.123v12.433c0 5.897 3.982 11.586 9.507 13.634l6.298 2.62c1.8.838 3.85 1.279 5.949 1.279 3.995 0 7.798-1.524 10.434-4.182l8.655-8.72 15.684 15.803-8.735 8.802c-4.145 4.177-5.333 11.005-2.878 16.346l2.622 6.402c2.027 5.548 7.712 9.549 13.626 9.549h12.241v22.408z" fill="#000000" opacity="1" data-original="#000000"></path><path d="M422.067 133.87a7.498 7.498 0 0 0-4.795 9.46 37.358 37.358 0 0 1 1.842 11.634c0 20.457-16.492 37.1-36.763 37.1s-36.762-16.643-36.762-37.1 16.491-37.101 36.762-37.101c4.17 0 8.258.697 12.151 2.072a7.5 7.5 0 0 0 4.995-14.144 51.382 51.382 0 0 0-17.146-2.928c-28.542 0-51.762 23.372-51.762 52.101 0 28.728 23.22 52.1 51.762 52.1s51.763-23.372 51.763-52.1c0-5.57-.87-11.054-2.586-16.298a7.5 7.5 0 0 0-9.461-4.796z" fill="#000000" opacity="1" data-original="#000000"></path><path d="M382.351 128.61c-14.453 0-26.21 11.822-26.21 26.354 0 14.531 11.758 26.354 26.21 26.354 14.453 0 26.21-11.822 26.21-26.354.001-14.531-11.757-26.354-26.21-26.354zm0 37.707c-6.182 0-11.21-5.093-11.21-11.354s5.029-11.354 11.21-11.354c6.182 0 11.21 5.093 11.21 11.354.001 6.262-5.028 11.354-11.21 11.354zM265.396 300.499a7.5 7.5 0 0 0 7.5-7.5v-46.483h2.037c6.893 0 12.5-5.607 12.5-12.5v-19.544c0-6.893-5.607-12.5-12.5-12.5h-19.075c-6.893 0-12.5 5.607-12.5 12.5v19.544c0 6.893 5.607 12.5 12.5 12.5h2.038v46.483a7.5 7.5 0 0 0 7.5 7.5zm-7.038-83.527h14.075v14.544h-14.075v-14.544zM265.395 35.898a7.5 7.5 0 0 0 7.5-7.5V7.5c0-4.143-3.358-7.5-7.5-7.5s-7.5 3.357-7.5 7.5v20.898a7.5 7.5 0 0 0 7.5 7.5zM197.948 40.007a7.503 7.503 0 0 0 9.333 5.041 7.5 7.5 0 0 0 5.041-9.332l-5.978-20.02c-1.186-3.97-5.364-6.227-9.333-5.041s-6.226 5.363-5.04 9.332l5.977 20.02zM143.846 68.405a7.493 7.493 0 0 0 10.384 2.157 7.5 7.5 0 0 0 2.156-10.385l-11.452-17.454a7.5 7.5 0 0 0-10.385-2.156 7.5 7.5 0 0 0-2.156 10.385l11.453 17.453zM84.185 97.784l15.962 13.421a7.466 7.466 0 0 0 4.823 1.76 7.5 7.5 0 0 0 4.831-13.24L93.838 86.304a7.499 7.499 0 0 0-10.567.913 7.499 7.499 0 0 0 .914 10.567zM51.407 156.544l19.128 8.256a7.478 7.478 0 0 0 2.968.616 7.501 7.501 0 0 0 2.976-14.387l-19.128-8.256a7.5 7.5 0 1 0-5.944 13.771zM57.505 224.672a7.502 7.502 0 0 0 1.725-14.901l-20.684-2.395c-4.116-.479-7.836 2.474-8.313 6.588s2.473 7.836 6.588 8.313l20.684 2.395zM68.211 277.077a7.5 7.5 0 0 0-8.704-6.063l-20.499 3.667a7.5 7.5 0 0 0-6.062 8.703 7.502 7.502 0 0 0 8.704 6.063l20.499-3.667a7.5 7.5 0 0 0 6.062-8.703zM77.292 329.598l-18.587 9.419a7.5 7.5 0 0 0 6.78 13.38l18.587-9.419a7.5 7.5 0 0 0-6.78-13.38zM111.087 380.587l-15.111 14.379a7.5 7.5 0 0 0-.263 10.604 7.474 7.474 0 0 0 5.434 2.33 7.479 7.479 0 0 0 5.169-2.066l15.111-14.379a7.5 7.5 0 0 0-10.34-10.868zM186.96 185.052c-6.893 0-12.5 5.607-12.5 12.5v19.544c0 6.893 5.607 12.5 12.5 12.5h19.075c6.893 0 12.5-5.607 12.5-12.5v-19.544c0-6.893-5.607-12.5-12.5-12.5H186.96zm16.575 29.544H189.46v-14.544h14.075v14.544zM240.249 172.115c6.893 0 12.5-5.607 12.5-12.5v-19.544c0-6.893-5.607-12.5-12.5-12.5h-19.075c-6.893 0-12.5 5.607-12.5 12.5v19.544c0 6.893 5.607 12.5 12.5 12.5h19.075zm-16.575-29.544h14.075v14.544h-14.075v-14.544z" fill="#000000" opacity="1" data-original="#000000"></path></g></svg>