<svg xmlns="http://www.w3.org/2000/svg" version="1.1" xmlns:xlink="http://www.w3.org/1999/xlink" width="512" height="512" x="0" y="0" viewBox="0 0 517.395 517.395" style="enable-background:new 0 0 512 512" xml:space="preserve"><g><path fill="#3D6D93" d="M375.395 507.197h-228c-22.091 0-40-17.909-40-40v-417c0-22.091 17.909-40 40-40h228c22.091 0 40 17.909 40 40v417c0 22.092-17.909 40-40 40z" opacity="1" data-original="#3d6d93"></path><path fill="#335E80" d="M375.395 10.197h-30c22.091 0 40 17.909 40 40v417c0 22.091-17.909 40-40 40h30c22.091 0 40-17.909 40-40v-417c0-22.091-17.909-40-40-40z" opacity="1" data-original="#335e80"></path><path fill="#F9F7F8" d="M334.847 48.197c0 7.466-6.053 13.519-13.519 13.519H201.461c-7.466 0-13.519-6.053-13.519-13.519a8 8 0 0 0-8-8h-27.547c-8.284 0-15 6.716-15 15v407c0 8.284 6.716 15 15 15h218c8.284 0 15-6.716 15-15v-407c0-8.284-6.716-15-15-15h-27.547a8 8 0 0 0-8.001 8z" opacity="1" data-original="#f9f7f8"></path><circle cx="99.362" cy="151.27" r="86.468" fill="#FFE179" opacity="1" data-original="#ffe179"></circle><path fill="#FBD268" d="M99.363 64.802c-5.119 0-10.125.47-15 1.323 40.601 7.105 71.468 42.509 71.468 85.145s-30.867 78.039-71.468 85.145a86.921 86.921 0 0 0 15 1.323c47.755 0 86.468-38.713 86.468-86.468s-38.714-86.468-86.468-86.468z" opacity="1" data-original="#fbd268"></path><path fill="#F58A97" d="M129.362 196.27h-60c-8.284 0-15-6.716-15-15v-60c0-8.284 6.716-15 15-15h60c8.284 0 15 6.716 15 15v60c0 8.285-6.715 15-15 15z" opacity="1" data-original="#f58a97"></path><path fill="#F07281" d="M129.363 106.27h-30c8.284 0 15 6.716 15 15v60c0 8.284-6.716 15-15 15h30c8.284 0 15-6.716 15-15v-60c0-8.284-6.716-15-15-15z" opacity="1" data-original="#f07281"></path><circle cx="99.362" cy="151.27" r="15" fill="#FFFFFF" opacity="1" data-original="#ffffff"></circle><circle cx="93.967" cy="355.334" r="86.468" fill="#8FD8FA" opacity="1" data-original="#8fd8fa"></circle><path fill="#6BCDFE" d="M93.968 268.866a86.84 86.84 0 0 0-15.998 1.502c40.108 7.507 70.47 42.68 70.47 84.966s-30.362 77.46-70.47 84.966a86.84 86.84 0 0 0 15.998 1.502c47.755 0 86.468-38.713 86.468-86.468s-38.714-86.468-86.468-86.468z" opacity="1" data-original="#6bcdfe"></path><path fill="#FFFFFF" d="M121.505 322.176c-6.925-7.962-18.993-8.803-26.956-1.879a19.11 19.11 0 0 0-6.567 14.673v4.265a45.465 45.465 0 0 1-35.571-15.714c-1.328-1.536-3.823-1.037-4.397.911-3.135 10.651-7.423 37.446 22.908 50.927a49.647 49.647 0 0 1-19.963 7.934c-1.849.299-.936 3.71-.468 4.931 3.219 8.4 39.524 11.884 61.759-6.403 13.632-11.211 17.802-27.174 19.222-35.774a39.56 39.56 0 0 0 8.293-12.738 39.2 39.2 0 0 0 2.28-8.048c.633-3.694-3.165-6.481-6.538-4.846a21.891 21.891 0 0 1-4.793 1.672 22.336 22.336 0 0 1-9.209.089z" opacity="1" data-original="#ffffff"></path><circle cx="423.427" cy="355.334" r="86.468" fill="#F58A97" opacity="1" data-original="#f58a97"></circle><path fill="#F07281" d="M423.427 268.866c-5.119 0-10.125.47-15 1.323 40.601 7.106 71.468 42.509 71.468 85.145s-30.867 78.039-71.468 85.145a86.921 86.921 0 0 0 15 1.323c47.755 0 86.468-38.713 86.468-86.468s-38.713-86.468-86.468-86.468z" opacity="1" data-original="#f07281"></path><path fill="#FFFFFF" d="M402.196 325.925c0-2.237 2.42-3.634 4.356-2.516l52.589 30.377c1.936 1.118 1.936 3.914 0 5.032l-52.589 30.377c-1.936 1.118-4.356-.28-4.356-2.516z" opacity="1" data-original="#ffffff"></path><circle cx="423.427" cy="151.27" r="86.468" fill="#8FD8FA" opacity="1" data-original="#8fd8fa"></circle><path fill="#6BCDFE" d="M423.427 64.802c-5.119 0-10.125.47-15 1.323 40.601 7.105 71.468 42.509 71.468 85.144s-30.867 78.039-71.468 85.145a86.921 86.921 0 0 0 15 1.323c47.755 0 86.468-38.713 86.468-86.468 0-47.754-38.713-86.467-86.468-86.467z" opacity="1" data-original="#6bcdfe"></path><path fill="#AEE69C" d="M259.771 198.28c-31.093.815-56.781 25.579-58.698 56.624a60.402 60.402 0 0 0 3.108 23.278 6.905 6.905 0 0 1-.039 4.513l-8.047 22.89c-1.113 3.167 1.934 6.214 5.1 5.1l16.103-5.661c2.291-.806 4.815-.339 6.722 1.165 10.691 8.427 24.292 13.326 39.052 12.926 32.446-.88 58.652-27.751 58.761-60.21.114-34.016-27.872-61.522-62.062-60.625z" opacity="1" data-original="#aee69c"></path><path fill="#89DAA4" d="M259.771 198.28c-4.588.12-9.054.775-13.347 1.881 26.169 6.7 45.504 30.463 45.41 58.743-.093 27.886-19.457 51.632-45.484 58.331a60.56 60.56 0 0 0 16.723 1.879c32.446-.88 58.652-27.752 58.761-60.21.113-34.015-27.873-61.521-62.063-60.624z" opacity="1" data-original="#89daa4"></path><path d="M397.204 156.407h12.079v47.674c0 4.143 3.357 7.5 7.5 7.5s7.5-3.357 7.5-7.5v-47.674h12.078c4.143 0 7.5-3.357 7.5-7.5s-3.357-7.5-7.5-7.5h-12.078v-21.79c0-4.188 3.406-7.594 7.594-7.594h17.772c4.143 0 7.5-3.357 7.5-7.5s-3.357-7.5-7.5-7.5h-17.772c-12.458 0-22.594 10.136-22.594 22.594v21.79h-12.079c-4.143 0-7.5 3.357-7.5 7.5s3.358 7.5 7.5 7.5zM261.395 43.457a7.5 7.5 0 1 0 0-15 7.5 7.5 0 0 0 0 15zM99.362 173.771c12.406 0 22.5-10.094 22.5-22.5s-10.094-22.5-22.5-22.5-22.5 10.094-22.5 22.5 10.094 22.5 22.5 22.5zm0-30c4.136 0 7.5 3.364 7.5 7.5s-3.364 7.5-7.5 7.5-7.5-3.364-7.5-7.5 3.365-7.5 7.5-7.5zm30 60c12.406 0 22.5-10.094 22.5-22.5v-60c0-12.406-10.094-22.5-22.5-22.5h-60c-12.406 0-22.5 10.094-22.5 22.5v60c0 12.406 10.094 22.5 22.5 22.5zm-67.5-22.5v-60c0-4.136 3.364-7.5 7.5-7.5h60c4.136 0 7.5 3.364 7.5 7.5v60c0 4.136-3.364 7.5-7.5 7.5h-60c-4.135 0-7.5-3.365-7.5-7.5zm82.954 133.598c-3.641-2.739-8.46-3.199-12.579-1.204-1.01.489-2.071.859-3.154 1.102a14.385 14.385 0 0 1-4.024.322c-4.42-4.062-10.044-6.493-16.121-6.916-7.083-.501-13.947 1.802-19.311 6.466a26.55 26.55 0 0 0-8.923 16.626c-8.727-1.407-16.722-5.824-22.618-12.646a10.09 10.09 0 0 0-9.772-3.272 10.015 10.015 0 0 0-7.493 6.97c-2.523 8.571-7.848 34.828 14.316 52.334-4.23 1.29-9.054 1.193-11.521 5.477-2.224 3.862-1.035 8.411-.128 10.78 1.772 4.626 6.396 7.956 13.741 9.897 4.009 1.06 9.249 1.745 15.154 1.745 13.696-.001 30.955-3.688 44.632-14.936 13.631-11.211 19.205-26.495 21.453-38.092a46.757 46.757 0 0 0 8.254-13.411 46.982 46.982 0 0 0 2.716-9.585c.765-4.472-1.005-8.939-4.622-11.657zm-18.729 25.959a7.5 7.5 0 0 0-2.014 3.998c-1.531 9.271-5.651 22.21-16.586 31.203-13.221 10.872-31.83 12.399-42.532 11.021a57.135 57.135 0 0 0 10.18-5.485 7.5 7.5 0 0 0-1.166-13.059c-18.675-8.301-21.617-22.431-20.457-33.514a52.617 52.617 0 0 0 34.665 11.739 7.5 7.5 0 0 0 7.306-7.497v-4.265l-.001-.101a11.583 11.583 0 0 1 3.989-8.913 11.542 11.542 0 0 1 8.424-2.821 11.533 11.533 0 0 1 7.951 3.962 7.502 7.502 0 0 0 4.195 2.434c4.439.883 8.932.769 13.27-.356a31.913 31.913 0 0 1-7.224 11.654zm297.34-79.462c-.178 0-.354.007-.532.008v-16.142c.178.001.354.007.532.007 51.814 0 93.968-42.153 93.968-93.968 0-52.025-42.494-94.256-94.5-93.961v-7.112c0-26.191-21.309-47.5-47.5-47.5h-228c-26.191 0-47.5 21.309-47.5 47.5v7.112c-18.374-.107-36.202 5.094-51.558 15.041a7.5 7.5 0 1 0 8.154 12.59c12.763-8.268 27.588-12.638 42.871-12.638 43.543 0 78.968 35.425 78.968 78.968s-35.425 78.968-78.968 78.968-78.968-35.425-78.968-78.968c0-15.786 4.641-31.02 13.419-44.054a7.5 7.5 0 0 0-12.441-8.379c-10.452 15.52-15.978 33.65-15.978 52.433 0 51.814 42.153 93.968 93.968 93.968.178 0 .354-.006.532-.007v16.327a94.626 94.626 0 0 0-5.927-.192C42.153 261.366 0 303.52 0 355.334s42.153 93.969 93.968 93.969c1.991 0 3.966-.07 5.927-.192v18.087c0 26.191 21.309 47.5 47.5 47.5h228c26.191 0 47.5-21.309 47.5-47.5v-17.901c.178.001.354.007.532.007 51.814 0 93.968-42.154 93.968-93.969s-42.154-93.969-93.968-93.969zm0-189.063c43.543 0 78.968 35.425 78.968 78.968s-35.425 78.968-78.968 78.968-78.968-35.425-78.968-78.968 35.425-78.968 78.968-78.968zm-15.532 171.644v18.693a93.524 93.524 0 0 0-15 3.77v-26.268a93.013 93.013 0 0 0 15 3.805zm-278-188.75v7.201a93.144 93.144 0 0 0-15-3.805v-8.396c0-17.921 14.579-32.5 32.5-32.5h228c17.921 0 32.5 14.579 32.5 32.5v8.396a93.144 93.144 0 0 0-15 3.805v-7.201c0-12.406-10.094-22.5-22.5-22.5h-27.55c-8.547 0-15.5 6.953-15.5 15.5a6.028 6.028 0 0 1-6.021 6.02H201.465a6.028 6.028 0 0 1-6.021-6.02c0-4.145-1.611-8.038-4.557-10.983a15.444 15.444 0 0 0-10.943-4.517h-27.55c-12.406 0-22.499 10.094-22.499 22.5zm-15 188.75a93.144 93.144 0 0 0 15-3.805v28.368a93.101 93.101 0 0 0-15-4.792zM93.968 434.303C50.425 434.303 15 398.878 15 355.334c0-43.543 35.425-78.968 78.968-78.968s78.968 35.425 78.968 78.968c0 46.025-36.331 78.969-78.968 78.969zm313.927 32.894c0 17.921-14.579 32.5-32.5 32.5h-228c-17.921 0-32.5-14.579-32.5-32.5v-20.246a93.104 93.104 0 0 0 15-4.793v20.039c0 12.406 10.094 22.5 22.5 22.5h218c12.406 0 22.5-10.094 22.5-22.5v-17.99a93.144 93.144 0 0 0 15 3.805zm15.532-32.894c-43.543 0-78.968-35.425-78.968-78.969 0-6.767.855-13.484 2.544-19.965a7.5 7.5 0 0 0-5.367-9.148 7.498 7.498 0 0 0-9.148 5.367 94.235 94.235 0 0 0-3.028 23.746c0 35.305 19.574 66.119 48.436 82.175v24.688c0 4.136-3.364 7.5-7.5 7.5h-218c-4.136 0-7.5-3.364-7.5-7.5V434.27c25.88-16.755 43.041-45.878 43.041-78.936s-17.161-62.181-43.041-78.936v-42.954c28.862-16.056 48.436-46.87 48.436-82.174s-19.574-66.118-48.436-82.174V55.197c0-4.136 3.364-7.5 7.5-7.5h27.55c.141 0 .268.055.356.144a.474.474 0 0 1 .144.356c0 11.59 9.43 21.02 21.021 21.02h119.859c11.591 0 21.021-9.43 21.021-21.02 0-.275.225-.5.5-.5h27.55c4.136 0 7.5 3.364 7.5 7.5v13.899c-28.862 16.056-48.436 46.87-48.436 82.174 0 35.326 19.598 66.156 48.489 82.204-.032.283-.053.57-.053.862v38.729c-11.06 6.132-20.911 14.542-28.927 24.939a7.5 7.5 0 0 0 11.879 9.159c15.089-19.58 37.575-30.797 62.58-30.797 43.543 0 78.968 35.425 78.968 78.968-.002 43.544-35.427 78.969-78.97 78.969zM288.879 256.217a7.504 7.504 0 0 0-10.304 2.519c-1.39 2.289-3.349 4.25-5.598 5.705a6.809 6.809 0 0 1-7.193.104l-11.225-6.814c-2.238-1.359-3.462-3.968-3.209-6.613a17.606 17.606 0 0 1 2.463-7.416 7.5 7.5 0 0 0-12.821-7.787 32.73 32.73 0 0 0-4.577 13.802l-.014.151c-.792 8.258 3.279 16.376 10.371 20.685l11.225 6.814a21.755 21.755 0 0 0 11.296 3.142 21.77 21.77 0 0 0 11.838-3.477c4.139-2.682 7.708-6.295 10.266-10.51a7.502 7.502 0 0 0-2.518-10.305zm174.013 91.075-52.588-30.377c-6.802-4.004-15.666 1.201-15.607 9.01v60.755c-.07 7.791 8.859 12.99 15.606 9.01l52.588-30.376c6.8-3.854 6.775-14.186.001-18.022zm-53.196 31.426v-44.831l38.806 22.416zM259.574 190.782c-34.855.914-63.84 28.876-65.986 63.658-.548 8.858.603 17.583 3.418 25.937l-7.986 22.719c-1.481 4.212-.439 8.789 2.717 11.946 3.156 3.156 7.734 4.197 11.945 2.717l15.839-5.567c12.427 9.742 27.965 14.847 43.755 14.419 36.303-.984 65.937-31.347 66.058-67.682.062-18.53-7.202-35.868-20.454-48.82-13.249-12.95-30.769-19.824-49.306-19.327zm3.295 120.834c-12.385.315-24.521-3.684-34.206-11.318-2.646-2.087-5.832-3.172-9.058-3.172-1.609 0-3.229.27-4.795.821l-9.221 3.241 5.627-16.007c1.072-3.049 1.095-6.395.062-9.421-2.236-6.56-3.151-13.422-2.721-20.396 1.673-27.095 24.254-48.876 51.408-49.589 14.457-.392 28.104 4.97 38.428 15.06 10.326 10.093 15.986 23.604 15.938 38.042-.093 28.314-23.18 51.972-51.462 52.739z" fill="#000000" opacity="1" data-original="#000000"></path></g></svg>