<svg xmlns="http://www.w3.org/2000/svg" version="1.1" xmlns:xlink="http://www.w3.org/1999/xlink" width="512" height="512" x="0" y="0" viewBox="0 0 64 64" style="enable-background:new 0 0 512 512" xml:space="preserve" class=""><g><g fill="#0E5952"><path d="M56.02 3.622h-37c-3.31 0-6 2.69-6 6v4.26c16.3-6.044 32.051 10.184 25.52 26.3 1.734 1.118 7.253 3.89 8.54 5.44h8.94c3.31 0 6-2.69 6-6v-30c0-3.31-2.69-6-6-6zm-30 7h-8c-1.312-.024-1.315-1.982 0-2h8c1.312.018 1.317 1.975 0 2zm31 30h-11c-1.31-.024-1.316-1.981 0-2h11c1.31.017 1.318 1.975 0 2zm0-4h-6c-1.313-.024-1.314-1.982 0-2h6c1.312.018 1.317 1.975 0 2z" fill="#0E5952" opacity="1" data-original="#0e5952" class=""></path><path d="m43.863 45.604-7.905-4.611C45.137 22.505 22.184 5.657 7.292 19.89-6.97 34.788 10.01 57.75 28.395 48.556l4.611 7.905c2.43 4.428 8.978 5.29 12.47 1.614 3.67-3.473 2.82-10.046-1.613-12.47zm-12.528-1.672c-5.956 6.207-16.673 6.208-22.628 0-6.239-6.238-6.239-16.388 0-22.627 5.955-6.207 16.672-6.208 22.628 0 6.206 5.957 6.207 16.67 0 22.627z" fill="#0E5952" opacity="1" data-original="#0e5952" class=""></path><path d="M29.92 22.719c-8.75-8.77-23.923-2.509-23.893 9.9-.154 7.534 6.46 14.148 13.994 13.993 12.408.03 18.668-15.144 9.899-23.893zm-1.414 18.385c-7.453 7.521-20.544 2.122-20.479-8.486-.132-6.459 5.534-12.126 11.994-11.994 10.607-.064 16.006 13.028 8.485 20.48z" fill="#0E5952" opacity="1" data-original="#0e5952" class=""></path></g><path fill="#F2BE22" d="M56.97 12.365c-.084-.442-.522-.718-.95-.746h-6c-1.311.02-1.316 1.978 0 2h3.699L43.217 24.87a2.914 2.914 0 0 0-2.142-.085l-3.877-7.116c1.807-1.81.406-5.108-2.177-5.051-2.096-.046-3.612 2.247-2.768 4.153L19.257 31.973a1 1 0 1 0 1.527 1.291l12.68-15.093c.594.373 1.382.543 2.097.393l3.993 7.354c-1.387 1.878.107 4.772 2.467 4.7 2.192.058 3.726-2.47 2.65-4.373l10.35-11.089v3.463c.021 1.313 1.978 1.315 2 0v-6c-.005-.098-.03-.175-.051-.254z" opacity="1" data-original="#f2be22"></path></g></svg>