<svg xmlns="http://www.w3.org/2000/svg" version="1.1" xmlns:xlink="http://www.w3.org/1999/xlink" width="512" height="512" x="0" y="0" viewBox="0 0 66 66" style="enable-background:new 0 0 512 512" xml:space="preserve"><g><path fill="#FFAD00" d="M19.03 19.29c.8-2.06 2.43-3.79 4.45-4.71s4.39-1.02 6.47-.27c1.18.42 2.28 1.12 3.07 2.09s1.26 2.23 1.16 3.48z" opacity="1" data-original="#ffad00"></path><path fill="#FFFFFF" d="M34.18 19.78v.09l-15.15-.58c.8-2.06 2.43-3.79 4.45-4.71 1.49-.68 3.18-.91 4.8-.68-.82.11-1.63.34-2.39.68a8.695 8.695 0 0 0-4.45 4.71z" opacity="1" data-original="#ffffff"></path><path d="M34.18 20.35h-.02l-15.15-.58a.473.473 0 0 1-.38-.22.489.489 0 0 1-.05-.44c.85-2.19 2.56-4 4.7-4.97a9.172 9.172 0 0 1 6.83-.29c1.34.48 2.48 1.25 3.28 2.24.9 1.11 1.37 2.5 1.27 3.82-.02.24-.23.44-.48.44zm-14.43-1.52 13.95.53c-.04-.93-.42-1.88-1.06-2.67-.69-.85-1.68-1.52-2.86-1.94-1.97-.71-4.2-.61-6.11.26a8.301 8.301 0 0 0-3.92 3.82z" fill="#000000" opacity="1" data-original="#000000"></path><path d="M30.76 14.94c-.05 0-.09-.01-.14-.02a.485.485 0 0 1-.32-.6c.31-1.03.71-2.04 1.18-3.01.9-1.84 2.09-3.52 3.23-5.15a.485.485 0 1 1 .79.56c-1.12 1.6-2.29 3.25-3.16 5.02-.45.92-.83 1.88-1.13 2.86-.05.21-.24.34-.45.34zM23.16 15.14c-.15 0-.3-.07-.39-.2-.99-1.4-1.89-2.87-2.77-4.3l-3.21-5.25c-.14-.23-.07-.52.16-.66s.52-.07.66.16l3.21 5.24c.87 1.43 1.77 2.89 2.74 4.26.15.22.1.52-.11.67-.1.05-.2.08-.29.08z" fill="#000000" opacity="1" data-original="#000000"></path><path fill="#8D77E6" d="M50.67 51.71a5.99 5.99 0 0 1-5.96 5.34H21.55c-2.16 3.73-6.19 6.3-10.48 6.72-.38.04-.83.03-1.04-.29-.19-.28-.09-.65.01-.98.67-2.17 1.15-4.5 1.13-6.77l-1.9-.45a7.22 7.22 0 0 1-5.55-6.64s-.53-15.91-.49-18.29c.04-2.17.08-4.4.97-6.41a6.326 6.326 0 0 1 4.78-3.66c12.3-1.95 24.76-1.62 37.18-.69.36.03.75.05 1.15.07 2.12.15 3.88 1.75 4.19 3.85 1.2 8.24.31 17.92-.83 28.2z" opacity="1" data-original="#8d77e6"></path><path fill="#FFFFFF" d="M23.77 45.55c-2.92-2.12-2.95-12.36 0-14.44 2.77-1.95 11.39 4.08 11.34 7.47-.05 3.33-8.65 8.93-11.34 6.97zM12.44 62.51c-.1.33-.2.7-.01.98.01.02.03.05.06.07-.47.1-.94.17-1.42.22-.38.04-.83.03-1.04-.29-.19-.28-.09-.65.01-.98.67-2.17 1.15-4.5 1.13-6.77l-1.9-.45a7.218 7.218 0 0 1-5.55-6.63s-.53-15.92-.49-18.29c.03-2.17.08-4.4.97-6.41.86-1.94 2.68-3.32 4.78-3.66.59-.1 1.19-.18 1.78-.26-1.84.55-3.39 2.18-4.16 3.93-.89 2.01-.93 4.24-.97 6.41-.05 2.38.49 18.29.49 18.29.17 3.2 2.43 5.89 5.55 6.63l1.9.45c.02 2.26-.46 4.59-1.13 6.76z" opacity="1" data-original="#ffffff"></path><path d="M10.79 64.27c-.36 0-.88-.08-1.17-.52-.32-.48-.15-1.04-.05-1.38.7-2.28 1.08-4.38 1.11-6.25l-1.53-.36c-3.36-.8-5.74-3.64-5.92-7.08-.02-.67-.53-15.97-.48-18.33.03-2.1.07-4.48 1.01-6.6.92-2.07 2.89-3.58 5.15-3.94 13.14-2.09 26.23-1.52 37.29-.69.2.01.41.03.62.04l.52.03c2.35.17 4.29 1.96 4.63 4.26 1.22 8.33.31 18.15-.82 28.32a6.468 6.468 0 0 1-6.44 5.77H21.82c-2.27 3.73-6.35 6.29-10.71 6.72-.07 0-.18.01-.32.01zm17.95-44.94c-6.38 0-13.03.37-19.69 1.43-1.94.31-3.63 1.6-4.42 3.38-.86 1.94-.89 4.12-.93 6.22-.04 2.34.49 18.11.5 18.27.16 3 2.24 5.49 5.18 6.19l1.9.45c.22.05.37.24.37.46.02 2.06-.37 4.39-1.15 6.92-.05.15-.14.46-.07.56.02.03.11.13.6.08 4.15-.4 8.02-2.89 10.11-6.48.09-.15.24-.24.42-.24h23.17c2.82 0 5.17-2.11 5.48-4.92 1.12-10.11 2.03-19.86.83-28.07-.27-1.86-1.85-3.3-3.75-3.44l-.51-.03c-.22-.01-.43-.03-.63-.04-5.42-.4-11.29-.74-17.41-.74z" fill="#000000" opacity="1" data-original="#000000"></path><path fill="#FFAD00" d="M19.35 4.37c0 1.19-.97 2.16-2.16 2.16s-2.16-.97-2.16-2.16.97-2.06 2.16-2.16c1.2-.09 2.16.85 2.16 2.16z" opacity="1" data-original="#ffad00"></path><path fill="#FFFFFF" d="M17.88 6.41a2.157 2.157 0 0 1-2.86-2.04c0-1.19.97-2.06 2.16-2.16.3-.02.57.01.83.11-.91.28-1.59 1.05-1.59 2.04 0 .96.62 1.76 1.46 2.05z" opacity="1" data-original="#ffffff"></path><path d="M17.19 7.01c-1.45 0-2.64-1.18-2.64-2.64 0-1.38 1.12-2.51 2.6-2.64.68-.06 1.34.16 1.84.62.54.5.84 1.21.84 2.01 0 1.47-1.19 2.65-2.64 2.65zm.17-4.32c-.04 0-.09 0-.13.01-.99.08-1.71.79-1.71 1.68 0 .92.75 1.68 1.68 1.68s1.68-.75 1.68-1.68c0-.53-.19-.99-.53-1.31a1.46 1.46 0 0 0-.99-.38z" fill="#000000" opacity="1" data-original="#000000"></path><path fill="#FFAD00" d="M37.15 6.29c0 1.19-.97 2.16-2.16 2.16s-2.16-.97-2.16-2.16.97-2.06 2.16-2.16c1.2-.1 2.16.85 2.16 2.16z" opacity="1" data-original="#ffad00"></path><path fill="#FFFFFF" d="M35.68 8.33a2.157 2.157 0 0 1-2.86-2.04c0-1.19.97-2.06 2.16-2.16.3-.02.57.02.83.11-.91.28-1.59 1.05-1.59 2.04 0 .96.61 1.76 1.46 2.05z" opacity="1" data-original="#ffffff"></path><path d="M34.99 8.93c-1.45 0-2.64-1.18-2.64-2.64 0-1.38 1.12-2.51 2.6-2.64.68-.06 1.34.16 1.84.62.54.5.84 1.21.84 2.01 0 1.47-1.19 2.65-2.64 2.65zm.17-4.32c-.04 0-.09 0-.13.01-.99.08-1.71.79-1.71 1.68 0 .92.75 1.68 1.68 1.68s1.68-.75 1.68-1.68c0-.53-.19-.99-.53-1.31a1.46 1.46 0 0 0-.99-.38zM25.25 46.44c-.65 0-1.26-.14-1.76-.5-1.8-1.31-2.42-5.03-2.4-7.81s.66-6.19 2.4-7.41c1.58-1.12 4.22-.01 5.66.75 3.19 1.69 6.47 4.81 6.44 7.12-.04 2.3-3.32 5.17-6.4 6.71-.99.49-2.55 1.14-3.94 1.14zm-.07-15.23c-.46 0-.85.1-1.13.29-1.19.84-1.97 3.44-2 6.63-.03 3.31.78 6.13 2 7.02.83.6 2.59.33 4.71-.72 3.15-1.57 5.84-4.26 5.87-5.86.03-1.68-2.69-4.54-5.92-6.25-1.38-.73-2.61-1.11-3.53-1.11z" fill="#000000" opacity="1" data-original="#000000"></path><path fill="#FFAD00" d="M54.79 63.44c-1.5.34-3.05.46-4.56.23-1.55-.23-3.06-.76-4.38-1.61-3.17-2.02-5.08-5.86-4.8-9.6.29-3.75 2.73-7.72 6.27-8.99 3.45-1.25 7.43-.94 10.65.81 2.9 1.58 4.51 5.05 4.78 8.34.35 6.29-2.93 9.67-7.96 10.82z" opacity="1" data-original="#ffad00"></path><path fill="#FFFFFF" d="M52.86 63.75c-.88.07-1.76.06-2.63-.07-1.55-.23-3.06-.76-4.38-1.61-3.17-2.01-5.09-5.85-4.8-9.6s2.73-7.72 6.27-8.99c1.73-.62 3.59-.86 5.43-.72-1.16.09-2.31.32-3.4.72-3.53 1.27-5.98 5.25-6.27 8.99-.29 3.75 1.63 7.58 4.8 9.6 1.32.85 2.83 1.38 4.38 1.61.19.03.39.05.6.07z" opacity="1" data-original="#ffffff"></path><path d="M51.83 64.27c-.57 0-1.13-.04-1.67-.12-1.66-.24-3.24-.82-4.57-1.68-3.3-2.1-5.32-6.14-5.02-10.04.32-4.2 3.09-8.15 6.58-9.41 3.58-1.29 7.71-.98 11.05.84 3.33 1.81 4.78 5.69 5.03 8.72.43 7.7-4.3 10.41-8.34 11.33-1.05.24-2.08.36-3.06.36zm-.12-21.07c-1.44 0-2.88.24-4.23.73-3.16 1.14-5.66 4.74-5.95 8.58-.27 3.56 1.57 7.24 4.58 9.16 1.22.78 2.67 1.31 4.19 1.54 1.36.21 2.83.13 4.38-.23 5.27-1.2 7.9-4.77 7.59-10.32-.23-2.76-1.54-6.31-4.53-7.94-1.84-1.01-3.93-1.52-6.03-1.52z" fill="#000000" opacity="1" data-original="#000000"></path><path d="M49.8 45.14h-.02a.474.474 0 0 1-.46-.5l.06-1.8c.01-.27.24-.48.5-.46.27.01.47.23.46.5l-.06 1.8c-.01.26-.22.46-.48.46zM54.44 45.35h-.04a.483.483 0 0 1-.44-.52l.14-1.84a.483.483 0 0 1 .96.08l-.14 1.84c-.02.24-.23.44-.48.44zM58.69 48.36c-.19 0-.37-.12-.45-.3-.1-.25.02-.53.27-.62.56-.22 1.22-.75 1.56-1.25a.48.48 0 1 1 .79.55c-.45.66-1.26 1.3-2 1.6a.88.88 0 0 1-.17.02zM62.76 53.43h-.05l-2.39-.26a.496.496 0 0 1-.43-.53c.03-.26.26-.46.53-.43l2.39.26c.26.03.45.27.43.53-.03.25-.24.43-.48.43zM61.24 59.82c-.04 0-.09-.01-.14-.02-.68-.2-1.39-.65-1.86-1.19-.18-.2-.16-.5.04-.68s.5-.16.68.04c.35.4.9.75 1.41.9.26.07.4.34.33.6a.49.49 0 0 1-.46.35zM56.55 63.38c-.12 0-.25-.05-.34-.15-.49-.5-.85-1.18-.99-1.87-.05-.26.11-.51.37-.57.26-.05.51.11.57.37.11.51.37 1.02.74 1.39.19.19.18.49-.01.68-.09.1-.21.15-.34.15zM51.11 64.25a.482.482 0 0 1-.48-.49l.03-1.65a.48.48 0 1 1 .96.02l-.03 1.65c0 .26-.22.47-.48.47zM45.55 62.35c-.1 0-.21-.03-.29-.1a.478.478 0 0 1-.09-.67l.92-1.19c.16-.21.46-.25.68-.09.21.16.25.46.09.67l-.92 1.19c-.11.13-.25.19-.39.19zM41.91 57.89a.481.481 0 0 1-.17-.93c.5-.19.97-.49 1.31-.84.19-.19.49-.19.68-.01.19.19.19.49.01.68-.44.45-1.02.83-1.66 1.07-.05.02-.11.03-.17.03zM43.18 50.96c-.01 0-.01 0 0 0l-1.78-.02c-.27 0-.48-.22-.48-.49 0-.26.22-.48.48-.48h.01l1.77.03c.27 0 .48.22.48.49-.01.26-.22.47-.48.47zM45.83 47.01a.49.49 0 0 1-.4-.21c-.2-.29-.37-.52-.54-.75-.17-.24-.34-.47-.55-.77a.48.48 0 1 1 .79-.55c.2.29.37.52.54.75.17.24.34.47.55.77.15.22.1.52-.12.67-.08.06-.17.09-.27.09zM51.99 57.9c-.16 0-.32-.01-.48-.02-1.58-.11-2.82-.77-3.42-1.8a.49.49 0 0 1 .18-.66.49.49 0 0 1 .66.18c.61 1.06 2.06 1.28 2.65 1.32.77.05 1.42-.04 1.95-.27.6-.26 1.05-.74 1.21-1.27.16-.54-.02-1.17-.42-1.47-.45-.33-1.11-.27-1.59-.17-.25.05-.49.12-.73.19-.42.12-.85.25-1.32.29-.98.1-1.83-.23-2.28-.87-.56-.81-.35-1.83.04-2.52.6-1.06 1.62-1.67 2.37-1.99.92-.39 1.89-.57 2.83-.75a.478.478 0 1 1 .17.94c-.89.17-1.81.34-2.63.69-.61.26-1.44.75-1.91 1.57-.25.45-.37 1.08-.09 1.5.29.42.91.51 1.39.47.38-.04.75-.15 1.15-.26.26-.08.53-.15.79-.21.96-.2 1.77-.09 2.36.33.74.54 1.07 1.58.78 2.52-.24.79-.89 1.49-1.74 1.87-.55.26-1.19.39-1.92.39z" fill="#000000" opacity="1" data-original="#000000"></path><path d="M50.62 49.94c-.19 0-.37-.11-.44-.3l-.79-1.92c-.1-.25.02-.53.26-.63s.53.02.63.26l.79 1.92a.486.486 0 0 1-.45.67zM52.47 59.44a.48.48 0 0 1-.48-.48v-1.57c0-.27.22-.48.48-.48s.48.22.48.48v1.57c0 .27-.22.48-.48.48zM58.92 17.75a.486.486 0 0 1-.33-.84c.16-.14.3-.28.43-.43.18-.2.48-.21.68-.03s.21.48.03.68c-.15.16-.32.33-.5.49-.08.09-.19.13-.31.13zM53.92 20.8c-.19 0-.36-.11-.44-.29-.11-.24 0-.53.25-.63.02-.01 1.94-.85 3.61-1.99a.483.483 0 0 1 .54.8c-1.75 1.19-3.68 2.04-3.76 2.08-.07.02-.13.03-.2.03zM52.07 17.45a.485.485 0 0 1-.43-.7c.59-1.18 1.1-2.41 1.51-3.66.08-.25.35-.39.61-.3.25.08.39.36.3.61-.43 1.29-.96 2.57-1.57 3.79-.07.17-.24.26-.42.26zM55.76 23.89a.485.485 0 0 1-.01-.97l5.28-.17h.02a.485.485 0 0 1 .01.97l-5.28.17h-.02z" fill="#000000" opacity="1" data-original="#000000"></path></g></svg>