<svg xmlns="http://www.w3.org/2000/svg" version="1.1" xmlns:xlink="http://www.w3.org/1999/xlink" width="512" height="512" x="0" y="0" viewBox="0 0 512 512" style="enable-background:new 0 0 512 512" xml:space="preserve"><g><rect width="200.61" height="196.48" x="10.36" y="108.96" fill="#FFFFFF" rx="14.78" opacity="1" data-original="#ffffff"></rect><rect width="227.82" height="232.34" x="234.65" y="3.94" fill="#FFC444" rx="14.77" opacity="1" data-original="#ffc444"></rect><rect width="268.54" height="202.63" x="239.52" y="259.05" fill="#ABF5FF" rx="14.77" opacity="1" data-original="#abf5ff"></rect><path fill="#A0A0A0" d="M508.06 388.27v59.25a14.16 14.16 0 0 1-14.16 14.16H239.52v-52.89l97.65-75.28L416.51 397l50-36.62z" opacity="1" data-original="#a0a0a0"></path><circle cx="420.18" cy="305.44" r="20.75" fill="#FFFFFF" opacity="1" data-original="#ffffff"></circle><rect width="291.73" height="179.43" x="3.94" y="328.63" fill="#F56053" rx="14.77" opacity="1" data-original="#f56053"></rect><path fill="#FFFFFF" d="m204.68 411.39-80.32-44.22a6.84 6.84 0 0 0-10.15 6v88.43a6.84 6.84 0 0 0 10.15 6l80.32-44.22a6.84 6.84 0 0 0 0-11.99z" opacity="1" data-original="#ffffff"></path><circle cx="90.43" cy="219.55" r="43.38" fill="#ABF5FF" transform="rotate(-10.14 90.308 219.376)" opacity="1" data-original="#abf5ff"></circle><path d="M447.71 240.22H249.42a18.73 18.73 0 0 1-18.71-18.71V18.71A18.73 18.73 0 0 1 249.42 0h34.65a3.94 3.94 0 0 1 0 7.88h-34.65a10.84 10.84 0 0 0-10.83 10.83v202.8a10.84 10.84 0 0 0 10.83 10.83h198.29a10.84 10.84 0 0 0 10.83-10.83V18.71a10.84 10.84 0 0 0-10.83-10.83h-141.2a3.94 3.94 0 0 1 0-7.88h141.2a18.73 18.73 0 0 1 18.71 18.71v202.8a18.73 18.73 0 0 1-18.71 18.71z" fill="#000000" opacity="1" data-original="#000000"></path><path d="M404.35 64.52H343a3.94 3.94 0 0 1 0-7.88h61.33a3.94 3.94 0 1 1 0 7.88zM321.19 64.52h-23a3.94 3.94 0 0 1 0-7.88h23a3.94 3.94 0 0 1 0 7.88zM404.35 103.18h-106.2a3.94 3.94 0 0 1 0-7.88h106.2a3.94 3.94 0 1 1 0 7.88zM404.35 141.83h-17.09a3.94 3.94 0 1 1 0-7.88h17.09a3.94 3.94 0 1 1 0 7.88zM366.62 141.83h-68.47a3.94 3.94 0 0 1 0-7.88h68.46a3.94 3.94 0 0 1 0 7.88zM404.35 180.48h-67.23a3.94 3.94 0 1 1 0-7.88h67.23a3.94 3.94 0 1 1 0 7.88zM318.24 180.48h-20.09a3.94 3.94 0 0 1 0-7.88h20.09a3.94 3.94 0 0 1 0 7.88zM239.52 332.57a3.94 3.94 0 0 1-3.94-3.94v-54.81a18.73 18.73 0 0 1 18.71-18.71h239A18.73 18.73 0 0 1 512 273.82v48.33a3.94 3.94 0 1 1-7.88 0v-48.33A10.84 10.84 0 0 0 493.29 263h-239a10.84 10.84 0 0 0-10.83 10.83v54.81a3.94 3.94 0 0 1-3.94 3.93zM493.29 465.62H314.83a3.94 3.94 0 1 1 0-7.88h178.46a10.84 10.84 0 0 0 10.83-10.83V342.5a3.94 3.94 0 0 1 7.88 0v104.4a18.73 18.73 0 0 1-18.71 18.72z" fill="#000000" opacity="1" data-original="#000000"></path><path d="M280.9 512H66a3.94 3.94 0 0 1 0-7.88h214.9a10.84 10.84 0 0 0 10.83-10.83V343.4a10.84 10.84 0 0 0-10.83-10.83H18.71A10.84 10.84 0 0 0 7.88 343.4v149.89a10.84 10.84 0 0 0 10.83 10.83h25.85a3.94 3.94 0 0 1 0 7.88H18.71A18.73 18.73 0 0 1 0 493.29V343.4a18.73 18.73 0 0 1 18.71-18.71H280.9a18.73 18.73 0 0 1 18.71 18.71v149.89A18.73 18.73 0 0 1 280.9 512z" fill="#000000" opacity="1" data-original="#000000"></path><path d="M416.51 400.92a3.93 3.93 0 0 1-2.46-.86l-76.93-61.54-38.72 29.85a3.94 3.94 0 0 1-4.81-6.24l41.17-31.74a3.94 3.94 0 0 1 4.87 0l77 61.59 47.61-34.84a3.94 3.94 0 0 1 4.52-.09l41.5 27.9a3.94 3.94 0 1 1-4.39 6.54l-39.21-26.36-47.82 35a3.94 3.94 0 0 1-2.33.79zM133.81 224.23h-.24a3.94 3.94 0 0 1-3.7-4.16L138.41 75a3.94 3.94 0 0 1 7.53-1.36c.22.5 22.41 50.16 43.29 61.9a3.94 3.94 0 0 1-3.86 6.87c-15.87-8.92-31.45-35.42-40-51.89l-7.65 130a3.94 3.94 0 0 1-3.91 3.71z" fill="#000000" opacity="1" data-original="#000000"></path><path d="M90.33 266.88A47.33 47.33 0 1 1 137 211.23a47.37 47.37 0 0 1-38.26 54.9 47.86 47.86 0 0 1-8.41.75zm.18-86.78a39.93 39.93 0 0 0-7 .63 39.44 39.44 0 1 0 45.76 31.89 39.47 39.47 0 0 0-38.76-32.52z" fill="#000000" opacity="1" data-original="#000000"></path><path d="M10.36 228.74a3.94 3.94 0 0 1-3.94-3.94v-96.35A23.45 23.45 0 0 1 29.85 105h91.65a3.94 3.94 0 0 1 0 7.88H29.85a15.57 15.57 0 0 0-15.55 15.57v96.35a3.94 3.94 0 0 1-3.94 3.94zM191.95 306.45H29.85A23.45 23.45 0 0 1 6.42 283v-42.27a3.94 3.94 0 1 1 7.88 0V283a15.57 15.57 0 0 0 15.55 15.55h162.1A15.57 15.57 0 0 0 207.5 283V128.45a15.57 15.57 0 0 0-15.55-15.55 3.94 3.94 0 1 1 0-7.88 23.45 23.45 0 0 1 23.43 23.43V283a23.45 23.45 0 0 1-23.43 23.45zM121.06 472.4a10.82 10.82 0 0 1-10.78-10.8v-88.43a10.78 10.78 0 0 1 16-9.45l80.32 44.22a10.78 10.78 0 0 1 0 18.89L126.26 471a10.76 10.76 0 0 1-5.2 1.4zm0-102.15a3 3 0 0 0-1.49.41 2.86 2.86 0 0 0-1.43 2.5v88.44a2.91 2.91 0 0 0 4.31 2.55l80.32-44.22a2.91 2.91 0 0 0 0-5.09l-80.32-44.22a2.85 2.85 0 0 0-1.38-.37zM420.18 330.13a24.69 24.69 0 1 1 24.69-24.69 24.72 24.72 0 0 1-24.69 24.69zm0-41.5A16.81 16.81 0 1 0 437 305.44a16.83 16.83 0 0 0-16.82-16.82z" fill="#000000" opacity="1" data-original="#000000"></path></g></svg>