<svg xmlns="http://www.w3.org/2000/svg" version="1.1" xmlns:xlink="http://www.w3.org/1999/xlink" width="512" height="512" x="0" y="0" viewBox="0 0 512 512" style="enable-background:new 0 0 512 512" xml:space="preserve"><g><path fill="#E8EDF2" d="M401.94 408.606H27.5c-11.046 0-20-8.954-20-20V65.86h414.44v322.746c0 11.045-8.954 20-20 20z" opacity="1" data-original="#e8edf2"></path><path fill="#C5D3DD" d="M421.94 388.606V236.88h-48.78v55.031c0 5.523-4.477 10-10 10H231.685v106.695H401.94c11.046 0 20-8.955 20-20z" opacity="1" data-original="#c5d3dd"></path><path fill="#DD636E" d="M363.16 301.911H66.28c-5.523 0-10-4.477-10-10V131.528c0-5.523 4.477-10 10-10h296.88c5.523 0 10 4.477 10 10v160.383c0 5.522-4.477 10-10 10z" opacity="1" data-original="#dd636e"></path><path fill="#C63D4F" d="M77.7 291.911V131.528c0-5.523 4.477-10 10-10H66.28c-5.523 0-10 4.477-10 10v160.383c0 5.523 4.477 10 10 10H87.7c-5.523 0-10-4.478-10-10z" opacity="1" data-original="#c63d4f"></path><path fill="#C5D3DD" d="M33.757 388.606V65.86H7.5v322.746c0 11.046 8.954 20 20 20h26.257c-11.045 0-20-8.955-20-20z" opacity="1" data-original="#c5d3dd"></path><path fill="#90D8F9" d="M401.94 7.5H27.5c-11.046 0-20 8.954-20 20v50.897h414.44V27.5c0-11.046-8.954-20-20-20z" opacity="1" data-original="#90d8f9"></path><path fill="#75CEF9" d="M53.757 7.5H27.5c-11.046 0-20 8.954-20 20v50.896h26.257V27.5c0-11.046 8.955-20 20-20z" opacity="1" data-original="#75cef9"></path><path fill="#C63D4F" d="M231.685 276.88v25.031H363.16c5.523 0 10-4.477 10-10V236.88H271.685c-22.057 0-40 17.944-40 40z" opacity="1" data-original="#c63d4f"></path><path fill="#DD636E" d="M155.32 372.381v-34.322c0-3.719 3.916-6.136 7.24-4.47l43.16 21.631-43.16 21.631c-3.325 1.667-7.24-.751-7.24-4.47z" opacity="1" data-original="#dd636e"></path><path fill="#E8EDF2" d="m192.644 251.929 64.15-35.845c3.415-1.908 3.415-6.822 0-8.73l-64.15-35.845c-3.333-1.862-7.439.547-7.439 4.365v71.689c0 3.819 4.106 6.228 7.439 4.366z" opacity="1" data-original="#e8edf2"></path><path fill="#FFD064" d="M489.5 504.5H271.685c-8.284 0-15-6.716-15-15V276.88c0-8.284 6.716-15 15-15H489.5c8.284 0 15 6.716 15 15V489.5c0 8.284-6.716 15-15 15z" opacity="1" data-original="#ffd064"></path><path fill="#EBB044" d="M278.285 489.5V276.88c0-8.284 6.716-15 15-15h-21.6c-8.284 0-15 6.716-15 15V489.5c0 8.284 6.716 15 15 15h21.6c-8.285 0-15-6.716-15-15z" opacity="1" data-original="#ebb044"></path><path fill="#DD636E" d="M504.5 326.2h-49.32c-8.284 0-15-6.716-15-15v-49.32h49.32c8.284 0 15 6.716 15 15z" opacity="1" data-original="#dd636e"></path><path d="M222.28 401.105H27.5c-6.893 0-12.5-5.607-12.5-12.5V248.18c0-4.143-3.358-7.5-7.5-7.5s-7.5 3.357-7.5 7.5v140.426c0 15.163 12.336 27.5 27.5 27.5h194.78a7.5 7.5 0 0 0 0-15.001zM7.5 214.7a7.5 7.5 0 0 0 7.5-7.5V85.896h286.52c4.142 0 7.5-3.357 7.5-7.5s-3.358-7.5-7.5-7.5H15V27.5C15 20.607 20.608 15 27.5 15h374.44c6.893 0 12.5 5.607 12.5 12.5v43.396h-75.06c-4.142 0-7.5 3.357-7.5 7.5s3.358 7.5 7.5 7.5h75.06V227.32c0 4.143 3.358 7.5 7.5 7.5s7.5-3.357 7.5-7.5V27.5c0-15.163-12.336-27.5-27.5-27.5H27.5C12.337 0 0 12.337 0 27.5v179.7a7.5 7.5 0 0 0 7.5 7.5z" fill="#000000" opacity="1" data-original="#000000"></path><path d="M45.153 37.621c-4.142 0-7.5 3.357-7.5 7.5s3.358 7.5 7.5 7.5h7.68c4.142 0 7.5-3.357 7.5-7.5s-3.358-7.5-7.5-7.5zM82.597 37.621c-4.142 0-7.5 3.357-7.5 7.5s3.358 7.5 7.5 7.5h7.68c4.142 0 7.5-3.357 7.5-7.5s-3.358-7.5-7.5-7.5zM120.04 37.621c-4.142 0-7.5 3.357-7.5 7.5s3.358 7.5 7.5 7.5h7.68c4.142 0 7.5-3.357 7.5-7.5s-3.358-7.5-7.5-7.5zM224.84 347.72h-17.346l-41.574-20.836c-3.904-1.956-8.453-1.755-12.168.539s-5.933 6.27-5.933 10.636v9.661H121.88c-4.142 0-7.5 3.357-7.5 7.5s3.358 7.5 7.5 7.5h25.939v9.661c0 4.366 2.218 8.343 5.933 10.637a12.463 12.463 0 0 0 6.56 1.875c1.91 0 3.827-.443 5.609-1.336l41.574-20.837h17.346a7.5 7.5 0 1 0-.001-15zm-62.021 20.612v-26.224l26.162 13.111zM56.28 372.62a7.5 7.5 0 0 0 7.5-7.5v-19.8c0-4.143-3.358-7.5-7.5-7.5s-7.5 3.357-7.5 7.5v19.8a7.5 7.5 0 0 0 7.5 7.5zM92.66 365.12v-19.8c0-4.143-3.358-7.5-7.5-7.5s-7.5 3.357-7.5 7.5v19.8c0 4.143 3.358 7.5 7.5 7.5s7.5-3.357 7.5-7.5zM260.452 200.808l-64.15-35.845c-3.913-2.187-8.557-2.138-12.423.131-3.866 2.268-6.174 6.298-6.174 10.78v71.689c0 4.482 2.308 8.514 6.174 10.781a12.468 12.468 0 0 0 6.323 1.737c2.09 0 4.183-.535 6.1-1.606l64.15-35.845a12.512 12.512 0 0 0 6.403-10.911c0-4.524-2.453-8.704-6.403-10.911zm-67.747 42.495v-63.167l56.524 31.584zM485.263 281.116a7.502 7.502 0 0 0-10.607 0l-2.317 2.317-2.317-2.317a7.501 7.501 0 0 0-10.606 10.607l2.316 2.316-2.316 2.316a7.5 7.5 0 0 0 10.606 10.607l2.317-2.317 2.317 2.317c1.465 1.464 3.384 2.196 5.303 2.196s3.839-.732 5.303-2.196a7.5 7.5 0 0 0 0-10.607l-2.316-2.316 2.316-2.316a7.5 7.5 0 0 0 .001-10.607zM289.026 419.278a7.476 7.476 0 0 0 2.668.493 7.502 7.502 0 0 0 7.01-4.833l3.646-9.573h25.036l3.605 9.553a7.5 7.5 0 0 0 9.665 4.368 7.5 7.5 0 0 0 4.369-9.665l-21.827-57.837a8.8 8.8 0 0 0-8.247-5.675h-.011a8.799 8.799 0 0 0-8.228 5.657L284.685 409.6a7.501 7.501 0 0 0 4.341 9.678zm25.9-46.932 6.8 18.02h-13.663zM359.793 411.913a7.498 7.498 0 0 0 2.19 4.811 7.498 7.498 0 0 0 5.284 2.177h.028c.487-.002 11.985-.046 16.581-.126 17.317-.303 29.885-15.374 29.885-35.836 0-21.511-12.252-35.963-30.488-35.963h-16.122a7.499 7.499 0 0 0-7.5 7.514c.001 0 .052 56.958.142 57.423zm23.481-49.936c14.371 0 15.488 16.045 15.488 20.963 0 10.24-4.684 20.655-15.147 20.838-2.046.036-5.599.064-8.874.085-.021-6.706-.064-34.904-.076-41.886zM451.843 404.77c-5.783 0-11.348-2.33-14.885-6.232a7.5 7.5 0 0 0-11.115 10.074c6.333 6.986 16.052 11.158 25.999 11.158 12.443 0 22.894-7.946 24.849-18.895 1.472-8.246-2.262-19.015-17.16-24.511-7.177-2.646-13.86-5.529-15.941-6.439-1.512-1.23-1.46-2.937-1.358-3.649.144-1.003.875-3.457 4.548-4.563 8.179-2.47 15.777 3.531 15.99 3.701a7.5 7.5 0 0 0 9.611-11.515c-.557-.468-13.817-11.401-29.927-6.549-8.161 2.458-13.936 8.894-15.07 16.795-1.065 7.417 2.151 14.552 8.391 18.62.331.216.679.405 1.04.565.34.152 8.423 3.751 17.526 7.107 2.532.935 8.341 3.564 7.584 7.801-.574 3.21-4.502 6.532-10.082 6.532z" fill="#000000" opacity="1" data-original="#000000"></path><path d="M489.5 254.38H380.66V131.528c0-9.649-7.851-17.5-17.5-17.5H66.28c-9.649 0-17.5 7.851-17.5 17.5V291.91c0 9.649 7.851 17.5 17.5 17.5h182.905V489.5c0 12.406 10.094 22.5 22.5 22.5H489.5c12.406 0 22.5-10.094 22.5-22.5v-91.635c0-4.143-3.358-7.5-7.5-7.5s-7.5 3.357-7.5 7.5V489.5c0 4.136-3.365 7.5-7.5 7.5H271.685c-4.135 0-7.5-3.364-7.5-7.5V276.88c0-4.136 3.365-7.5 7.5-7.5H432.68v41.82c0 12.406 10.094 22.5 22.5 22.5H497v28.42c0 4.143 3.358 7.5 7.5 7.5s7.5-3.357 7.5-7.5V276.88c0-12.406-10.094-22.5-22.5-22.5zm-240.315 22.5v17.53H66.28a2.503 2.503 0 0 1-2.5-2.5V131.528c0-1.379 1.122-2.5 2.5-2.5h296.88c1.378 0 2.5 1.121 2.5 2.5V254.38h-93.975c-12.407 0-22.5 10.094-22.5 22.5zM455.18 318.7c-4.135 0-7.5-3.364-7.5-7.5v-41.82h41.82c4.135 0 7.5 3.364 7.5 7.5v41.82z" fill="#000000" opacity="1" data-original="#000000"></path><path d="M469.64 433.837H291.695c-4.142 0-7.5 3.357-7.5 7.5s3.358 7.5 7.5 7.5H469.64c4.142 0 7.5-3.357 7.5-7.5s-3.358-7.5-7.5-7.5zM469.64 464.7H291.695c-4.142 0-7.5 3.357-7.5 7.5s3.358 7.5 7.5 7.5H469.64c4.142 0 7.5-3.357 7.5-7.5s-3.358-7.5-7.5-7.5z" fill="#000000" opacity="1" data-original="#000000"></path></g></svg>