<svg width="500" height="380" viewBox="0 0 500 380" fill="none" xmlns="http://www.w3.org/2000/svg">
<g clip-path="url(#clip0_1385_602)">
<mask id="mask0_1385_602" style="mask-type:alpha" maskUnits="userSpaceOnUse" x="-3" y="0" width="500" height="380">
<rect x="-3" width="500" height="380" fill="url(#paint0_radial_1385_602)"/>
<rect x="-2.5" y="0.5" width="499" height="379" stroke="#FF9500" stroke-opacity="0.3"/>
</mask>
<g mask="url(#mask0_1385_602)">
<path d="M5.12158 3.41602L5.31592 2.95508L19.2524 8.86523V8.86621L19.0571 9.32617L25.7202 12.1523V17.7324H26.2202V29.5547H25.7202V35.1338L19.0571 37.96L19.2515 38.4199L5.31689 44.3311L5.12158 43.8711L-1.65088 46.7432L-8.42334 43.8711L-8.61865 44.3311H-8.61963L-22.5542 38.4199L-22.3589 37.96L-29.022 35.1338V29.5547H-29.522V17.7324H-29.022V12.1523L-22.3589 9.32617L-22.5542 8.86621L-22.5552 8.86523L-8.61865 2.95508L-8.42334 3.41602L-1.65088 0.541992L5.12158 3.41602Z" stroke="#FF9500" stroke-opacity="0.3" stroke-dasharray="11 11"/>
<path d="M60.3535 3.41602L60.5479 2.95508L74.4844 8.86523V8.86621L74.2891 9.32617L80.9521 12.1523V17.7324H81.4521V29.5547H80.9521V35.1338L74.2891 37.96L74.4834 38.4199L60.5488 44.3311L60.3535 43.8711L53.5811 46.7432L46.8086 43.8711L46.6133 44.3311H46.6123L32.6777 38.4199L32.873 37.96L26.21 35.1338V29.5547H25.71V17.7324H26.21V12.1523L32.873 9.32617L32.6777 8.86621L32.6768 8.86523L46.6133 2.95508L46.8086 3.41602L53.5811 0.541992L60.3535 3.41602Z" stroke="#FF9500" stroke-opacity="0.3" stroke-dasharray="11 11"/>
<path d="M115.586 3.41602L115.78 2.95508L129.717 8.86523V8.86621L129.521 9.32617L136.185 12.1523V17.7324H136.685V29.5547H136.185V35.1338L129.521 37.96L129.716 38.4199L115.781 44.3311L115.586 43.8711L108.813 46.7432L102.041 43.8711L101.846 44.3311H101.845L87.9102 38.4199L88.1055 37.96L81.4424 35.1338V29.5547H80.9424V17.7324H81.4424V12.1523L88.1055 9.32617L87.9102 8.86621L87.9092 8.86523L101.846 2.95508L102.041 3.41602L108.813 0.541992L115.586 3.41602Z" stroke="#FF9500" stroke-opacity="0.3" stroke-dasharray="11 11"/>
<path d="M170.818 3.41602L171.012 2.95508L184.949 8.86523V8.86621L184.753 9.32617L191.417 12.1523V17.7324H191.917V29.5547H191.417V35.1338L184.753 37.96L184.948 38.4199L171.013 44.3311L170.818 43.8711L164.045 46.7432L157.273 43.8711L157.078 44.3311H157.077L143.142 38.4199L143.337 37.96L136.674 35.1338V29.5547H136.174V17.7324H136.674V12.1523L143.337 9.32617L143.142 8.86621L143.141 8.86523L157.078 2.95508L157.273 3.41602L164.045 0.541992L170.818 3.41602Z" stroke="#FF9500" stroke-opacity="0.3" stroke-dasharray="11 11"/>
<path d="M226.05 3.41602L226.244 2.95508L240.181 8.86523V8.86621L239.985 9.32617L246.648 12.1523V17.7324H247.148V29.5547H246.648V35.1338L239.985 37.96L240.18 38.4199L226.245 44.3311L226.05 43.8711L219.277 46.7432L212.505 43.8711L212.31 44.3311H212.309L198.374 38.4199L198.569 37.96L191.906 35.1338V29.5547H191.406V17.7324H191.906V12.1523L198.569 9.32617L198.374 8.86621L198.373 8.86523L212.31 2.95508L212.505 3.41602L219.277 0.541992L226.05 3.41602Z" stroke="#FF9500" stroke-opacity="0.3" stroke-dasharray="11 11"/>
<path d="M281.282 3.41602L281.476 2.95508L295.413 8.86523V8.86621L295.217 9.32617L301.88 12.1523V17.7324H302.38V29.5547H301.88V35.1338L295.217 37.96L295.412 38.4199L281.477 44.3311L281.282 43.8711L274.509 46.7432L267.737 43.8711L267.542 44.3311H267.541L253.606 38.4199L253.801 37.96L247.138 35.1338V29.5547H246.638V17.7324H247.138V12.1523L253.801 9.32617L253.606 8.86621L253.605 8.86523L267.542 2.95508L267.737 3.41602L274.509 0.541992L281.282 3.41602Z" stroke="#FF9500" stroke-opacity="0.3" stroke-dasharray="11 11"/>
<path d="M336.514 3.41602L336.708 2.95508L350.645 8.86523V8.86621L350.449 9.32617L357.112 12.1523V17.7324H357.612V29.5547H357.112V35.1338L350.449 37.96L350.644 38.4199L336.709 44.3311L336.514 43.8711L329.741 46.7432L322.969 43.8711L322.773 44.3311H322.772L308.838 38.4199L309.033 37.96L302.37 35.1338V29.5547H301.87V17.7324H302.37V12.1523L309.033 9.32617L308.838 8.86621L308.837 8.86523L322.773 2.95508L322.969 3.41602L329.741 0.541992L336.514 3.41602Z" stroke="#FF9500" stroke-opacity="0.3" stroke-dasharray="11 11"/>
<path d="M391.746 3.41602L391.94 2.95508L405.876 8.86523V8.86621L405.681 9.32617L412.344 12.1523V17.7324H412.844V29.5547H412.344V35.1338L405.681 37.96L405.875 38.4199L391.941 44.3311L391.746 43.8711L384.973 46.7432L378.201 43.8711L378.005 44.3311H378.004L364.07 38.4199L364.265 37.96L357.602 35.1338V29.5547H357.102V17.7324H357.602V12.1523L364.265 9.32617L364.07 8.86621L364.069 8.86523L378.005 2.95508L378.201 3.41602L384.973 0.541992L391.746 3.41602Z" stroke="#FF9500" stroke-opacity="0.3" stroke-dasharray="11 11"/>
<path d="M446.978 3.41602L447.172 2.95508L461.109 8.86523V8.86621L460.914 9.32617L467.577 12.1523V17.7324H468.077V29.5547H467.577V35.1338L460.914 37.96L461.108 38.4199L447.173 44.3311L446.978 43.8711L440.206 46.7432L433.433 43.8711L433.238 44.3311H433.237L419.302 38.4199L419.498 37.96L412.834 35.1338V29.5547H412.334V17.7324H412.834V12.1523L419.498 9.32617L419.302 8.86621L419.301 8.86523L433.238 2.95508L433.433 3.41602L440.206 0.541992L446.978 3.41602Z" stroke="#FF9500" stroke-opacity="0.3" stroke-dasharray="11 11"/>
<path d="M502.21 3.41602L502.404 2.95508L516.341 8.86523V8.86621L516.146 9.32617L522.809 12.1523V17.7324H523.309V29.5547H522.809V35.1338L516.146 37.96L516.34 38.4199L502.405 44.3311L502.21 43.8711L495.438 46.7432L488.665 43.8711L488.47 44.3311H488.469L474.534 38.4199L474.729 37.96L468.066 35.1338V29.5547H467.566V17.7324H468.066V12.1523L474.729 9.32617L474.534 8.86621L474.533 8.86523L488.47 2.95508L488.665 3.41602L495.438 0.541992L502.21 3.41602Z" stroke="#FF9500" stroke-opacity="0.3" stroke-dasharray="11 11"/>
<path d="M32.437 37.9326L32.6313 37.4717L46.5679 43.3818V43.3828L46.3726 43.8428L53.0356 46.6689V52.249H53.5356V64.0713H53.0356V69.6504L46.3726 72.4766L46.5669 72.9365L32.6323 78.8477L32.437 78.3877L25.6646 81.2598L18.8921 78.3877L18.6968 78.8477H18.6958L4.76123 72.9365L4.95654 72.4766L-1.70654 69.6504V64.0713H-2.20654V52.249H-1.70654V46.6689L4.95654 43.8428L4.76123 43.3828L4.76025 43.3818L18.6968 37.4717L18.8921 37.9326L25.6646 35.0586L32.437 37.9326Z" stroke="#FF9500" stroke-opacity="0.3" stroke-dasharray="11 11"/>
<path d="M87.6694 37.9326L87.8638 37.4717L101.8 43.3818V43.3828L101.605 43.8428L108.268 46.6689V52.249H108.768V64.0713H108.268V69.6504L101.605 72.4766L101.799 72.9365L87.8647 78.8477L87.6694 78.3877L80.897 81.2598L74.1245 78.3877L73.9292 78.8477H73.9282L59.9937 72.9365L60.189 72.4766L53.5259 69.6504V64.0713H53.0259V52.249H53.5259V46.6689L60.189 43.8428L59.9937 43.3828L59.9927 43.3818L73.9292 37.4717L74.1245 37.9326L80.897 35.0586L87.6694 37.9326Z" stroke="#FF9500" stroke-opacity="0.3" stroke-dasharray="11 11"/>
<path d="M142.901 37.9326L143.096 37.4717L157.032 43.3818V43.3828L156.837 43.8428L163.5 46.6689V52.249H164V64.0713H163.5V69.6504L156.837 72.4766L157.031 72.9365L143.097 78.8477L142.901 78.3877L136.129 81.2598L129.356 78.3877L129.161 78.8477H129.16L115.226 72.9365L115.421 72.4766L108.758 69.6504V64.0713H108.258V52.249H108.758V46.6689L115.421 43.8428L115.226 43.3828L115.225 43.3818L129.161 37.4717L129.356 37.9326L136.129 35.0586L142.901 37.9326Z" stroke="#FF9500" stroke-opacity="0.3" stroke-dasharray="11 11"/>
<path d="M198.133 37.9326L198.328 37.4717L212.264 43.3818V43.3828L212.069 43.8428L218.732 46.6689V52.249H219.232V64.0713H218.732V69.6504L212.069 72.4766L212.263 72.9365L198.329 78.8477L198.133 78.3877L191.361 81.2598L184.588 78.3877L184.393 78.8477H184.392L170.458 72.9365L170.653 72.4766L163.99 69.6504V64.0713H163.49V52.249H163.99V46.6689L170.653 43.8428L170.458 43.3828L170.457 43.3818L184.393 37.4717L184.588 37.9326L191.361 35.0586L198.133 37.9326Z" stroke="#FF9500" stroke-opacity="0.3" stroke-dasharray="11 11"/>
<path d="M253.365 37.9326L253.56 37.4717L267.496 43.3818V43.3828L267.301 43.8428L273.964 46.6689V52.249H274.464V64.0713H273.964V69.6504L267.301 72.4766L267.495 72.9365L253.561 78.8477L253.365 78.3877L246.593 81.2598L239.82 78.3877L239.625 78.8477H239.624L225.689 72.9365L225.885 72.4766L219.222 69.6504V64.0713H218.722V52.249H219.222V46.6689L225.885 43.8428L225.689 43.3828L225.688 43.3818L239.625 37.4717L239.82 37.9326L246.593 35.0586L253.365 37.9326Z" stroke="#FF9500" stroke-opacity="0.3" stroke-dasharray="11 11"/>
<path d="M308.597 37.9326L308.792 37.4717L322.728 43.3818V43.3828L322.533 43.8428L329.196 46.6689V52.249H329.696V64.0713H329.196V69.6504L322.533 72.4766L322.727 72.9365L308.792 78.8477L308.597 78.3877L301.825 81.2598L295.052 78.3877L294.857 78.8477H294.856L280.921 72.9365L281.117 72.4766L274.454 69.6504V64.0713H273.954V52.249H274.454V46.6689L281.117 43.8428L280.921 43.3828L280.92 43.3818L294.857 37.4717L295.052 37.9326L301.825 35.0586L308.597 37.9326Z" stroke="#FF9500" stroke-opacity="0.3" stroke-dasharray="11 11"/>
<path d="M363.829 37.9326L364.023 37.4717L377.96 43.3818V43.3828L377.765 43.8428L384.428 46.6689V52.249H384.928V64.0713H384.428V69.6504L377.765 72.4766L377.959 72.9365L364.024 78.8477L363.829 78.3877L357.057 81.2598L350.284 78.3877L350.089 78.8477H350.088L336.153 72.9365L336.349 72.4766L329.686 69.6504V64.0713H329.186V52.249H329.686V46.6689L336.349 43.8428L336.153 43.3828L336.152 43.3818L350.089 37.4717L350.284 37.9326L357.057 35.0586L363.829 37.9326Z" stroke="#FF9500" stroke-opacity="0.3" stroke-dasharray="11 11"/>
<path d="M419.062 37.9326L419.256 37.4717L433.192 43.3818V43.3828L432.997 43.8428L439.66 46.6689V52.249H440.16V64.0713H439.66V69.6504L432.997 72.4766L433.191 72.9365L419.257 78.8477L419.062 78.3877L412.289 81.2598L405.517 78.3877L405.321 78.8477H405.32L391.386 72.9365L391.581 72.4766L384.918 69.6504V64.0713H384.418V52.249H384.918V46.6689L391.581 43.8428L391.386 43.3828L391.385 43.3818L405.321 37.4717L405.517 37.9326L412.289 35.0586L419.062 37.9326Z" stroke="#FF9500" stroke-opacity="0.3" stroke-dasharray="11 11"/>
<path d="M474.293 37.9326L474.487 37.4717L488.424 43.3818V43.3828L488.229 43.8428L494.892 46.6689V52.249H495.392V64.0713H494.892V69.6504L488.229 72.4766L488.423 72.9365L474.488 78.8477L474.293 78.3877L467.521 81.2598L460.748 78.3877L460.553 78.8477H460.552L446.617 72.9365L446.812 72.4766L440.149 69.6504V64.0713H439.649V52.249H440.149V46.6689L446.812 43.8428L446.617 43.3828L446.616 43.3818L460.553 37.4717L460.748 37.9326L467.521 35.0586L474.293 37.9326Z" stroke="#FF9500" stroke-opacity="0.3" stroke-dasharray="11 11"/>
<path d="M4.52051 72.4492L4.71484 71.9883L18.6514 77.8984V77.8994L18.4561 78.3594L25.1191 81.1855V86.7656H25.6191V98.5879H25.1191V104.167L18.4561 106.993L18.6504 107.453L4.71582 113.364L4.52051 112.904L-2.25195 115.776L-9.02441 112.904L-9.21973 113.364H-9.2207L-23.1553 107.453L-22.96 106.993L-29.623 104.167V98.5879H-30.123V86.7656H-29.623V81.1855L-22.96 78.3594L-23.1553 77.8994L-23.1562 77.8984L-9.21973 71.9883L-9.02441 72.4492L-2.25195 69.5752L4.52051 72.4492Z" stroke="#FF9500" stroke-opacity="0.3" stroke-dasharray="11 11"/>
<path d="M59.7529 72.4492L59.9473 71.9883L73.8838 77.8984V77.8994L73.6885 78.3594L80.3516 81.1855V86.7656H80.8516V98.5879H80.3516V104.167L73.6885 106.993L73.8828 107.453L59.9482 113.364L59.7529 112.904L52.9805 115.776L46.208 112.904L46.0127 113.364H46.0117L32.0771 107.453L32.2725 106.993L25.6094 104.167V98.5879H25.1094V86.7656H25.6094V81.1855L32.2725 78.3594L32.0771 77.8994L32.0762 77.8984L46.0127 71.9883L46.208 72.4492L52.9805 69.5752L59.7529 72.4492Z" stroke="#FF9500" stroke-opacity="0.3" stroke-dasharray="11 11"/>
<path d="M114.984 72.4492L115.179 71.9883L129.115 77.8984V77.8994L128.92 78.3594L135.583 81.1855V86.7656H136.083V98.5879H135.583V104.167L128.92 106.993L129.114 107.453L115.18 113.364L114.984 112.904L108.212 115.776L101.439 112.904L101.244 113.364H101.243L87.3086 107.453L87.5039 106.993L80.8408 104.167V98.5879H80.3408V86.7656H80.8408V81.1855L87.5039 78.3594L87.3086 77.8994L87.3076 77.8984L101.244 71.9883L101.439 72.4492L108.212 69.5752L114.984 72.4492Z" stroke="#FF9500" stroke-opacity="0.3" stroke-dasharray="11 11"/>
<path d="M170.217 72.4492L170.411 71.9883L184.348 77.8984V77.8994L184.152 78.3594L190.815 81.1855V86.7656H191.315V98.5879H190.815V104.167L184.152 106.993L184.347 107.453L170.412 113.364L170.217 112.904L163.444 115.776L156.672 112.904L156.477 113.364H156.476L142.541 107.453L142.736 106.993L136.073 104.167V98.5879H135.573V86.7656H136.073V81.1855L142.736 78.3594L142.541 77.8994L142.54 77.8984L156.477 71.9883L156.672 72.4492L163.444 69.5752L170.217 72.4492Z" stroke="#FF9500" stroke-opacity="0.3" stroke-dasharray="11 11"/>
<path d="M225.448 72.4492L225.643 71.9883L239.579 77.8984V77.8994L239.384 78.3594L246.047 81.1855V86.7656H246.547V98.5879H246.047V104.167L239.384 106.993L239.578 107.453L225.644 113.364L225.448 112.904L218.676 115.776L211.903 112.904L211.708 113.364H211.707L197.772 107.453L197.968 106.993L191.305 104.167V98.5879H190.805V86.7656H191.305V81.1855L197.968 78.3594L197.772 77.8994L197.771 77.8984L211.708 71.9883L211.903 72.4492L218.676 69.5752L225.448 72.4492Z" stroke="#FF9500" stroke-opacity="0.3" stroke-dasharray="11 11"/>
<path d="M280.681 72.4492L280.875 71.9883L294.812 77.8984V77.8994L294.616 78.3594L301.279 81.1855V86.7656H301.779V98.5879H301.279V104.167L294.616 106.993L294.811 107.453L280.876 113.364L280.681 112.904L273.908 115.776L267.136 112.904L266.94 113.364H266.939L253.005 107.453L253.2 106.993L246.537 104.167V98.5879H246.037V86.7656H246.537V81.1855L253.2 78.3594L253.005 77.8994L253.004 77.8984L266.94 71.9883L267.136 72.4492L273.908 69.5752L280.681 72.4492Z" stroke="#FF9500" stroke-opacity="0.3" stroke-dasharray="11 11"/>
<path d="M335.912 72.4492L336.106 71.9883L350.043 77.8984V77.8994L349.848 78.3594L356.511 81.1855V86.7656H357.011V98.5879H356.511V104.167L349.848 106.993L350.042 107.453L336.107 113.364L335.912 112.904L329.14 115.776L322.367 112.904L322.172 113.364H322.171L308.236 107.453L308.432 106.993L301.769 104.167V98.5879H301.269V86.7656H301.769V81.1855L308.432 78.3594L308.236 77.8994L308.235 77.8984L322.172 71.9883L322.367 72.4492L329.14 69.5752L335.912 72.4492Z" stroke="#FF9500" stroke-opacity="0.3" stroke-dasharray="11 11"/>
<path d="M391.145 72.4492L391.339 71.9883L405.275 77.8984V77.8994L405.08 78.3594L411.743 81.1855V86.7656H412.243V98.5879H411.743V104.167L405.08 106.993L405.274 107.453L391.34 113.364L391.145 112.904L384.372 115.776L377.6 112.904L377.404 113.364H377.403L363.469 107.453L363.664 106.993L357.001 104.167V98.5879H356.501V86.7656H357.001V81.1855L363.664 78.3594L363.469 77.8994L363.468 77.8984L377.404 71.9883L377.6 72.4492L384.372 69.5752L391.145 72.4492Z" stroke="#FF9500" stroke-opacity="0.3" stroke-dasharray="11 11"/>
<path d="M446.377 72.4492L446.571 71.9883L460.508 77.8984V77.8994L460.312 78.3594L466.976 81.1855V86.7656H467.476V98.5879H466.976V104.167L460.312 106.993L460.507 107.453L446.572 113.364L446.377 112.904L439.604 115.776L432.832 112.904L432.637 113.364H432.636L418.701 107.453L418.896 106.993L412.233 104.167V98.5879H411.733V86.7656H412.233V81.1855L418.896 78.3594L418.701 77.8994L418.7 77.8984L432.637 71.9883L432.832 72.4492L439.604 69.5752L446.377 72.4492Z" stroke="#FF9500" stroke-opacity="0.3" stroke-dasharray="11 11"/>
<path d="M31.8359 106.966L32.0303 106.505L45.9668 112.415V112.416L45.7715 112.876L52.4346 115.702V121.282H52.9346V133.104H52.4346V138.684L45.7715 141.51L45.9658 141.97L32.0312 147.881L31.8359 147.421L25.0635 150.293L18.291 147.421L18.0957 147.881H18.0947L4.16016 141.97L4.35547 141.51L-2.30762 138.684V133.104H-2.80762V121.282H-2.30762V115.702L4.35547 112.876L4.16016 112.416L4.15918 112.415L18.0957 106.505L18.291 106.966L25.0635 104.092L31.8359 106.966Z" stroke="#FF9500" stroke-opacity="0.3" stroke-dasharray="11 11"/>
<path d="M87.0679 106.966L87.2622 106.505L101.199 112.415V112.416L101.003 112.876L107.667 115.702V121.282H108.167V133.104H107.667V138.684L101.003 141.51L101.198 141.97L87.2632 147.881L87.0679 147.421L80.2954 150.293L73.5229 147.421L73.3276 147.881H73.3267L59.3921 141.97L59.5874 141.51L52.9243 138.684V133.104H52.4243V121.282H52.9243V115.702L59.5874 112.876L59.3921 112.416L59.3911 112.415L73.3276 106.505L73.5229 106.966L80.2954 104.092L87.0679 106.966Z" stroke="#FF9500" stroke-opacity="0.3" stroke-dasharray="11 11"/>
<path d="M142.3 106.966L142.494 106.505L156.431 112.415V112.416L156.235 112.876L162.898 115.702V121.282H163.398V133.104H162.898V138.684L156.235 141.51L156.43 141.97L142.495 147.881L142.3 147.421L135.527 150.293L128.755 147.421L128.56 147.881H128.559L114.624 141.97L114.819 141.51L108.156 138.684V133.104H107.656V121.282H108.156V115.702L114.819 112.876L114.624 112.416L114.623 112.415L128.56 106.505L128.755 106.966L135.527 104.092L142.3 106.966Z" stroke="#FF9500" stroke-opacity="0.3" stroke-dasharray="11 11"/>
<path d="M197.532 106.966L197.726 106.505L211.663 112.415V112.416L211.467 112.876L218.13 115.702V121.282H218.63V133.104H218.13V138.684L211.467 141.51L211.662 141.97L197.727 147.881L197.532 147.421L190.759 150.293L183.987 147.421L183.792 147.881H183.791L169.856 141.97L170.051 141.51L163.388 138.684V133.104H162.888V121.282H163.388V115.702L170.051 112.876L169.856 112.416L169.855 112.415L183.792 106.505L183.987 106.966L190.759 104.092L197.532 106.966Z" stroke="#FF9500" stroke-opacity="0.3" stroke-dasharray="11 11"/>
<path d="M252.764 106.966L252.958 106.505L266.895 112.415V112.416L266.699 112.876L273.362 115.702V121.282H273.862V133.104H273.362V138.684L266.699 141.51L266.894 141.97L252.959 147.881L252.764 147.421L245.991 150.293L239.219 147.421L239.023 147.881H239.022L225.088 141.97L225.283 141.51L218.62 138.684V133.104H218.12V121.282H218.62V115.702L225.283 112.876L225.088 112.416L225.087 112.415L239.023 106.505L239.219 106.966L245.991 104.092L252.764 106.966Z" stroke="#FF9500" stroke-opacity="0.3" stroke-dasharray="11 11"/>
<path d="M307.996 106.966L308.19 106.505L322.126 112.415V112.416L321.931 112.876L328.594 115.702V121.282H329.094V133.104H328.594V138.684L321.931 141.51L322.125 141.97L308.191 147.881L307.996 147.421L301.223 150.293L294.451 147.421L294.255 147.881H294.254L280.32 141.97L280.515 141.51L273.852 138.684V133.104H273.352V121.282H273.852V115.702L280.515 112.876L280.32 112.416L280.319 112.415L294.255 106.505L294.451 106.966L301.223 104.092L307.996 106.966Z" stroke="#FF9500" stroke-opacity="0.3" stroke-dasharray="11 11"/>
<path d="M363.228 106.966L363.422 106.505L377.359 112.415V112.416L377.164 112.876L383.827 115.702V121.282H384.327V133.104H383.827V138.684L377.164 141.51L377.358 141.97L363.423 147.881L363.228 147.421L356.456 150.293L349.683 147.421L349.488 147.881H349.487L335.552 141.97L335.748 141.51L329.084 138.684V133.104H328.584V121.282H329.084V115.702L335.748 112.876L335.552 112.416L335.551 112.415L349.488 106.505L349.683 106.966L356.456 104.092L363.228 106.966Z" stroke="#FF9500" stroke-opacity="0.3" stroke-dasharray="11 11"/>
<path d="M418.46 106.966L418.654 106.505L432.591 112.415V112.416L432.396 112.876L439.059 115.702V121.282H439.559V133.104H439.059V138.684L432.396 141.51L432.59 141.97L418.655 147.881L418.46 147.421L411.688 150.293L404.915 147.421L404.72 147.881H404.719L390.784 141.97L390.979 141.51L384.316 138.684V133.104H383.816V121.282H384.316V115.702L390.979 112.876L390.784 112.416L390.783 112.415L404.72 106.505L404.915 106.966L411.688 104.092L418.46 106.966Z" stroke="#FF9500" stroke-opacity="0.3" stroke-dasharray="11 11"/>
<path d="M473.455 106.966L473.649 106.505L487.586 112.415V112.416L487.391 112.876L494.054 115.702V121.282H494.554V133.104H494.054V138.684L487.391 141.51L487.585 141.97L473.65 147.881L473.455 147.421L466.683 150.293L459.91 147.421L459.715 147.881H459.714L445.779 141.97L445.975 141.51L439.312 138.684V133.104H438.812V121.282H439.312V115.702L445.975 112.876L445.779 112.416L445.778 112.415L459.715 106.505L459.91 106.966L466.683 104.092L473.455 106.966Z" stroke="#FF9500" stroke-opacity="0.3" stroke-dasharray="11 11"/>
<path d="M3.91943 141.482L4.11377 141.021L18.0503 146.932V146.933L17.855 147.393L24.5181 150.219V155.799H25.0181V167.621H24.5181V173.2L17.855 176.026L18.0493 176.486L4.11475 182.397L3.91943 181.938L-2.85303 184.81L-9.62549 181.938L-9.8208 182.397H-9.82178L-23.7563 176.486L-23.561 176.026L-30.2241 173.2V167.621H-30.7241V155.799H-30.2241V150.219L-23.561 147.393L-23.7563 146.933L-23.7573 146.932L-9.8208 141.021L-9.62549 141.482L-2.85303 138.608L3.91943 141.482Z" stroke="#FF9500" stroke-opacity="0.3" stroke-dasharray="11 11"/>
<path d="M59.1514 141.482L59.3457 141.021L73.2822 146.932V146.933L73.0869 147.393L79.75 150.219V155.799H80.25V167.621H79.75V173.2L73.0869 176.026L73.2812 176.486L59.3467 182.397L59.1514 181.938L52.3789 184.81L45.6064 181.938L45.4111 182.397H45.4102L31.4756 176.486L31.6709 176.026L25.0078 173.2V167.621H24.5078V155.799H25.0078V150.219L31.6709 147.393L31.4756 146.933L31.4746 146.932L45.4111 141.021L45.6064 141.482L52.3789 138.608L59.1514 141.482Z" stroke="#FF9500" stroke-opacity="0.3" stroke-dasharray="11 11"/>
<path d="M114.383 141.482L114.578 141.021L128.514 146.932V146.933L128.319 147.393L134.982 150.219V155.799H135.482V167.621H134.982V173.2L128.319 176.026L128.513 176.486L114.579 182.397L114.383 181.938L107.611 184.81L100.838 181.938L100.643 182.397H100.642L86.7075 176.486L86.9028 176.026L80.2397 173.2V167.621H79.7397V155.799H80.2397V150.219L86.9028 147.393L86.7075 146.933L86.7065 146.932L100.643 141.021L100.838 141.482L107.611 138.608L114.383 141.482Z" stroke="#FF9500" stroke-opacity="0.3" stroke-dasharray="11 11"/>
<path d="M169.615 141.482L169.81 141.021L183.746 146.932V146.933L183.551 147.393L190.214 150.219V155.799H190.714V167.621H190.214V173.2L183.551 176.026L183.745 176.486L169.811 182.397L169.615 181.938L162.843 184.81L156.07 181.938L155.875 182.397H155.874L141.939 176.486L142.135 176.026L135.472 173.2V167.621H134.972V155.799H135.472V150.219L142.135 147.393L141.939 146.933L141.938 146.932L155.875 141.021L156.07 141.482L162.843 138.608L169.615 141.482Z" stroke="#FF9500" stroke-opacity="0.3" stroke-dasharray="11 11"/>
<path d="M224.847 141.482L225.042 141.021L238.978 146.932V146.933L238.783 147.393L245.446 150.219V155.799H245.946V167.621H245.446V173.2L238.783 176.026L238.977 176.486L225.042 182.397L224.847 181.938L218.075 184.81L211.302 181.938L211.107 182.397H211.106L197.171 176.486L197.367 176.026L190.704 173.2V167.621H190.204V155.799H190.704V150.219L197.367 147.393L197.171 146.933L197.17 146.932L211.107 141.021L211.302 141.482L218.075 138.608L224.847 141.482Z" stroke="#FF9500" stroke-opacity="0.3" stroke-dasharray="11 11"/>
<path d="M280.079 141.482L280.273 141.021L294.21 146.932V146.933L294.015 147.393L300.678 150.219V155.799H301.178V167.621H300.678V173.2L294.015 176.026L294.209 176.486L280.274 182.397L280.079 181.938L273.307 184.81L266.534 181.938L266.339 182.397H266.338L252.403 176.486L252.599 176.026L245.936 173.2V167.621H245.436V155.799H245.936V150.219L252.599 147.393L252.403 146.933L252.402 146.932L266.339 141.021L266.534 141.482L273.307 138.608L280.079 141.482Z" stroke="#FF9500" stroke-opacity="0.3" stroke-dasharray="11 11"/>
<path d="M335.312 141.482L335.506 141.021L349.442 146.932V146.933L349.247 147.393L355.91 150.219V155.799H356.41V167.621H355.91V173.2L349.247 176.026L349.441 176.486L335.507 182.397L335.312 181.938L328.539 184.81L321.767 181.938L321.571 182.397H321.57L307.636 176.486L307.831 176.026L301.168 173.2V167.621H300.668V155.799H301.168V150.219L307.831 147.393L307.636 146.933L307.635 146.932L321.571 141.021L321.767 141.482L328.539 138.608L335.312 141.482Z" stroke="#FF9500" stroke-opacity="0.3" stroke-dasharray="11 11"/>
<path d="M390.543 141.482L390.737 141.021L404.674 146.932V146.933L404.479 147.393L411.142 150.219V155.799H411.642V167.621H411.142V173.2L404.479 176.026L404.673 176.486L390.738 182.397L390.543 181.938L383.771 184.81L376.998 181.938L376.803 182.397H376.802L362.867 176.486L363.062 176.026L356.399 173.2V167.621H355.899V155.799H356.399V150.219L363.062 147.393L362.867 146.933L362.866 146.932L376.803 141.021L376.998 141.482L383.771 138.608L390.543 141.482Z" stroke="#FF9500" stroke-opacity="0.3" stroke-dasharray="11 11"/>
<path d="M31.2344 175.999L31.4287 175.538L45.3652 181.448V181.449L45.1699 181.909L51.833 184.735V190.315H52.333V202.138H51.833V207.717L45.1699 210.543L45.3643 211.003L31.4297 216.914L31.2344 216.454L24.4619 219.326L17.6895 216.454L17.4941 216.914H17.4932L3.55859 211.003L3.75391 210.543L-2.90918 207.717V202.138H-3.40918V190.315H-2.90918V184.735L3.75391 181.909L3.55859 181.449L3.55762 181.448L17.4941 175.538L17.6895 175.999L24.4619 173.125L31.2344 175.999Z" stroke="#FF9500" stroke-opacity="0.3" stroke-dasharray="11 11"/>
<path d="M86.4668 175.999L86.6611 175.538L100.598 181.448V181.449L100.402 181.909L107.065 184.735V190.315H107.565V202.138H107.065V207.717L100.402 210.543L100.597 211.003L86.6621 216.914L86.4668 216.454L79.6943 219.326L72.9219 216.454L72.7266 216.914H72.7256L58.791 211.003L58.9863 210.543L52.3232 207.717V202.138H51.8232V190.315H52.3232V184.735L58.9863 181.909L58.791 181.449L58.79 181.448L72.7266 175.538L72.9219 175.999L79.6943 173.125L86.4668 175.999Z" stroke="#FF9500" stroke-opacity="0.3" stroke-dasharray="11 11"/>
<path d="M141.698 175.999L141.893 175.538L155.829 181.448V181.449L155.634 181.909L162.297 184.735V190.315H162.797V202.138H162.297V207.717L155.634 210.543L155.828 211.003L141.894 216.914L141.698 216.454L134.926 219.326L128.153 216.454L127.958 216.914H127.957L114.022 211.003L114.218 210.543L107.555 207.717V202.138H107.055V190.315H107.555V184.735L114.218 181.909L114.022 181.449L114.021 181.448L127.958 175.538L128.153 175.999L134.926 173.125L141.698 175.999Z" stroke="#FF9500" stroke-opacity="0.3" stroke-dasharray="11 11"/>
<path d="M196.931 175.999L197.125 175.538L211.062 181.448V181.449L210.866 181.909L217.529 184.735V190.315H218.029V202.138H217.529V207.717L210.866 210.543L211.061 211.003L197.126 216.914L196.931 216.454L190.158 219.326L183.386 216.454L183.19 216.914H183.189L169.255 211.003L169.45 210.543L162.787 207.717V202.138H162.287V190.315H162.787V184.735L169.45 181.909L169.255 181.449L169.254 181.448L183.19 175.538L183.386 175.999L190.158 173.125L196.931 175.999Z" stroke="#FF9500" stroke-opacity="0.3" stroke-dasharray="11 11"/>
<path d="M252.162 175.999L252.356 175.538L266.293 181.448V181.449L266.098 181.909L272.761 184.735V190.315H273.261V202.138H272.761V207.717L266.098 210.543L266.292 211.003L252.357 216.914L252.162 216.454L245.39 219.326L238.617 216.454L238.422 216.914H238.421L224.486 211.003L224.682 210.543L218.019 207.717V202.138H217.519V190.315H218.019V184.735L224.682 181.909L224.486 181.449L224.485 181.448L238.422 175.538L238.617 175.999L245.39 173.125L252.162 175.999Z" stroke="#FF9500" stroke-opacity="0.3" stroke-dasharray="11 11"/>
<path d="M307.395 175.999L307.589 175.538L321.525 181.448V181.449L321.33 181.909L327.993 184.735V190.315H328.493V202.138H327.993V207.717L321.33 210.543L321.524 211.003L307.59 216.914L307.395 216.454L300.622 219.326L293.85 216.454L293.654 216.914H293.653L279.719 211.003L279.914 210.543L273.251 207.717V202.138H272.751V190.315H273.251V184.735L279.914 181.909L279.719 181.449L279.718 181.448L293.654 175.538L293.85 175.999L300.622 173.125L307.395 175.999Z" stroke="#FF9500" stroke-opacity="0.3" stroke-dasharray="11 11"/>
<path d="M362.627 175.999L362.821 175.538L376.758 181.448V181.449L376.562 181.909L383.226 184.735V190.315H383.726V202.138H383.226V207.717L376.562 210.543L376.757 211.003L362.822 216.914L362.627 216.454L355.854 219.326L349.082 216.454L348.887 216.914H348.886L334.951 211.003L335.146 210.543L328.483 207.717V202.138H327.983V190.315H328.483V184.735L335.146 181.909L334.951 181.449L334.95 181.448L348.887 175.538L349.082 175.999L355.854 173.125L362.627 175.999Z" stroke="#FF9500" stroke-opacity="0.3" stroke-dasharray="11 11"/>
<path d="M3.31787 210.516L3.51221 210.055L17.4487 215.965V215.966L17.2534 216.426L23.9165 219.252V224.833H24.4165V236.655H23.9165V242.234L17.2534 245.06L17.4478 245.52L3.51318 251.431L3.31787 250.971L-3.45459 253.843L-10.2271 250.971L-10.4224 251.431H-10.4233L-24.3579 245.52L-24.1626 245.06L-30.8257 242.234V236.655H-31.3257V224.833H-30.8257V219.252L-24.1626 216.426L-24.3579 215.966L-24.3589 215.965L-10.4224 210.055L-10.2271 210.516L-3.45459 207.642L3.31787 210.516Z" stroke="#FF9500" stroke-opacity="0.3" stroke-dasharray="11 11"/>
<path d="M58.5498 210.516L58.7441 210.055L72.6807 215.965V215.966L72.4854 216.426L79.1484 219.252V224.833H79.6484V236.655H79.1484V242.234L72.4854 245.06L72.6797 245.52L58.7451 251.431L58.5498 250.971L51.7773 253.843L45.0049 250.971L44.8096 251.431H44.8086L30.874 245.52L31.0693 245.06L24.4062 242.234V236.655H23.9062V224.833H24.4062V219.252L31.0693 216.426L30.874 215.966L30.873 215.965L44.8096 210.055L45.0049 210.516L51.7773 207.642L58.5498 210.516Z" stroke="#FF9500" stroke-opacity="0.3" stroke-dasharray="11 11"/>
<path d="M113.782 210.516L113.976 210.055L127.913 215.965V215.966L127.717 216.426L134.38 219.252V224.833H134.88V236.655H134.38V242.234L127.717 245.06L127.912 245.52L113.977 251.431L113.782 250.971L107.009 253.843L100.237 250.971L100.042 251.431H100.041L86.106 245.52L86.3013 245.06L79.6382 242.234V236.655H79.1382V224.833H79.6382V219.252L86.3013 216.426L86.106 215.966L86.105 215.965L100.042 210.055L100.237 210.516L107.009 207.642L113.782 210.516Z" stroke="#FF9500" stroke-opacity="0.3" stroke-dasharray="11 11"/>
<path d="M169.014 210.516L169.208 210.055L183.145 215.965V215.966L182.949 216.426L189.612 219.252V224.833H190.112V236.655H189.612V242.234L182.949 245.06L183.144 245.52L169.209 251.431L169.014 250.971L162.241 253.843L155.469 250.971L155.273 251.431H155.272L141.338 245.52L141.533 245.06L134.87 242.234V236.655H134.37V224.833H134.87V219.252L141.533 216.426L141.338 215.966L141.337 215.965L155.273 210.055L155.469 210.516L162.241 207.642L169.014 210.516Z" stroke="#FF9500" stroke-opacity="0.3" stroke-dasharray="11 11"/>
<path d="M224.246 210.516L224.44 210.055L238.376 215.965V215.966L238.181 216.426L244.844 219.252V224.833H245.344V236.655H244.844V242.234L238.181 245.06L238.375 245.52L224.441 251.431L224.246 250.971L217.473 253.843L210.701 250.971L210.505 251.431H210.504L196.57 245.52L196.765 245.06L190.102 242.234V236.655H189.602V224.833H190.102V219.252L196.765 216.426L196.57 215.966L196.569 215.965L210.505 210.055L210.701 210.516L217.473 207.642L224.246 210.516Z" stroke="#FF9500" stroke-opacity="0.3" stroke-dasharray="11 11"/>
<path d="M279.478 210.516L279.672 210.055L293.609 215.965V215.966L293.414 216.426L300.077 219.252V224.833H300.577V236.655H300.077V242.234L293.414 245.06L293.608 245.52L279.673 251.431L279.478 250.971L272.706 253.843L265.933 250.971L265.738 251.431H265.737L251.802 245.52L251.998 245.06L245.334 242.234V236.655H244.834V224.833H245.334V219.252L251.998 216.426L251.802 215.966L251.801 215.965L265.738 210.055L265.933 210.516L272.706 207.642L279.478 210.516Z" stroke="#FF9500" stroke-opacity="0.3" stroke-dasharray="11 11"/>
<path d="M334.71 210.516L334.904 210.055L348.841 215.965V215.966L348.646 216.426L355.309 219.252V224.833H355.809V236.655H355.309V242.234L348.646 245.06L348.84 245.52L334.905 251.431L334.71 250.971L327.938 253.843L321.165 250.971L320.97 251.431H320.969L307.034 245.52L307.229 245.06L300.566 242.234V236.655H300.066V224.833H300.566V219.252L307.229 216.426L307.034 215.966L307.033 215.965L320.97 210.055L321.165 210.516L327.938 207.642L334.71 210.516Z" stroke="#FF9500" stroke-opacity="0.3" stroke-dasharray="11 11"/>
<path d="M30.6333 245.033L30.8276 244.572L44.7642 250.482V250.483L44.5688 250.943L51.2319 253.769V259.349H51.7319V271.171H51.2319V276.75L44.5688 279.577L44.7632 280.037L30.8286 285.948L30.6333 285.488L23.8608 288.36L17.0884 285.488L16.8931 285.948H16.8921L2.95752 280.037L3.15283 279.577L-3.51025 276.75V271.171H-4.01025V259.349H-3.51025V253.769L3.15283 250.943L2.95752 250.483L2.95654 250.482L16.8931 244.572L17.0884 245.033L23.8608 242.159L30.6333 245.033Z" stroke="#FF9500" stroke-opacity="0.3" stroke-dasharray="11 11"/>
<path d="M85.8652 245.033L86.0596 244.572L99.9961 250.482V250.483L99.8008 250.943L106.464 253.769V259.349H106.964V271.171H106.464V276.75L99.8008 279.577L99.9951 280.037L86.0605 285.948L85.8652 285.488L79.0928 288.36L72.3203 285.488L72.125 285.948H72.124L58.1895 280.037L58.3848 279.577L51.7217 276.75V271.171H51.2217V259.349H51.7217V253.769L58.3848 250.943L58.1895 250.483L58.1885 250.482L72.125 244.572L72.3203 245.033L79.0928 242.159L85.8652 245.033Z" stroke="#FF9500" stroke-opacity="0.3" stroke-dasharray="11 11"/>
<path d="M141.097 245.033L141.292 244.572L155.228 250.482V250.483L155.033 250.943L161.696 253.769V259.349H162.196V271.171H161.696V276.75L155.033 279.577L155.227 280.037L141.292 285.948L141.097 285.488L134.325 288.36L127.552 285.488L127.357 285.948H127.356L113.421 280.037L113.617 279.577L106.954 276.75V271.171H106.454V259.349H106.954V253.769L113.617 250.943L113.421 250.483L113.42 250.482L127.357 244.572L127.552 245.033L134.325 242.159L141.097 245.033Z" stroke="#FF9500" stroke-opacity="0.3" stroke-dasharray="11 11"/>
<path d="M196.329 245.033L196.523 244.572L210.46 250.482V250.483L210.265 250.943L216.928 253.769V259.349H217.428V271.171H216.928V276.75L210.265 279.577L210.459 280.037L196.524 285.948L196.329 285.488L189.557 288.36L182.784 285.488L182.589 285.948H182.588L168.653 280.037L168.849 279.577L162.186 276.75V271.171H161.686V259.349H162.186V253.769L168.849 250.943L168.653 250.483L168.652 250.482L182.589 244.572L182.784 245.033L189.557 242.159L196.329 245.033Z" stroke="#FF9500" stroke-opacity="0.3" stroke-dasharray="11 11"/>
<path d="M251.562 245.033L251.756 244.572L265.692 250.482V250.483L265.497 250.943L272.16 253.769V259.349H272.66V271.171H272.16V276.75L265.497 279.577L265.691 280.037L251.757 285.948L251.562 285.488L244.789 288.36L238.017 285.488L237.821 285.948H237.82L223.886 280.037L224.081 279.577L217.418 276.75V271.171H216.918V259.349H217.418V253.769L224.081 250.943L223.886 250.483L223.885 250.482L237.821 244.572L238.017 245.033L244.789 242.159L251.562 245.033Z" stroke="#FF9500" stroke-opacity="0.3" stroke-dasharray="11 11"/>
<path d="M306.793 245.033L306.988 244.572L320.924 250.482V250.483L320.729 250.943L327.392 253.769V259.349H327.892V271.171H327.392V276.75L320.729 279.577L320.923 280.037L306.989 285.948L306.793 285.488L300.021 288.36L293.249 285.488L293.053 285.948H293.052L279.118 280.037L279.313 279.577L272.65 276.75V271.171H272.15V259.349H272.65V253.769L279.313 250.943L279.118 250.483L279.117 250.482L293.053 244.572L293.249 245.033L300.021 242.159L306.793 245.033Z" stroke="#FF9500" stroke-opacity="0.3" stroke-dasharray="11 11"/>
<path d="M2.7168 279.549L2.91113 279.088L16.8477 284.999V285L16.6523 285.459L23.3154 288.286V293.866H23.8154V305.688H23.3154V311.267L16.6523 314.093L16.8467 314.553L2.91211 320.464L2.7168 320.004L-4.05566 322.876L-10.8281 320.004L-11.0234 320.464H-11.0244L-24.959 314.553L-24.7637 314.093L-31.4268 311.267V305.688H-31.9268V293.866H-31.4268V288.286L-24.7637 285.459L-24.959 285L-24.96 284.999L-11.0234 279.088L-10.8281 279.549L-4.05566 276.675L2.7168 279.549Z" stroke="#FF9500" stroke-opacity="0.3" stroke-dasharray="11 11"/>
<path d="M57.9482 279.549L58.1426 279.088L72.0791 284.999V285L71.8838 285.459L78.5469 288.286V293.866H79.0469V305.688H78.5469V311.267L71.8838 314.093L72.0781 314.553L58.1436 320.464L57.9482 320.004L51.1758 322.876L44.4033 320.004L44.208 320.464H44.207L30.2725 314.553L30.4678 314.093L23.8047 311.267V305.688H23.3047V293.866H23.8047V288.286L30.4678 285.459L30.2725 285L30.2715 284.999L44.208 279.088L44.4033 279.549L51.1758 276.675L57.9482 279.549Z" stroke="#FF9500" stroke-opacity="0.3" stroke-dasharray="11 11"/>
<path d="M113.181 279.549L113.375 279.088L127.312 284.999V285L127.116 285.459L133.779 288.286V293.866H134.279V305.688H133.779V311.267L127.116 314.093L127.311 314.553L113.376 320.464L113.181 320.004L106.408 322.876L99.6357 320.004L99.4404 320.464H99.4395L85.5049 314.553L85.7002 314.093L79.0371 311.267V305.688H78.5371V293.866H79.0371V288.286L85.7002 285.459L85.5049 285L85.5039 284.999L99.4404 279.088L99.6357 279.549L106.408 276.675L113.181 279.549Z" stroke="#FF9500" stroke-opacity="0.3" stroke-dasharray="11 11"/>
<path d="M168.412 279.549L168.606 279.088L182.543 284.999V285L182.348 285.459L189.011 288.286V293.866H189.511V305.688H189.011V311.267L182.348 314.093L182.542 314.553L168.607 320.464L168.412 320.004L161.64 322.876L154.867 320.004L154.672 320.464H154.671L140.736 314.553L140.932 314.093L134.269 311.267V305.688H133.769V293.866H134.269V288.286L140.932 285.459L140.736 285L140.735 284.999L154.672 279.088L154.867 279.549L161.64 276.675L168.412 279.549Z" stroke="#FF9500" stroke-opacity="0.3" stroke-dasharray="11 11"/>
<path d="M223.645 279.549L223.839 279.088L237.775 284.999V285L237.58 285.459L244.243 288.286V293.866H244.743V305.688H244.243V311.267L237.58 314.093L237.774 314.553L223.84 320.464L223.645 320.004L216.872 322.876L210.1 320.004L209.904 320.464H209.903L195.969 314.553L196.164 314.093L189.501 311.267V305.688H189.001V293.866H189.501V288.286L196.164 285.459L195.969 285L195.968 284.999L209.904 279.088L210.1 279.549L216.872 276.675L223.645 279.549Z" stroke="#FF9500" stroke-opacity="0.3" stroke-dasharray="11 11"/>
<path d="M278.876 279.549L279.071 279.088L293.007 284.999V285L292.812 285.459L299.475 288.286V293.866H299.975V305.688H299.475V311.267L292.812 314.093L293.006 314.553L279.072 320.464L278.876 320.004L272.104 322.876L265.332 320.004L265.136 320.464H265.135L251.201 314.553L251.396 314.093L244.733 311.267V305.688H244.233V293.866H244.733V288.286L251.396 285.459L251.201 285L251.2 284.999L265.136 279.088L265.332 279.549L272.104 276.675L278.876 279.549Z" stroke="#FF9500" stroke-opacity="0.3" stroke-dasharray="11 11"/>
<path d="M334.289 279.549L334.483 279.088L348.419 284.999V285L348.224 285.459L354.887 288.286V293.866H355.387V305.688H354.887V311.267L348.224 314.093L348.418 314.553L334.484 320.464L334.289 320.004L327.516 322.876L320.744 320.004L320.548 320.464H320.547L306.613 314.553L306.808 314.093L300.145 311.267V305.688H299.645V293.866H300.145V288.286L306.808 285.459L306.613 285L306.612 284.999L320.548 279.088L320.744 279.549L327.516 276.675L334.289 279.549Z" stroke="#FF9500" stroke-opacity="0.3" stroke-dasharray="11 11"/>
<path d="M389.521 279.549L389.715 279.088L403.651 284.999V285L403.456 285.459L410.119 288.286V293.866H410.619V305.688H410.119V311.267L403.456 314.093L403.65 314.553L389.716 320.464L389.521 320.004L382.748 322.876L375.976 320.004L375.78 320.464H375.779L361.845 314.553L362.04 314.093L355.377 311.267V305.688H354.877V293.866H355.377V288.286L362.04 285.459L361.845 285L361.844 284.999L375.78 279.088L375.976 279.549L382.748 276.675L389.521 279.549Z" stroke="#FF9500" stroke-opacity="0.3" stroke-dasharray="11 11"/>
<path d="M444.752 279.549L444.946 279.088L458.883 284.999V285L458.688 285.459L465.351 288.286V293.866H465.851V305.688H465.351V311.267L458.688 314.093L458.882 314.553L444.947 320.464L444.752 320.004L437.979 322.876L431.207 320.004L431.012 320.464H431.011L417.076 314.553L417.271 314.093L410.608 311.267V305.688H410.108V293.866H410.608V288.286L417.271 285.459L417.076 285L417.075 284.999L431.012 279.088L431.207 279.549L437.979 276.675L444.752 279.549Z" stroke="#FF9500" stroke-opacity="0.3" stroke-dasharray="11 11"/>
<path d="M499.984 279.549L500.179 279.088L514.115 284.999V285L513.92 285.459L520.583 288.286V293.866H521.083V305.688H520.583V311.267L513.92 314.093L514.114 314.553L500.18 320.464L499.984 320.004L493.212 322.876L486.439 320.004L486.244 320.464H486.243L472.309 314.553L472.504 314.093L465.841 311.267V305.688H465.341V293.866H465.841V288.286L472.504 285.459L472.309 285L472.308 284.999L486.244 279.088L486.439 279.549L493.212 276.675L499.984 279.549Z" stroke="#FF9500" stroke-opacity="0.3" stroke-dasharray="11 11"/>
<path d="M30.0317 314.066L30.2261 313.605L44.1626 319.515V319.516L43.9673 319.976L50.6304 322.802V328.382H51.1304V340.205H50.6304V345.784L43.9673 348.61L44.1616 349.07L30.2271 354.981L30.0317 354.521L23.2593 357.393L16.4868 354.521L16.2915 354.981H16.2905L2.35596 349.07L2.55127 348.61L-4.11182 345.784V340.205H-4.61182V328.382H-4.11182V322.802L2.55127 319.976L2.35596 319.516L2.35498 319.515L16.2915 313.605L16.4868 314.066L23.2593 311.192L30.0317 314.066Z" stroke="#FF9500" stroke-opacity="0.3" stroke-dasharray="11 11"/>
<path d="M85.2637 314.066L85.458 313.605L99.3945 319.515V319.516L99.1992 319.976L105.862 322.802V328.382H106.362V340.205H105.862V345.784L99.1992 348.61L99.3936 349.07L85.459 354.981L85.2637 354.521L78.4912 357.393L71.7188 354.521L71.5234 354.981H71.5225L57.5879 349.07L57.7832 348.61L51.1201 345.784V340.205H50.6201V328.382H51.1201V322.802L57.7832 319.976L57.5879 319.516L57.5869 319.515L71.5234 313.605L71.7188 314.066L78.4912 311.192L85.2637 314.066Z" stroke="#FF9500" stroke-opacity="0.3" stroke-dasharray="11 11"/>
<path d="M140.496 314.066L140.69 313.605L154.626 319.515V319.516L154.431 319.976L161.094 322.802V328.382H161.594V340.205H161.094V345.784L154.431 348.61L154.625 349.07L140.691 354.981L140.496 354.521L133.723 357.393L126.951 354.521L126.755 354.981H126.754L112.82 349.07L113.015 348.61L106.352 345.784V340.205H105.852V328.382H106.352V322.802L113.015 319.976L112.82 319.516L112.819 319.515L126.755 313.605L126.951 314.066L133.723 311.192L140.496 314.066Z" stroke="#FF9500" stroke-opacity="0.3" stroke-dasharray="11 11"/>
<path d="M195.728 314.066L195.922 313.605L209.859 319.515V319.516L209.664 319.976L216.327 322.802V328.382H216.827V340.205H216.327V345.784L209.664 348.61L209.858 349.07L195.923 354.981L195.728 354.521L188.956 357.393L182.183 354.521L181.988 354.981H181.987L168.052 349.07L168.248 348.61L161.584 345.784V340.205H161.084V328.382H161.584V322.802L168.248 319.976L168.052 319.516L168.051 319.515L181.988 313.605L182.183 314.066L188.956 311.192L195.728 314.066Z" stroke="#FF9500" stroke-opacity="0.3" stroke-dasharray="11 11"/>
<path d="M250.96 314.066L251.154 313.605L265.091 319.515V319.516L264.896 319.976L271.559 322.802V328.382H272.059V340.205H271.559V345.784L264.896 348.61L265.09 349.07L251.155 354.981L250.96 354.521L244.188 357.393L237.415 354.521L237.22 354.981H237.219L223.284 349.07L223.479 348.61L216.816 345.784V340.205H216.316V328.382H216.816V322.802L223.479 319.976L223.284 319.516L223.283 319.515L237.22 313.605L237.415 314.066L244.188 311.192L250.96 314.066Z" stroke="#FF9500" stroke-opacity="0.3" stroke-dasharray="11 11"/>
<path d="M2.11523 348.583L2.30957 348.122L16.2461 354.032V354.033L16.0508 354.493L22.7139 357.319V362.899H23.2139V374.722H22.7139V380.301L16.0508 383.127L16.2451 383.587L2.31055 389.498L2.11523 389.038L-4.65723 391.91L-11.4297 389.038L-11.625 389.498H-11.626L-25.5605 383.587L-25.3652 383.127L-32.0283 380.301V374.722H-32.5283V362.899H-32.0283V357.319L-25.3652 354.493L-25.5605 354.033L-25.5615 354.032L-11.625 348.122L-11.4297 348.583L-4.65723 345.709L2.11523 348.583Z" stroke="#FF9500" stroke-opacity="0.3" stroke-dasharray="11 11"/>
<path d="M57.3472 348.583L57.5415 348.122L71.478 354.032V354.033L71.2827 354.493L77.9458 357.319V362.899H78.4458V374.722H77.9458V380.301L71.2827 383.127L71.4771 383.587L57.5425 389.498L57.3472 389.038L50.5747 391.91L43.8022 389.038L43.6069 389.498H43.606L29.6714 383.587L29.8667 383.127L23.2036 380.301V374.722H22.7036V362.899H23.2036V357.319L29.8667 354.493L29.6714 354.033L29.6704 354.032L43.6069 348.122L43.8022 348.583L50.5747 345.709L57.3472 348.583Z" stroke="#FF9500" stroke-opacity="0.3" stroke-dasharray="11 11"/>
<path d="M112.579 348.583L112.773 348.122L126.71 354.032V354.033L126.515 354.493L133.178 357.319V362.899H133.678V374.722H133.178V380.301L126.515 383.127L126.709 383.587L112.774 389.498L112.579 389.038L105.807 391.91L99.0342 389.038L98.8389 389.498H98.8379L84.9033 383.587L85.0986 383.127L78.4355 380.301V374.722H77.9355V362.899H78.4355V357.319L85.0986 354.493L84.9033 354.033L84.9023 354.032L98.8389 348.122L99.0342 348.583L105.807 345.709L112.579 348.583Z" stroke="#FF9500" stroke-opacity="0.3" stroke-dasharray="11 11"/>
<path d="M167.812 348.583L168.006 348.122L181.942 354.032V354.033L181.747 354.493L188.41 357.319V362.899H188.91V374.722H188.41V380.301L181.747 383.127L181.941 383.587L168.007 389.498L167.812 389.038L161.039 391.91L154.267 389.038L154.071 389.498H154.07L140.136 383.587L140.331 383.127L133.668 380.301V374.722H133.168V362.899H133.668V357.319L140.331 354.493L140.136 354.033L140.135 354.032L154.071 348.122L154.267 348.583L161.039 345.709L167.812 348.583Z" stroke="#FF9500" stroke-opacity="0.3" stroke-dasharray="11 11"/>
<path d="M223.043 348.583L223.238 348.122L237.174 354.032V354.033L236.979 354.493L243.642 357.319V362.899H244.142V374.722H243.642V380.301L236.979 383.127L237.173 383.587L223.239 389.498L223.043 389.038L216.271 391.91L209.499 389.038L209.303 389.498H209.302L195.368 383.587L195.563 383.127L188.9 380.301V374.722H188.4V362.899H188.9V357.319L195.563 354.493L195.368 354.033L195.367 354.032L209.303 348.122L209.499 348.583L216.271 345.709L223.043 348.583Z" stroke="#FF9500" stroke-opacity="0.3" stroke-dasharray="11 11"/>
<path d="M278.455 348.899L278.649 348.438L292.586 354.349V354.35L292.391 354.81L299.054 357.636V363.216H299.554V375.038H299.054V380.617L292.391 383.443L292.585 383.903L278.65 389.814L278.455 389.354L271.683 392.227L264.91 389.354L264.715 389.814H264.714L250.779 383.903L250.975 383.443L244.312 380.617V375.038H243.812V363.216H244.312V357.636L250.975 354.81L250.779 354.35L250.778 354.349L264.715 348.438L264.91 348.899L271.683 346.025L278.455 348.899Z" stroke="#FF9500" stroke-opacity="0.3" stroke-dasharray="11 11"/>
<path d="M333.687 348.899L333.881 348.438L347.818 354.349V354.35L347.623 354.81L354.286 357.636V363.216H354.786V375.038H354.286V380.617L347.623 383.443L347.817 383.903L333.882 389.814L333.687 389.354L326.915 392.227L320.142 389.354L319.947 389.814H319.946L306.011 383.903L306.207 383.443L299.543 380.617V375.038H299.043V363.216H299.543V357.636L306.207 354.81L306.011 354.35L306.01 354.349L319.947 348.438L320.142 348.899L326.915 346.025L333.687 348.899Z" stroke="#FF9500" stroke-opacity="0.3" stroke-dasharray="11 11"/>
<path d="M388.919 348.899L389.114 348.438L403.05 354.349V354.35L402.855 354.81L409.518 357.636V363.216H410.018V375.038H409.518V380.617L402.855 383.443L403.049 383.903L389.115 389.814L388.919 389.354L382.147 392.227L375.375 389.354L375.179 389.814H375.178L361.244 383.903L361.439 383.443L354.776 380.617V375.038H354.276V363.216H354.776V357.636L361.439 354.81L361.244 354.35L361.243 354.349L375.179 348.438L375.375 348.899L382.147 346.025L388.919 348.899Z" stroke="#FF9500" stroke-opacity="0.3" stroke-dasharray="11 11"/>
<path d="M444.151 348.899L444.346 348.438L458.282 354.349V354.35L458.087 354.81L464.75 357.636V363.216H465.25V375.038H464.75V380.617L458.087 383.443L458.281 383.903L444.347 389.814L444.151 389.354L437.379 392.227L430.606 389.354L430.411 389.814H430.41L416.476 383.903L416.671 383.443L410.008 380.617V375.038H409.508V363.216H410.008V357.636L416.671 354.81L416.476 354.35L416.475 354.349L430.411 348.438L430.606 348.899L437.379 346.025L444.151 348.899Z" stroke="#FF9500" stroke-opacity="0.3" stroke-dasharray="11 11"/>
<path d="M499.383 348.899L499.578 348.438L513.514 354.349V354.35L513.319 354.81L519.982 357.636V363.216H520.482V375.038H519.982V380.617L513.319 383.443L513.513 383.903L499.579 389.814L499.383 389.354L492.611 392.227L485.838 389.354L485.643 389.814H485.642L471.708 383.903L471.903 383.443L465.24 380.617V375.038H464.74V363.216H465.24V357.636L471.903 354.81L471.708 354.35L471.707 354.349L485.643 348.438L485.838 348.899L492.611 346.025L499.383 348.899Z" stroke="#FF9500" stroke-opacity="0.3" stroke-dasharray="11 11"/>
<path d="M501.671 72.7017L501.862 72.2397L515.755 78.019L515.563 78.481L522.201 81.2407V86.688H522.701V98.2456H522.201V103.691L515.563 106.453L515.755 106.915L501.862 112.694L501.671 112.232L494.916 115.042L488.162 112.232L487.97 112.693L474.077 106.914L474.27 106.453L467.632 103.691V98.2456H467.132V86.688H467.632V81.2407L474.27 78.481L474.077 78.019L487.97 72.2397L488.162 72.7017L494.916 69.8911L501.671 72.7017Z" stroke="#FF9500" stroke-opacity="0.3" stroke-dasharray="11 11"/>
<path d="M528.455 106.966L528.649 106.505L542.586 112.415V112.416L542.391 112.876L549.054 115.702V121.282H549.554V133.104H549.054V138.684L542.391 141.51L542.585 141.97L528.65 147.881L528.455 147.421L521.683 150.293L514.91 147.421L514.715 147.881H514.714L500.779 141.97L500.975 141.51L494.312 138.684V133.104H493.812V121.282H494.312V115.702L500.975 112.876L500.779 112.416L500.778 112.415L514.715 106.505L514.91 106.966L521.683 104.092L528.455 106.966Z" stroke="#FF9500" stroke-opacity="0.3" stroke-dasharray="11 11"/>
<path d="M445.955 141.482L446.149 141.021L460.086 146.932V146.933L459.891 147.393L466.554 150.219V155.799H467.054V167.621H466.554V173.2L459.891 176.026L460.085 176.486L446.15 182.397L445.955 181.938L439.183 184.81L432.41 181.938L432.215 182.397H432.214L418.279 176.486L418.475 176.026L411.812 173.2V167.621H411.312V155.799H411.812V150.219L418.475 147.393L418.279 146.933L418.278 146.932L432.215 141.021L432.41 141.482L439.183 138.608L445.955 141.482Z" stroke="#FF9500" stroke-opacity="0.3" stroke-dasharray="11 11"/>
<path d="M501.187 141.482L501.381 141.021L515.318 146.932V146.933L515.123 147.393L521.786 150.219V155.799H522.286V167.621H521.786V173.2L515.123 176.026L515.317 176.486L501.382 182.397L501.187 181.938L494.415 184.81L487.642 181.938L487.447 182.397H487.446L473.511 176.486L473.707 176.026L467.043 173.2V167.621H466.543V155.799H467.043V150.219L473.707 147.393L473.511 146.933L473.51 146.932L487.447 141.021L487.642 141.482L494.415 138.608L501.187 141.482Z" stroke="#FF9500" stroke-opacity="0.3" stroke-dasharray="11 11"/>
<path d="M418.038 176.316L418.232 175.855L432.169 181.765V181.766L431.974 182.226L438.637 185.052V190.632H439.137V202.455H438.637V208.034L431.974 210.86L432.168 211.32L418.233 217.231L418.038 216.771L411.266 219.643L404.493 216.771L404.298 217.231H404.297L390.362 211.32L390.558 210.86L383.895 208.034V202.455H383.395V190.632H383.895V185.052L390.558 182.226L390.362 181.766L390.361 181.765L404.298 175.855L404.493 176.316L411.266 173.442L418.038 176.316Z" stroke="#FF9500" stroke-opacity="0.3" stroke-dasharray="11 11"/>
<path d="M473.271 176.316L473.465 175.855L487.401 181.765V181.766L487.206 182.226L493.869 185.052V190.632H494.369V202.455H493.869V208.034L487.206 210.86L487.4 211.32L473.466 217.231L473.271 216.771L466.498 219.643L459.726 216.771L459.53 217.231H459.529L445.595 211.32L445.79 210.86L439.127 208.034V202.455H438.627V190.632H439.127V185.052L445.79 182.226L445.595 181.766L445.594 181.765L459.53 175.855L459.726 176.316L466.498 173.442L473.271 176.316Z" stroke="#FF9500" stroke-opacity="0.3" stroke-dasharray="11 11"/>
<path d="M528.502 176.316L528.697 175.855L542.633 181.765V181.766L542.438 182.226L549.101 185.052V190.632H549.601V202.455H549.101V208.034L542.438 210.86L542.632 211.32L528.698 217.231L528.502 216.771L521.73 219.643L514.957 216.771L514.762 217.231H514.761L500.826 211.32L501.022 210.86L494.359 208.034V202.455H493.859V190.632H494.359V185.052L501.022 182.226L500.826 181.766L500.825 181.765L514.762 175.855L514.957 176.316L521.73 173.442L528.502 176.316Z" stroke="#FF9500" stroke-opacity="0.3" stroke-dasharray="11 11"/>
<path d="M390.122 211.149L390.316 210.688L404.253 216.599V216.6L404.058 217.06L410.721 219.886V225.466H411.221V237.288H410.721V242.867L404.058 245.693L404.252 246.153L390.317 252.064L390.122 251.604L383.35 254.477L376.577 251.604L376.382 252.064H376.381L362.446 246.153L362.642 245.693L355.979 242.867V237.288H355.479V225.466H355.979V219.886L362.642 217.06L362.446 216.6L362.445 216.599L376.382 210.688L376.577 211.149L383.35 208.275L390.122 211.149Z" stroke="#FF9500" stroke-opacity="0.3" stroke-dasharray="11 11"/>
<path d="M445.354 211.149L445.548 210.688L459.484 216.599V216.6L459.289 217.06L465.952 219.886V225.466H466.452V237.288H465.952V242.867L459.289 245.693L459.483 246.153L445.549 252.064L445.354 251.604L438.581 254.477L431.809 251.604L431.613 252.064H431.612L417.678 246.153L417.873 245.693L411.21 242.867V237.288H410.71V225.466H411.21V219.886L417.873 217.06L417.678 216.6L417.677 216.599L431.613 210.688L431.809 211.149L438.581 208.275L445.354 211.149Z" stroke="#FF9500" stroke-opacity="0.3" stroke-dasharray="11 11"/>
<path d="M500.586 211.149L500.78 210.688L514.717 216.599V216.6L514.521 217.06L521.185 219.886V225.466H521.685V237.288H521.185V242.867L514.521 245.693L514.716 246.153L500.781 252.064L500.586 251.604L493.813 254.477L487.041 251.604L486.846 252.064H486.845L472.91 246.153L473.105 245.693L466.442 242.867V237.288H465.942V225.466H466.442V219.886L473.105 217.06L472.91 216.6L472.909 216.599L486.846 210.688L487.041 211.149L493.813 208.275L500.586 211.149Z" stroke="#FF9500" stroke-opacity="0.3" stroke-dasharray="11 11"/>
<path d="M362.205 245.35L362.399 244.889L376.336 250.799V250.8L376.141 251.26L382.804 254.086V259.666H383.304V271.488H382.804V277.067L376.141 279.894L376.335 280.354L362.4 286.265L362.205 285.805L355.433 288.677L348.66 285.805L348.465 286.265H348.464L334.529 280.354L334.725 279.894L328.062 277.067V271.488H327.562V259.666H328.062V254.086L334.725 251.26L334.529 250.8L334.528 250.799L348.465 244.889L348.66 245.35L355.433 242.476L362.205 245.35Z" stroke="#FF9500" stroke-opacity="0.3" stroke-dasharray="11 11"/>
<path d="M417.437 245.35L417.631 244.889L431.568 250.799V250.8L431.373 251.26L438.036 254.086V259.666H438.536V271.488H438.036V277.067L431.373 279.894L431.567 280.354L417.632 286.265L417.437 285.805L410.665 288.677L403.892 285.805L403.697 286.265H403.696L389.761 280.354L389.957 279.894L383.293 277.067V271.488H382.793V259.666H383.293V254.086L389.957 251.26L389.761 250.8L389.76 250.799L403.697 244.889L403.892 245.35L410.665 242.476L417.437 245.35Z" stroke="#FF9500" stroke-opacity="0.3" stroke-dasharray="11 11"/>
<path d="M472.669 245.35L472.863 244.889L486.8 250.799V250.8L486.604 251.26L493.268 254.086V259.666H493.768V271.488H493.268V277.067L486.604 279.894L486.799 280.354L472.864 286.265L472.669 285.805L465.896 288.677L459.124 285.805L458.929 286.265H458.928L444.993 280.354L445.188 279.894L438.525 277.067V271.488H438.025V259.666H438.525V254.086L445.188 251.26L444.993 250.8L444.992 250.799L458.929 244.889L459.124 245.35L465.896 242.476L472.669 245.35Z" stroke="#FF9500" stroke-opacity="0.3" stroke-dasharray="11 11"/>
<path d="M527.901 245.35L528.096 244.889L542.032 250.799V250.8L541.837 251.26L548.5 254.086V259.666H549V271.488H548.5V277.067L541.837 279.894L542.031 280.354L528.097 286.265L527.901 285.805L521.129 288.677L514.356 285.805L514.161 286.265H514.16L500.226 280.354L500.421 279.894L493.758 277.067V271.488H493.258V259.666H493.758V254.086L500.421 251.26L500.226 250.8L500.225 250.799L514.161 244.889L514.356 245.35L521.129 242.476L527.901 245.35Z" stroke="#FF9500" stroke-opacity="0.3" stroke-dasharray="11 11"/>
<path d="M305.955 314.383L306.149 313.922L320.086 319.832V319.833L319.891 320.293L326.554 323.119V328.699H327.054V340.521H326.554V346.101L319.891 348.927L320.085 349.387L306.15 355.298L305.955 354.838L299.183 357.71L292.41 354.838L292.215 355.298H292.214L278.279 349.387L278.475 348.927L271.812 346.101V340.521H271.312V328.699H271.812V323.119L278.475 320.293L278.279 319.833L278.278 319.832L292.215 313.922L292.41 314.383L299.183 311.509L305.955 314.383Z" stroke="#FF9500" stroke-opacity="0.3" stroke-dasharray="11 11"/>
<path d="M361.187 314.383L361.381 313.922L375.318 319.832V319.833L375.123 320.293L381.786 323.119V328.699H382.286V340.521H381.786V346.101L375.123 348.927L375.317 349.387L361.382 355.298L361.187 354.838L354.415 357.71L347.642 354.838L347.447 355.298H347.446L333.511 349.387L333.707 348.927L327.043 346.101V340.521H326.543V328.699H327.043V323.119L333.707 320.293L333.511 319.833L333.51 319.832L347.447 313.922L347.642 314.383L354.415 311.509L361.187 314.383Z" stroke="#FF9500" stroke-opacity="0.3" stroke-dasharray="11 11"/>
<path d="M416.419 314.383L416.613 313.922L430.55 319.832V319.833L430.354 320.293L437.018 323.119V328.699H437.518V340.521H437.018V346.101L430.354 348.927L430.549 349.387L416.614 355.298L416.419 354.838L409.646 357.71L402.874 354.838L402.679 355.298H402.678L388.743 349.387L388.938 348.927L382.275 346.101V340.521H381.775V328.699H382.275V323.119L388.938 320.293L388.743 319.833L388.742 319.832L402.679 313.922L402.874 314.383L409.646 311.509L416.419 314.383Z" stroke="#FF9500" stroke-opacity="0.3" stroke-dasharray="11 11"/>
<path d="M471.651 314.383L471.846 313.922L485.782 319.832V319.833L485.587 320.293L492.25 323.119V328.699H492.75V340.521H492.25V346.101L485.587 348.927L485.781 349.387L471.847 355.298L471.651 354.838L464.879 357.71L458.106 354.838L457.911 355.298H457.91L443.976 349.387L444.171 348.927L437.508 346.101V340.521H437.008V328.699H437.508V323.119L444.171 320.293L443.976 319.833L443.975 319.832L457.911 313.922L458.106 314.383L464.879 311.509L471.651 314.383Z" stroke="#FF9500" stroke-opacity="0.3" stroke-dasharray="11 11"/>
<path d="M526.883 314.383L527.078 313.922L541.014 319.832V319.833L540.819 320.293L547.482 323.119V328.699H547.982V340.521H547.482V346.101L540.819 348.927L541.013 349.387L527.079 355.298L526.883 354.838L520.111 357.71L513.338 354.838L513.143 355.298H513.142L499.208 349.387L499.403 348.927L492.74 346.101V340.521H492.24V328.699H492.74V323.119L499.403 320.293L499.208 319.833L499.207 319.832L513.143 313.922L513.338 314.383L520.111 311.509L526.883 314.383Z" stroke="#FF9500" stroke-opacity="0.3" stroke-dasharray="11 11"/>
</g>
</g>
<path d="M378.401 293.409L373.465 303.668L316.124 299.494L266.196 255.786L271.596 245.739C277.141 235.424 289.815 231.281 300.382 236.332L370.018 269.589C378.92 273.844 382.68 284.522 378.401 293.409ZM170.411 69.983L203.669 139.619C208.72 150.186 204.576 162.86 194.261 168.405L184.219 173.809L140.495 130.084L136.332 66.5346L146.591 61.5993C155.484 57.3247 166.156 61.08 170.411 69.983Z" fill="#FFC107"/>
<path d="M266.196 255.786C262.44 262.758 254.898 266.891 247.008 266.161C236.17 265.153 219.861 259.532 200.164 239.835C180.468 220.138 174.847 203.83 173.844 192.996C173.113 185.106 177.242 177.559 184.219 173.809L136.332 66.5352L121.263 73.7794C95.6433 86.1004 81.2604 113.822 85.8232 141.887C92.3867 182.188 109.699 239.739 154.98 285.02C200.261 330.301 257.817 347.618 298.118 354.182C326.183 358.744 353.905 344.361 366.221 318.736L373.465 303.668L266.196 255.786Z" fill="#FFC107"/>
<path d="M362.884 324.817C349.353 346.595 323.879 358.367 298.118 354.182C257.817 347.618 200.261 330.301 154.98 285.02C109.699 239.739 92.3867 182.188 85.8225 141.887C81.633 116.131 93.4047 90.6578 115.183 77.127C106.966 90.3212 103.817 106.049 106.321 121.39C112.884 161.69 130.196 219.242 175.477 264.523C220.758 309.804 278.315 327.121 318.615 333.684C333.959 336.191 349.69 333.039 362.884 324.817Z" fill="#DAA60C"/>
<path d="M219.567 330.112C247.703 343.492 275.6 350.511 298.112 354.177C326.175 358.746 353.906 344.362 366.224 318.736L378.397 293.416C382.673 284.524 378.915 273.846 370.01 269.596L300.376 236.333C289.811 231.286 277.141 235.423 271.596 245.743L266.19 255.783C262.439 262.763 254.895 266.893 247.006 266.163C236.168 265.153 219.859 259.535 200.163 239.839C180.467 220.143 174.849 203.834 173.84 192.996C173.109 185.107 177.24 177.564 184.212 173.812M184.212 173.812L194.26 168.406C204.572 162.861 208.716 150.191 203.669 139.619L170.406 69.986C166.157 61.0809 155.478 57.329 146.587 61.5989L121.259 73.7778C95.64 86.0961 81.2564 113.827 85.8185 141.884C92.3795 182.186 109.698 239.74 154.98 285.022C168.819 298.861 183.807 310.09 199.094 319.194M184.212 173.812L155.067 108.515M145.71 87.5437L136.539 67.0043M266.19 255.787L372.995 303.461" stroke="black" stroke-width="7" stroke-miterlimit="10" stroke-linecap="round" stroke-linejoin="round"/>
<path d="M271.059 45.9668C269.915 44.8267 269.009 43.4718 268.391 41.9802C267.773 40.4885 267.456 38.8895 267.458 37.2749C267.458 30.4862 272.962 24.9824 279.751 24.9824C315.83 24.9824 349.785 39.0672 375.36 64.6422C400.935 90.2173 415.019 124.171 415.02 160.251C415.02 167.04 409.517 172.543 402.728 172.543C395.939 172.543 390.435 167.039 390.436 160.251C390.436 130.739 378.908 102.958 357.977 82.0261C337.045 61.0941 309.264 49.5667 279.751 49.5667C276.357 49.5667 273.283 48.1914 271.059 45.9668Z" fill="#FFC107"/>
<path d="M265.264 92.7354C264.121 91.5953 263.214 90.2404 262.596 88.7488C261.979 87.2571 261.662 85.658 261.664 84.0434C261.664 77.2547 267.167 71.751 273.957 71.751C325.951 71.751 368.252 114.052 368.252 166.046C368.252 172.835 362.748 178.338 355.959 178.338C349.171 178.338 343.667 172.835 343.667 166.047C343.667 127.609 312.395 96.3366 273.957 96.3359C272.342 96.3379 270.743 96.0209 269.251 95.403C267.759 94.7851 266.404 93.8785 265.264 92.7354Z" fill="#FFC107"/>
<path d="M300.498 180.532C299.355 179.392 298.448 178.037 297.83 176.546C297.212 175.054 296.895 173.455 296.897 171.84C296.897 164.165 293.908 156.949 288.481 151.521C283.054 146.094 275.837 143.105 268.161 143.104C261.373 143.104 255.869 137.601 255.87 130.812C255.87 124.024 261.373 118.52 268.162 118.52C282.404 118.52 295.794 124.066 305.866 134.137C315.937 144.209 321.483 157.598 321.483 171.841C321.483 178.63 315.979 184.133 309.191 184.133C307.576 184.135 305.977 183.818 304.485 183.2C302.993 182.582 301.638 181.675 300.498 180.532Z" fill="#FFC107"/>
<path d="M271.059 45.9668C269.915 44.8267 269.009 43.4718 268.391 41.9802C267.773 40.4885 267.456 38.8895 267.458 37.2749C267.458 30.4862 272.962 24.9824 279.751 24.9824C315.83 24.9824 349.785 39.0672 375.36 64.6422C400.935 90.2173 415.019 124.171 415.02 160.251C415.02 167.04 409.517 172.543 402.728 172.543C395.939 172.543 390.435 167.039 390.436 160.251C390.436 130.739 378.908 102.958 357.977 82.0261C337.045 61.0941 309.264 49.5667 279.751 49.5667C276.357 49.5667 273.283 48.1914 271.059 45.9668Z" stroke="black" stroke-width="7" stroke-miterlimit="10" stroke-linecap="round" stroke-linejoin="round"/>
<path d="M365.488 143.351C367.328 150.774 368.256 158.394 368.25 166.042C368.25 172.836 362.745 178.341 355.958 178.341C349.172 178.341 343.667 172.836 343.667 166.042C343.667 127.606 312.396 96.3355 273.953 96.3355C270.56 96.3355 267.485 94.9609 265.267 92.7363C264.122 91.5972 263.214 90.2426 262.595 88.7506C261.976 87.2587 261.659 85.659 261.662 84.0438C261.662 77.257 267.167 71.752 273.953 71.752C309.999 71.752 341.382 92.0789 357.247 121.869" stroke="black" stroke-width="7" stroke-miterlimit="10" stroke-linecap="round" stroke-linejoin="round"/>
<path d="M300.498 180.532C299.355 179.392 298.448 178.037 297.83 176.546C297.212 175.054 296.895 173.455 296.897 171.84C296.897 164.165 293.908 156.949 288.481 151.521C283.054 146.094 275.837 143.105 268.161 143.104C261.373 143.104 255.869 137.601 255.87 130.812C255.87 124.024 261.373 118.52 268.162 118.52C282.404 118.52 295.794 124.066 305.866 134.137C315.937 144.209 321.483 157.598 321.483 171.841C321.483 178.63 315.979 184.133 309.191 184.133C307.576 184.135 305.977 183.818 304.485 183.2C302.993 182.582 301.638 181.675 300.498 180.532Z" stroke="black" stroke-width="7" stroke-miterlimit="10" stroke-linecap="round" stroke-linejoin="round"/>
<defs>
<radialGradient id="paint0_radial_1385_602" cx="0" cy="0" r="1" gradientUnits="userSpaceOnUse" gradientTransform="translate(247 190) rotate(90) scale(212.483 279.583)">
<stop stop-color="#FEF3D8"/>
<stop offset="1" stop-color="white" stop-opacity="0"/>
</radialGradient>
<clipPath id="clip0_1385_602">
<rect width="494" height="380" fill="white" transform="translate(3)"/>
</clipPath>
</defs>
</svg>
