<svg xmlns="http://www.w3.org/2000/svg" version="1.1" xmlns:xlink="http://www.w3.org/1999/xlink" width="512" height="512" x="0" y="0" viewBox="0 0 91 91" style="enable-background:new 0 0 512 512" xml:space="preserve"><g><g fill="#D2D2D4"><path d="M29.3 78.1c-.3 0-.6-.1-.8-.2-.8-.5-1.1-1.5-.6-2.3l10-17.6c.5-.8 1.5-1.1 2.3-.6s1.1 1.5.6 2.3l-10 17.6c-.4.5-1 .8-1.5.8zM75 78.1c-.6 0-1.1-.3-1.5-.8l-11.4-20c-.5-.8-.2-1.8.6-2.3s1.8-.2 2.3.6l11.4 20c.5.8.2 1.8-.6 2.3-.2.2-.5.2-.8.2zM52.2 73.3c-.9 0-1.7-.7-1.7-1.7V56.4c0-.9.7-1.7 1.7-1.7.9 0 1.7.7 1.7 1.7v15.2c-.1.9-.8 1.7-1.7 1.7z" fill="#D2D2D4" opacity="1" data-original="#d2d2d4"></path><path d="M68.3 69.4H68l-15.7-3.3-16.7 3.3c-.9.2-1.8-.4-2-1.3s.4-1.8 1.3-2l17-3.3h.7l16 3.3c.9.2 1.5 1.1 1.3 2-.2.7-.9 1.3-1.6 1.3z" fill="#D2D2D4" opacity="1" data-original="#d2d2d4"></path></g><path fill="#E6E8EA" d="M86 .7H11.6c-.9 0-1.7.7-1.7 1.7v54.1c0 .9.7 1.7 1.7 1.7.9 0 1.7-.7 1.7-1.7h28.1c0 .9.7 1.7 1.7 1.7H78c5.3 0 9.6-4.3 9.6-9.6V2.4c0-1-.7-1.7-1.6-1.7z" opacity="1" data-original="#e6e8ea"></path><path fill="#9EBCE3" d="M87.6 4H10.2c-1 0-1.7-.7-1.7-1.6S9.2.7 10.2.7h77.4c.9 0 1.7.7 1.7 1.7S88.5 4 87.6 4z" opacity="1" data-original="#9ebce3"></path><g fill="#EF9A9A"><circle cx="51.8" cy="23.8" r="14.8" fill="#EF9A9A" opacity="1" data-original="#ef9a9a"></circle><path d="M51.8 38.8c-8.2 0-15-6.7-15-15s6.7-15 15-15 15 6.7 15 15-6.8 15-15 15zm0-29.7c-8.1 0-14.7 6.6-14.7 14.7s6.6 14.7 14.7 14.7 14.7-6.6 14.7-14.7S59.9 9.1 51.8 9.1z" fill="#EF9A9A" opacity="1" data-original="#ef9a9a"></path></g><path fill="#FFFFFF" d="M47.8 17.6v12.8L59 24z" opacity="1" data-original="#ffffff"></path><path fill="#EF9A9A" d="M70.8 49.1H48.9c-.9 0-1.7-.7-1.7-1.7s.7-1.7 1.7-1.7h21.9c.9 0 1.7.7 1.7 1.7s-.8 1.7-1.7 1.7z" opacity="1" data-original="#ef9a9a"></path><path fill="#EF9A9A" d="M65.3 51.5c-.9 0-1.7-.7-1.7-1.7V45c0-.9.7-1.7 1.7-1.7.9 0 1.7.7 1.7 1.7v4.9c0 .9-.7 1.6-1.7 1.6z" opacity="1" data-original="#ef9a9a"></path><path fill="#71A4D8" d="M24.1 90.4c-3.2 0-3.8-3.8-3.8-3.8V70.9c0-.7-.5-1.2-1.2-1.2s-1.2.5-1.2 1.2v15.7s-.1 3.8-3.9 3.8-3.8-3.8-3.8-3.8V55.1c0-.7-.5-1.2-1.2-1.2s-1.2.5-1.2 1.2c0 0-1 6.1-1 10.7 0 1.8-.1 3.7-.2 4.3-.1.1-.6 1.5-2.3 1.5-.2 0-.6 0-1.1-.8-2.7-4.1-1.3-19.5.5-23.6 1.3-2.9 3.4-6.1 9.5-7.7 2.6-.3 1.9-1.8 1.5-1.9-4.5-1.8-7.6-6.2-7.6-11.1 0-6.6 5.4-12 12-12s12 5.4 12 12c0 4.6-2.7 8.8-6.8 10.8-.6.3-.9.8-.9 1.4.1.8.7.9 1.2 1 4.6.7 6.4 3.3 8.4 6.2l.7 1c.2.2.4.5.6.9 1.1 1.8 2.9 4.8 6 4.6 2.2-.1 3.2-2.6 4-4.9.3-.8.6-1.5.9-2 .5-.9 1.7-1.5 2.7-1.3 1 .1 2 1 2.3 2 .5 1.8-.6 3.8-1.4 4.8-2.1 2.9-6 8.8-9.7 8.3-6.1-.8-8.4-6.7-9.8-7.5-.7-.2-1.3.6-1.3 1.2v33.6s-.7 3.8-3.9 3.8z" opacity="1" data-original="#71a4d8"></path><g fill="#E6E8EA"><path d="m15.3 55.9 4.2-13 3.8 13-4 3.9z" fill="#E6E8EA" opacity="1" data-original="#e6e8ea"></path><path d="M19.3 60.2c-.1 0-.2 0-.2-.1l-4-3.9c-.1-.1-.1-.3-.1-.4l4.1-13c0-.1.2-.2.3-.2.2 0 .3.1.3.2l3.8 13c0 .1 0 .3-.1.3l-4 3.9c.1.1 0 .2-.1.2zm-3.6-4.4 3.6 3.5 3.6-3.5-3.5-11.7z" fill="#E6E8EA" opacity="1" data-original="#e6e8ea"></path></g></g></svg>