<svg xmlns="http://www.w3.org/2000/svg" version="1.1" xmlns:xlink="http://www.w3.org/1999/xlink" width="512" height="512" x="0" y="0" viewBox="0 0 50 50" style="enable-background:new 0 0 512 512" xml:space="preserve"><g><g stroke="#682F2A" stroke-linecap="round" stroke-linejoin="round" stroke-miterlimit="10"><path fill="#FFCA8A" d="M36.8 28.2c-.8.8-1.3 1.9-1.3 3.1 0 2.4-1.9 4.4-4.4 4.4-1.2 0-2.3.5-3.1 1.3-1.7 1.7-4.5 1.7-6.2 0-.8-.8-1.9-1.3-3.1-1.3-2.4 0-4.4-1.9-4.4-4.4 0-1.2-.5-2.3-1.3-3.1-1.7-1.7-1.7-4.5 0-6.2.8-.8 1.3-1.9 1.3-3.1 0-2.4 1.9-4.4 4.4-4.4 1.2 0 2.3-.5 3.1-1.3 1.7-1.7 4.5-1.7 6.2 0 .8.8 1.9 1.3 3.1 1.3 2.4 0 4.4 1.9 4.4 4.4 0 1.2.5 2.3 1.3 3.1 1.7 1.7 1.7 4.5 0 6.2z" opacity="1" data-original="#ffca8a" stroke="#682F2A"></path><circle cx="25" cy="25.1" r="8.8" fill="#FF6989" opacity="1" data-original="#ff6989" stroke="#682F2A"></circle><path fill="#FFFFFF" d="m25 20 1.6 3.2 3.5.5-2.6 2.5.6 3.5L25 28l-3.1 1.7.6-3.5-2.6-2.5 3.5-.5z" opacity="1" data-original="#ffffff" stroke="#682F2A"></path><g fill="#6CD8D5" stroke="#682F2A"><path d="M9.5 7.9c-2.9 2.2-3.2 5.5-1.7 6.4 1.5-2.3 2.7-4.9 1.7-6.4zM13.4 13c-1.9 1.5-4.1 2.3-5.5 1.4 1.6-2.5 4.5-2.8 5.5-1.4zM19.4 7c-2.3 1.6-5.2 2.9-7.6 3.2.9-2.4 4.8-4.1 7.6-3.2zM5 12.9c-1.9 3-1.2 6.1.4 6.5.8-2.7 1-5.4-.4-6.5zM10.2 16.5c-1.3 1.9-3.1 3.4-4.7 3 .8-2.9 3.3-4.1 4.7-3zM2.3 18.9c-.9 3.4.6 6.2 2.3 6.1 0-2.8-.7-5.5-2.3-6.1zM8.3 20.8C7.6 23 6.3 25 4.6 25c0-3 2.1-4.8 3.7-4.2zM1.5 25.5c.1 3.5 2.3 5.7 3.8 5.1-.8-2.7-2.1-5-3.8-5.1zM7.7 25.4c0 2.3-.7 4.6-2.3 5.2-.8-2.9.6-5.3 2.3-5.2zM2.5 32c1 3.3 3.8 4.8 5.2 3.7-1.6-2.3-3.5-4.1-5.2-3.7zM8.4 30c.7 2.2.7 4.6-.7 5.7-1.6-2.5-.9-5.2.7-5.7zM5.4 38c2 2.9 5.3 3.4 6.2 2-2.3-1.8-4.7-3-6.2-2zM10.5 34.2c1.3 1.9 2.2 4.2 1.2 5.7-2.5-1.9-2.6-4.8-1.2-5.7z" fill="#6CD8D5" opacity="1" data-original="#6cd8d5" stroke="#682F2A"></path></g><g fill="#6CD8D5" stroke="#682F2A"><path d="M40.5 7.9c2.9 2.2 3.2 5.5 1.7 6.4-1.5-2.3-2.7-4.9-1.7-6.4zM36.6 13c1.9 1.5 4.1 2.3 5.5 1.4-1.6-2.5-4.5-2.8-5.5-1.4zM30.6 7c2.3 1.6 5.2 2.9 7.6 3.2-.9-2.4-4.8-4.1-7.6-3.2zM45 12.9c1.9 3 1.2 6.1-.4 6.5-.8-2.7-1-5.4.4-6.5zM39.8 16.5c1.3 1.9 3.1 3.4 4.7 3-.8-2.9-3.3-4.1-4.7-3zM47.7 18.9c.9 3.4-.6 6.2-2.3 6.1 0-2.8.7-5.5 2.3-6.1zM41.7 20.8c.6 2.2 1.9 4.2 3.7 4.3 0-3.1-2.1-4.9-3.7-4.3zM48.5 25.5c-.1 3.5-2.3 5.7-3.8 5.1.8-2.7 2.1-5 3.8-5.1zM42.3 25.4c0 2.3.7 4.6 2.3 5.2.8-2.9-.6-5.3-2.3-5.2zM47.5 32c-1 3.3-3.8 4.8-5.2 3.7 1.6-2.3 3.5-4.1 5.2-3.7z" fill="#6CD8D5" opacity="1" data-original="#6cd8d5" stroke="#682F2A"></path><path d="M41.6 30c-.7 2.2-.7 4.6.7 5.7 1.6-2.5.9-5.2-.7-5.7zM44.6 38c-2 2.9-5.3 3.4-6.2 2 2.3-1.8 4.7-3 6.2-2zM39.5 34.2c-1.3 1.9-2.2 4.2-1.2 5.7 2.5-1.9 2.6-4.8 1.2-5.7z" fill="#6CD8D5" opacity="1" data-original="#6cd8d5" stroke="#682F2A"></path></g></g></g></svg>