<svg xmlns="http://www.w3.org/2000/svg" version="1.1" xmlns:xlink="http://www.w3.org/1999/xlink" width="512" height="512" x="0" y="0" viewBox="0 0 512 512" style="enable-background:new 0 0 512 512" xml:space="preserve"><g><circle cx="255.796" cy="254.414" r="138.733" fill="#B6DBFF" transform="rotate(-45 255.769 254.48)" opacity="1" data-original="#b6dbff"></circle><g fill-rule="evenodd"><path fill="#E3F1FF" d="M244.171 392.658c-71.179-5.906-127.107-65.54-127.107-138.243s55.928-132.337 127.107-138.244c71.179 5.906 127.108 65.54 127.108 138.244s-55.928 132.337-127.108 138.243z" opacity="1" data-original="#e3f1ff"></path><path fill="#A0D904" d="M91.366 71.079c31.167 0 56.756 23.866 59.5 54.319h-119c2.744-30.453 28.333-54.319 59.5-54.319z" opacity="1" data-original="#a0d904"></path><path fill="#BAED2C" d="M134.292 125.398H31.866c2.578-28.618 25.332-51.417 53.931-54.061 25.535 4.894 45.395 26.783 48.495 54.061z" opacity="1" data-original="#baed2c"></path><path fill="#FDB0A0" d="M91.366 70.887c15.672 0 28.455-12.783 28.455-28.455s-12.783-28.455-28.455-28.455S62.911 26.76 62.911 42.432s12.783 28.455 28.455 28.455z" opacity="1" data-original="#fdb0a0"></path><path fill="#FFCEC0" d="M85.605 70.303c-12.954-2.663-22.694-14.13-22.694-27.871s9.741-25.209 22.694-27.872C98.559 17.224 108.3 28.69 108.3 42.432S98.558 67.64 85.605 70.303z" opacity="1" data-original="#ffcec0"></path><path fill="#2A92FA" d="M420.226 71.079c31.167 0 56.756 23.866 59.5 54.319h-119c2.744-30.453 28.332-54.319 59.5-54.319z" opacity="1" data-original="#2a92fa"></path><path fill="#4EB1FC" d="M463.152 125.398H360.726c2.578-28.618 25.332-51.417 53.931-54.061 25.535 4.894 45.395 26.783 48.495 54.061z" opacity="1" data-original="#4eb1fc"></path></g><circle cx="420.226" cy="42.431" r="28.455" fill="#FDB0A0" opacity="1" data-original="#fdb0a0"></circle><path fill="#FFCEC0" fill-rule="evenodd" d="M414.465 70.303c-12.954-2.663-22.694-14.13-22.694-27.871s9.741-25.209 22.694-27.872c12.954 2.664 22.695 14.13 22.695 27.872s-9.742 25.208-22.695 27.871z" opacity="1" data-original="#ffcec0"></path><path fill="#FDC72E" fill-rule="evenodd" d="M91.366 404.214c31.167 0 56.756 23.866 59.5 54.319h-119c2.744-30.453 28.333-54.319 59.5-54.319z" opacity="1" data-original="#fdc72e"></path><path fill="#FCDB35" fill-rule="evenodd" d="M134.292 458.533H31.866c2.578-28.618 25.332-51.417 53.931-54.061 25.535 4.894 45.395 26.783 48.495 54.061z" opacity="1" data-original="#fcdb35"></path><path fill="#FDB0A0" fill-rule="evenodd" d="M91.366 404.021c15.672 0 28.455-12.783 28.455-28.455s-12.783-28.455-28.455-28.455-28.455 12.783-28.455 28.455 12.783 28.455 28.455 28.455z" opacity="1" data-original="#fdb0a0"></path><path fill="#FFCEC0" fill-rule="evenodd" d="M85.605 403.438c-12.954-2.663-22.694-14.13-22.694-27.871s9.741-25.209 22.694-27.872c12.954 2.663 22.695 14.13 22.695 27.872s-9.742 25.208-22.695 27.871z" opacity="1" data-original="#ffcec0"></path><path fill="#E8333C" fill-rule="evenodd" d="M420.226 404.214c31.167 0 56.756 23.866 59.5 54.319h-119c2.744-30.453 28.332-54.319 59.5-54.319z" opacity="1" data-original="#e8333c"></path><path fill="#FB545C" fill-rule="evenodd" d="M463.152 458.533H360.726c2.578-28.618 25.332-51.417 53.931-54.061 25.535 4.894 45.395 26.783 48.495 54.061z" opacity="1" data-original="#fb545c"></path><circle cx="420.226" cy="375.566" r="28.455" fill="#FDB0A0" opacity="1" data-original="#fdb0a0"></circle><path fill="#FFCEC0" fill-rule="evenodd" d="M414.465 403.438c-12.954-2.663-22.694-14.13-22.694-27.871s9.741-25.209 22.694-27.872c12.954 2.663 22.695 14.13 22.695 27.872s-9.742 25.208-22.695 27.871z" opacity="1" data-original="#ffcec0"></path><path fill="#BAED2C" fill-rule="evenodd" d="M185.296 268.62c0 42.872 32.403 70.5 70.5 70.5 0-43.09-22.512-80.768-70.5-70.5z" opacity="1" data-original="#baed2c"></path><path fill="#A0D904" fill-rule="evenodd" d="M185.296 268.62c0 42.872 32.403 70.5 70.5 70.5-20.988-30.073-44.488-53.572-70.5-70.5z" opacity="1" data-original="#a0d904"></path><path fill="#BAED2C" fill-rule="evenodd" d="M326.297 268.62c0 42.872-32.403 70.5-70.5 70.5 0-43.09 22.512-80.768 70.5-70.5z" opacity="1" data-original="#baed2c"></path><path fill="#A0D904" fill-rule="evenodd" d="M326.297 268.62c0 42.872-32.403 70.5-70.5 70.5 20.988-30.073 44.488-53.572 70.5-70.5z" opacity="1" data-original="#a0d904"></path><circle cx="255.797" cy="202.485" r="59.502" fill="#F9AC00" transform="rotate(-20 255.872 202.957)" opacity="1" data-original="#f9ac00"></circle><path fill="#FCDB35" fill-rule="evenodd" d="M253.938 261.955c-32.002-.982-57.643-27.23-57.643-59.47s25.642-58.487 57.643-59.47c32.001.983 57.643 27.23 57.643 59.47s-25.642 58.488-57.643 59.47z" opacity="1" data-original="#fcdb35"></path><circle cx="255.797" cy="202.485" r="47.474" fill="#F19A00" opacity="1" data-original="#f19a00"></circle><path fill="#F9AC00" fill-rule="evenodd" d="M258.85 155.112c24.795 1.575 44.42 22.18 44.42 47.373s-19.625 45.799-44.42 47.373c-24.796-1.574-44.42-22.18-44.42-47.373s19.625-45.799 44.42-47.373z" opacity="1" data-original="#f9ac00"></path><path fill-rule="evenodd" d="M262.998 235.96v-3.379c2.407-.463 4.683-1.181 6.701-2.184 5.266-2.617 8.89-7.568 9.698-13.241.776-5.456-1.084-10.705-5.106-14.417-2.919-2.69-7.079-4.81-12.372-6.319-1.469-.41-3.005-.781-4.488-1.133-3.452-.81-7.366-1.74-9.177-3.147-.893-.694-1.41-1.431-1.458-2.102-.058-.771.503-1.48.842-1.832 1.535-1.595 5.85-2.93 10.824-2.26 3.831.535 6.24 2.043 6.925 3.321a6.999 6.999 0 1 0 12.325-6.637c-2.681-4.979-7.965-8.56-14.715-10.069v-3.552c0-3.87-3.133-6.998-6.998-6.998s-7 3.128-7 6.998v3.49c-4.24.921-8.358 2.781-11.459 6.011-3.37 3.509-5.042 7.972-4.707 12.552.341 4.665 2.769 8.989 6.839 12.146 4.214 3.263 9.698 4.56 14.535 5.712 1.397.328 2.717.641 3.883.969 4.15 1.181 5.988 2.482 6.714 3.152.759.699.818 1.547.735 2.14-.077.54-.431 1.87-2.075 2.68-5.408 2.699-15.776 1.08-17.89-2.791-1.858-3.389-6.11-4.642-9.503-2.781-3.391 1.86-4.636 6.112-2.779 9.5 3.003 5.49 9.026 8.98 15.708 10.503v3.668a7 7 0 0 0 13.998 0zm56.05 38.609a61.75 61.75 0 0 0-8.021-.55c-10.489 0-19.51 3.022-26.932 9.018-12.048 9.741-19.478 27.204-20.862 48.571 27.402-2.911 53.208-22.35 55.815-57.04zm-70.284 57.04c-1.384-21.367-8.814-38.83-20.862-48.571-9.251-7.481-20.988-10.32-34.955-8.469 2.608 34.69 28.412 54.129 55.817 57.04zM256 251.138c-26.828 0-48.654-21.83-48.654-48.658s21.826-48.648 48.654-48.648 48.652 21.82 48.652 48.648-21.826 48.658-48.652 48.658zm77.266 17.593c0 22.071-8.191 42.04-23.063 56.216-12.613 12.031-29.172 19.261-47.205 20.75v16.292c0 3.87-3.133 6.999-6.998 6.999s-7-3.128-7-6.999v-16.292c-18.03-1.489-34.591-8.719-47.204-20.75-14.873-14.176-23.063-34.145-23.063-56.216a6.992 6.992 0 0 1 5.536-6.84c20.56-4.401 38.694-.853 52.439 10.257 4.673 3.779 8.787 8.411 12.293 13.751v-21.17c-31.264-3.49-55.654-30.072-55.654-62.251 0-34.55 28.107-62.65 62.655-62.65s62.653 28.101 62.653 62.65c0 32.179-24.39 58.761-55.655 62.251v21.17c3.506-5.34 7.62-9.973 12.295-13.751 13.745-11.11 31.876-14.658 52.439-10.257a6.993 6.993 0 0 1 5.534 6.84zm54.464-14.32c0 72.638-59.095 131.727-131.73 131.727s-131.732-59.089-131.732-131.727S183.36 122.68 256 122.68s131.73 59.089 131.73 131.731zm14.001 0c0 80.36-65.376 145.729-145.731 145.729s-145.733-65.369-145.733-145.728S175.643 108.683 256 108.683s145.731 65.37 145.731 145.729zm69.74 196.889c-5.562-23.319-26.309-40.093-51.041-40.093s-45.48 16.774-51.042 40.093zm-72.382-75.631c0 11.771 9.574 21.338 21.34 21.338s21.338-9.568 21.338-21.338-9.572-21.329-21.338-21.329-21.34 9.568-21.34 21.329zm87.569 82.003c-1.484-16.46-9.03-31.721-21.25-42.942a66.23 66.23 0 0 0-21.05-13.082c7.01-6.459 11.408-15.709 11.408-25.98 0-19.478-15.852-35.331-35.337-35.331s-35.339 15.853-35.339 35.331c0 10.272 4.4 19.521 11.41 25.98a66.24 66.24 0 0 0-21.052 13.082c-12.217 11.221-19.764 26.481-21.248 42.942a7.033 7.033 0 0 0 1.804 5.36 7.008 7.008 0 0 0 5.168 2.265h118.513a7.011 7.011 0 0 0 5.168-2.265 7.02 7.02 0 0 0 1.804-5.36zM142.61 451.3c-5.564-23.319-26.309-40.093-51.042-40.093s-45.48 16.774-51.041 40.093zm-72.38-75.631c0 11.771 9.572 21.338 21.338 21.338s21.338-9.568 21.338-21.338-9.573-21.329-21.338-21.329-21.338 9.568-21.338 21.329zm87.566 82.003c-1.484-16.46-9.03-31.721-21.249-42.942a66.22 66.22 0 0 0-21.05-13.082c7.008-6.459 11.41-15.709 11.41-25.98 0-19.478-15.853-35.331-35.339-35.331s-35.339 15.853-35.339 35.331c0 10.272 4.4 19.521 11.41 25.98a66.24 66.24 0 0 0-21.052 13.082c-12.218 11.221-19.764 26.481-21.248 42.942a7.033 7.033 0 0 0 1.804 5.36 7.011 7.011 0 0 0 5.168 2.265h118.513a7.002 7.002 0 0 0 5.166-2.265 7.045 7.045 0 0 0 1.806-5.36zm211.591-339.503H471.47c-5.562-23.329-26.309-40.098-51.041-40.098s-45.48 16.769-51.042 40.098zm29.702-75.626c0 11.77 9.574 21.338 21.34 21.338s21.338-9.568 21.338-21.338S432.195 21.2 420.429 21.2s-21.34 9.573-21.34 21.343zM354.2 124.541a7.004 7.004 0 0 0 6.972 7.63h118.513c1.965 0 3.841-.829 5.168-2.28s1.983-3.393 1.804-5.35c-1.484-16.47-9.03-31.721-21.25-42.951a66.276 66.276 0 0 0-21.05-13.067c7.01-6.473 11.408-15.723 11.408-25.98 0-19.492-15.852-35.341-35.337-35.341s-35.339 15.848-35.339 35.341c0 10.257 4.4 19.507 11.41 25.98a66.302 66.302 0 0 0-21.052 13.067c-12.217 11.231-19.764 26.481-21.248 42.951zm-313.673-6.372H142.61c-5.564-23.329-26.309-40.098-51.042-40.098s-45.48 16.769-51.041 40.098zm29.704-75.626c0 11.77 9.572 21.338 21.338 21.338s21.338-9.568 21.338-21.338S103.334 21.2 91.569 21.2s-21.338 9.573-21.338 21.343zm-43.087 87.348a7.007 7.007 0 0 0 5.168 2.28h118.513c1.966 0 3.841-.829 5.166-2.28s1.981-3.393 1.806-5.35c-1.484-16.47-9.03-31.721-21.249-42.951a66.265 66.265 0 0 0-21.05-13.067c7.008-6.473 11.41-15.723 11.41-25.98 0-19.492-15.853-35.341-35.339-35.341S56.23 23.05 56.23 42.543c0 10.257 4.4 19.507 11.41 25.98A66.302 66.302 0 0 0 46.588 81.59C34.37 92.821 26.824 108.071 25.34 124.541a6.997 6.997 0 0 0 1.804 5.35zm121.182-85.999c-3.441 1.759-7.659.4-9.421-3.042s-.405-7.649 3.037-9.418C177.456 13.232 215.831 4.001 256 4.001c28.947 0 57.153 4.859 84.061 14.47l-1.248-1.861a7.002 7.002 0 0 1 11.636-7.79l14.02 20.953a7 7 0 0 1 .693 6.468 6.999 6.999 0 0 1-4.931 4.237l-23.955 5.553a7 7 0 0 1-8.397-5.245 6.991 6.991 0 0 1 5.24-8.396l2.599-.602c-25.503-9.158-52.256-13.79-79.715-13.79-37.928 0-74.154 8.71-107.674 25.893zM33.018 368.468C14.817 332.959 5.589 294.581 5.589 254.411c0-28.949 4.862-57.151 14.471-84.061l-1.864 1.253c-3.214 2.149-7.561 1.277-9.712-1.933a7.001 7.001 0 0 1 1.924-9.712l20.947-14.017a6.97 6.97 0 0 1 6.468-.689 7.01 7.01 0 0 1 4.246 4.926l5.547 23.96a6.992 6.992 0 0 1-5.242 8.392c-3.762.882-7.526-1.47-8.397-5.239l-.603-2.593C24.22 200.2 19.59 226.952 19.59 254.412c0 37.929 8.71 74.151 25.889 107.67a6.995 6.995 0 0 1-3.037 9.418 6.903 6.903 0 0 1-3.188.781 6.993 6.993 0 0 1-6.236-3.813zm312.246 104.923c-28.346 11.568-58.379 17.429-89.265 17.429-22.564 0-44.757-3.162-66.167-9.399l2.544-.752a7 7 0 0 0 4.726-8.7 6.992 6.992 0 0 0-8.7-4.719l-23.577 6.97a7.023 7.023 0 0 0-4.668 4.54 6.999 6.999 0 0 0 1.081 6.411l15.257 20.07a6.988 6.988 0 0 0 5.577 2.757 6.897 6.897 0 0 0 4.23-1.432 6.998 6.998 0 0 0 1.335-9.809l-1.363-1.788c22.571 6.541 45.956 9.852 69.725 9.852 32.708 0 64.521-6.213 94.554-18.47 3.579-1.461 5.296-5.553 3.837-9.134-1.461-3.576-5.549-5.287-9.126-3.827zm158.249-134.243a7.004 7.004 0 0 1-1.923 9.712l-20.949 14.021a6.998 6.998 0 0 1-3.894 1.176 6.992 6.992 0 0 1-6.82-5.418l-5.547-23.951a7.001 7.001 0 0 1 5.24-8.401c3.768-.877 7.528 1.475 8.4 5.244l.602 2.598c9.153-25.512 13.785-52.259 13.785-79.718 0-34.94-7.444-68.584-22.122-99.982a7.002 7.002 0 0 1 3.378-9.308 7.006 7.006 0 0 1 9.305 3.379c15.551 33.278 23.441 68.907 23.441 105.911 0 28.949-4.863 57.161-14.475 84.057l1.865-1.239c3.21-2.15 7.563-1.292 9.712 1.918z" fill="#000000" opacity="1" data-original="#000000"></path></g></svg>