<svg xmlns="http://www.w3.org/2000/svg" version="1.1" xmlns:xlink="http://www.w3.org/1999/xlink" width="512" height="512" x="0" y="0" viewBox="0 0 173.397 173.397" style="enable-background:new 0 0 512 512" xml:space="preserve" fill-rule="evenodd" class=""><g><path fill="#FEC9A3" d="m39.746 101.267-7.573-8.374V86.22H47.32v6.672z" opacity="1" data-original="#fec9a3" class=""></path><path fill="#F29C1F" d="m47.319 91.242-7.573 8.374-7.572-8.374-9.917 2.312c-6.115 1.426-11.419 5.14-11.419 11.42v13.093h57.817v-13.094c0-6.28-5.304-9.993-11.42-11.419z" opacity="1" data-original="#f29c1f" class=""></path><path fill="#BE694F" d="M28.539 74.035h22.66a3.622 3.622 0 0 0 3.612-3.611c0-3.514.334-8.46-4.81-8.46v-.49c0-7.311-25.319-11.877-25.319 8.929a3.643 3.643 0 0 0 3.632 3.632z" opacity="1" data-original="#be694f" class=""></path><path fill="#FEC9A3" d="M50.954 70.332c-5.66-.72-5.496-2.397-7.308-5.031-1.81 2.634-9.446 4.311-15.107 5.03v7.646c0 6.164 5.043 11.207 11.208 11.207 6.164 0 11.207-5.044 11.207-11.207zM141.222 86.22h-15.146v6.673l7.573 8.375 7.573-8.375z" opacity="1" data-original="#fec9a3" class=""></path><path fill="#BE694F" d="M122.441 74.034H145.103a3.622 3.622 0 0 0 3.612-3.611c0-3.514.334-8.46-4.81-8.46v-.491c0-7.311-25.32-11.877-25.32 8.93a3.643 3.643 0 0 0 3.632 3.632z" opacity="1" data-original="#be694f" class=""></path><path fill="#43BDFA" d="m141.222 91.242-7.573 8.375-7.573-8.375-9.918 2.313c-6.115 1.426-11.419 5.14-11.419 11.42v13.094h57.82v-13.095c0-6.28-5.304-9.993-11.42-11.42z" opacity="1" data-original="#43bdfa"></path><path fill="#FEC9A3" d="M144.858 70.33v7.646c0 6.164-5.044 11.208-11.208 11.208s-11.209-5.043-11.209-11.208v-7.645c5.661-.72 13.298-2.397 15.109-5.031 1.811 2.634 1.647 4.311 7.308 5.03z" opacity="1" data-original="#fec9a3" class=""></path><path fill="#A890E8" d="M96.457 94.333H76.938l-8.232.14-4.549 1.061c-7.88 1.838-14.716 6.624-14.716 14.717v16.876h30.47l6.787-1.78 6.786 1.78h30.47V110.25c0-8.095-6.835-12.879-14.716-14.717l-4.549-1.06z" opacity="1" data-original="#a890e8"></path><path fill="#FEC9A3" d="m96.457 94.333-9.76 7.215-9.76-7.215v-8.25h19.52z" opacity="1" data-original="#fec9a3" class=""></path><path fill="#BE694F" d="M72.253 70.378H101.458a4.668 4.668 0 0 0 4.655-4.654c0-4.529.43-10.903-6.198-10.903v-.633c0-9.421-32.632-15.306-32.632 11.509a4.695 4.695 0 0 0 4.681 4.68z" opacity="1" data-original="#be694f" class=""></path><path fill="#FFD731" d="m92.465 104.887-.847-2.331-4.92-2.788-4.051 2.016-1.716 3.103 1.494 6.83 4.175 1.369 4.37-1.369z" opacity="1" data-original="#ffd731"></path><path fill="#FFD731" d="M79.912 127.127h13.572l-2.513-15.41h-8.546z" opacity="1" data-original="#ffd731"></path><path fill="#FEC9A3" d="M72.253 65.605v9.853c0 7.944 6.5 14.444 14.445 14.444 7.944 0 14.444-6.5 14.444-14.444v-9.853c-7.295-.927-7.084-3.088-9.418-6.484-2.334 3.396-12.175 5.557-19.47 6.484z" opacity="1" data-original="#fec9a3" class=""></path><g fill="#CCBDF2"><path d="m68.706 94.473 8.232-1.92 9.76 7.215-8.088 7.179z" fill="#CCBDF2" opacity="1" data-original="#ccbdf2"></path><path d="m104.689 94.473-8.232-1.92-9.76 7.215 8.089 7.179z" fill="#CCBDF2" opacity="1" data-original="#ccbdf2"></path></g><path d="M123.961 128.827H49.435a1.693 1.693 0 0 1-1.694-1.693v-16.879c0-7.909 5.992-14.028 16.028-16.368l12.783-2.981a1.694 1.694 0 0 1 .769 3.299l-12.783 2.98c-4.032.94-13.41 4.096-13.41 13.07v15.186h71.14v-15.186c0-8.974-9.378-12.13-13.41-13.07l-12.783-2.98a1.693 1.693 0 1 1 .769-3.299l12.783 2.98c10.036 2.342 16.027 8.46 16.027 16.37v16.878c0 .935-.758 1.693-1.693 1.693z" fill="#000000" opacity="1" data-original="#000000" class=""></path><path d="M76.937 94.248a1.693 1.693 0 0 1-1.694-1.693v-6.473a1.693 1.693 0 0 1 3.387 0v6.473c0 .935-.758 1.693-1.693 1.693zM96.46 94.248a1.693 1.693 0 0 1-1.694-1.693v-6.473a1.693 1.693 0 1 1 3.387 0v6.473c0 .935-.759 1.693-1.694 1.693z" fill="#000000" opacity="1" data-original="#000000" class=""></path><path d="M86.698 91.596c-8.9 0-16.14-7.24-16.14-16.14V65.6a1.693 1.693 0 1 1 3.386 0v9.855c0 7.032 5.722 12.753 12.754 12.753 7.033 0 12.754-5.72 12.754-12.753V65.6a1.693 1.693 0 1 1 3.386 0v9.855c0 8.9-7.24 16.14-16.14 16.14z" fill="#000000" opacity="1" data-original="#000000" class=""></path><path d="M101.461 72.069h-.316a1.694 1.694 0 0 1 0-3.387h.316a2.965 2.965 0 0 0 2.962-2.962l.002-.793c.014-2.643.032-5.933-1.447-7.419-.669-.673-1.67-.999-3.06-.999a1.694 1.694 0 0 1-1.694-1.693v-.633c0-2.88-5.533-6.226-12.667-6.226-4.45 0-8.465 1.372-11.306 3.863-3.502 3.07-5.277 7.738-5.277 13.873a2.992 2.992 0 0 0 2.988 2.99l.289-.001a1.693 1.693 0 0 1 0 3.387h-.289a6.383 6.383 0 0 1-6.375-6.376c0-7.052 2.224-12.73 6.431-16.42 3.46-3.033 8.267-4.703 13.54-4.703 7.322 0 15.134 3.446 15.978 8.674 1.561.249 2.85.877 3.844 1.876 2.47 2.484 2.45 6.554 2.432 9.825l-.003.775c0 3.5-2.847 6.349-6.348 6.349z" fill="#000000" opacity="1" data-original="#000000" class=""></path><path d="M101.147 67.295c-.071 0-.143-.005-.216-.014-6.412-.815-7.834-2.623-9.54-5.502-4.598 3.348-14.453 4.934-18.927 5.502a1.693 1.693 0 1 1-.427-3.36c9.392-1.193 16.743-3.51 18.292-5.764a1.693 1.693 0 0 1 2.791 0c.455.662.818 1.276 1.138 1.818 1.295 2.191 1.944 3.291 7.1 3.947a1.693 1.693 0 0 1-.211 3.373zM78.609 108.644a1.692 1.692 0 0 1-1.326-.64l-9.906-12.476a1.693 1.693 0 0 1 2.653-2.106l8.793 11.075 5.189-4.606-8.082-5.974a1.693 1.693 0 1 1 2.013-2.724l9.762 7.216a1.694 1.694 0 0 1 .117 2.628l-8.09 7.18c-.31.276-.71.427-1.123.427z" fill="#000000" opacity="1" data-original="#000000" class=""></path><path d="M94.787 108.644c-.412 0-.813-.15-1.124-.427l-8.089-7.18a1.694 1.694 0 0 1 .117-2.628l9.761-7.216a1.694 1.694 0 0 1 2.014 2.724l-8.082 5.974 5.19 4.606 8.792-11.075a1.693 1.693 0 1 1 2.652 2.106l-9.904 12.475a1.692 1.692 0 0 1-1.327.641z" fill="#000000" opacity="1" data-original="#000000" class=""></path><path d="M90.972 113.414h-8.547a1.694 1.694 0 0 1-1.655-1.331l-1.494-6.832a1.693 1.693 0 1 1 3.308-.723l1.203 5.499h5.822l1.203-5.5a1.695 1.695 0 0 1 3.308.725l-1.494 6.83a1.693 1.693 0 0 1-1.654 1.332z" fill="#000000" opacity="1" data-original="#000000" class=""></path><path d="M79.913 128.827a1.691 1.691 0 0 1-1.674-1.966l2.514-15.413a1.693 1.693 0 1 1 3.342.545l-2.513 15.413a1.693 1.693 0 0 1-1.669 1.421zm13.57 0c-.815 0-1.534-.59-1.67-1.42L89.3 111.992a1.694 1.694 0 0 1 3.343-.545l2.513 15.413a1.693 1.693 0 0 1-1.673 1.966zM63.025 97.514c-.296 0-.595-.077-.868-.24-1.511-.905-3.297-1.601-5.306-2.07l-9.918-2.313a1.693 1.693 0 1 1 .77-3.298l9.917 2.313c2.352.548 4.463 1.377 6.277 2.462a1.694 1.694 0 0 1-.872 3.146zm-13.59 22.25H10.833a1.693 1.693 0 0 1-1.694-1.693v-13.096c0-6.325 4.759-11.21 12.73-13.07l9.917-2.312a1.693 1.693 0 1 1 .77 3.298l-9.919 2.313c-3.04.709-10.111 3.08-10.111 9.771v11.402h36.909a1.694 1.694 0 0 1 0 3.387z" fill="#000000" opacity="1" data-original="#000000" class=""></path><path d="M32.17 92.935a1.694 1.694 0 0 1-1.693-1.693V86.22a1.693 1.693 0 0 1 3.387 0v5.022c0 .935-.758 1.693-1.693 1.693zM47.318 92.935a1.694 1.694 0 0 1-1.694-1.693V86.22a1.693 1.693 0 0 1 3.387 0v5.022c0 .935-.758 1.693-1.693 1.693z" fill="#000000" opacity="1" data-original="#000000" class=""></path><path d="M39.744 90.878c-7.114 0-12.902-5.788-12.902-12.902V70.33a1.693 1.693 0 0 1 3.387 0v7.645c0 5.247 4.268 9.516 9.515 9.516 5.247 0 9.516-4.269 9.516-9.515V70.33a1.693 1.693 0 1 1 3.387 0v7.645c0 7.115-5.788 12.903-12.903 12.903z" fill="#000000" opacity="1" data-original="#000000" class=""></path><path d="M51.198 75.727h-.244a1.693 1.693 0 1 1 0-3.387h.244a1.92 1.92 0 0 0 1.919-1.918l.002-.617c.01-1.98.023-4.446-1.012-5.487-.444-.446-1.133-.663-2.106-.663a1.693 1.693 0 0 1-1.693-1.694v-.49c0-2.017-4.215-4.451-9.449-4.451-3.36 0-6.387 1.03-8.522 2.902-2.63 2.308-3.965 5.833-3.965 10.48 0 1.068.87 1.938 1.939 1.938h.225a1.693 1.693 0 0 1 0 3.387h-.225a5.332 5.332 0 0 1-5.326-5.326c0-5.584 1.77-10.088 5.12-13.025 2.753-2.414 6.572-3.743 10.754-3.743 5.71 0 11.84 2.565 12.726 6.782 1.172.232 2.151.74 2.923 1.515 2.028 2.039 2.011 5.284 1.998 7.892l-.003.6a5.31 5.31 0 0 1-5.305 5.305z" fill="#000000" opacity="1" data-original="#000000" class=""></path><path d="M50.956 72.023c-.072 0-.144-.004-.216-.013-4.79-.61-6.155-1.964-7.47-4.101-3.577 2.382-10.344 3.57-14.522 4.1a1.693 1.693 0 0 1-.427-3.36c7.074-.898 12.801-2.67 13.928-4.31a1.692 1.692 0 0 1 2.791 0c.36.524.646 1.007.897 1.433.97 1.643 1.414 2.393 5.23 2.878a1.693 1.693 0 0 1-.211 3.373zM39.745 101.311c-.462 0-.922-.188-1.257-.557l-7.573-8.376a1.693 1.693 0 1 1 2.512-2.271L41 98.482a1.693 1.693 0 0 1-1.255 2.829z" fill="#000000" opacity="1" data-original="#000000" class=""></path><path d="M39.743 101.311a1.693 1.693 0 0 1-1.255-2.83l7.574-8.374a1.693 1.693 0 1 1 2.511 2.271L41 100.753a1.69 1.69 0 0 1-1.257.558zM110.371 97.514a1.692 1.692 0 0 1-.871-3.146c1.814-1.085 3.925-1.914 6.276-2.462l9.918-2.313a1.693 1.693 0 0 1 .769 3.299l-9.918 2.312c-2.008.469-3.794 1.165-5.306 2.07-.272.163-.572.24-.868.24zm52.194 22.25H123.96a1.694 1.694 0 0 1 0-3.386h36.91v-11.403c0-6.69-7.073-9.062-10.114-9.77l-9.916-2.314a1.693 1.693 0 0 1 .769-3.298l9.916 2.313c7.973 1.858 12.732 6.744 12.732 13.07v13.095c0 .935-.759 1.693-1.693 1.693z" fill="#000000" opacity="1" data-original="#000000" class=""></path><path d="M126.078 92.935a1.694 1.694 0 0 1-1.694-1.693V86.22a1.693 1.693 0 0 1 3.388 0v5.022c0 .935-.759 1.693-1.694 1.693zM141.225 92.935a1.694 1.694 0 0 1-1.694-1.693V86.22a1.693 1.693 0 0 1 3.387 0v5.022c0 .935-.758 1.693-1.693 1.693z" fill="#000000" opacity="1" data-original="#000000" class=""></path><path d="M133.652 90.878c-7.114 0-12.902-5.788-12.902-12.902V70.33a1.693 1.693 0 1 1 3.386 0v7.645c0 5.247 4.269 9.516 9.516 9.516s9.516-4.269 9.516-9.515V70.33a1.693 1.693 0 0 1 3.386 0v7.645c0 7.115-5.788 12.903-12.902 12.903z" fill="#000000" opacity="1" data-original="#000000" class=""></path><path d="M145.106 75.727h-.245a1.693 1.693 0 1 1 0-3.387h.245a1.92 1.92 0 0 0 1.918-1.918l.003-.617c.01-1.98.023-4.446-1.013-5.487-.444-.446-1.133-.663-2.106-.663a1.694 1.694 0 0 1-1.693-1.694v-.49c0-2.017-4.215-4.451-9.449-4.451-3.36 0-6.386 1.03-8.521 2.902-2.631 2.308-3.966 5.833-3.966 10.48 0 1.068.87 1.938 1.94 1.938h.224a1.693 1.693 0 0 1 0 3.387h-.224a5.332 5.332 0 0 1-5.326-5.326c0-5.584 1.77-10.088 5.12-13.025 2.752-2.414 6.571-3.743 10.753-3.743 5.711 0 11.841 2.565 12.727 6.782 1.172.232 2.15.74 2.922 1.515 2.028 2.039 2.01 5.284 1.996 7.892v.6a5.31 5.31 0 0 1-5.305 5.305z" fill="#000000" opacity="1" data-original="#000000" class=""></path><path d="M144.863 72.023c-.071 0-.143-.004-.215-.013-4.791-.61-6.156-1.964-7.47-4.101-3.577 2.382-10.344 3.57-14.522 4.1a1.693 1.693 0 1 1-.427-3.359c7.074-.898 12.801-2.671 13.928-4.31a1.693 1.693 0 0 1 2.79 0c.361.523.646 1.006.898 1.432.97 1.643 1.414 2.393 5.23 2.878a1.693 1.693 0 0 1-.212 3.373zM133.652 101.311c-.462 0-.923-.188-1.257-.557l-7.573-8.376a1.693 1.693 0 1 1 2.512-2.271l7.573 8.375a1.693 1.693 0 0 1-1.255 2.829z" fill="#000000" opacity="1" data-original="#000000" class=""></path><path d="M133.651 101.311a1.694 1.694 0 0 1-1.256-2.83l7.574-8.374a1.694 1.694 0 0 1 2.512 2.271l-7.574 8.375c-.334.37-.794.558-1.256.558z" fill="#000000" opacity="1" data-original="#000000" class=""></path></g></svg>