<svg xmlns="http://www.w3.org/2000/svg" version="1.1" xmlns:xlink="http://www.w3.org/1999/xlink" width="512" height="512" x="0" y="0" viewBox="0 0 512.003 512.003" style="enable-background:new 0 0 512 512" xml:space="preserve"><g><path d="M504.252 329.97H7.751V35.8c0-15.63 12.67-28.3 28.3-28.3h439.902c15.63 0 28.3 12.67 28.3 28.3v294.17z" style="" fill="#EFFBFF" data-original="#effbff"></path><path d="M504.249 35.8v294.173h-19.96V35.8c0-15.634-12.677-28.301-28.301-28.301h19.96c15.634 0 28.301 12.667 28.301 28.301z" style="" fill="#D6F6FD" data-original="#d6f6fd"></path><path d="M475.952 407.864H36.05c-15.63 0-28.3-12.67-28.3-28.3V329.97h496.501v49.595c.001 15.629-12.669 28.299-28.299 28.299z" style="" fill="#A8CFEE" data-original="#a8cfee"></path><path d="M504.249 329.973v49.59c0 15.634-12.667 28.301-28.301 28.301h-19.98c15.634 0 28.301-12.667 28.301-28.301v-49.59h19.98z" style="" fill="#88BDE7" data-original="#88bde7"></path><path d="M202.236 407.864h107.528v96.639H202.236z" style="" fill="#A8CFEE" data-original="#a8cfee"></path><path d="M290.336 407.864h19.428v96.639h-19.428z" style="" fill="#88BDE7" data-original="#88bde7"></path><circle cx="158.835" cy="168.735" r="112.367" style="" fill="#FFE54C" data-original="#ffe54c"></circle><path d="M271.205 168.736c0 62.057-50.309 112.366-112.367 112.366-13.926 0-27.252-2.527-39.56-7.173a112.803 112.803 0 0 0 20 1.778c62.057 0 112.366-50.309 112.366-112.366 0-48.132-30.269-89.2-72.806-105.194 52.517 9.431 92.367 55.354 92.367 110.589z" style="" fill="#FFD500" data-original="#ffd500"></path><circle cx="353.165" cy="168.735" r="112.367" style="" fill="#00D6A0" data-original="#00d6a0"></circle><path d="M465.528 168.736c0 62.057-50.309 112.366-112.366 112.366-13.926 0-27.262-2.537-39.57-7.183a112.013 112.013 0 0 0 20.02 1.788c62.057 0 112.367-50.309 112.367-112.366 0-48.132-30.259-89.19-72.797-105.184 52.507 9.431 92.346 55.354 92.346 110.579z" style="" fill="#00C376" data-original="#00c376"></path><path d="M504.252 329.97H7.751V35.8c0-15.63 12.67-28.3 28.3-28.3h439.902c15.63 0 28.3 12.67 28.3 28.3v294.17zM475.952 407.864H36.05c-15.63 0-28.3-12.67-28.3-28.3V329.97h496.501v49.595c.001 15.629-12.669 28.299-28.299 28.299z" style="stroke-linecap: round; stroke-linejoin: round; stroke-miterlimit: 10;" fill="none" stroke="#000000" stroke-width="15px" stroke-linecap="round" stroke-linejoin="round" stroke-miterlimit="10" data-original="#000000"></path><path d="M309.764 471.101v33.402H202.236v-96.639h107.528v28.015M165.795 504.348h180.41M241.03 368.917h29.943M254.349 227.953c-19.823 31.906-55.188 53.149-95.514 53.149-62.059 0-112.367-50.308-112.367-112.367 0-25.34 8.388-48.72 22.538-67.517M93.827 77.071c18.35-13.038 40.784-20.703 65.008-20.703 40.855 0 76.617 21.803 96.286 54.409M199.925 135.245v66.979" style="stroke-linecap: round; stroke-linejoin: round; stroke-miterlimit: 10;" fill="none" stroke="#000000" stroke-width="15px" stroke-linecap="round" stroke-linejoin="round" stroke-miterlimit="10" data-original="#000000"></path><path d="M117.745 135.245v46.089c0 7.849 3.893 13.133 10.508 17.359 3.221 2.058 7.29 3.524 12.346 3.531 4.379.006 8.038-1.008 11.064-2.532 7.708-3.882 12.623-9.776 12.623-18.407v-46.041" style="stroke-linecap: round; stroke-linejoin: round; stroke-miterlimit: 10;" fill="none" stroke="#000000" stroke-width="15px" stroke-linecap="round" stroke-linejoin="round" stroke-miterlimit="10" data-original="#000000"></path><circle cx="353.165" cy="168.735" r="112.367" style="stroke-linecap: round; stroke-linejoin: round; stroke-miterlimit: 10;" fill="none" stroke="#000000" stroke-width="15px" stroke-linecap="round" stroke-linejoin="round" stroke-miterlimit="10" data-original="#000000"></circle><path d="m368.876 135.245 47.119 66.979M412.679 135.245l-47.185 66.979M290.336 135.245v46.089c0 7.849 3.893 13.133 10.508 17.359 3.221 2.058 7.29 3.524 12.346 3.531 4.379.006 8.038-1.008 11.064-2.532 7.708-3.882 12.623-9.776 12.623-18.407v-46.041" style="stroke-linecap: round; stroke-linejoin: round; stroke-miterlimit: 10;" fill="none" stroke="#000000" stroke-width="15px" stroke-linecap="round" stroke-linejoin="round" stroke-miterlimit="10" data-original="#000000"></path></g></svg>