<svg xmlns="http://www.w3.org/2000/svg" version="1.1" xmlns:xlink="http://www.w3.org/1999/xlink" width="512" height="512" x="0" y="0" viewBox="0 0 52 60" style="enable-background:new 0 0 512 512" xml:space="preserve"><g><g fill="none" fill-rule="nonzero"><rect width="11" height="26" x="1" y="33" fill="#FF9801" rx="3" opacity="1" data-original="#ff9801"></rect><path fill="#F57C00" d="M9 33H6a3 3 0 0 1 3 3v20a3 3 0 0 1-3 3h3a3 3 0 0 0 3-3V36a3 3 0 0 0-3-3z" opacity="1" data-original="#f57c00"></path><path fill="#FFE0B2" d="M45 47h-2a3 3 0 0 1 0 6h-2a3 3 0 0 1 0 6H23c-1.53.024-3.05-.244-4.48-.79-.98-.39-1.84-1.02-2.79-1.48A7.482 7.482 0 0 0 12.5 56H12V36a10.633 10.633 0 0 0 5.74-1.69c3.61-2.3 9.08-6.48 7.9-11.8-.4-1.79-.55-3.54 1.36-4.51 2.12-1.08 4.15.29 5.14 2.02C35.47 25.85 29.65 35 29.65 35H44a3 3 0 0 1 0 6h1a3 3 0 0 1 0 6z" opacity="1" data-original="#ffe0b2"></path><path fill="#DFC49C" d="M47.12 46.12A3 3 0 0 0 45 41h-1a3 3 0 0 0 0-6h-3a3 3 0 0 1 0 6h1a3 3 0 0 1 0 6h-2a3 3 0 0 1 0 6h-2a3 3 0 0 1 0 6h3a3 3 0 0 0 0-6h2a3 3 0 0 0 0-6h2c.796 0 1.558-.317 2.12-.88zM29.14 20.02c2.222 3.89.37 9.259-1.109 12.4A1.8 1.8 0 0 0 29.65 35s5.82-9.15 2.49-14.98c-.983-1.719-2.993-3.079-5.1-2.038a5.084 5.084 0 0 1 2.1 2.038z" opacity="1" data-original="#dfc49c"></path><path fill="#FFDC00" d="M48.019 11c-9.01 0-9.01-10-9.01-10s0 10-9.009 10c9.009 0 9.009 10 9.009 10s0-10 9.01-10zM18 20c-6 0-6-7-6-7s0 7-6 7c6 0 6 7 6 7s0-7 6-7z" opacity="1" data-original="#ffdc00"></path><g fill="#000"><path d="M49 44a3.987 3.987 0 0 0-1.966-3.425c.62-.715.963-1.629.966-2.575a4 4 0 0 0-4-4H31.368c1.564-2.978 4.406-9.635 1.64-14.477-1.217-2.127-3.76-3.791-6.461-2.415-2.818 1.432-2.187 4.261-1.883 5.619.775 3.484-1.734 7.1-7.458 10.74a9.7 9.7 0 0 1-4.367 1.472A3.993 3.993 0 0 0 9 32H4a4 4 0 0 0-4 4v20a4 4 0 0 0 4 4h5a4 4 0 0 0 3.852-2.98c.85.045 1.681.255 2.45.618.386.183.755.4 1.125.614.552.337 1.127.634 1.721.89 1.548.59 3.195.882 4.852.858h18a4 4 0 0 0 3.314-6.237 3.982 3.982 0 0 0 2-6A3.959 3.959 0 0 0 49 44zM9 58H4a2 2 0 0 1-2-2V36a2 2 0 0 1 2-2h5a2 2 0 0 1 2 2v20a2 2 0 0 1-2 2zm37.413-12.587A1.983 1.983 0 0 1 45 46h-7a1 1 0 0 0 0 2h5a2 2 0 1 1 0 4h-5a1 1 0 0 0 0 2h3a2 2 0 1 1 0 4H23c-1.4.024-2.79-.217-4.1-.712a11.969 11.969 0 0 1-1.469-.766 17.845 17.845 0 0 0-1.267-.689 8.551 8.551 0 0 0-3.164-.8V36.951a11.72 11.72 0 0 0 5.279-1.8c6.51-4.142 9.315-8.469 8.337-12.863-.452-2.023-.249-2.849.838-3.4 1.764-.9 3.231.6 3.818 1.625 2.989 5.234-2.411 13.861-2.466 13.948A1 1 0 0 0 29.65 36H44a2 2 0 1 1 0 4h-6a1 1 0 0 0 0 2h7a2 2 0 0 1 1.413 3.413zM39.009 0a1 1 0 0 0-1 .971V1c0 .368-.091 9-8.009 9a1 1 0 0 0 0 2c7.887 0 8.008 8.634 8.009 9a1 1 0 0 0 2 .027V21c0-.368.091-9 8.01-9a1 1 0 0 0 0-2c-7.888 0-8.008-8.634-8.01-9a1 1 0 0 0-1-1zm4.451 11a9.5 9.5 0 0 0-4.451 5.036A9.494 9.494 0 0 0 34.558 11a9.494 9.494 0 0 0 4.451-5.036A9.5 9.5 0 0 0 43.46 11z" fill="#000000" opacity="1" data-original="#000000"></path><path d="M13 13v-.006A1 1 0 0 0 11 13c0 .245-.084 6-5 6a1 1 0 0 0 0 2c4.916 0 5 5.757 5 6v.006A1 1 0 0 0 13 27c0-.245.084-6 5-6a1 1 0 0 0 0-2c-4.916 0-5-5.757-5-6zm1.344 7A6.721 6.721 0 0 0 12 22.713 6.721 6.721 0 0 0 9.656 20 6.715 6.715 0 0 0 12 17.287 6.715 6.715 0 0 0 14.344 20zM48 22a1 1 0 0 0-2 0v2a1 1 0 0 0 2 0zM47 31a1 1 0 0 0 1-1v-2a1 1 0 0 0-2 0v2a1 1 0 0 0 1 1zM51 27a1 1 0 0 0 0-2h-2a1 1 0 0 0 0 2zM45 25h-2a1 1 0 0 0 0 2h2a1 1 0 0 0 0-2zM21.793 9.207l1.5 1.5a1 1 0 0 0 1.414-1.414l-1.5-1.5a1 1 0 1 0-1.414 1.414zM18.793 6.207a1 1 0 0 0 1.414-1.414l-1.5-1.5a1 1 0 0 0-1.414 1.414zM17.293 10.707a1 1 0 0 0 1.414 0l1.5-1.5a1 1 0 1 0-1.414-1.414l-1.5 1.5a1 1 0 0 0 0 1.414zM22.5 6.5a1 1 0 0 0 .707-.293l1.5-1.5a1 1 0 1 0-1.414-1.414l-1.5 1.5A1 1 0 0 0 22.5 6.5z" fill="#000000" opacity="1" data-original="#000000"></path></g></g></g></svg>