<svg xmlns="http://www.w3.org/2000/svg" version="1.1" xmlns:xlink="http://www.w3.org/1999/xlink" width="512" height="512" x="0" y="0" viewBox="0 0 52 60" style="enable-background:new 0 0 512 512" xml:space="preserve"><g><g fill="none" fill-rule="nonzero"><g transform="translate(1)" fill="none"><rect width="50" height="36" y="7" fill="#F5F5F5" rx="2" opacity="1" data-original="#f5f5f5"></rect><path fill="#CFD8DC" d="M48 7h-3a2 2 0 0 1 2 2v32a2 2 0 0 1-2 2h3a2 2 0 0 0 2-2V9a2 2 0 0 0-2-2z" opacity="1" data-original="#cfd8dc"></path><g fill="#A0522D"><path d="m14.3 43-.87 5-.69 4-.78 4.51A3.009 3.009 0 0 1 9 59a2.922 2.922 0 0 1-.51-.04 3.015 3.015 0 0 1-2.45-3.47L8.2 43zM14.43 7l.61-3.51a3.004 3.004 0 0 1 5.92 1.02L20.53 7zM29.47 7l-.43-2.49a3.004 3.004 0 1 1 5.92-1.02L35.57 7z" fill="#A0522D" opacity="1"></path></g><path fill="#783E22" d="M34.96 3.49a2.971 2.971 0 0 0-4.46-2.074 3.011 3.011 0 0 1 1.46 2.074L32.57 7h3z" opacity="1" data-original="#783e22"></path><path fill="#783E22" d="M43.96 55.49 41.8 43h-3l2.16 12.49a3 3 0 0 1-1.469 3.1c.458.268.979.41 1.509.41.17.002.341-.012.51-.04a3.015 3.015 0 0 0 2.45-3.47zM13.43 48h23.14l.69 4H12.74z" opacity="1" data-original="#783e22"></path><circle cx="25" cy="25" r="14" fill="#F44335" opacity="1" data-original="#f44335"></circle><path fill="#C81E1E" d="M25 11c-.501 0-1.002.029-1.5.083a14 14 0 0 1 0 27.834A14 14 0 1 0 25 11z" opacity="1" data-original="#c81e1e"></path><path fill="#F5F5F5" d="M20 20.116v9.768a1.029 1.029 0 0 0 1.479 1L30.435 26a1.162 1.162 0 0 0 0-1.994l-8.956-4.884a1.029 1.029 0 0 0-1.479.994z" opacity="1" data-original="#f5f5f5"></path></g><g fill="#000"><path d="M49 6H37.411l-.467-2.685a4.003 4.003 0 0 0-7.889 1.365L29.283 6h-6.566l.228-1.32a4.003 4.003 0 0 0-7.89-1.361L14.589 6H3a3 3 0 0 0-3 3v32a3 3 0 0 0 3 3h5.012L6.055 55.32a4.021 4.021 0 0 0 3.259 4.624 4.009 4.009 0 0 0 4.631-3.263L14.583 53h22.834l.639 3.685a4.007 4.007 0 0 0 4.629 3.259 4.022 4.022 0 0 0 3.26-4.625L43.988 44H49a3 3 0 0 0 3-3V9a3 3 0 0 0-3-3zM31.025 4.34a2.004 2.004 0 0 1 3.95-.679L35.381 6h-4.069zm-14-.675a2.004 2.004 0 0 1 3.951.675L20.688 6h-4.069zm-5.048 52.67a2.004 2.004 0 1 1-3.951-.674L10.042 44h4.07zM35.858 44l.52 3H15.622l.52-3zm-20.929 7 .347-2h21.448l.347 2zm29.046 4.66a2.004 2.004 0 1 1-3.95.679L37.888 44h4.07zM50 41a1 1 0 0 1-1 1H3a1 1 0 0 1-1-1V9a1 1 0 0 1 1-1h46a1 1 0 0 1 1 1z" fill="#000000" opacity="1" data-original="#000000"></path><path d="M26 10c-8.284 0-15 6.716-15 15s6.716 15 15 15 15-6.716 15-15c-.01-8.28-6.72-14.99-15-15zm0 28c-7.18 0-13-5.82-13-13s5.82-13 13-13 13 5.82 13 13c-.008 7.176-5.824 12.992-13 13z" fill="#000000" opacity="1" data-original="#000000"></path><path d="m31.914 23.125-8.957-4.884a1.942 1.942 0 0 0-1.934.035A2.141 2.141 0 0 0 20 20.116v9.768a2.141 2.141 0 0 0 1.023 1.84 1.94 1.94 0 0 0 1.934.035l8.958-4.884a2.162 2.162 0 0 0 0-3.75zm-.957 1.994L22.045 30S22 29.977 22 29.884v-9.768a.448.448 0 0 1 .02-.108l8.936 4.873c.029.015.044.071.044.119s-.015.1-.043.119z" fill="#000000" opacity="1" data-original="#000000"></path></g></g></g></svg>