<svg xmlns="http://www.w3.org/2000/svg" version="1.1" xmlns:xlink="http://www.w3.org/1999/xlink" width="512" height="512" x="0" y="0" viewBox="0 0 510 510" style="enable-background:new 0 0 512 512" xml:space="preserve"><g><path d="M10 10h402v390H10z" style="" fill="#FFFFFF" data-original="#ffffff"></path><path d="M10 10h402v390H10z" style="" fill="#FFFFFF" data-original="#ffffff"></path><path d="M10 10h402v88H167.979l-22.473-15.833L10 98z" style="" fill="#BC9AF4" data-original="#bc9af4"></path><path d="M159.031 174.498c0-59.916 16.001-116.091 43.955-164.498H10v390h238.338c-55.373-58.938-89.307-138.252-89.307-225.502z" style="" fill="#D2DCFD" data-original="#d2dcfd"></path><path d="M202.986 10H10v88h157.979a327.333 327.333 0 0 1 35.007-88z" style="" fill="#6864F7" data-original="#6864f7"></path><path d="M54 146h314v84.572H54z" style="" fill="#FD8F01" data-original="#fd8f01"></path><path d="M384.238 500h.077C451.678 486.087 500 426.765 500 357.98v-89.677l-115.685-43.645h-.077.077-.077l-115.685 43.645v89.677c0 68.785 48.322 128.107 115.685 142.02z" style="" fill="#FDBEB9" data-original="#fdbeb9"></path><path d="M333.085 326.025c0-33.262 8.905-64.442 24.454-91.295l-88.987 33.573v89.677c0 68.785 48.322 128.107 115.685 142.02h.076a144.854 144.854 0 0 0 41.162-15.27c-55.173-31.379-92.39-90.693-92.39-158.705z" style="" fill="#FD7DA0" data-original="#fd7da0"></path><circle cx="384.208" cy="362.329" r="71.655" style="" fill="#FFFFFF" data-original="#ffffff"></circle><path d="M272.208 400H10V10h402v224.772" style="stroke-linejoin: round; stroke-miterlimit: 10;" fill="none" stroke="#052A75" stroke-width="20px" stroke-linejoin="round" stroke-miterlimit="10" data-original="#052a75"></path><path d="M59.052 54h0M103.052 54h0M147.052 54h0M362.948 54H213.227" style="stroke-linecap: round; stroke-linejoin: round; stroke-miterlimit: 10;" fill="none" stroke="#FFFFFF" stroke-width="20px" stroke-linecap="round" stroke-linejoin="round" stroke-miterlimit="10" data-original="#ffffff"></path><path d="M384.238 500h.077C451.678 486.087 500 426.765 500 357.98v-89.677l-115.685-43.645h-.077.077-.077l-115.685 43.645v89.677c0 68.785 48.322 128.107 115.685 142.02h0z" style="stroke-linecap: round; stroke-linejoin: round; stroke-miterlimit: 10;" fill="none" stroke="#052A75" stroke-width="20px" stroke-linecap="round" stroke-linejoin="round" stroke-miterlimit="10" data-original="#052a75"></path><path d="M401.553 340.526c-10.906-8.632-26.788-7.918-36.862 2.156-10.851 10.85-10.851 28.442 0 39.293 10.074 10.074 25.956 10.789 36.862 2.156M54 279h148.793M54 327h112.088" style="stroke-linecap: round; stroke-linejoin: round; stroke-miterlimit: 10;" fill="none" stroke="#052A75" stroke-width="20px" stroke-linecap="round" stroke-linejoin="round" stroke-miterlimit="10" data-original="#052a75"></path></g></svg>